<svg width="792" height="976" viewBox="0 0 792 976" fill="none" xmlns="http://www.w3.org/2000/svg">
<path d="M399.483 540.835L399.242 544.962L253.815 492.195L254.055 488.073L399.483 540.835Z" fill="#181A1A"/>
<path d="M538.528 540.835L538.288 544.962L392.861 492.195L393.101 488.073L538.528 540.835Z" fill="#181A1A"/>
<path d="M399.483 450.809L399.242 455.253L253.815 398.428L254.055 393.989L399.483 450.809Z" fill="#181A1A"/>
<path d="M399.483 348.29L399.242 352.417L253.815 299.65L254.055 295.528L399.483 348.29Z" fill="#181A1A"/>
<path d="M538.528 450.809L538.288 455.253L392.861 398.428L393.101 393.989L538.528 450.809Z" fill="#181A1A"/>
<path d="M538.528 348.29L538.288 352.417L392.861 299.65L393.101 295.528L538.528 348.29Z" fill="#181A1A"/>
<path d="M253.815 540.835L254.055 544.962L399.483 492.195L399.242 488.073L253.815 540.835Z" fill="#181A1A"/>
<path d="M392.861 540.835L393.101 544.962L538.528 492.195L538.288 488.073L392.861 540.835Z" fill="#181A1A"/>
<path d="M253.815 450.809L254.055 455.253L399.483 398.428L399.242 393.989L253.815 450.809Z" fill="#181A1A"/>
<path d="M253.815 348.29L254.055 352.417L399.483 299.65L399.242 295.528L253.815 348.29Z" fill="#181A1A"/>
<path d="M392.861 450.809L393.101 455.253L538.528 398.428L538.288 393.989L392.861 450.809Z" fill="#181A1A"/>
<path d="M392.861 348.29L393.101 352.417L538.528 299.65L538.288 295.528L392.861 348.29Z" fill="#181A1A"/>
<path d="M399.483 827.465L399.242 831.591L253.815 778.825L254.055 774.703L399.483 827.465Z" fill="#181A1A"/>
<path d="M538.528 827.465L538.288 831.591L392.861 778.825L393.101 774.703L538.528 827.465Z" fill="#181A1A"/>
<path d="M399.483 737.439L399.242 741.882L253.815 685.057L254.055 680.618L399.483 737.439Z" fill="#181A1A"/>
<path d="M399.483 634.92L399.242 639.046L253.815 586.28L254.055 582.158L399.483 634.92Z" fill="#181A1A"/>
<path d="M538.528 737.439L538.288 741.882L392.861 685.057L393.101 680.618L538.528 737.439Z" fill="#181A1A"/>
<path d="M538.528 634.92L538.288 639.046L392.861 586.28L393.101 582.158L538.528 634.92Z" fill="#181A1A"/>
<path d="M253.815 827.465L254.055 831.591L399.483 778.825L399.242 774.703L253.815 827.465Z" fill="#181A1A"/>
<path d="M392.861 827.465L393.101 831.591L538.528 778.825L538.288 774.703L392.861 827.465Z" fill="#181A1A"/>
<path d="M253.815 737.439L254.055 741.882L399.483 685.057L399.242 680.618L253.815 737.439Z" fill="#181A1A"/>
<path d="M253.815 634.92L254.055 639.046L399.483 586.28L399.242 582.158L253.815 634.92Z" fill="#181A1A"/>
<path d="M392.861 737.439L393.101 741.882L538.528 685.057L538.288 680.618L392.861 737.439Z" fill="#181A1A"/>
<path d="M392.861 634.92L393.101 639.046L538.528 586.28L538.288 582.158L392.861 634.92Z" fill="#181A1A"/>
<path d="M269.265 400.552H242.781V975.999H269.265V400.552Z" fill="url(#paint0_linear_120_1077)"/>
<g opacity="0.35">
<path d="M269.265 400.552H242.781V975.999H269.265V400.552Z" fill="url(#paint1_linear_120_1077)" style="mix-blend-mode:screen"/>
</g>
<g opacity="0.35">
<path d="M269.265 411.492H242.781V975.999H269.265V411.492Z" fill="url(#paint2_linear_120_1077)" style="mix-blend-mode:screen"/>
</g>
<path d="M268.941 410.184H242.585V419.648H268.941V410.184Z" fill="url(#paint3_linear_120_1077)" style="mix-blend-mode:multiply"/>
<path d="M273.518 166.696H238V412.832H273.518V166.696Z" fill="url(#paint4_linear_120_1077)"/>
<g opacity="0.35">
<path d="M273.518 166.696H238V412.832H273.518V166.696Z" fill="url(#paint5_linear_120_1077)" style="mix-blend-mode:screen"/>
</g>
<g opacity="0.35">
<path d="M273.518 166.696H238V412.832H273.518V166.696Z" fill="url(#paint6_linear_120_1077)" style="mix-blend-mode:screen"/>
</g>
<path d="M272.232 414.678H239.291L238 412.786H273.519L272.232 414.678Z" fill="url(#paint7_linear_120_1077)"/>
<path d="M549.567 400.553H523.082V976H549.567V400.553Z" fill="url(#paint8_linear_120_1077)"/>
<g opacity="0.35">
<path d="M549.567 400.553H523.082V976H549.567V400.553Z" fill="url(#paint9_linear_120_1077)" style="mix-blend-mode:screen"/>
</g>
<g opacity="0.35">
<path d="M549.567 402.741H523.082V976H549.567V402.741Z" fill="url(#paint10_linear_120_1077)" style="mix-blend-mode:screen"/>
</g>
<path d="M549.94 410.184H523.584V419.648H549.94V410.184Z" fill="url(#paint11_linear_120_1077)" style="mix-blend-mode:multiply"/>
<path d="M554.518 166.695H519V412.832H554.518V166.695Z" fill="url(#paint12_linear_120_1077)"/>
<g opacity="0.35">
<path d="M554.518 166.695H519V412.832H554.518V166.695Z" fill="url(#paint13_linear_120_1077)" style="mix-blend-mode:screen"/>
</g>
<g opacity="0.35">
<path d="M554.518 166.695H519V412.832H554.518V166.695Z" fill="url(#paint14_linear_120_1077)" style="mix-blend-mode:screen"/>
</g>
<path d="M553.231 414.677H520.29L519 412.786H554.518L553.231 414.677Z" fill="url(#paint15_linear_120_1077)"/>
<path d="M410.518 435.562H384.033V976H410.518V435.562Z" fill="url(#paint16_linear_120_1077)"/>
<g opacity="0.35">
<path d="M410.518 435.562H384.033V976H410.518V435.562Z" fill="url(#paint17_linear_120_1077)" style="mix-blend-mode:screen"/>
</g>
<g opacity="0.35">
<path d="M410.518 448.69H384.033V976H410.518V448.69Z" fill="url(#paint18_linear_120_1077)" style="mix-blend-mode:screen"/>
</g>
<path d="M409.942 445.873H383.587V455.337H409.942V445.873Z" fill="url(#paint19_linear_120_1077)" style="mix-blend-mode:multiply"/>
<path d="M414.52 202.384H379.002V448.521H414.52V202.384Z" fill="url(#paint20_linear_120_1077)"/>
<g opacity="0.35">
<path d="M414.52 202.384H379.002V448.521H414.52V202.384Z" fill="url(#paint21_linear_120_1077)" style="mix-blend-mode:screen"/>
</g>
<g opacity="0.35">
<path d="M414.52 202.384H379.002V448.521H414.52V202.384Z" fill="url(#paint22_linear_120_1077)" style="mix-blend-mode:screen"/>
</g>
<path d="M413.234 450.366H380.293L379.002 448.475H414.52L413.234 450.366Z" fill="url(#paint23_linear_120_1077)"/>
<path d="M45.5841 184.54H758.416C760.407 184.54 762 183.659 762 182.558C762 181.456 760.407 180.575 758.416 180.575H45.5841C43.5929 180.795 42 181.676 42 182.778C42 183.659 43.5929 184.54 45.5841 184.54Z" fill="#271010"/>
<path d="M45.5841 111.18H758.416C760.407 111.18 762 110.298 762 109.197C762 108.095 760.407 107.214 758.416 107.214H45.5841C43.5929 107.435 42 108.316 42 109.417C42 110.298 43.5929 111.18 45.5841 111.18Z" fill="#271010"/>
<path d="M45.5841 34.8448H758.416C760.407 34.8448 762 33.9636 762 32.8621C762 31.7606 760.407 30.8794 758.416 30.8794H45.5841C43.5929 31.0997 42 31.9809 42 33.0824C42 33.9636 43.5929 34.8448 45.5841 34.8448Z" fill="#271010"/>
<path d="M758.416 238.073H45.5841C43.5929 238.073 42 238.955 42 240.056C42 241.158 43.5929 242.039 45.5841 242.039H758.416C760.407 242.039 762 241.158 762 240.056C762 238.955 760.407 238.073 758.416 238.073Z" fill="#271010"/>
<path d="M758.416 164.713H45.5841C43.5929 164.713 42 165.594 42 166.695C42 167.797 43.5929 168.678 45.5841 168.678H758.416C760.407 168.678 762 167.797 762 166.695C762 165.594 760.407 164.713 758.416 164.713Z" fill="#271010"/>
<path d="M758.416 88.3785H45.5841C43.5929 88.3785 42 89.2597 42 90.3613C42 91.4628 43.5929 92.344 45.5841 92.344H758.416C760.407 92.344 762 91.4628 762 90.3613C762 89.2597 760.407 88.3785 758.416 88.3785Z" fill="#271010"/>
<path d="M758.416 199.41H45.5841C43.5929 199.41 42 200.11 42 201.276C42 202.443 43.5929 203.376 45.5841 203.376H758.416C760.407 203.376 762 202.443 762 201.276C762 200.11 760.407 199.41 758.416 199.41Z" fill="#271010"/>
<path d="M758.416 126.05H45.5841C43.5929 126.05 42 126.749 42 127.916C42 129.082 43.5929 130.015 45.5841 130.015H758.416C760.407 130.015 762 129.082 762 127.916C762 126.749 760.407 126.05 758.416 126.05Z" fill="#271010"/>
<path d="M758.416 49.7151H45.5841C43.5929 49.7151 42 50.4149 42 51.5812C42 52.7475 43.5929 53.6805 45.5841 53.6805H758.416C760.407 53.6805 762 52.7475 762 51.5812C762 50.4149 760.407 49.7151 758.416 49.7151Z" fill="#271010"/>
<path d="M758.416 220.229H45.5841C43.5929 220.229 42 221.11 42 222.212C42 223.313 43.5929 224.194 45.5841 224.194H758.416C760.407 224.194 762 223.313 762 222.212C762 221.11 760.407 220.229 758.416 220.229Z" fill="#271010"/>
<path d="M758.416 146.869H45.5841C43.5929 146.869 42 147.75 42 148.851C42 149.953 43.5929 150.834 45.5841 150.834H758.416C760.407 150.834 762 149.953 762 148.851C762 147.75 760.407 146.869 758.416 146.869Z" fill="#271010"/>
<path d="M758.416 70.5337H45.5841C43.5929 70.5337 42 71.4149 42 72.5164C42 73.6179 43.5929 74.4991 45.5841 74.4991H758.416C760.407 74.4991 762 73.6179 762 72.5164C762 71.4149 760.407 70.5337 758.416 70.5337Z" fill="#271010"/>
<g filter="url(#filter0_i_120_1077)">
<path d="M707.541 17H102.587C96.1463 17 91.0835 22.5088 91.6261 28.9266L106.304 202.546C106.637 206.483 109.055 209.939 112.639 211.6L398.234 343.969C401.191 345.339 404.603 345.328 407.551 343.938L688.482 211.458C691.848 209.871 694.184 206.688 694.689 203.001L718.439 29.4918C719.343 22.8853 714.209 17 707.541 17Z" fill="url(#paint24_radial_120_1077)"/>
</g>
<path d="M268.939 403.682H242.584V586H268.939V403.682Z" fill="url(#paint25_linear_120_1077)"/>
<g opacity="0.35">
<path d="M268.939 403.682H242.584V586H268.939V403.682Z" fill="url(#paint26_linear_120_1077)" style="mix-blend-mode:screen"/>
</g>
<g opacity="0.35">
<path d="M269 414H243V586H269V414Z" fill="url(#paint27_linear_120_1077)" style="mix-blend-mode:screen"/>
</g>
<path d="M268.939 413.611H242.584V423.157H268.939V413.611Z" fill="url(#paint28_linear_120_1077)" style="mix-blend-mode:multiply"/>
<path d="M273.518 168H238V416.282H273.518V168Z" fill="url(#paint29_linear_120_1077)"/>
<g opacity="0.35">
<path d="M273.518 168H238V416.282H273.518V168Z" fill="url(#paint30_linear_120_1077)" style="mix-blend-mode:screen"/>
</g>
<g opacity="0.35">
<path d="M273.518 168H238V416.282H273.518V168Z" fill="url(#paint31_linear_120_1077)" style="mix-blend-mode:screen"/>
</g>
<path d="M272.232 418.143H239.291L238 416.235H273.518L272.232 418.143Z" fill="url(#paint32_linear_120_1077)"/>
<path d="M549.939 403.682H523.584V586H549.939V403.682Z" fill="url(#paint33_linear_120_1077)"/>
<g opacity="0.35">
<path d="M549.939 403.682H523.584V586H549.939V403.682Z" fill="url(#paint34_linear_120_1077)" style="mix-blend-mode:screen"/>
</g>
<g opacity="0.35">
<path d="M550 414H524V586H550V414Z" fill="url(#paint35_linear_120_1077)" style="mix-blend-mode:screen"/>
</g>
<path d="M549.939 413.611H523.584V423.157H549.939V413.611Z" fill="url(#paint36_linear_120_1077)" style="mix-blend-mode:multiply"/>
<path d="M554.518 168H519V416.282H554.518V168Z" fill="url(#paint37_linear_120_1077)"/>
<g opacity="0.35">
<path d="M554.518 168H519V416.282H554.518V168Z" fill="url(#paint38_linear_120_1077)" style="mix-blend-mode:screen"/>
</g>
<g opacity="0.35">
<path d="M554.518 168H519V416.282H554.518V168Z" fill="url(#paint39_linear_120_1077)" style="mix-blend-mode:screen"/>
</g>
<path d="M553.232 418.143H520.291L519 416.235H554.518L553.232 418.143Z" fill="url(#paint40_linear_120_1077)"/>
<path d="M409.939 439.682H383.584V622H409.939V439.682Z" fill="url(#paint41_linear_120_1077)"/>
<g opacity="0.35">
<path d="M409.939 439.682H383.584V622H409.939V439.682Z" fill="url(#paint42_linear_120_1077)" style="mix-blend-mode:screen"/>
</g>
<g opacity="0.35">
<path d="M410 450H384V622H410V450Z" fill="url(#paint43_linear_120_1077)" style="mix-blend-mode:screen"/>
</g>
<path d="M409.939 449.611H383.584V459.157H409.939V449.611Z" fill="url(#paint44_linear_120_1077)" style="mix-blend-mode:multiply"/>
<path d="M414.518 204H379V452.282H414.518V204Z" fill="url(#paint45_linear_120_1077)"/>
<g opacity="0.35">
<path d="M414.518 204H379V452.282H414.518V204Z" fill="url(#paint46_linear_120_1077)" style="mix-blend-mode:screen"/>
</g>
<g opacity="0.35">
<path d="M414.518 204H379V452.282H414.518V204Z" fill="url(#paint47_linear_120_1077)" style="mix-blend-mode:screen"/>
</g>
<path d="M413.232 454.143H380.291L379 452.235H414.518L413.232 454.143Z" fill="url(#paint48_linear_120_1077)"/>
<path d="M45.5841 186H758.416C760.407 186 762 185.111 762 184C762 182.889 760.407 182 758.416 182H45.5841C43.5929 182.222 42 183.111 42 184.222C42 185.111 43.5929 186 45.5841 186Z" fill="#271010"/>
<path d="M45.5841 112H758.416C760.407 112 762 111.111 762 110C762 108.889 760.407 108 758.416 108H45.5841C43.5929 108.222 42 109.111 42 110.222C42 111.111 43.5929 112 45.5841 112Z" fill="#271010"/>
<path d="M45.5841 35H758.416C760.407 35 762 34.1111 762 33C762 31.8889 760.407 31 758.416 31H45.5841C43.5929 31.2222 42 32.1111 42 33.2222C42 34.1111 43.5929 35 45.5841 35Z" fill="#271010"/>
<path d="M758.416 240H45.5841C43.5929 240 42 240.889 42 242C42 243.111 43.5929 244 45.5841 244H758.416C760.407 244 762 243.111 762 242C762 240.889 760.407 240 758.416 240Z" fill="#271010"/>
<path d="M758.416 166H45.5841C43.5929 166 42 166.889 42 168C42 169.111 43.5929 170 45.5841 170H758.416C760.407 170 762 169.111 762 168C762 166.889 760.407 166 758.416 166Z" fill="#271010"/>
<path d="M758.416 89H45.5841C43.5929 89 42 89.8889 42 91C42 92.1111 43.5929 93 45.5841 93H758.416C760.407 93 762 92.1111 762 91C762 89.8889 760.407 89 758.416 89Z" fill="#271010"/>
<path d="M758.416 201H45.5841C43.5929 201 42 201.706 42 202.882C42 204.059 43.5929 205 45.5841 205H758.416C760.407 205 762 204.059 762 202.882C762 201.706 760.407 201 758.416 201Z" fill="#271010"/>
<path d="M758.416 127H45.5841C43.5929 127 42 127.706 42 128.882C42 130.059 43.5929 131 45.5841 131H758.416C760.407 131 762 130.059 762 128.882C762 127.706 760.407 127 758.416 127Z" fill="#271010"/>
<path d="M758.416 50H45.5841C43.5929 50 42 50.7059 42 51.8824C42 53.0588 43.5929 54 45.5841 54H758.416C760.407 54 762 53.0588 762 51.8824C762 50.7059 760.407 50 758.416 50Z" fill="#271010"/>
<path d="M758.416 222H45.5841C43.5929 222 42 222.889 42 224C42 225.111 43.5929 226 45.5841 226H758.416C760.407 226 762 225.111 762 224C762 222.889 760.407 222 758.416 222Z" fill="#271010"/>
<path d="M758.416 148H45.5841C43.5929 148 42 148.889 42 150C42 151.111 43.5929 152 45.5841 152H758.416C760.407 152 762 151.111 762 150C762 148.889 760.407 148 758.416 148Z" fill="#271010"/>
<path d="M758.416 71H45.5841C43.5929 71 42 71.8889 42 73C42 74.1111 43.5929 75 45.5841 75H758.416C760.407 75 762 74.1111 762 73C762 71.8889 760.407 71 758.416 71Z" fill="#271010"/>
<g filter="url(#filter1_i_120_1077)">
<path d="M710.214 17H99.9689C93.5283 17 88.4656 22.5087 89.0079 28.9263L103.823 204.22C104.155 208.156 106.573 211.611 110.157 213.273L398.239 346.836C401.197 348.207 404.61 348.196 407.559 346.805L690.934 213.131C694.3 211.543 696.635 208.361 697.14 204.674L721.112 29.4914C722.016 22.885 716.881 17 710.214 17Z" fill="url(#paint49_radial_120_1077)"/>
</g>
<path d="M391.452 416.379L378.438 413.537C377.645 413.422 376.994 413.918 376.779 414.596C376.661 415.407 377.143 416.069 377.807 416.284L390.82 419.126L390.933 419.142C391.614 419.241 392.378 418.761 392.479 418.066C392.694 417.388 392.228 416.611 391.452 416.379Z" fill="#2C2324"/>
<path d="M274.589 363.515L285.377 365.77C286.05 365.868 286.626 366.636 286.304 367.273C286.095 367.926 285.452 368.402 284.666 368.288L273.878 366.032C269.197 365.122 265.241 362.381 262.619 358.353C259.981 354.436 259.076 349.632 260.095 344.994L271.376 303.978L273.878 304.343L262.868 345.626C262.059 349.611 262.741 353.584 264.995 356.989C267.25 360.395 270.581 362.703 274.589 363.515Z" fill="#2C2324"/>
<path d="M233.196 339.253L245.934 291.843L248.428 292.294L235.953 339.996C234.804 345.526 234.664 351.203 235.792 356.837C236.84 362.232 238.963 367.327 241.953 371.979C244.942 376.631 248.736 380.488 253.316 383.662C257.992 386.964 263.168 389.2 268.843 390.368L279.519 392.607C280.176 392.817 280.656 393.456 280.542 394.238C280.445 394.907 279.69 395.367 279.017 395.269L278.905 395.252L268.228 393.013C262.233 391.684 256.625 389.272 251.628 385.809C246.727 382.474 242.646 378.233 239.464 373.326C236.283 368.418 234.096 362.972 232.985 357.226C231.906 351.257 231.982 345.229 233.196 339.253Z" fill="#2C2324"/>
<path d="M443.46 412.978L413.071 385.3C412.658 385.01 412.228 384.833 411.748 384.992C411.269 385.152 410.981 385.568 410.804 386L409.491 391.879L384.497 386.635C383.715 386.521 383.076 387 382.866 387.657C382.752 388.442 383.228 389.084 383.881 389.294L410.199 394.846L410.311 394.862C411.092 394.976 411.843 394.513 411.941 393.84L412.995 388.954L439.853 413.483L405.295 424.598L407.451 414.489C407.566 413.704 407.089 413.062 406.436 412.853C405.655 412.739 405.015 413.218 404.805 413.875L402.083 426.306C402.017 426.755 402.175 427.236 402.461 427.621C402.668 427.766 402.875 427.911 403.209 427.959C403.433 427.992 403.656 428.025 403.784 427.929L442.894 415.3C443.373 415.141 443.662 414.725 443.839 414.293C444.015 413.86 443.858 413.379 443.46 412.978Z" fill="#2C2324"/>
<path fill-rule="evenodd" clip-rule="evenodd" d="M294.885 363.685L286.871 404.002L369.628 420.451L377.642 380.134L294.885 363.685ZM292.763 363.252C292.995 362.081 294.125 361.326 295.296 361.559L378.074 378.012C379.245 378.245 380.001 379.375 379.768 380.546L371.75 420.884C371.517 422.055 370.387 422.81 369.216 422.577L286.438 406.124C285.267 405.891 284.512 404.761 284.745 403.59L292.763 363.252Z" fill="#2C2324"/>
<path fill-rule="evenodd" clip-rule="evenodd" d="M323.328 368.444L314.892 410.885L312.768 410.463L321.204 368.022L323.328 368.444Z" fill="#2C2324"/>
<path fill-rule="evenodd" clip-rule="evenodd" d="M351.643 374.073L343.207 416.513L341.083 416.091L349.519 373.65L351.643 374.073Z" fill="#2C2324"/>
<path fill-rule="evenodd" clip-rule="evenodd" d="M298.353 372.199L301.211 373.568L301.215 373.57C301.851 373.881 302.581 374.135 303.386 374.329L316.929 377.021L316.074 381.32L315.587 381.898L315.582 381.902C313.634 384.155 312.128 386.083 311.107 387.629C310.087 389.182 309.244 390.691 308.6 392.119C307.961 393.535 307.379 395.274 306.854 397.314C306.557 398.472 306.333 399.259 306.166 399.817L305.882 400.759L296.729 398.939L296.972 397.718C297.165 396.748 297.535 395.694 298.083 394.495C298.634 393.284 299.601 391.683 300.995 389.632C302.784 386.985 304.33 384.847 305.598 383.318L305.599 383.316L305.617 383.295L302.158 382.608C301.981 382.954 301.739 383.463 301.423 384.203L301.077 385.01L294.224 383.647L298.353 372.199ZM304.569 376.772L304.567 376.783L303.505 376.571C302.339 376.34 301.242 375.993 300.268 375.517L299.577 375.187L297.115 382.014L299.787 382.545C300.264 381.497 300.545 381.031 300.679 380.817L301.076 380.185L309.621 381.883L307.265 384.701C307.264 384.701 307.264 384.702 307.263 384.702C306.063 386.149 304.565 388.218 302.789 390.845L302.788 390.847L302.787 390.848C301.406 392.88 300.525 394.356 300.055 395.392L300.054 395.393L300.054 395.394C299.734 396.093 299.496 396.704 299.327 397.248L304.364 398.249C304.477 397.844 304.607 397.36 304.756 396.776L304.757 396.775C305.302 394.656 305.921 392.792 306.625 391.229C307.324 389.679 308.227 388.069 309.297 386.439L309.298 386.437L309.299 386.436C310.392 384.782 311.963 382.776 313.94 380.491L314.059 380.35L314.382 378.723L304.569 376.772Z" fill="#2C2324"/>
<path fill-rule="evenodd" clip-rule="evenodd" d="M326.212 377.737L329.069 379.105L329.073 379.107C329.709 379.418 330.439 379.673 331.244 379.866L344.777 382.556L343.922 386.855L343.434 387.433L343.43 387.438C341.482 389.69 339.976 391.619 338.954 393.164C337.935 394.717 337.092 396.227 336.448 397.655C335.809 399.071 335.227 400.81 334.702 402.85C334.405 404.007 334.181 404.795 334.014 405.352L333.73 406.294L324.577 404.475L324.82 403.254C325.012 402.284 325.383 401.23 325.931 400.031C326.482 398.819 327.449 397.219 328.843 395.167C330.632 392.521 332.178 390.382 333.446 388.854L333.447 388.852L333.465 388.831L330.006 388.143C329.829 388.49 329.587 388.999 329.271 389.738L328.925 390.545L322.07 389.183L326.212 377.737ZM332.427 382.31L332.425 382.32L331.363 382.109C330.198 381.878 329.1 381.531 328.126 381.055L327.435 380.724L324.964 387.55L327.635 388.081C328.112 387.033 328.393 386.566 328.527 386.353L328.924 385.72L337.469 387.419L335.113 390.236C335.112 390.237 335.112 390.237 335.111 390.238C333.911 391.685 332.413 393.754 330.637 396.381L330.636 396.382L330.635 396.383C329.254 398.415 328.373 399.891 327.903 400.928L327.902 400.929L327.901 400.93C327.582 401.628 327.344 402.239 327.174 402.783L332.212 403.785C332.324 403.38 332.455 402.895 332.604 402.311L332.605 402.311C333.149 400.192 333.769 398.328 334.473 396.765C335.172 395.215 336.074 393.605 337.145 391.974L337.146 391.973L337.147 391.972C338.24 390.318 339.811 388.312 341.788 386.026L341.907 385.885L342.23 384.258L332.427 382.31Z" fill="#2C2324"/>
<path fill-rule="evenodd" clip-rule="evenodd" d="M354.625 383.385L357.482 384.753L357.486 384.754C358.122 385.065 358.852 385.32 359.657 385.514L373.189 388.203L372.335 392.503L371.847 393.08L371.843 393.085C369.895 395.338 368.389 397.266 367.367 398.812C366.348 400.364 365.504 401.874 364.86 403.302C364.222 404.718 363.639 406.457 363.115 408.497C362.818 409.655 362.594 410.442 362.426 411L362.143 411.942L352.989 410.122L353.232 408.901C353.425 407.931 353.796 406.877 354.344 405.678C354.894 404.467 355.861 402.866 357.256 400.814C359.045 398.168 360.59 396.03 361.858 394.501L361.86 394.499L361.877 394.478L358.418 393.791C358.242 394.137 358 394.646 357.683 395.386L357.338 396.192L350.483 394.83L354.625 383.385ZM360.84 387.957L360.838 387.967L359.776 387.756C358.61 387.525 357.513 387.178 356.539 386.702L355.847 386.371L353.377 393.197L356.047 393.728C356.525 392.68 356.806 392.214 356.94 392L357.336 391.368L365.881 393.066L363.525 395.883C363.525 395.884 363.524 395.884 363.524 395.885C362.324 397.332 360.825 399.401 359.049 402.028L359.049 402.029L359.048 402.031C357.667 404.063 356.786 405.539 356.315 406.575L356.315 406.576L356.314 406.577C355.995 407.276 355.757 407.886 355.587 408.43L360.625 409.432C360.737 409.027 360.867 408.543 361.017 407.959L361.017 407.958C361.562 405.839 362.181 403.975 362.886 402.412C363.585 400.862 364.487 399.252 365.557 397.622L365.558 397.62L365.559 397.619C366.652 395.965 368.224 393.959 370.2 391.673L370.319 391.533L370.643 389.905L360.84 387.957Z" fill="#2C2324"/>
<path fill-rule="evenodd" clip-rule="evenodd" d="M536.764 460.814C520.33 460.814 507.008 474.135 507.008 490.569C507.008 507.002 520.33 520.324 536.764 520.324C553.197 520.324 566.519 507.002 566.519 490.569C566.519 474.135 553.197 460.814 536.764 460.814ZM505.332 490.569C505.332 473.21 519.404 459.137 536.764 459.137C554.123 459.137 568.195 473.21 568.195 490.569C568.195 507.928 554.123 522 536.764 522C519.404 522 505.332 507.928 505.332 490.569Z" fill="#2C2324"/>
<path fill-rule="evenodd" clip-rule="evenodd" d="M535.977 468L536.408 468.539C536.453 468.595 536.485 468.635 536.506 468.662C536.516 468.675 536.524 468.685 536.529 468.692C536.53 468.693 536.531 468.695 536.532 468.696C537.019 469.298 538.179 470.729 539.815 472.609C540.83 473.774 542.513 475.443 544.5 477.412C544.634 477.544 544.769 477.678 544.905 477.813C547.058 479.948 549.51 482.391 551.779 484.866C556.438 489.947 556.825 495.069 555.944 499.295L555.944 499.296C555.024 503.684 550.465 507.693 543.489 506.82L543.489 506.82C541.919 506.623 540.641 506.037 539.605 505.248C540.044 507.439 540.934 510.155 542.741 512.174L543.555 513.084H527.949L528.923 512.146L528.923 512.145L528.923 512.145C528.924 512.145 528.925 512.143 528.927 512.141C528.932 512.137 528.939 512.13 528.948 512.12C528.968 512.1 528.998 512.069 529.038 512.026C529.118 511.94 529.235 511.808 529.38 511.631C529.67 511.277 530.068 510.742 530.491 510.03C531.169 508.886 531.91 507.286 532.365 505.245C531.329 506.036 530.05 506.625 528.475 506.82C521.493 507.693 516.94 503.684 516.02 499.296C515.134 495.068 515.527 489.946 520.184 484.866C522.454 482.389 524.906 479.945 527.059 477.811C527.203 477.669 527.345 477.528 527.485 477.389C529.463 475.429 531.138 473.77 532.149 472.609L532.149 472.608L532.149 472.608C533.796 470.722 534.959 469.287 535.436 468.691L535.436 468.691L535.436 468.691L535.436 468.691L535.439 468.687C535.442 468.683 535.448 468.676 535.456 468.665C535.474 468.643 535.503 468.606 535.552 468.543L535.977 468ZM535.983 469.752C535.392 470.482 534.35 471.748 532.971 473.326C531.933 474.519 530.23 476.206 528.271 478.147C528.124 478.292 527.977 478.438 527.828 478.586C525.674 480.721 523.239 483.148 520.989 485.604L520.989 485.604C516.61 490.38 516.261 495.125 517.088 499.072C517.882 502.859 521.874 506.545 528.34 505.737L528.34 505.737C530.299 505.494 531.723 504.557 532.775 503.378L533.952 502.058L533.724 503.811C533.336 506.789 532.336 509.058 531.429 510.587C531.09 511.16 530.763 511.628 530.486 511.992H541.196C539.26 509.315 538.544 505.964 538.268 503.844L538.041 502.11L539.214 503.408C540.266 504.572 541.685 505.494 543.624 505.737C550.084 506.545 554.082 502.859 554.876 499.073C555.698 495.124 555.354 490.379 550.975 485.604C548.725 483.151 546.29 480.724 544.136 478.588C543.994 478.447 543.853 478.307 543.714 478.169C541.745 476.219 540.035 474.523 538.992 473.325C537.618 471.746 536.576 470.481 535.983 469.752Z" fill="#2C2324"/>
<path fill-rule="evenodd" clip-rule="evenodd" d="M530.136 480.918C531.328 479.737 532.414 478.66 533.303 477.744L534.087 478.504C533.167 479.452 532.066 480.542 530.867 481.731C528.814 483.764 526.471 486.085 524.244 488.477C524.141 488.588 524.039 488.698 523.938 488.808L523.936 488.809C523.834 488.92 523.732 489.03 523.628 489.142L522.827 488.4C522.931 488.289 523.033 488.179 523.134 488.069L523.136 488.068C523.238 487.957 523.34 487.847 523.444 487.735L523.444 487.734L523.445 487.734C525.679 485.333 528.067 482.967 530.136 480.918Z" fill="#2C2324"/>
<path fill-rule="evenodd" clip-rule="evenodd" d="M536.764 391.245C520.33 391.245 507.008 404.567 507.008 421C507.008 437.433 520.33 450.755 536.764 450.755C553.197 450.755 566.519 437.433 566.519 421C566.519 404.567 553.197 391.245 536.764 391.245ZM505.332 421C505.332 403.641 519.404 389.568 536.764 389.568C554.123 389.568 568.195 403.641 568.195 421C568.195 438.359 554.123 452.431 536.764 452.431C519.404 452.431 505.332 438.359 505.332 421Z" fill="#2C2324"/>
<path fill-rule="evenodd" clip-rule="evenodd" d="M527.772 398.423L527.547 399.103C527.772 398.423 527.773 398.424 527.773 398.424L527.774 398.424L527.777 398.425C527.779 398.426 527.781 398.426 527.784 398.427C527.789 398.429 527.796 398.432 527.804 398.435C527.82 398.44 527.842 398.448 527.869 398.459C527.923 398.48 527.997 398.51 528.091 398.552C528.278 398.635 528.541 398.763 528.862 398.949C529.506 399.32 530.385 399.921 531.368 400.854C533.296 402.683 535.603 405.771 537.326 410.859C539.694 411.736 542.386 412.99 545.162 414.804L545.162 414.804C552.889 419.856 557.087 426.51 559.144 430.487L559.673 431.51L558.53 431.535L558.53 431.535L558.53 431.535L558.529 431.535L558.523 431.536C558.518 431.536 558.508 431.536 558.496 431.536C558.47 431.537 558.431 431.539 558.378 431.542C558.274 431.547 558.117 431.557 557.915 431.574C557.511 431.609 556.929 431.673 556.226 431.792C554.816 432.03 552.934 432.485 551.027 433.347C547.231 435.063 543.371 438.365 542.86 444.838L541.442 444.725C542.006 437.579 546.328 433.9 550.444 432.039C552.494 431.113 554.5 430.63 555.991 430.378C556.52 430.289 556.987 430.228 557.369 430.187C555.224 426.287 551.243 420.489 544.388 416.007C541.589 414.178 538.88 412.939 536.522 412.089L536.195 411.971L536.086 411.639C534.422 406.569 532.181 403.595 530.392 401.897C529.742 401.28 529.15 400.83 528.662 400.507L531.642 411.572C531.642 411.573 531.642 411.574 531.642 411.574C531.866 412.386 531.816 413.25 531.509 414.03L531.509 414.03C531.161 414.914 530.506 415.638 529.668 416.067L527.547 417.156C527.547 417.156 527.546 417.156 527.546 417.156C526.944 417.467 526.462 417.976 526.187 418.594L524.746 421.833L523.82 422.48C521.585 424.04 519.377 425.647 517.176 427.269L517.176 427.269C516.861 427.501 516.571 427.709 516.321 427.888C516.179 427.99 516.049 428.083 515.936 428.165C515.73 428.315 515.575 428.432 515.461 428.526L516.893 429.441L516.905 429.45C517.32 429.739 518.688 430.583 520.25 430.234L520.252 430.233L520.255 430.233C520.619 430.154 520.933 430.018 521.205 429.868C521.845 429.496 522.487 429.124 523.13 428.751L523.131 428.75L523.136 428.747C523.779 428.374 524.422 428 525.064 427.629L525.109 427.602L525.158 427.583C526.057 427.226 527.038 427.186 527.959 427.452C528.437 427.589 528.992 427.702 529.509 427.7C530.033 427.698 530.434 427.58 530.701 427.347L531.266 426.854L533.535 429.773C533.535 429.773 533.536 429.774 533.536 429.774C534.239 430.672 534.198 431.917 533.492 432.782L533.491 432.783L533.491 432.783C532.82 433.602 532.107 434.634 531.498 435.883L531.498 435.883L531.497 435.884C529.762 439.43 529.804 442.762 529.941 444.43L528.523 444.548C528.375 442.752 528.325 439.124 530.221 435.25C530.887 433.884 531.665 432.76 532.394 431.871C532.688 431.509 532.693 431.012 532.418 430.661L532.417 430.66L531 428.837C530.517 429.059 529.994 429.132 529.514 429.134C528.809 429.136 528.109 428.986 527.568 428.83L527.568 428.83L527.567 428.83C526.957 428.654 526.315 428.676 525.725 428.899C525.098 429.262 524.47 429.627 523.841 429.992L523.84 429.992C523.196 430.366 522.552 430.741 521.909 431.113L521.904 431.116L521.899 431.119C521.534 431.322 521.088 431.518 520.556 431.634C518.393 432.116 516.598 430.977 516.107 430.637L514.435 429.568L514.405 429.543C514.208 429.384 513.892 429.093 513.856 428.643C513.82 428.178 514.104 427.843 514.288 427.66C514.493 427.455 514.781 427.237 515.103 427.003C515.232 426.909 515.368 426.812 515.513 426.708C515.755 426.534 516.025 426.341 516.337 426.111C518.541 424.487 520.76 422.872 523.01 421.302C523.01 421.302 523.01 421.302 523.01 421.302L523.61 420.882L524.889 418.008C524.889 418.008 524.889 418.008 524.889 418.008C525.297 417.089 526.01 416.337 526.899 415.88L526.899 415.879L526.9 415.879L529.023 414.789C529.551 414.519 529.966 414.062 530.187 413.501C530.187 413.501 530.187 413.501 530.187 413.501C530.381 413.008 530.411 412.463 530.271 411.956L530.27 411.954L526.513 398L527.772 398.423ZM515.213 428.35C515.213 428.35 515.215 428.352 515.218 428.356C515.215 428.351 515.213 428.349 515.213 428.35ZM515.236 428.737C515.233 428.742 515.231 428.745 515.23 428.745C515.23 428.745 515.232 428.743 515.236 428.737Z" fill="#2C2324"/>
<path fill-rule="evenodd" clip-rule="evenodd" d="M538.291 417.733C536.334 417.733 534.749 419.171 534.749 420.947C534.749 422.529 536.004 423.842 537.659 424.109L537.388 425.492C535.004 425.108 533.2 423.219 533.2 420.947C533.2 418.396 535.479 416.328 538.291 416.328C541.103 416.328 543.382 418.396 543.382 420.947C543.382 422.146 542.878 423.24 542.053 424.06L540.909 423.114C541.484 422.542 541.834 421.782 541.834 420.947C541.834 419.171 540.248 417.733 538.291 417.733Z" fill="#2C2324"/>
<path fill-rule="evenodd" clip-rule="evenodd" d="M532.758 425.392L535.236 423.529L534.254 422.438L530.971 424.905L531.162 425.377C531.353 425.847 531.185 426.306 530.853 426.732C530.692 426.939 530.51 427.111 530.367 427.232C530.296 427.292 530.236 427.338 530.197 427.367C530.177 427.381 530.162 427.392 530.153 427.398C530.149 427.401 530.146 427.403 530.145 427.403L530.146 427.403L530.147 427.402C530.147 427.402 530.147 427.402 530.6 427.975C531.054 428.547 531.054 428.547 531.054 428.547L531.056 428.546L531.059 428.544C531.061 428.542 531.064 428.541 531.067 428.538C531.073 428.534 531.081 428.529 531.09 428.522C531.11 428.509 531.136 428.49 531.167 428.467C531.23 428.421 531.316 428.354 531.416 428.27C531.613 428.104 531.873 427.86 532.112 427.552C532.509 427.044 532.91 426.279 532.758 425.392Z" fill="#2C2324"/>
<path fill-rule="evenodd" clip-rule="evenodd" d="M534.561 398.676L534.179 399.233C534.561 398.676 534.561 398.676 534.562 398.676L534.562 398.677L534.564 398.678L534.569 398.682C534.573 398.685 534.578 398.689 534.584 398.694C534.596 398.704 534.613 398.719 534.634 398.737C534.677 398.773 534.736 398.826 534.812 398.895C534.962 399.034 535.173 399.239 535.43 399.515C535.942 400.068 536.635 400.905 537.376 402.06C538.86 404.371 540.532 407.945 541.346 413.038L540.079 413.273C539.3 408.394 537.705 405.007 536.32 402.85C535.675 401.845 535.074 401.105 534.62 400.604L534.468 401.594L533.2 401.367L533.716 398L534.561 398.676Z" fill="#2C2324"/>
<path fill-rule="evenodd" clip-rule="evenodd" d="M535.269 437.713L537.042 424.474L538.325 424.69L536.55 437.943L536.549 437.95C536.44 438.661 536.932 439.314 537.58 439.314H539.002C539.64 439.314 540.129 438.678 540.036 437.969C540.036 437.969 540.036 437.968 540.036 437.968L538.75 428.371L540.033 428.156L541.32 437.756L541.32 437.757C541.527 439.335 540.439 440.766 539.002 440.766H537.58C536.134 440.766 535.029 439.311 535.269 437.713Z" fill="#2C2324"/>
<path fill-rule="evenodd" clip-rule="evenodd" d="M537.779 419.657C537.263 419.658 536.851 419.989 536.851 420.401C536.851 420.814 537.265 421.145 537.781 421.145C538.298 421.145 538.712 420.815 538.712 420.401C538.712 419.996 538.301 419.661 537.779 419.657ZM535.236 420.401C535.236 419.274 536.373 418.365 537.781 418.365H537.784L537.787 418.365C539.188 418.372 540.327 419.277 540.327 420.401C540.327 421.528 539.19 422.438 537.781 422.438C536.373 422.438 535.236 421.528 535.236 420.401Z" fill="#2C2324"/>
<path fill-rule="evenodd" clip-rule="evenodd" d="M528.605 420.571L530.145 419.626L529.508 418.365L527.547 419.568L527.09 420.914L528.318 421.419L528.605 420.571Z" fill="#2C2324"/>
<path fill-rule="evenodd" clip-rule="evenodd" d="M536.764 321.676C520.33 321.676 507.008 334.998 507.008 351.432C507.008 367.865 520.33 381.187 536.764 381.187C553.197 381.187 566.519 367.865 566.519 351.432C566.519 334.998 553.197 321.676 536.764 321.676ZM505.332 351.432C505.332 334.072 519.404 320 536.764 320C554.123 320 568.195 334.072 568.195 351.432C568.195 368.791 554.123 382.863 536.764 382.863C519.404 382.863 505.332 368.791 505.332 351.432Z" fill="#2C2324"/>
<path fill-rule="evenodd" clip-rule="evenodd" d="M529.799 330.507C531.618 330.024 534.043 329.734 536.264 330.642C538.486 331.551 540.01 333.457 540.967 335.076C541.45 335.893 541.798 336.653 542.026 337.21C542.14 337.489 542.225 337.717 542.281 337.878C542.309 337.958 542.33 338.021 542.345 338.065C542.352 338.087 542.357 338.104 542.361 338.117C542.363 338.123 542.365 338.127 542.366 338.131L542.367 338.135L542.368 338.137C542.368 338.137 542.368 338.137 541.855 338.294C542.111 338.764 542.111 338.765 542.111 338.765L542.109 338.766L542.105 338.768C542.102 338.769 542.097 338.772 542.092 338.775C542.081 338.781 542.065 338.789 542.044 338.8C542.003 338.821 541.944 338.851 541.867 338.889C541.715 338.964 541.494 339.067 541.217 339.186C540.664 339.423 539.882 339.721 538.966 339.964C537.148 340.448 534.725 340.738 532.503 339.829C530.282 338.921 528.756 337.015 527.798 335.396C527.315 334.58 526.966 333.819 526.737 333.262C526.623 332.984 526.538 332.755 526.482 332.594C526.453 332.514 526.432 332.451 526.418 332.407C526.411 332.385 526.405 332.368 526.401 332.356C526.399 332.35 526.398 332.345 526.397 332.341L526.395 332.337L526.395 332.335C526.395 332.335 526.395 332.335 526.907 332.178C526.652 331.707 526.652 331.707 526.652 331.707L526.654 331.706L526.658 331.704C526.661 331.702 526.665 331.7 526.671 331.697C526.682 331.691 526.698 331.683 526.718 331.672C526.76 331.651 526.819 331.621 526.896 331.583C527.048 331.508 527.269 331.404 527.546 331.286C528.1 331.049 528.882 330.751 529.799 330.507ZM526.907 332.178L526.652 331.707L526.267 331.916L526.395 332.335L526.907 332.178ZM527.569 332.449C527.613 332.565 527.666 332.702 527.729 332.855C527.943 333.376 528.27 334.088 528.72 334.85C529.63 336.386 531.004 338.058 532.909 338.837C534.815 339.617 536.965 339.387 538.691 338.929C539.546 338.701 540.277 338.423 540.795 338.201C540.948 338.135 541.081 338.075 541.193 338.023C541.15 337.907 541.097 337.77 541.034 337.616C540.821 337.095 540.495 336.383 540.044 335.622C539.136 334.085 537.764 332.414 535.858 331.635C533.953 330.855 531.801 331.085 530.074 331.543C529.219 331.771 528.486 332.049 527.968 332.271C527.815 332.337 527.682 332.397 527.569 332.449ZM541.855 338.294L542.111 338.764L542.495 338.556L542.368 338.137L541.855 338.294Z" fill="#2C2324"/>
<path fill-rule="evenodd" clip-rule="evenodd" d="M544.342 351.565C538.443 351.565 533.661 356.347 533.661 362.246C533.661 368.145 538.443 372.928 544.342 372.928C550.241 372.928 555.024 368.145 555.024 362.246C555.024 356.347 550.241 351.565 544.342 351.565ZM532.589 362.246C532.589 355.755 537.851 350.493 544.342 350.493C550.833 350.493 556.096 355.755 556.096 362.246C556.096 368.737 550.833 374 544.342 374C537.851 374 532.589 368.737 532.589 362.246Z" fill="#2C2324"/>
<path fill-rule="evenodd" clip-rule="evenodd" d="M544.342 369.733C548.478 369.733 551.829 366.382 551.829 362.246H552.901C552.901 366.974 549.07 370.805 544.342 370.805C544.187 370.805 544.039 370.799 543.902 370.794L543.898 370.794L543.939 369.723C544.08 369.728 544.209 369.733 544.342 369.733Z" fill="#2C2324"/>
<path fill-rule="evenodd" clip-rule="evenodd" d="M527.405 351.564C521.505 351.564 516.723 356.346 516.723 362.245C516.723 368.145 521.505 372.927 527.405 372.927C530.625 372.927 533.508 371.504 535.469 369.252L536.277 369.956C534.122 372.431 530.949 373.999 527.405 373.999C520.913 373.999 515.651 368.737 515.651 362.245C515.651 355.754 520.913 350.492 527.405 350.492C530.949 350.492 534.122 352.06 536.277 354.535L535.469 355.239C533.508 352.987 530.625 351.564 527.405 351.564Z" fill="#2C2324"/>
<path fill-rule="evenodd" clip-rule="evenodd" d="M527.406 369.449C529.372 369.449 531.152 368.661 532.45 367.388L533.2 368.154C531.711 369.615 529.664 370.521 527.406 370.521C526.703 370.521 526.021 370.435 525.366 370.268L525.63 369.229C526.198 369.374 526.791 369.449 527.406 369.449Z" fill="#2C2324"/>
<path fill-rule="evenodd" clip-rule="evenodd" d="M552.534 339.013C552.534 339.013 552.534 339.013 552.489 339.547C552.443 340.081 552.444 340.081 552.444 340.081L552.442 340.081L552.438 340.081C552.433 340.081 552.426 340.08 552.417 340.079C552.399 340.078 552.37 340.076 552.333 340.073C552.259 340.068 552.148 340.06 552.004 340.052C551.716 340.036 551.298 340.017 550.779 340.007C549.741 339.985 548.305 339.997 546.712 340.128C543.497 340.394 539.753 341.139 537.307 342.987C534.828 344.86 532.544 348.294 530.863 351.321C530.029 352.824 529.353 354.208 528.886 355.216C528.653 355.72 528.472 356.129 528.35 356.412C528.288 356.553 528.242 356.663 528.211 356.736C528.195 356.773 528.184 356.801 528.176 356.82C528.172 356.829 528.169 356.836 528.167 356.841L528.165 356.846L528.165 356.847C528.165 356.847 528.165 356.847 527.669 356.644C527.173 356.442 527.173 356.442 527.173 356.441L527.173 356.441L527.176 356.433C527.178 356.428 527.181 356.42 527.186 356.41C527.194 356.39 527.206 356.36 527.223 356.321C527.255 356.244 527.303 356.131 527.366 355.986C527.491 355.696 527.676 355.278 527.914 354.765C528.388 353.74 529.076 352.332 529.926 350.801C531.615 347.759 533.989 344.15 536.661 342.132C539.365 340.089 543.374 339.328 546.624 339.06C548.263 338.925 549.737 338.913 550.801 338.935C551.334 338.946 551.765 338.965 552.064 338.982C552.213 338.99 552.33 338.998 552.409 339.004C552.449 339.007 552.48 339.009 552.501 339.011C552.511 339.011 552.519 339.012 552.525 339.013L552.531 339.013L552.534 339.013Z" fill="#2C2324"/>
<path fill-rule="evenodd" clip-rule="evenodd" d="M543.369 342.824C542.877 344.388 542.378 346.36 542.303 348.076C542.194 350.585 542.694 352.803 543.224 354.397C543.488 355.192 543.759 355.829 543.963 356.265C544.065 356.483 544.149 356.65 544.208 356.762C544.237 356.817 544.26 356.859 544.275 356.886C544.282 356.9 544.288 356.91 544.291 356.916C544.293 356.919 544.294 356.921 544.295 356.922L544.295 356.923C544.295 356.923 544.295 356.923 543.831 357.191C543.367 357.459 543.367 357.459 543.367 357.459L543.366 357.458L543.364 357.454C543.363 357.452 543.361 357.448 543.358 357.443C543.353 357.434 543.346 357.421 543.337 357.405C543.318 357.371 543.292 357.323 543.259 357.26C543.193 357.135 543.101 356.953 542.992 356.719C542.773 356.251 542.486 355.575 542.207 354.735C541.648 353.055 541.116 350.704 541.232 348.03C541.313 346.172 541.846 344.094 542.347 342.502C542.598 341.702 542.845 341.015 543.029 340.528C543.121 340.284 543.198 340.09 543.252 339.956C543.279 339.889 543.3 339.838 543.314 339.802C543.322 339.784 543.327 339.771 543.331 339.761L543.336 339.751L543.337 339.747C543.337 339.746 543.337 339.746 543.831 339.955C544.325 340.163 544.325 340.163 544.325 340.163L544.324 340.165L544.32 340.174C544.317 340.182 544.312 340.194 544.305 340.211C544.292 340.243 544.272 340.292 544.246 340.356C544.195 340.483 544.121 340.671 544.032 340.907C543.854 341.379 543.614 342.047 543.369 342.824Z" fill="#2C2324"/>
<path fill-rule="evenodd" clip-rule="evenodd" d="M67.1368 24.1241C65.8826 11.1952 76.0444 0 89.034 0H719.46C732.648 0 742.873 11.5232 741.304 24.6175L732.894 94.8021C732.763 95.8988 731.767 96.6813 730.67 96.5499C729.574 96.4185 728.791 95.4229 728.922 94.3261L737.333 24.1416C738.616 13.428 730.251 4 719.46 4H89.034C78.4061 4 70.092 13.1597 71.1181 23.7379L77.9698 94.371C78.0764 95.4704 77.2716 96.4481 76.1722 96.5548C75.0728 96.6614 74.0951 95.8566 73.9885 94.7572L67.1368 24.1241ZM85.7571 213.14C86.23 212.142 87.4226 211.716 88.4208 212.189L394.374 357.136C399.252 359.447 404.909 359.447 409.787 357.136L715.741 212.189C716.739 211.716 717.931 212.142 718.404 213.14C718.877 214.139 718.451 215.331 717.453 215.804L411.5 360.751C405.538 363.575 398.623 363.575 392.662 360.751L86.7083 215.804C85.7101 215.331 85.2842 214.139 85.7571 213.14Z" fill="#2C2324"/>
<path fill-rule="evenodd" clip-rule="evenodd" d="M88.095 28.086C87.4528 21.6134 92.5368 16 99.0412 16H709.7C716.305 16 721.422 21.7813 720.618 28.3381L712.003 98.6292C711.936 99.1773 711.437 99.5673 710.889 99.5001C710.341 99.4329 709.951 98.934 710.018 98.3859L718.633 28.0948C719.29 22.7302 715.104 18 709.7 18H99.0412C93.7194 18 89.5598 22.5927 90.0852 27.8885L97.0817 98.4088C97.1362 98.9584 96.7349 99.4481 96.1853 99.5026C95.6357 99.5572 95.146 99.1558 95.0915 98.6062L88.095 28.086ZM106.378 210.959C106.61 210.458 107.204 210.24 107.705 210.472L398.869 345.34C401.002 346.328 403.461 346.328 405.594 345.34L696.757 210.472C697.258 210.24 697.853 210.458 698.085 210.959C698.317 211.46 698.099 212.054 697.598 212.287L406.434 347.155C403.768 348.39 400.694 348.39 398.028 347.155L106.865 212.287C106.363 212.054 106.145 211.46 106.378 210.959Z" fill="#2C2324"/>
<path fill-rule="evenodd" clip-rule="evenodd" d="M583.781 171.974C580.609 192.47 564.017 206.5 541.691 206.5C514.119 206.5 497.405 188.932 497.405 160.628C497.405 132.69 514.729 115 542.301 115C564.505 115 580.121 129.396 583.171 149.526H562.675C560.357 137.448 551.451 132.202 541.569 132.202C529.125 132.202 519.487 142.572 519.487 160.628C519.487 179.294 529.125 189.298 541.813 189.298C550.841 189.298 560.845 185.394 563.285 171.974H583.781ZM65.148 116.464H0V204.914H20.862V168.68H62.464V150.258H20.862V134.764H65.148V116.464ZM115.728 116.464H92.7924L59.4864 204.914H81.6904L86.9364 189.176H121.096L126.464 204.914H149.156L115.728 116.464ZM115.484 172.218H92.6704L104.138 138.546L115.484 172.218ZM160.323 116.464L180.697 181.49L201.071 116.464H222.299L192.287 204.914H167.887L138.119 116.464H160.323ZM268.136 116.464H229.584V204.914H269.722C291.194 204.914 305.468 197.472 305.468 177.708C305.468 166.972 299.612 160.75 291.438 157.822C298.148 153.674 301.93 147.452 301.93 139.4C301.93 120.978 287.534 116.464 268.136 116.464ZM268.868 151.844H250.446V134.032H268.868C276.066 134.032 280.214 137.326 280.214 142.816C280.214 148.306 276.066 151.844 268.868 151.844ZM269.966 187.346H250.446V167.338H269.966C278.872 167.338 283.386 171.12 283.386 177.342C283.386 183.564 278.872 187.346 269.966 187.346ZM316.676 116.464H384.508V134.764H337.538V150.258H381.946V168.68H337.538V186.492H384.508V204.914H316.676V116.464ZM390.13 134.764H418.434V204.914H439.418V134.764H467.844V116.464H390.13V134.764ZM594.273 204.914H615.135V116.464H594.273V204.914ZM651.95 134.764H623.646V116.464H701.36V134.764H672.934V204.914H651.95V134.764ZM747.217 150.38L727.453 116.464H703.053L736.359 170.51V204.914H757.221V170.754L791.381 116.464H767.225L747.217 150.38ZM542.5 121.5C530.006 121.5 520.877 126.461 514.944 134.304C509.082 142.052 506.5 152.388 506.5 163C506.5 173.8 510.062 183.309 516.42 190.141C522.793 196.988 531.843 201 542.5 201C551.259 201 558.321 197.25 563.522 192.693C568.698 188.159 572.156 182.725 573.789 179.005L569.211 176.995C567.844 180.108 564.802 184.924 560.228 188.932C555.679 192.917 549.741 196 542.5 196C533.157 196 525.457 192.512 520.08 186.734C514.688 180.941 511.5 172.7 511.5 163C511.5 153.112 513.918 143.948 518.931 137.321C523.873 130.789 531.494 126.5 542.5 126.5C559.868 126.5 567.465 138.754 569.089 144.663L573.911 143.337C571.869 135.913 562.732 121.5 542.5 121.5ZM602 122V198.5H607V122H602ZM56 122.5H7V201H12V162.5H56V157.5H12V127.5H56V122.5ZM110.749 122.5H98.773L70.1618 198.115L74.8382 199.885L81.4162 182.5H127.319L133.651 199.857L138.349 198.143L110.749 122.5ZM102.227 127.5L83.3081 177.5H125.494L107.251 127.5H102.227ZM273.5 122.5H238.5V199.5H241H281C284.695 199.5 288.696 197.243 291.675 193.918C294.724 190.514 297 185.684 297 180C297 174.029 293.629 169.046 289.866 165.394C287.474 163.072 284.795 161.159 282.376 159.724C287.349 156.192 294 150.178 294 139.5C294 132.604 290.899 128.171 286.593 125.603C282.474 123.146 277.45 122.5 273.5 122.5ZM241 197L241 199.5C241 199.5 241 199.5 241 197ZM281 194.5H243.5V162.5H276.959C279.564 163.715 283.283 165.971 286.384 168.981C289.704 172.204 292 175.971 292 180C292 184.316 290.276 187.986 287.95 190.582C285.554 193.257 282.805 194.5 281 194.5ZM277.07 157.277L276.737 157.5H243.5V127.5H273.5C277.05 127.5 281.026 128.104 284.032 129.897C286.851 131.579 289 134.396 289 139.5C289 149.299 282.004 153.978 277.07 157.277ZM378.5 122.5H325.5V199.5H378.5V194.5H330.5V162.5H373.5V157.5H330.5V127.5H378.5V122.5ZM397.5 127.5H427V197H432V127.5H459V122.5H397.5V127.5ZM744 198.5V166.23L717.893 125.345L722.107 122.655L746.576 160.973L772.939 122.585L777.061 125.415L749 166.276V198.5H744ZM153.875 122.719L149.125 124.281L173.19 197.5H187.286L211.865 125.811L207.135 124.189L183.714 192.5H176.81L153.875 122.719ZM629.5 128H659.25V198.5H664.25V128H694V123H629.5V128Z" fill="#2C2324"/>
<path d="M116.784 86L134.832 39.92H131.952L132.432 36.848H141.936L145.296 82.928H148.176L147.696 86H139.728L136.56 42.992L119.472 86.768L116.784 86ZM154.693 77.36C154.693 76.976 154.789 76.496 154.885 76.016C155.749 70.64 161.989 66.032 168.613 66.032H175.333L176.101 61.424C176.197 60.848 176.197 60.176 176.197 59.6C176.197 55.472 173.989 52.208 170.149 52.208C168.229 52.208 166.117 52.496 163.909 53.168L163.717 50.288C166.213 49.52 168.325 49.136 171.301 49.136C177.445 49.136 181.669 53.648 181.669 59.504C181.669 60.176 181.669 60.848 181.573 61.424L178.213 82.832C173.125 85.04 170.149 86 165.445 86C159.205 86 154.693 82.352 154.693 77.36ZM160.261 77.168C160.261 80.528 162.565 82.928 166.693 82.928C168.613 82.928 170.629 82.64 172.837 81.968L174.853 69.104H168.133C164.293 69.104 160.933 72.176 160.357 76.016C160.261 76.496 160.261 76.784 160.261 77.168ZM189.14 75.728C189.14 75.056 189.14 74.384 189.332 73.712L191.252 61.424C192.308 54.608 198.644 49.136 205.46 49.136C209.972 49.136 212.564 49.904 216.404 51.728L213.62 59.12L211.124 58.352L210.74 52.976C208.82 52.4 207.764 52.208 205.652 52.208C201.236 52.208 197.492 56.432 196.724 61.424L194.804 73.712C194.612 74.384 194.612 75.056 194.612 75.632C194.612 79.76 196.82 82.928 200.756 82.928C203.732 82.928 206.132 82.352 209.204 81.104L209.396 83.984C205.94 85.424 203.348 86 199.604 86C193.364 86 189.14 81.584 189.14 75.728ZM221.568 86L229.824 33.776H227.04L227.52 30.704H235.776L230.208 66.032H237.408L247.584 47.792L249.984 49.136L240.576 66.032L244.416 82.928H247.2L246.72 86H239.616L235.68 69.104H229.632L227.04 86H221.568ZM253.599 77.36C253.599 76.976 253.695 76.496 253.791 76.016C254.655 70.64 260.895 66.032 267.519 66.032H274.239L275.007 61.424C275.103 60.848 275.103 60.176 275.103 59.6C275.103 55.472 272.895 52.208 269.055 52.208C267.135 52.208 265.023 52.496 262.815 53.168L262.623 50.288C265.119 49.52 267.231 49.136 270.207 49.136C276.351 49.136 280.575 53.648 280.575 59.504C280.575 60.176 280.575 60.848 280.479 61.424L277.119 82.832C272.031 85.04 269.055 86 264.351 86C258.111 86 253.599 82.352 253.599 77.36ZM259.167 77.168C259.167 80.528 261.471 82.928 265.599 82.928C267.519 82.928 269.535 82.64 271.743 81.968L273.759 69.104H267.039C263.199 69.104 259.839 72.176 259.263 76.016C259.167 76.496 259.167 76.784 259.167 77.168ZM288.142 83.216L294.478 42.992C295.534 36.368 301.486 30.704 307.438 30.704C312.91 30.704 317.038 34.736 317.038 39.92C317.038 40.4 316.942 40.976 316.942 41.456C316.366 45.104 313.966 48.368 310.798 50.288C313.966 52.112 316.078 55.472 316.078 59.6C316.078 60.176 316.078 60.848 315.982 61.424L314.062 73.712C313.006 80.432 306.574 86 299.854 86C297.262 86 295.054 85.232 293.326 83.888L288.718 86L288.142 83.216ZM294.862 75.92C294.862 80.048 296.974 82.928 300.334 82.928C304.078 82.928 307.822 78.704 308.59 73.712L310.51 61.424C310.606 60.752 310.606 60.08 310.606 59.408C310.606 55.28 308.398 52.208 304.558 52.208C302.638 52.208 300.526 52.496 298.318 53.168L295.054 73.712C294.862 74.48 294.862 75.248 294.862 75.92ZM298.798 50.096C301.006 49.424 303.118 49.136 305.038 49.136C307.918 49.136 310.798 45.584 311.47 41.456C311.47 40.976 311.566 40.4 311.566 39.824C311.566 36.368 309.742 33.776 307.342 33.776C303.886 33.776 300.814 37.808 299.95 42.992L298.798 50.096ZM322.171 75.632C322.171 74.96 322.171 74.384 322.363 73.712L324.283 61.424C325.339 54.8 332.155 49.136 339.163 49.136C345.595 49.136 350.203 53.744 350.203 59.6C350.203 60.272 350.203 60.848 350.107 61.424L348.187 73.712C347.131 80.432 340.315 86 333.307 86C326.779 86 322.171 81.488 322.171 75.632ZM327.643 75.728C327.643 79.952 330.043 82.928 333.787 82.928C337.819 82.928 341.947 78.704 342.715 73.712L344.635 61.424C344.635 60.944 344.731 60.368 344.731 59.792C344.731 55.568 342.235 52.208 338.683 52.208C334.459 52.208 330.619 56.24 329.755 61.424L327.835 73.712C327.643 74.384 327.643 75.056 327.643 75.728ZM382.256 86L387.632 52.304C392.72 50.096 395.6 49.136 400.304 49.136C406.448 49.136 410.672 53.648 410.672 59.504C410.672 60.176 410.672 60.848 410.576 61.424L407.216 82.928H409.904L409.424 86H401.264L405.104 61.424C405.2 60.752 405.2 60.08 405.2 59.408C405.2 55.28 402.992 52.208 399.152 52.208C397.232 52.208 395.12 52.496 392.912 53.168L387.728 86H382.256ZM415.195 102.416L423.163 52.304C428.251 50.096 431.131 49.136 435.835 49.136C441.979 49.136 446.203 53.648 446.203 59.504C446.203 60.176 446.203 60.848 446.107 61.424L444.187 73.712C443.131 80.336 436.603 86 429.979 86C427.483 86 425.371 85.232 423.643 83.984L420.571 102.992L415.771 105.2L415.195 102.416ZM424.987 75.632C424.987 79.76 427.195 82.928 430.459 82.928C434.299 82.928 437.851 78.896 438.715 73.712L440.635 61.424C440.731 60.752 440.731 60.08 440.731 59.408C440.731 55.28 438.523 52.208 434.683 52.208C432.763 52.208 430.651 52.496 428.443 53.168L425.179 73.712C424.987 74.384 424.987 75.056 424.987 75.632ZM452.39 75.632C452.39 74.96 452.39 74.384 452.582 73.712L454.502 61.424C455.558 54.8 462.374 49.136 469.382 49.136C475.814 49.136 480.422 53.744 480.422 59.6C480.422 60.272 480.422 60.848 480.326 61.424L478.406 73.712C477.35 80.432 470.534 86 463.526 86C456.998 86 452.39 81.488 452.39 75.632ZM457.862 75.728C457.862 79.952 460.262 82.928 464.006 82.928C468.038 82.928 472.166 78.704 472.934 73.712L474.854 61.424C474.854 60.944 474.95 60.368 474.95 59.792C474.95 55.568 472.454 52.208 468.902 52.208C464.678 52.208 460.838 56.24 459.974 61.424L458.054 73.712C457.862 74.384 457.862 75.056 457.862 75.728ZM486.608 75.728C486.608 75.056 486.608 74.384 486.8 73.712L488.72 61.424C489.776 54.608 496.112 49.136 502.928 49.136C507.44 49.136 510.032 49.904 513.872 51.728L511.088 59.12L508.592 58.352L508.208 52.976C506.288 52.4 505.232 52.208 503.12 52.208C498.704 52.208 494.96 56.432 494.192 61.424L492.272 73.712C492.08 74.384 492.08 75.056 492.08 75.632C492.08 79.76 494.288 82.928 498.224 82.928C501.2 82.928 503.6 82.352 506.672 81.104L506.864 83.984C503.408 85.424 500.816 86 497.072 86C490.832 86 486.608 81.584 486.608 75.728ZM520.765 75.728C520.765 75.056 520.765 74.384 520.957 73.712L524.317 52.208H521.629L522.109 49.136H530.269L526.429 73.712C526.237 74.48 526.237 75.152 526.237 75.824C526.237 79.952 528.445 82.928 532.381 82.928C534.301 82.928 536.413 82.64 538.621 81.968L543.805 49.136H549.277L543.901 82.832C538.813 85.04 535.933 86 531.229 86C524.989 86 520.765 81.584 520.765 75.728ZM554.568 86L559.944 52.208H557.16L557.64 49.136H567.336L569.448 79.856L581.16 49.136H588.168L582.792 82.928H585.48L585 86H576.84L581.64 55.28L569.928 86H564.264L562.152 55.28L557.256 86H554.568ZM593.765 75.632C593.765 74.96 593.765 74.384 593.957 73.712L595.877 61.424C596.933 54.8 603.749 49.136 610.757 49.136C617.189 49.136 621.797 53.744 621.797 59.6C621.797 60.272 621.797 60.848 621.701 61.424L619.781 73.712C618.725 80.432 611.909 86 604.901 86C598.373 86 593.765 81.488 593.765 75.632ZM599.237 75.728C599.237 79.952 601.637 82.928 605.381 82.928C609.413 82.928 613.541 78.704 614.309 73.712L616.229 61.424C616.229 60.944 616.325 60.368 616.325 59.792C616.325 55.568 613.829 52.208 610.277 52.208C606.053 52.208 602.213 56.24 601.349 61.424L599.429 73.712C599.237 74.384 599.237 75.056 599.237 75.728ZM656.441 52.208L656.921 49.136H664.505L666.521 79.856L678.617 48.368L681.113 49.136L665.369 90.32L663.353 102.992L658.553 105.2L657.977 102.416L664.217 86H661.337L659.129 52.208H656.441Z" fill="#2C2324"/>
<path d="M123.057 247.755L123.336 244.659L146.806 243.128L149.443 243.726L146.594 253.147L143.861 252.556L142.983 246.456L137.331 246.825L133.327 290.185L136.201 289.998L135.922 293.094L127.3 293.656L131.583 247.199L123.057 247.755ZM155.903 289.002L159.609 248.451C160.231 241.772 165.802 235.733 171.742 235.345C177.202 234.989 181.584 238.744 181.921 243.917C181.952 244.396 181.894 244.977 181.925 245.456C181.588 249.134 179.405 252.547 176.369 254.669C179.649 256.283 181.975 259.499 182.243 263.618C182.281 264.193 182.325 264.863 182.266 265.444L181.15 277.831C180.533 284.606 174.477 290.58 167.772 291.018C165.185 291.186 162.932 290.564 161.12 289.335L156.659 291.742L155.903 289.002ZM162.134 281.284C162.403 285.403 164.698 288.14 168.051 287.921C171.787 287.677 175.248 283.219 175.69 278.187L176.806 265.8C176.858 265.124 176.814 264.453 176.771 263.782C176.502 259.663 174.099 256.741 170.267 256.991C168.351 257.116 166.262 257.541 164.103 258.355L162.182 279.068C162.041 279.847 162.091 280.613 162.134 281.284ZM164.382 255.258C166.541 254.444 168.63 254.019 170.546 253.894C173.42 253.707 176.063 249.975 176.465 245.812C176.433 245.333 176.492 244.752 176.454 244.177C176.229 240.729 174.241 238.261 171.846 238.417C168.397 238.642 165.594 242.865 165.069 248.095L164.382 255.258ZM189.367 279.22C189.323 278.549 189.285 277.974 189.433 277.291L190.55 264.904C191.173 258.226 197.606 252.13 204.599 251.674C211.017 251.256 215.915 255.554 216.296 261.398C216.34 262.068 216.377 262.643 216.319 263.224L215.203 275.611C214.586 282.385 208.147 288.385 201.154 288.841C194.639 289.266 189.748 285.063 189.367 279.22ZM194.833 278.959C195.108 283.174 197.697 285.988 201.433 285.744C205.456 285.482 209.301 280.998 209.742 275.967L210.859 263.58C210.827 263.101 210.886 262.52 210.848 261.945C210.573 257.73 207.864 254.54 204.32 254.771C200.105 255.046 196.535 259.319 196.01 264.548L194.894 276.935C194.746 277.618 194.79 278.289 194.833 278.959ZM223.519 277.089C223.475 276.418 223.432 275.748 223.58 275.065L224.696 262.678C225.306 255.808 231.273 249.935 238.074 249.491C242.577 249.198 245.213 249.796 249.164 251.366L246.867 258.923L244.326 258.319L243.593 252.98C241.64 252.53 240.573 252.407 238.466 252.544C234.059 252.832 230.598 257.29 230.156 262.322L229.786 266.964L245.017 265.971L244.738 269.067L229.507 270.06L229.04 274.709C228.892 275.392 228.936 276.062 228.973 276.637C229.242 280.756 231.651 283.774 235.579 283.518C238.549 283.324 240.906 282.593 243.89 281.148L244.269 284.01C240.914 285.671 238.365 286.415 234.629 286.658C228.403 287.064 223.9 282.933 223.519 277.089ZM282.742 283.521L285.908 249.451L283.13 249.632L283.409 246.536L293.084 245.905L297.19 276.422L306.879 245.005L313.872 244.549L310.706 278.619L313.388 278.445L313.109 281.541L304.966 282.072L307.758 251.105L298.069 282.522L292.417 282.89L288.311 252.373L285.424 283.346L282.742 283.521ZM321.472 280.996L324.542 246.932L321.86 247.107L322.139 244.01L330.282 243.479L327.211 277.543L329.894 277.368L329.615 280.465L321.472 280.996ZM325.127 235.253C325.115 235.062 325.102 234.87 325.18 234.576C325.336 232.546 326.954 230.805 328.774 230.686C330.403 230.58 331.544 231.853 331.656 233.577C331.669 233.768 331.681 233.96 331.694 234.152C331.537 236.182 329.919 237.923 328.099 238.042C326.375 238.154 325.24 236.978 325.127 235.253ZM337.652 269.647C337.608 268.977 337.564 268.306 337.712 267.623L338.829 255.236C339.439 248.366 345.405 242.493 352.207 242.05C356.709 241.756 359.346 242.354 363.296 243.924L360.999 251.482L358.459 250.878L357.726 245.538C355.772 245.088 354.706 244.965 352.599 245.103C348.192 245.39 344.731 249.849 344.289 254.88L343.173 267.267C343.025 267.95 343.068 268.621 343.106 269.195C343.375 273.315 345.784 276.332 349.712 276.076C352.681 275.883 355.039 275.152 358.023 273.706L358.402 276.568C355.047 278.23 352.498 278.973 348.762 279.217C342.535 279.623 338.033 275.491 337.652 269.647ZM370.68 277.787L373.852 243.813C378.786 241.279 381.597 240.133 386.291 239.827C389.165 239.64 391.82 240.525 393.747 242.035C398.13 239.921 400.852 238.878 405.259 238.591C411.294 238.197 415.803 242.425 416.184 248.268C416.227 248.939 416.265 249.514 416.213 250.19L414.259 271.867L416.941 271.693L416.662 274.789L408.52 275.32L410.848 250.54C410.9 249.863 410.857 249.193 410.813 248.522C410.544 244.403 408.045 241.487 404.213 241.737C402.297 241.862 400.304 242.281 398.145 243.095L395.108 276.195L389.648 276.551L391.881 251.777C391.933 251.1 391.889 250.43 391.845 249.759C391.577 245.64 389.173 242.718 385.341 242.968C383.426 243.093 381.337 243.517 379.177 244.332L376.14 277.431L370.68 277.787ZM424.742 263.872C424.698 263.202 424.661 262.627 424.809 261.944L425.925 249.557C426.548 242.879 432.981 236.783 439.974 236.327C446.392 235.909 451.29 240.207 451.671 246.051C451.715 246.721 451.753 247.296 451.694 247.877L450.578 260.264C449.961 267.038 443.522 273.038 436.529 273.494C430.015 273.919 425.123 269.716 424.742 263.872ZM430.209 263.612C430.483 267.827 433.072 270.641 436.808 270.397C440.831 270.135 444.676 265.651 445.117 260.62L446.234 248.233C446.203 247.754 446.261 247.173 446.223 246.598C445.949 242.383 443.239 239.193 439.695 239.424C435.48 239.699 431.91 243.972 431.385 249.201L430.269 261.588C430.121 262.271 430.165 262.942 430.209 263.612ZM483.855 286.859L488.546 236.335C493.48 233.8 496.291 232.655 500.985 232.349C507.116 231.949 511.625 236.177 512.006 242.02C512.049 242.691 512.093 243.362 512.035 243.943L510.918 256.329C510.296 263.008 504.15 269.085 497.54 269.516C495.049 269.678 492.892 269.049 491.086 267.916L489.258 287.084L484.611 289.6L483.855 286.859ZM491.884 259.495C492.153 263.614 494.562 266.632 497.819 266.419C501.651 266.169 504.933 261.915 505.458 256.686L506.574 244.299C506.627 243.622 506.583 242.951 506.539 242.281C506.271 238.161 503.867 235.24 500.035 235.489C498.12 235.614 496.031 236.039 493.871 236.853L491.951 257.566C491.803 258.249 491.847 258.92 491.884 259.495ZM519.229 257.712C519.185 257.041 519.148 256.466 519.295 255.783L520.412 243.396C521.035 236.718 527.468 230.622 534.461 230.166C540.879 229.748 545.777 234.046 546.158 239.89C546.202 240.56 546.239 241.135 546.181 241.716L545.065 254.103C544.448 260.878 538.009 266.877 531.016 267.333C524.502 267.758 519.61 263.555 519.229 257.712ZM524.695 257.451C524.97 261.667 527.559 264.48 531.295 264.236C535.318 263.974 539.163 259.49 539.604 254.459L540.721 242.072C540.689 241.593 540.748 241.012 540.71 240.437C540.435 236.222 537.726 233.032 534.182 233.263C529.967 233.538 526.397 237.811 525.872 243.04L524.756 255.427C524.608 256.11 524.652 256.781 524.695 257.451ZM554.783 253.469L555.062 250.373L563.684 249.811C567.515 249.561 570.668 246.277 570.993 242.407L571.46 237.759C571.435 237.376 571.416 237.088 571.391 236.705C571.173 233.352 568.711 231.012 564.688 231.274C561.622 231.474 559.361 232.198 556.376 233.644L555.997 230.782C559.352 229.12 561.901 228.377 565.637 228.133C571.768 227.734 576.616 231.266 576.941 236.247C576.966 236.63 576.902 237.116 576.927 237.499L576.454 242.051C576.104 245.537 573.801 248.574 570.291 250.823C573.655 252.239 576.039 254.873 576.239 257.939C576.264 258.322 576.289 258.705 576.308 258.993L575.375 268.289C574.583 276.807 567.488 281.598 561.813 284.566L561.057 281.825C564.776 279.851 569.239 276.001 569.739 270.388L570.847 259.349C570.829 259.061 570.81 258.774 570.791 258.486C570.573 255.134 567.524 252.639 563.309 252.913L554.783 253.469ZM585.772 260.973L589.477 220.422C590.1 213.743 595.671 207.704 601.61 207.317C607.071 206.961 611.452 210.716 611.789 215.889C611.821 216.368 611.762 216.949 611.794 217.428C611.456 221.105 609.274 224.519 606.237 226.641C609.517 228.255 611.843 231.47 612.112 235.589C612.149 236.164 612.193 236.835 612.135 237.416L611.018 249.803C610.402 256.577 604.346 262.552 597.64 262.989C595.054 263.158 592.8 262.535 590.988 261.306L586.528 263.714L585.772 260.973ZM592.003 253.255C592.271 257.375 594.566 260.111 597.919 259.892C601.655 259.649 605.116 255.19 605.558 250.159L606.674 237.772C606.726 237.095 606.683 236.424 606.639 235.754C606.37 231.635 603.967 228.713 600.135 228.963C598.219 229.088 596.131 229.512 593.971 230.327L592.051 251.039C591.909 251.818 591.959 252.585 592.003 253.255ZM594.25 227.23C596.41 226.416 598.499 225.991 600.414 225.866C603.288 225.679 605.931 221.947 606.333 217.784C606.302 217.305 606.36 216.724 606.323 216.149C606.098 212.7 604.109 210.232 601.714 210.389C598.266 210.613 595.462 214.837 594.938 220.066L594.25 227.23ZM617.623 253.028C617.598 252.645 617.663 252.159 617.727 251.674C618.24 246.253 624.167 241.249 630.777 240.818L637.482 240.381L637.949 235.733C638.007 235.152 637.964 234.481 637.926 233.906C637.658 229.787 635.242 226.674 631.41 226.923C629.494 227.048 627.405 227.473 625.246 228.287L624.867 225.426C627.307 224.497 629.39 223.977 632.36 223.783C638.491 223.383 642.999 227.611 643.38 233.454C643.424 234.125 643.468 234.796 643.409 235.377L641.449 256.958C636.516 259.492 633.609 260.644 628.915 260.95C622.688 261.356 617.948 258.009 617.623 253.028ZM623.167 252.474C623.386 255.827 625.841 258.072 629.96 257.803C631.876 257.678 633.869 257.26 636.029 256.445L637.203 243.478L630.498 243.915C626.666 244.165 623.513 247.449 623.188 251.318C623.123 251.803 623.142 252.091 623.167 252.474ZM651.62 250.907C651.589 250.428 651.653 249.943 651.718 249.458C652.795 237.939 668.485 238.071 669.153 230.62C669.128 230.236 669.199 229.847 669.18 229.56C668.987 226.59 666.742 224.62 662.91 224.87C659.94 225.063 657.583 225.794 654.598 227.239L654.219 224.378C657.479 222.722 660.123 221.973 663.86 221.729C669.895 221.336 674.258 224.803 674.576 229.689C674.607 230.168 674.543 230.653 674.568 231.036C673.491 242.555 657.801 242.423 657.133 249.874C657.062 250.264 657.087 250.647 657.112 251.03C657.305 254 659.544 255.874 663.663 255.606L663.288 258.709L662.618 258.752C656.391 259.158 651.939 255.793 651.62 250.907Z" fill="#2C2324"/>
<defs>
<filter id="filter0_i_120_1077" x="91.5862" y="17" width="626.956" height="327.989" filterUnits="userSpaceOnUse" color-interpolation-filters="sRGB">
<feFlood flood-opacity="0" result="BackgroundImageFix"/>
<feBlend mode="normal" in="SourceGraphic" in2="BackgroundImageFix" result="shape"/>
<feColorMatrix in="SourceAlpha" type="matrix" values="0 0 0 0 0 0 0 0 0 0 0 0 0 0 0 0 0 0 127 0" result="hardAlpha"/>
<feOffset/>
<feGaussianBlur stdDeviation="22.5"/>
<feComposite in2="hardAlpha" operator="arithmetic" k2="-1" k3="1"/>
<feColorMatrix type="matrix" values="0 0 0 0 0 0 0 0 0 0 0 0 0 0 0 0 0 0 1 0"/>
<feBlend mode="normal" in2="shape" result="effect1_innerShadow_120_1077"/>
</filter>
<filter id="filter1_i_120_1077" x="88.9681" y="17" width="632.247" height="330.857" filterUnits="userSpaceOnUse" color-interpolation-filters="sRGB">
<feFlood flood-opacity="0" result="BackgroundImageFix"/>
<feBlend mode="normal" in="SourceGraphic" in2="BackgroundImageFix" result="shape"/>
<feColorMatrix in="SourceAlpha" type="matrix" values="0 0 0 0 0 0 0 0 0 0 0 0 0 0 0 0 0 0 127 0" result="hardAlpha"/>
<feOffset/>
<feGaussianBlur stdDeviation="22.5"/>
<feComposite in2="hardAlpha" operator="arithmetic" k2="-1" k3="1"/>
<feColorMatrix type="matrix" values="0 0 0 0 0 0 0 0 0 0 0 0 0 0 0 0 0 0 1 0"/>
<feBlend mode="normal" in2="shape" result="effect1_innerShadow_120_1077"/>
</filter>
<linearGradient id="paint0_linear_120_1077" x1="242.781" y1="688.276" x2="269.261" y2="688.276" gradientUnits="userSpaceOnUse">
<stop stop-color="#545A5A"/>
<stop offset="0.26" stop-color="#363D3D"/>
<stop offset="0.4" stop-color="#434A4C"/>
<stop offset="0.49" stop-color="#4F5659"/>
<stop offset="0.67" stop-color="#3A4243"/>
<stop offset="0.83" stop-color="#2C3434"/>
</linearGradient>
<linearGradient id="paint1_linear_120_1077" x1="238.046" y1="688.276" x2="269.908" y2="688.276" gradientUnits="userSpaceOnUse">
<stop stop-color="white"/>
<stop offset="0.07" stop-color="#F2B9E7"/>
<stop offset="0.15" stop-color="#E470CE"/>
<stop offset="0.17" stop-color="#C661B3"/>
<stop offset="0.2" stop-color="#9D4D8E"/>
<stop offset="0.23" stop-color="#773A6C"/>
<stop offset="0.26" stop-color="#572B4E"/>
<stop offset="0.29" stop-color="#3B1D36"/>
<stop offset="0.33" stop-color="#251222"/>
<stop offset="0.38" stop-color="#150A13"/>
<stop offset="0.44" stop-color="#090408"/>
<stop offset="0.52" stop-color="#020102"/>
<stop offset="0.75"/>
<stop offset="0.78" stop-color="#0F080E"/>
<stop offset="0.83" stop-color="#381B32"/>
<stop offset="0.9" stop-color="#793B6D"/>
<stop offset="0.98" stop-color="#D167BD"/>
<stop offset="1" stop-color="#E470CE"/>
</linearGradient>
<linearGradient id="paint2_linear_120_1077" x1="237.94" y1="693.746" x2="260.394" y2="693.746" gradientUnits="userSpaceOnUse">
<stop offset="0.06" stop-color="white"/>
<stop offset="0.09" stop-color="#FFCED9"/>
<stop offset="0.13" stop-color="#FF9AAF"/>
<stop offset="0.16" stop-color="#FF718F"/>
<stop offset="0.19" stop-color="#FF5377"/>
<stop offset="0.22" stop-color="#FF4169"/>
<stop offset="0.24" stop-color="#F63960"/>
<stop offset="0.27" stop-color="#C82E4E"/>
<stop offset="0.31" stop-color="#9D243D"/>
<stop offset="0.35" stop-color="#771C2F"/>
<stop offset="0.39" stop-color="#571422"/>
<stop offset="0.43" stop-color="#3B0E17"/>
<stop offset="0.48" stop-color="#25090F"/>
<stop offset="0.54" stop-color="#140508"/>
<stop offset="0.61" stop-color="#090203"/>
<stop offset="0.72" stop-color="#020001"/>
<stop offset="1"/>
</linearGradient>
<linearGradient id="paint3_linear_120_1077" x1="255.761" y1="419.698" x2="255.761" y2="412.41" gradientUnits="userSpaceOnUse">
<stop stop-opacity="0"/>
<stop offset="1" stop-color="#363D3D"/>
</linearGradient>
<linearGradient id="paint4_linear_120_1077" x1="238" y1="289.764" x2="273.518" y2="289.764" gradientUnits="userSpaceOnUse">
<stop stop-color="#545A5A"/>
<stop offset="0.26" stop-color="#363D3D"/>
<stop offset="0.4" stop-color="#434A4C"/>
<stop offset="0.49" stop-color="#4F5659"/>
<stop offset="0.67" stop-color="#3A4243"/>
<stop offset="0.83" stop-color="#2C3434"/>
</linearGradient>
<linearGradient id="paint5_linear_120_1077" x1="306.668" y1="299.726" x2="248.807" y2="288.204" gradientUnits="userSpaceOnUse">
<stop offset="0.06" stop-color="white"/>
<stop offset="0.09" stop-color="#FFCED9"/>
<stop offset="0.13" stop-color="#FF9AAF"/>
<stop offset="0.16" stop-color="#FF718F"/>
<stop offset="0.19" stop-color="#FF5377"/>
<stop offset="0.22" stop-color="#FF4169"/>
<stop offset="0.24" stop-color="#F63960"/>
<stop offset="0.27" stop-color="#C82E4E"/>
<stop offset="0.31" stop-color="#9D243D"/>
<stop offset="0.35" stop-color="#771C2F"/>
<stop offset="0.39" stop-color="#571422"/>
<stop offset="0.43" stop-color="#3B0E17"/>
<stop offset="0.48" stop-color="#25090F"/>
<stop offset="0.54" stop-color="#140508"/>
<stop offset="0.61" stop-color="#090203"/>
<stop offset="0.72" stop-color="#020001"/>
<stop offset="1"/>
</linearGradient>
<linearGradient id="paint6_linear_120_1077" x1="231.508" y1="289.764" x2="261.621" y2="289.764" gradientUnits="userSpaceOnUse">
<stop offset="0.06" stop-color="white"/>
<stop offset="0.09" stop-color="#FFCED9"/>
<stop offset="0.13" stop-color="#FF9AAF"/>
<stop offset="0.16" stop-color="#FF718F"/>
<stop offset="0.19" stop-color="#FF5377"/>
<stop offset="0.22" stop-color="#FF4169"/>
<stop offset="0.24" stop-color="#F63960"/>
<stop offset="0.27" stop-color="#C82E4E"/>
<stop offset="0.31" stop-color="#9D243D"/>
<stop offset="0.35" stop-color="#771C2F"/>
<stop offset="0.39" stop-color="#571422"/>
<stop offset="0.43" stop-color="#3B0E17"/>
<stop offset="0.48" stop-color="#25090F"/>
<stop offset="0.54" stop-color="#140508"/>
<stop offset="0.61" stop-color="#090203"/>
<stop offset="0.72" stop-color="#020001"/>
<stop offset="1"/>
</linearGradient>
<linearGradient id="paint7_linear_120_1077" x1="238" y1="413.732" x2="273.519" y2="413.732" gradientUnits="userSpaceOnUse">
<stop stop-color="#363D3D"/>
<stop offset="0.26" stop-color="#282F2F"/>
<stop offset="0.42" stop-color="#343B3E"/>
<stop offset="0.49" stop-color="#3C4347"/>
<stop offset="0.67" stop-color="#262F30"/>
<stop offset="0.83" stop-color="#182121"/>
</linearGradient>
<linearGradient id="paint8_linear_120_1077" x1="523.082" y1="688.276" x2="549.562" y2="688.276" gradientUnits="userSpaceOnUse">
<stop stop-color="#545A5A"/>
<stop offset="0.26" stop-color="#363D3D"/>
<stop offset="0.4" stop-color="#434A4C"/>
<stop offset="0.49" stop-color="#4F5659"/>
<stop offset="0.67" stop-color="#3A4243"/>
<stop offset="0.83" stop-color="#2C3434"/>
</linearGradient>
<linearGradient id="paint9_linear_120_1077" x1="518.347" y1="688.276" x2="550.209" y2="688.276" gradientUnits="userSpaceOnUse">
<stop stop-color="white"/>
<stop offset="0.07" stop-color="#F2B9E7"/>
<stop offset="0.15" stop-color="#E470CE"/>
<stop offset="0.17" stop-color="#C661B3"/>
<stop offset="0.2" stop-color="#9D4D8E"/>
<stop offset="0.23" stop-color="#773A6C"/>
<stop offset="0.26" stop-color="#572B4E"/>
<stop offset="0.29" stop-color="#3B1D36"/>
<stop offset="0.33" stop-color="#251222"/>
<stop offset="0.38" stop-color="#150A13"/>
<stop offset="0.44" stop-color="#090408"/>
<stop offset="0.52" stop-color="#020102"/>
<stop offset="0.75"/>
<stop offset="0.78" stop-color="#0F080E"/>
<stop offset="0.83" stop-color="#381B32"/>
<stop offset="0.9" stop-color="#793B6D"/>
<stop offset="0.98" stop-color="#D167BD"/>
<stop offset="1" stop-color="#E470CE"/>
</linearGradient>
<linearGradient id="paint10_linear_120_1077" x1="518.241" y1="689.371" x2="540.695" y2="689.371" gradientUnits="userSpaceOnUse">
<stop offset="0.06" stop-color="white"/>
<stop offset="0.09" stop-color="#FFCED9"/>
<stop offset="0.13" stop-color="#FF9AAF"/>
<stop offset="0.16" stop-color="#FF718F"/>
<stop offset="0.19" stop-color="#FF5377"/>
<stop offset="0.22" stop-color="#FF4169"/>
<stop offset="0.24" stop-color="#F63960"/>
<stop offset="0.27" stop-color="#C82E4E"/>
<stop offset="0.31" stop-color="#9D243D"/>
<stop offset="0.35" stop-color="#771C2F"/>
<stop offset="0.39" stop-color="#571422"/>
<stop offset="0.43" stop-color="#3B0E17"/>
<stop offset="0.48" stop-color="#25090F"/>
<stop offset="0.54" stop-color="#140508"/>
<stop offset="0.61" stop-color="#090203"/>
<stop offset="0.72" stop-color="#020001"/>
<stop offset="1"/>
</linearGradient>
<linearGradient id="paint11_linear_120_1077" x1="536.76" y1="419.698" x2="536.76" y2="412.41" gradientUnits="userSpaceOnUse">
<stop stop-opacity="0"/>
<stop offset="1" stop-color="#363D3D"/>
</linearGradient>
<linearGradient id="paint12_linear_120_1077" x1="519" y1="289.764" x2="554.518" y2="289.764" gradientUnits="userSpaceOnUse">
<stop stop-color="#545A5A"/>
<stop offset="0.26" stop-color="#363D3D"/>
<stop offset="0.4" stop-color="#434A4C"/>
<stop offset="0.49" stop-color="#4F5659"/>
<stop offset="0.67" stop-color="#3A4243"/>
<stop offset="0.83" stop-color="#2C3434"/>
</linearGradient>
<linearGradient id="paint13_linear_120_1077" x1="587.668" y1="299.725" x2="529.807" y2="288.203" gradientUnits="userSpaceOnUse">
<stop offset="0.06" stop-color="white"/>
<stop offset="0.09" stop-color="#FFCED9"/>
<stop offset="0.13" stop-color="#FF9AAF"/>
<stop offset="0.16" stop-color="#FF718F"/>
<stop offset="0.19" stop-color="#FF5377"/>
<stop offset="0.22" stop-color="#FF4169"/>
<stop offset="0.24" stop-color="#F63960"/>
<stop offset="0.27" stop-color="#C82E4E"/>
<stop offset="0.31" stop-color="#9D243D"/>
<stop offset="0.35" stop-color="#771C2F"/>
<stop offset="0.39" stop-color="#571422"/>
<stop offset="0.43" stop-color="#3B0E17"/>
<stop offset="0.48" stop-color="#25090F"/>
<stop offset="0.54" stop-color="#140508"/>
<stop offset="0.61" stop-color="#090203"/>
<stop offset="0.72" stop-color="#020001"/>
<stop offset="1"/>
</linearGradient>
<linearGradient id="paint14_linear_120_1077" x1="512.508" y1="289.764" x2="542.62" y2="289.764" gradientUnits="userSpaceOnUse">
<stop offset="0.06" stop-color="white"/>
<stop offset="0.09" stop-color="#FFCED9"/>
<stop offset="0.13" stop-color="#FF9AAF"/>
<stop offset="0.16" stop-color="#FF718F"/>
<stop offset="0.19" stop-color="#FF5377"/>
<stop offset="0.22" stop-color="#FF4169"/>
<stop offset="0.24" stop-color="#F63960"/>
<stop offset="0.27" stop-color="#C82E4E"/>
<stop offset="0.31" stop-color="#9D243D"/>
<stop offset="0.35" stop-color="#771C2F"/>
<stop offset="0.39" stop-color="#571422"/>
<stop offset="0.43" stop-color="#3B0E17"/>
<stop offset="0.48" stop-color="#25090F"/>
<stop offset="0.54" stop-color="#140508"/>
<stop offset="0.61" stop-color="#090203"/>
<stop offset="0.72" stop-color="#020001"/>
<stop offset="1"/>
</linearGradient>
<linearGradient id="paint15_linear_120_1077" x1="519" y1="413.732" x2="554.518" y2="413.732" gradientUnits="userSpaceOnUse">
<stop stop-color="#363D3D"/>
<stop offset="0.26" stop-color="#282F2F"/>
<stop offset="0.42" stop-color="#343B3E"/>
<stop offset="0.49" stop-color="#3C4347"/>
<stop offset="0.67" stop-color="#262F30"/>
<stop offset="0.83" stop-color="#182121"/>
</linearGradient>
<linearGradient id="paint16_linear_120_1077" x1="384.033" y1="705.781" x2="410.514" y2="705.781" gradientUnits="userSpaceOnUse">
<stop stop-color="#545A5A"/>
<stop offset="0.26" stop-color="#363D3D"/>
<stop offset="0.4" stop-color="#434A4C"/>
<stop offset="0.49" stop-color="#4F5659"/>
<stop offset="0.67" stop-color="#3A4243"/>
<stop offset="0.83" stop-color="#2C3434"/>
</linearGradient>
<linearGradient id="paint17_linear_120_1077" x1="379.299" y1="705.781" x2="411.16" y2="705.781" gradientUnits="userSpaceOnUse">
<stop stop-color="white"/>
<stop offset="0.07" stop-color="#F2B9E7"/>
<stop offset="0.15" stop-color="#E470CE"/>
<stop offset="0.17" stop-color="#C661B3"/>
<stop offset="0.2" stop-color="#9D4D8E"/>
<stop offset="0.23" stop-color="#773A6C"/>
<stop offset="0.26" stop-color="#572B4E"/>
<stop offset="0.29" stop-color="#3B1D36"/>
<stop offset="0.33" stop-color="#251222"/>
<stop offset="0.38" stop-color="#150A13"/>
<stop offset="0.44" stop-color="#090408"/>
<stop offset="0.52" stop-color="#020102"/>
<stop offset="0.75"/>
<stop offset="0.78" stop-color="#0F080E"/>
<stop offset="0.83" stop-color="#381B32"/>
<stop offset="0.9" stop-color="#793B6D"/>
<stop offset="0.98" stop-color="#D167BD"/>
<stop offset="1" stop-color="#E470CE"/>
</linearGradient>
<linearGradient id="paint18_linear_120_1077" x1="379.192" y1="712.345" x2="401.646" y2="712.345" gradientUnits="userSpaceOnUse">
<stop offset="0.06" stop-color="white"/>
<stop offset="0.09" stop-color="#FFCED9"/>
<stop offset="0.13" stop-color="#FF9AAF"/>
<stop offset="0.16" stop-color="#FF718F"/>
<stop offset="0.19" stop-color="#FF5377"/>
<stop offset="0.22" stop-color="#FF4169"/>
<stop offset="0.24" stop-color="#F63960"/>
<stop offset="0.27" stop-color="#C82E4E"/>
<stop offset="0.31" stop-color="#9D243D"/>
<stop offset="0.35" stop-color="#771C2F"/>
<stop offset="0.39" stop-color="#571422"/>
<stop offset="0.43" stop-color="#3B0E17"/>
<stop offset="0.48" stop-color="#25090F"/>
<stop offset="0.54" stop-color="#140508"/>
<stop offset="0.61" stop-color="#090203"/>
<stop offset="0.72" stop-color="#020001"/>
<stop offset="1"/>
</linearGradient>
<linearGradient id="paint19_linear_120_1077" x1="396.763" y1="455.387" x2="396.763" y2="448.099" gradientUnits="userSpaceOnUse">
<stop stop-opacity="0"/>
<stop offset="1" stop-color="#363D3D"/>
</linearGradient>
<linearGradient id="paint20_linear_120_1077" x1="379.002" y1="325.453" x2="414.52" y2="325.453" gradientUnits="userSpaceOnUse">
<stop stop-color="#545A5A"/>
<stop offset="0.26" stop-color="#363D3D"/>
<stop offset="0.4" stop-color="#434A4C"/>
<stop offset="0.49" stop-color="#4F5659"/>
<stop offset="0.67" stop-color="#3A4243"/>
<stop offset="0.83" stop-color="#2C3434"/>
</linearGradient>
<linearGradient id="paint21_linear_120_1077" x1="447.67" y1="335.414" x2="389.809" y2="323.892" gradientUnits="userSpaceOnUse">
<stop offset="0.06" stop-color="white"/>
<stop offset="0.09" stop-color="#FFCED9"/>
<stop offset="0.13" stop-color="#FF9AAF"/>
<stop offset="0.16" stop-color="#FF718F"/>
<stop offset="0.19" stop-color="#FF5377"/>
<stop offset="0.22" stop-color="#FF4169"/>
<stop offset="0.24" stop-color="#F63960"/>
<stop offset="0.27" stop-color="#C82E4E"/>
<stop offset="0.31" stop-color="#9D243D"/>
<stop offset="0.35" stop-color="#771C2F"/>
<stop offset="0.39" stop-color="#571422"/>
<stop offset="0.43" stop-color="#3B0E17"/>
<stop offset="0.48" stop-color="#25090F"/>
<stop offset="0.54" stop-color="#140508"/>
<stop offset="0.61" stop-color="#090203"/>
<stop offset="0.72" stop-color="#020001"/>
<stop offset="1"/>
</linearGradient>
<linearGradient id="paint22_linear_120_1077" x1="372.51" y1="325.453" x2="402.623" y2="325.453" gradientUnits="userSpaceOnUse">
<stop offset="0.06" stop-color="white"/>
<stop offset="0.09" stop-color="#FFCED9"/>
<stop offset="0.13" stop-color="#FF9AAF"/>
<stop offset="0.16" stop-color="#FF718F"/>
<stop offset="0.19" stop-color="#FF5377"/>
<stop offset="0.22" stop-color="#FF4169"/>
<stop offset="0.24" stop-color="#F63960"/>
<stop offset="0.27" stop-color="#C82E4E"/>
<stop offset="0.31" stop-color="#9D243D"/>
<stop offset="0.35" stop-color="#771C2F"/>
<stop offset="0.39" stop-color="#571422"/>
<stop offset="0.43" stop-color="#3B0E17"/>
<stop offset="0.48" stop-color="#25090F"/>
<stop offset="0.54" stop-color="#140508"/>
<stop offset="0.61" stop-color="#090203"/>
<stop offset="0.72" stop-color="#020001"/>
<stop offset="1"/>
</linearGradient>
<linearGradient id="paint23_linear_120_1077" x1="379.002" y1="449.421" x2="414.52" y2="449.421" gradientUnits="userSpaceOnUse">
<stop stop-color="#363D3D"/>
<stop offset="0.26" stop-color="#282F2F"/>
<stop offset="0.42" stop-color="#343B3E"/>
<stop offset="0.49" stop-color="#3C4347"/>
<stop offset="0.67" stop-color="#262F30"/>
<stop offset="0.83" stop-color="#182121"/>
</linearGradient>
<radialGradient id="paint24_radial_120_1077" cx="0" cy="0" r="1" gradientUnits="userSpaceOnUse" gradientTransform="translate(405.791 167.191) rotate(-178.483) scale(262.21 239.043)">
<stop stop-color="#212D9C"/>
<stop offset="1" stop-color="#12123C"/>
</radialGradient>
<linearGradient id="paint25_linear_120_1077" x1="242.584" y1="494.841" x2="268.935" y2="494.841" gradientUnits="userSpaceOnUse">
<stop stop-color="#545A5A"/>
<stop offset="0.26" stop-color="#363D3D"/>
<stop offset="0.4" stop-color="#434A4C"/>
<stop offset="0.49" stop-color="#4F5659"/>
<stop offset="0.67" stop-color="#3A4243"/>
<stop offset="0.83" stop-color="#2C3434"/>
</linearGradient>
<linearGradient id="paint26_linear_120_1077" x1="237.873" y1="494.841" x2="269.578" y2="494.841" gradientUnits="userSpaceOnUse">
<stop stop-color="white"/>
<stop offset="0.07" stop-color="#F2B9E7"/>
<stop offset="0.15" stop-color="#E470CE"/>
<stop offset="0.17" stop-color="#C661B3"/>
<stop offset="0.2" stop-color="#9D4D8E"/>
<stop offset="0.23" stop-color="#773A6C"/>
<stop offset="0.26" stop-color="#572B4E"/>
<stop offset="0.29" stop-color="#3B1D36"/>
<stop offset="0.33" stop-color="#251222"/>
<stop offset="0.38" stop-color="#150A13"/>
<stop offset="0.44" stop-color="#090408"/>
<stop offset="0.52" stop-color="#020102"/>
<stop offset="0.75"/>
<stop offset="0.78" stop-color="#0F080E"/>
<stop offset="0.83" stop-color="#381B32"/>
<stop offset="0.9" stop-color="#793B6D"/>
<stop offset="0.98" stop-color="#D167BD"/>
<stop offset="1" stop-color="#E470CE"/>
</linearGradient>
<linearGradient id="paint27_linear_120_1077" x1="238.248" y1="500" x2="260.291" y2="500" gradientUnits="userSpaceOnUse">
<stop offset="0.06" stop-color="white"/>
<stop offset="0.09" stop-color="#FFCED9"/>
<stop offset="0.13" stop-color="#FF9AAF"/>
<stop offset="0.16" stop-color="#FF718F"/>
<stop offset="0.19" stop-color="#FF5377"/>
<stop offset="0.22" stop-color="#FF4169"/>
<stop offset="0.24" stop-color="#F63960"/>
<stop offset="0.27" stop-color="#C82E4E"/>
<stop offset="0.31" stop-color="#9D243D"/>
<stop offset="0.35" stop-color="#771C2F"/>
<stop offset="0.39" stop-color="#571422"/>
<stop offset="0.43" stop-color="#3B0E17"/>
<stop offset="0.48" stop-color="#25090F"/>
<stop offset="0.54" stop-color="#140508"/>
<stop offset="0.61" stop-color="#090203"/>
<stop offset="0.72" stop-color="#020001"/>
<stop offset="1"/>
</linearGradient>
<linearGradient id="paint28_linear_120_1077" x1="255.76" y1="423.208" x2="255.76" y2="415.856" gradientUnits="userSpaceOnUse">
<stop stop-opacity="0"/>
<stop offset="1" stop-color="#363D3D"/>
</linearGradient>
<linearGradient id="paint29_linear_120_1077" x1="238" y1="292.141" x2="273.518" y2="292.141" gradientUnits="userSpaceOnUse">
<stop stop-color="#545A5A"/>
<stop offset="0.26" stop-color="#363D3D"/>
<stop offset="0.4" stop-color="#434A4C"/>
<stop offset="0.49" stop-color="#4F5659"/>
<stop offset="0.67" stop-color="#3A4243"/>
<stop offset="0.83" stop-color="#2C3434"/>
</linearGradient>
<linearGradient id="paint30_linear_120_1077" x1="306.668" y1="302.189" x2="248.769" y2="290.76" gradientUnits="userSpaceOnUse">
<stop offset="0.06" stop-color="white"/>
<stop offset="0.09" stop-color="#FFCED9"/>
<stop offset="0.13" stop-color="#FF9AAF"/>
<stop offset="0.16" stop-color="#FF718F"/>
<stop offset="0.19" stop-color="#FF5377"/>
<stop offset="0.22" stop-color="#FF4169"/>
<stop offset="0.24" stop-color="#F63960"/>
<stop offset="0.27" stop-color="#C82E4E"/>
<stop offset="0.31" stop-color="#9D243D"/>
<stop offset="0.35" stop-color="#771C2F"/>
<stop offset="0.39" stop-color="#571422"/>
<stop offset="0.43" stop-color="#3B0E17"/>
<stop offset="0.48" stop-color="#25090F"/>
<stop offset="0.54" stop-color="#140508"/>
<stop offset="0.61" stop-color="#090203"/>
<stop offset="0.72" stop-color="#020001"/>
<stop offset="1"/>
</linearGradient>
<linearGradient id="paint31_linear_120_1077" x1="231.508" y1="292.141" x2="261.621" y2="292.141" gradientUnits="userSpaceOnUse">
<stop offset="0.06" stop-color="white"/>
<stop offset="0.09" stop-color="#FFCED9"/>
<stop offset="0.13" stop-color="#FF9AAF"/>
<stop offset="0.16" stop-color="#FF718F"/>
<stop offset="0.19" stop-color="#FF5377"/>
<stop offset="0.22" stop-color="#FF4169"/>
<stop offset="0.24" stop-color="#F63960"/>
<stop offset="0.27" stop-color="#C82E4E"/>
<stop offset="0.31" stop-color="#9D243D"/>
<stop offset="0.35" stop-color="#771C2F"/>
<stop offset="0.39" stop-color="#571422"/>
<stop offset="0.43" stop-color="#3B0E17"/>
<stop offset="0.48" stop-color="#25090F"/>
<stop offset="0.54" stop-color="#140508"/>
<stop offset="0.61" stop-color="#090203"/>
<stop offset="0.72" stop-color="#020001"/>
<stop offset="1"/>
</linearGradient>
<linearGradient id="paint32_linear_120_1077" x1="238" y1="417.189" x2="273.518" y2="417.189" gradientUnits="userSpaceOnUse">
<stop stop-color="#363D3D"/>
<stop offset="0.26" stop-color="#282F2F"/>
<stop offset="0.42" stop-color="#343B3E"/>
<stop offset="0.49" stop-color="#3C4347"/>
<stop offset="0.67" stop-color="#262F30"/>
<stop offset="0.83" stop-color="#182121"/>
</linearGradient>
<linearGradient id="paint33_linear_120_1077" x1="523.584" y1="494.841" x2="549.935" y2="494.841" gradientUnits="userSpaceOnUse">
<stop stop-color="#545A5A"/>
<stop offset="0.26" stop-color="#363D3D"/>
<stop offset="0.4" stop-color="#434A4C"/>
<stop offset="0.49" stop-color="#4F5659"/>
<stop offset="0.67" stop-color="#3A4243"/>
<stop offset="0.83" stop-color="#2C3434"/>
</linearGradient>
<linearGradient id="paint34_linear_120_1077" x1="518.873" y1="494.841" x2="550.578" y2="494.841" gradientUnits="userSpaceOnUse">
<stop stop-color="white"/>
<stop offset="0.07" stop-color="#F2B9E7"/>
<stop offset="0.15" stop-color="#E470CE"/>
<stop offset="0.17" stop-color="#C661B3"/>
<stop offset="0.2" stop-color="#9D4D8E"/>
<stop offset="0.23" stop-color="#773A6C"/>
<stop offset="0.26" stop-color="#572B4E"/>
<stop offset="0.29" stop-color="#3B1D36"/>
<stop offset="0.33" stop-color="#251222"/>
<stop offset="0.38" stop-color="#150A13"/>
<stop offset="0.44" stop-color="#090408"/>
<stop offset="0.52" stop-color="#020102"/>
<stop offset="0.75"/>
<stop offset="0.78" stop-color="#0F080E"/>
<stop offset="0.83" stop-color="#381B32"/>
<stop offset="0.9" stop-color="#793B6D"/>
<stop offset="0.98" stop-color="#D167BD"/>
<stop offset="1" stop-color="#E470CE"/>
</linearGradient>
<linearGradient id="paint35_linear_120_1077" x1="519.248" y1="500" x2="541.291" y2="500" gradientUnits="userSpaceOnUse">
<stop offset="0.06" stop-color="white"/>
<stop offset="0.09" stop-color="#FFCED9"/>
<stop offset="0.13" stop-color="#FF9AAF"/>
<stop offset="0.16" stop-color="#FF718F"/>
<stop offset="0.19" stop-color="#FF5377"/>
<stop offset="0.22" stop-color="#FF4169"/>
<stop offset="0.24" stop-color="#F63960"/>
<stop offset="0.27" stop-color="#C82E4E"/>
<stop offset="0.31" stop-color="#9D243D"/>
<stop offset="0.35" stop-color="#771C2F"/>
<stop offset="0.39" stop-color="#571422"/>
<stop offset="0.43" stop-color="#3B0E17"/>
<stop offset="0.48" stop-color="#25090F"/>
<stop offset="0.54" stop-color="#140508"/>
<stop offset="0.61" stop-color="#090203"/>
<stop offset="0.72" stop-color="#020001"/>
<stop offset="1"/>
</linearGradient>
<linearGradient id="paint36_linear_120_1077" x1="536.76" y1="423.208" x2="536.76" y2="415.856" gradientUnits="userSpaceOnUse">
<stop stop-opacity="0"/>
<stop offset="1" stop-color="#363D3D"/>
</linearGradient>
<linearGradient id="paint37_linear_120_1077" x1="519" y1="292.141" x2="554.518" y2="292.141" gradientUnits="userSpaceOnUse">
<stop stop-color="#545A5A"/>
<stop offset="0.26" stop-color="#363D3D"/>
<stop offset="0.4" stop-color="#434A4C"/>
<stop offset="0.49" stop-color="#4F5659"/>
<stop offset="0.67" stop-color="#3A4243"/>
<stop offset="0.83" stop-color="#2C3434"/>
</linearGradient>
<linearGradient id="paint38_linear_120_1077" x1="587.668" y1="302.189" x2="529.769" y2="290.76" gradientUnits="userSpaceOnUse">
<stop offset="0.06" stop-color="white"/>
<stop offset="0.09" stop-color="#FFCED9"/>
<stop offset="0.13" stop-color="#FF9AAF"/>
<stop offset="0.16" stop-color="#FF718F"/>
<stop offset="0.19" stop-color="#FF5377"/>
<stop offset="0.22" stop-color="#FF4169"/>
<stop offset="0.24" stop-color="#F63960"/>
<stop offset="0.27" stop-color="#C82E4E"/>
<stop offset="0.31" stop-color="#9D243D"/>
<stop offset="0.35" stop-color="#771C2F"/>
<stop offset="0.39" stop-color="#571422"/>
<stop offset="0.43" stop-color="#3B0E17"/>
<stop offset="0.48" stop-color="#25090F"/>
<stop offset="0.54" stop-color="#140508"/>
<stop offset="0.61" stop-color="#090203"/>
<stop offset="0.72" stop-color="#020001"/>
<stop offset="1"/>
</linearGradient>
<linearGradient id="paint39_linear_120_1077" x1="512.508" y1="292.141" x2="542.621" y2="292.141" gradientUnits="userSpaceOnUse">
<stop offset="0.06" stop-color="white"/>
<stop offset="0.09" stop-color="#FFCED9"/>
<stop offset="0.13" stop-color="#FF9AAF"/>
<stop offset="0.16" stop-color="#FF718F"/>
<stop offset="0.19" stop-color="#FF5377"/>
<stop offset="0.22" stop-color="#FF4169"/>
<stop offset="0.24" stop-color="#F63960"/>
<stop offset="0.27" stop-color="#C82E4E"/>
<stop offset="0.31" stop-color="#9D243D"/>
<stop offset="0.35" stop-color="#771C2F"/>
<stop offset="0.39" stop-color="#571422"/>
<stop offset="0.43" stop-color="#3B0E17"/>
<stop offset="0.48" stop-color="#25090F"/>
<stop offset="0.54" stop-color="#140508"/>
<stop offset="0.61" stop-color="#090203"/>
<stop offset="0.72" stop-color="#020001"/>
<stop offset="1"/>
</linearGradient>
<linearGradient id="paint40_linear_120_1077" x1="519" y1="417.189" x2="554.518" y2="417.189" gradientUnits="userSpaceOnUse">
<stop stop-color="#363D3D"/>
<stop offset="0.26" stop-color="#282F2F"/>
<stop offset="0.42" stop-color="#343B3E"/>
<stop offset="0.49" stop-color="#3C4347"/>
<stop offset="0.67" stop-color="#262F30"/>
<stop offset="0.83" stop-color="#182121"/>
</linearGradient>
<linearGradient id="paint41_linear_120_1077" x1="383.584" y1="530.841" x2="409.935" y2="530.841" gradientUnits="userSpaceOnUse">
<stop stop-color="#545A5A"/>
<stop offset="0.26" stop-color="#363D3D"/>
<stop offset="0.4" stop-color="#434A4C"/>
<stop offset="0.49" stop-color="#4F5659"/>
<stop offset="0.67" stop-color="#3A4243"/>
<stop offset="0.83" stop-color="#2C3434"/>
</linearGradient>
<linearGradient id="paint42_linear_120_1077" x1="378.873" y1="530.841" x2="410.578" y2="530.841" gradientUnits="userSpaceOnUse">
<stop stop-color="white"/>
<stop offset="0.07" stop-color="#F2B9E7"/>
<stop offset="0.15" stop-color="#E470CE"/>
<stop offset="0.17" stop-color="#C661B3"/>
<stop offset="0.2" stop-color="#9D4D8E"/>
<stop offset="0.23" stop-color="#773A6C"/>
<stop offset="0.26" stop-color="#572B4E"/>
<stop offset="0.29" stop-color="#3B1D36"/>
<stop offset="0.33" stop-color="#251222"/>
<stop offset="0.38" stop-color="#150A13"/>
<stop offset="0.44" stop-color="#090408"/>
<stop offset="0.52" stop-color="#020102"/>
<stop offset="0.75"/>
<stop offset="0.78" stop-color="#0F080E"/>
<stop offset="0.83" stop-color="#381B32"/>
<stop offset="0.9" stop-color="#793B6D"/>
<stop offset="0.98" stop-color="#D167BD"/>
<stop offset="1" stop-color="#E470CE"/>
</linearGradient>
<linearGradient id="paint43_linear_120_1077" x1="379.248" y1="536" x2="401.291" y2="536" gradientUnits="userSpaceOnUse">
<stop offset="0.06" stop-color="white"/>
<stop offset="0.09" stop-color="#FFCED9"/>
<stop offset="0.13" stop-color="#FF9AAF"/>
<stop offset="0.16" stop-color="#FF718F"/>
<stop offset="0.19" stop-color="#FF5377"/>
<stop offset="0.22" stop-color="#FF4169"/>
<stop offset="0.24" stop-color="#F63960"/>
<stop offset="0.27" stop-color="#C82E4E"/>
<stop offset="0.31" stop-color="#9D243D"/>
<stop offset="0.35" stop-color="#771C2F"/>
<stop offset="0.39" stop-color="#571422"/>
<stop offset="0.43" stop-color="#3B0E17"/>
<stop offset="0.48" stop-color="#25090F"/>
<stop offset="0.54" stop-color="#140508"/>
<stop offset="0.61" stop-color="#090203"/>
<stop offset="0.72" stop-color="#020001"/>
<stop offset="1"/>
</linearGradient>
<linearGradient id="paint44_linear_120_1077" x1="396.76" y1="459.208" x2="396.76" y2="451.856" gradientUnits="userSpaceOnUse">
<stop stop-opacity="0"/>
<stop offset="1" stop-color="#363D3D"/>
</linearGradient>
<linearGradient id="paint45_linear_120_1077" x1="379" y1="328.141" x2="414.518" y2="328.141" gradientUnits="userSpaceOnUse">
<stop stop-color="#545A5A"/>
<stop offset="0.26" stop-color="#363D3D"/>
<stop offset="0.4" stop-color="#434A4C"/>
<stop offset="0.49" stop-color="#4F5659"/>
<stop offset="0.67" stop-color="#3A4243"/>
<stop offset="0.83" stop-color="#2C3434"/>
</linearGradient>
<linearGradient id="paint46_linear_120_1077" x1="447.668" y1="338.189" x2="389.769" y2="326.76" gradientUnits="userSpaceOnUse">
<stop offset="0.06" stop-color="white"/>
<stop offset="0.09" stop-color="#FFCED9"/>
<stop offset="0.13" stop-color="#FF9AAF"/>
<stop offset="0.16" stop-color="#FF718F"/>
<stop offset="0.19" stop-color="#FF5377"/>
<stop offset="0.22" stop-color="#FF4169"/>
<stop offset="0.24" stop-color="#F63960"/>
<stop offset="0.27" stop-color="#C82E4E"/>
<stop offset="0.31" stop-color="#9D243D"/>
<stop offset="0.35" stop-color="#771C2F"/>
<stop offset="0.39" stop-color="#571422"/>
<stop offset="0.43" stop-color="#3B0E17"/>
<stop offset="0.48" stop-color="#25090F"/>
<stop offset="0.54" stop-color="#140508"/>
<stop offset="0.61" stop-color="#090203"/>
<stop offset="0.72" stop-color="#020001"/>
<stop offset="1"/>
</linearGradient>
<linearGradient id="paint47_linear_120_1077" x1="372.508" y1="328.141" x2="402.621" y2="328.141" gradientUnits="userSpaceOnUse">
<stop offset="0.06" stop-color="white"/>
<stop offset="0.09" stop-color="#FFCED9"/>
<stop offset="0.13" stop-color="#FF9AAF"/>
<stop offset="0.16" stop-color="#FF718F"/>
<stop offset="0.19" stop-color="#FF5377"/>
<stop offset="0.22" stop-color="#FF4169"/>
<stop offset="0.24" stop-color="#F63960"/>
<stop offset="0.27" stop-color="#C82E4E"/>
<stop offset="0.31" stop-color="#9D243D"/>
<stop offset="0.35" stop-color="#771C2F"/>
<stop offset="0.39" stop-color="#571422"/>
<stop offset="0.43" stop-color="#3B0E17"/>
<stop offset="0.48" stop-color="#25090F"/>
<stop offset="0.54" stop-color="#140508"/>
<stop offset="0.61" stop-color="#090203"/>
<stop offset="0.72" stop-color="#020001"/>
<stop offset="1"/>
</linearGradient>
<linearGradient id="paint48_linear_120_1077" x1="379" y1="453.189" x2="414.518" y2="453.189" gradientUnits="userSpaceOnUse">
<stop stop-color="#363D3D"/>
<stop offset="0.26" stop-color="#282F2F"/>
<stop offset="0.42" stop-color="#343B3E"/>
<stop offset="0.49" stop-color="#3C4347"/>
<stop offset="0.67" stop-color="#262F30"/>
<stop offset="0.83" stop-color="#182121"/>
</linearGradient>
<radialGradient id="paint49_radial_120_1077" cx="0" cy="0" r="1" gradientUnits="userSpaceOnUse" gradientTransform="translate(405.821 168.5) rotate(-178.483) scale(264.414 241.127)">
<stop stop-color="#212D9C"/>
<stop offset="1" stop-color="#12123C"/>
</radialGradient>
</defs>
</svg>
