<svg width="256" height="261" viewBox="0 0 256 261" fill="none" xmlns="http://www.w3.org/2000/svg">
<g opacity="0.8">
<g style="mix-blend-mode:screen">
<path opacity="0.5" d="M139.697 128.192C141.266 127.723 142.938 127.723 144.508 128.192C143.316 129.181 142.01 130.023 140.618 130.701C138.11 132.237 136.268 131.776 135.961 131.111C135.653 130.445 136.421 128.704 139.697 128.192Z" fill="#7D7A7C"/>
<path d="M137.65 129.37C138.468 129.011 139.287 129.37 139.492 129.677C139.697 129.984 139.185 130.855 138.366 131.213C137.547 131.571 136.728 131.213 136.524 130.906C136.319 130.599 136.779 129.677 137.65 129.37Z" fill="#F9E6CF"/>
<path opacity="0.5" d="M143.023 140.685C143.528 139.221 143.651 137.653 143.382 136.128C143.382 134.899 142.512 134.285 142.665 134.183C142.819 134.08 143.689 134.183 144.508 135.565C145.466 137.204 145.895 139.1 145.736 140.992C145.429 146.112 143.023 148.006 142.409 147.75C141.795 147.494 141.59 145.139 143.023 140.685Z" fill="#7D7A7C"/>
<path d="M142.614 144.115C142.972 142.835 143.74 141.862 144.2 141.965C144.661 142.067 144.917 143.296 144.508 144.678C144.098 146.061 143.228 146.982 142.767 146.829C142.307 146.675 142.307 145.446 142.614 144.115Z" fill="#F9E6CF"/>
<path opacity="0.5" d="M132.532 115.239C133.767 116.354 134.596 117.849 134.886 119.488C135.142 120.615 135.142 121.383 134.886 121.383C134.63 121.383 133.146 118.669 130.843 117.543C128.54 116.416 126.492 117.901 126.032 117.082C125.571 116.263 126.032 116.058 126.697 115.239C127.328 114.751 128.064 114.418 128.847 114.266C129.494 114.126 130.165 114.141 130.806 114.31C131.446 114.479 132.038 114.797 132.532 115.239Z" fill="#7D7A7C"/>
<path d="M128.847 114.829C130.331 114.829 131.406 115.495 131.15 115.956C130.894 116.416 130.075 116.621 129.205 116.775C128.335 116.928 127.311 116.775 127.055 116.775C126.799 116.775 127.26 115.239 128.847 114.829Z" fill="#F9E6CF"/>
<path opacity="0.5" d="M119.89 122.407C121.121 122.132 122.397 122.123 123.632 122.379C124.867 122.635 126.034 123.15 127.055 123.891C124.903 124.014 122.772 124.392 120.709 125.018C117.485 126.81 115.591 128.346 115.028 127.885C114.465 127.424 114.567 126.912 115.028 125.786C115.532 124.893 116.231 124.125 117.073 123.54C117.915 122.955 118.878 122.567 119.89 122.407Z" fill="#7D7A7C"/>
<path d="M116.615 124.557C117.843 123.687 119.071 123.533 119.327 124.096C119.583 124.659 118.815 125.427 117.843 126.144C116.871 126.861 115.949 127.373 115.591 127.066C115.233 126.759 115.54 125.581 116.615 124.557Z" fill="#F9E6CF"/>
<path opacity="0.5" d="M112.367 139.354C115.279 137.593 118.487 136.379 121.835 135.77C121.835 135.77 117.997 138.381 113.902 141.658C108.784 145.6 106.942 147.75 106.276 147.546C105.611 147.341 105.713 146.419 106.532 144.832C107.894 142.47 109.924 140.564 112.367 139.354Z" fill="#7D7A7C"/>
<path d="M108.375 142.938C109.859 141.555 111.394 140.941 111.753 141.402C112.111 141.862 111.087 143.091 109.757 144.371C108.426 145.651 107.3 146.624 106.788 146.317C106.276 146.01 106.993 144.371 108.375 142.938Z" fill="#F9E6CF"/>
<path opacity="0.5" d="M149.318 117.543C147.928 119.147 146.173 120.394 144.2 121.178C144.986 119.392 145.928 117.678 147.015 116.058C147.885 114.42 148.192 113.447 148.448 113.447C148.704 113.447 148.448 113.088 148.448 112.781C148.36 112.568 148.36 112.329 148.448 112.116C148.448 112.116 149.114 111.04 150.598 112.116C150.914 112.524 151.118 113.009 151.19 113.52C151.262 114.032 151.199 114.554 151.007 115.034C150.628 115.98 150.052 116.835 149.318 117.543Z" fill="#7D7A7C"/>
<path d="M150.7 114.368C150.24 115.751 149.267 116.263 148.858 115.956C148.448 115.648 148.5 114.676 148.858 113.856C148.806 113.69 148.806 113.511 148.858 113.344C148.818 113.246 148.818 113.136 148.858 113.037C148.858 112.781 148.858 112.525 148.858 112.269C148.92 112.194 148.998 112.133 149.087 112.092C149.175 112.05 149.272 112.029 149.37 112.029C149.467 112.029 149.564 112.05 149.652 112.092C149.741 112.133 149.819 112.194 149.881 112.269C150.121 112.541 150.312 112.853 150.444 113.191C150.583 113.57 150.669 113.966 150.7 114.368Z" fill="#F9E6CF"/>
<path opacity="0.5" d="M137.803 106.176C137.544 109.025 136.634 111.775 135.142 114.215C134.835 114.215 135.142 110.324 135.142 106.125C135.111 104.371 134.764 102.637 134.118 101.005C133.841 100.666 133.617 100.286 133.453 99.8789C133.197 99.6229 133.094 99.4181 133.146 99.2134C133.197 99.0086 134.016 98.343 135.653 99.2134C136.62 100.062 137.332 101.162 137.712 102.391C138.091 103.62 138.123 104.93 137.803 106.176Z" fill="#7D7A7C"/>
<path d="M136.779 101.671C137.496 103.463 136.779 104.845 136.421 104.896C136.063 104.948 135.449 103.616 134.937 102.439C134.425 101.261 134.374 101.364 134.323 100.852C134.186 100.733 134.081 100.581 134.019 100.411C133.956 100.241 133.938 100.058 133.965 99.8789C133.965 99.6229 134.528 99.6229 135.193 99.8789C135.895 100.297 136.449 100.924 136.779 101.671Z" fill="#F9E6CF"/>
<path opacity="0.5" d="M140.055 104.18C140.823 99.9301 141.539 96.039 142.051 93.1206C142.233 91.558 142.558 90.0155 143.023 88.5126C143.302 90.0662 143.388 91.6483 143.279 93.223C143.279 96.1413 143.279 100.186 142.819 104.538C141.949 115.034 139.748 120.205 139.031 119.898C138.315 119.591 137.957 115.085 140.055 104.18Z" fill="#7D7A7C"/>
<path d="M139.083 112.218C139.543 109.146 140.362 106.74 140.874 106.791C141.386 106.842 141.539 109.402 140.874 112.525C140.208 115.648 139.492 118.004 138.98 117.645C138.468 117.287 139.083 115.239 139.083 112.218Z" fill="#F9E6CF"/>
<path opacity="0.5" d="M151.724 94.3494C150.444 98.0358 149.114 101.313 148.039 103.719C147.559 105.062 146.905 106.335 146.094 107.508C145.838 107.508 147.425 101.108 149.063 93.5814C149.817 89.0362 150.964 84.5651 152.492 80.2184C152.799 80.2184 153.669 81.1911 153.822 83.6487C153.75 87.3105 153.04 90.9317 151.724 94.3494Z" fill="#7D7A7C"/>
<path d="M153.055 87.1303C152.543 89.895 151.519 92.2502 150.956 91.8406C150.393 91.431 150.598 89.4343 150.956 86.7207C151.314 84.0071 151.98 81.9591 152.543 81.9591C153.106 81.9591 153.618 84.3655 153.055 87.1303Z" fill="#F9E6CF"/>
<path opacity="0.5" d="M111.497 132.391C114.572 131.191 117.882 130.718 121.17 131.008C121.17 131.315 116.973 132.493 112.571 134.899C107.454 137.818 104.946 139.507 104.28 139.046C103.615 138.586 104.024 137.818 105.099 136.538C106.763 134.54 108.994 133.094 111.497 132.391Z" fill="#7D7A7C"/>
<path d="M107.249 135.155C108.835 133.978 110.473 133.824 110.678 134.285C110.883 134.746 109.757 135.77 108.324 136.794C106.891 137.818 105.56 138.483 105.15 138.022C104.741 137.562 105.611 136.231 107.249 135.155Z" fill="#F9E6CF"/>
<path opacity="0.5" d="M88.9777 118.055C93.011 118.338 97.0058 119.024 100.903 120.103C102.573 120.401 104.193 120.936 105.713 121.69C105.713 122.048 97.9853 120.563 88.9265 120.768C84.8279 120.857 80.7405 121.233 76.6946 121.895C73.9821 122.304 72.549 122.611 72.3955 122.253C72.242 121.895 73.0608 120.768 75.7734 119.693C79.9747 118.075 84.5085 117.513 88.9777 118.055Z" fill="#7D7A7C"/>
<path d="M80.1748 118.925C83.5526 118.362 86.3163 118.925 86.3163 119.335C86.3163 119.744 83.655 120.359 80.4819 120.871C77.3087 121.383 74.7497 121.946 74.4938 121.331C74.238 120.717 76.7457 119.335 80.1748 118.925Z" fill="#F9E6CF"/>
<path opacity="0.5" d="M169.79 107.456L159.913 112.986C158.588 113.867 157.183 114.622 155.716 115.239C156.76 114.027 157.946 112.944 159.247 112.013C161.499 110.119 164.672 107.61 168.255 105.101C171.549 102.683 175.213 100.816 179.105 99.5717C181.869 98.7525 183.558 99.5717 183.455 99.5717C183.353 99.5717 179.514 101.927 169.79 107.456Z" fill="#7D7A7C"/>
<path d="M176.546 103.156C173.782 104.538 171.428 105.46 171.121 104.999C170.814 104.538 172.81 102.797 175.625 101.364C178.44 99.9301 181.152 99.5205 181.306 100.084C181.459 100.647 179.259 101.722 176.546 103.156Z" fill="#F9E6CF"/>
<path opacity="0.5" d="M170.251 122.304C165.133 122.304 160.731 123.021 160.68 122.714C163.589 121.077 166.787 120.016 170.097 119.591C171.441 119.224 172.855 119.196 174.212 119.509C175.569 119.822 176.828 120.465 177.877 121.383C179.31 123.123 178.644 124.352 178.337 124.352C178.03 124.352 177.467 123.738 176.444 123.277C174.463 122.552 172.359 122.221 170.251 122.304Z" fill="#7D7A7C"/>
<path d="M174.908 122.253C173.322 121.843 171.786 121.434 171.786 120.922C171.786 120.41 173.373 119.796 175.42 120.308C177.467 120.819 178.542 122.919 177.979 123.123C177.416 123.328 176.392 122.611 174.908 122.253Z" fill="#F9E6CF"/>
<path opacity="0.5" d="M163.444 90.0486C160.987 93.735 158.326 97.0117 156.842 99.3669C155.956 100.704 154.926 101.94 153.771 103.053C154.272 101.533 154.941 100.073 155.767 98.7013C157.149 96.039 159.043 92.5062 160.885 88.4614C166.105 79.2967 169.176 75.0984 169.79 75.0984C170.404 75.0984 169.79 80.6279 163.444 90.0486Z" fill="#7D7A7C"/>
<path d="M167.231 82.7271C165.696 85.4919 164.007 87.4887 163.546 87.1815C163.086 86.8743 163.956 84.5191 165.491 81.7543C167.027 78.9896 168.46 76.9928 168.971 77.1976C169.483 77.4024 168.767 80.2183 167.231 82.7271Z" fill="#F9E6CF"/>
<path opacity="0.5" d="M134.886 76.6856C135.551 81.8055 135.858 86.9255 136.012 90.3046C136.159 92.2132 136.159 94.1304 136.012 96.039C135.444 94.2171 135.033 92.35 134.783 90.4582C134.118 86.9767 133.299 82.2663 132.173 77.1976C130.843 71.0536 129.717 66.4969 128.847 63.4761C127.977 60.4554 127.362 59.073 127.669 58.817C127.977 58.561 129.461 59.3802 130.945 62.2985C133.104 66.8212 134.439 71.6934 134.886 76.6856Z" fill="#7D7A7C"/>
<path d="M132.378 67.1113C133.402 70.7976 133.504 73.9208 132.992 74.0232C132.48 74.1256 131.457 71.2072 130.484 67.6745C129.512 64.1417 128.847 61.3257 128.847 61.0185C128.847 60.7114 131.406 63.4249 132.378 67.1113Z" fill="#F9E6CF"/>
<path opacity="0.5" d="M122.398 146.061C123.806 144.167 125.539 142.537 127.516 141.248C126.727 143.453 125.734 145.578 124.548 147.597C123.805 149.094 122.895 150.503 121.835 151.795C121.221 152.614 120.556 153.024 120.197 152.973C119.839 152.922 119.481 152.205 119.634 150.925C120.086 149.078 121.043 147.394 122.398 146.061Z" fill="#7D7A7C"/>
<path d="M120.811 149.338C121.477 148.109 122.449 147.392 122.91 147.699C123.37 148.006 123.166 149.133 122.552 150.31C121.937 151.488 121.119 152.205 120.658 152.051C120.197 151.898 120.095 150.566 120.811 149.338Z" fill="#F9E6CF"/>
<path opacity="0.5" d="M103.257 202.431L113.493 181.491L116.666 175.142C117.039 174.346 117.466 173.576 117.945 172.838C117.769 173.703 117.494 174.545 117.126 175.347C116.563 176.934 115.693 179.238 114.619 182.003C112.418 187.584 109.501 195.263 106.021 203.558C97.8829 223.679 92.3044 233.458 91.639 233.151C90.9737 232.844 93.5839 223.577 103.257 202.431Z" fill="#7D7A7C"/>
<path d="M97.0641 217.945C98.3229 214.237 100.21 210.773 102.643 207.705C101.994 211.574 100.714 215.31 98.8553 218.764C97.602 222.464 95.7333 225.926 93.3279 229.004C93.9451 225.134 95.2081 221.396 97.0641 217.945Z" fill="#F9E6CF"/>
<path opacity="0.5" d="M93.0209 208.217L105.611 186.457C107.3 183.692 108.631 181.337 109.603 179.852C110.075 179.014 110.605 178.21 111.19 177.446C110.888 178.346 110.511 179.22 110.064 180.057C109.296 181.747 108.119 184.102 106.737 187.02L95.4263 209.497C84.781 230.437 77.9229 240.626 77.2576 240.217C76.5922 239.807 80.5843 229.925 93.0209 208.217Z" fill="#7D7A7C"/>
<path d="M84.781 224.294C86.4693 220.408 88.7864 216.827 91.639 213.695C90.537 217.792 88.8108 221.695 86.5211 225.266C84.7726 229.12 82.4614 232.691 79.663 235.865C80.7377 231.758 82.4657 227.851 84.781 224.294Z" fill="#F9E6CF"/>
<path opacity="0.5" d="M82.3244 212.057C86.9305 205.196 91.1784 198.899 94.4028 194.393L98.2412 189.273C99.1625 188.044 99.6743 187.328 99.7766 187.379C99.4726 188.147 99.0956 188.884 98.6507 189.58L95.4263 195.263C92.6115 200.076 88.8242 206.63 84.6275 213.746C74.3915 230.898 68.4035 239.346 67.5847 238.885C66.7658 238.425 70.2972 229.669 82.3244 212.057Z" fill="#7D7A7C"/>
<path d="M74.3915 225.318C76.0547 222.104 78.2724 219.209 80.9425 216.767C79.8561 220.269 78.1198 223.534 75.8245 226.393C74.253 229.639 72.1023 232.571 69.4783 235.045C70.4908 231.523 72.1577 228.223 74.3915 225.318Z" fill="#F9E6CF"/>
<path opacity="0.5" d="M87.9029 194.956L97.4735 182.31C98.7785 180.5 100.215 178.788 101.773 177.19C100.84 179.221 99.7445 181.173 98.4971 183.027C96.3987 186.56 93.3791 191.321 90.1548 196.543C82.222 209.087 76.9505 214.719 76.2851 214.31C75.6198 213.9 78.3323 207.654 87.9029 194.956Z" fill="#7D7A7C"/>
<path d="M81.6078 204.633C84.1156 200.998 86.4699 198.335 86.7258 198.643C86.9817 198.95 85.5486 202.124 83.0408 205.759C80.533 209.394 78.1788 212.057 77.9229 211.75C77.667 211.442 79.1512 208.217 81.6078 204.633Z" fill="#F9E6CF"/>
<path opacity="0.5" d="M90.0013 167.257C95.1192 163.11 99.6742 159.475 103.154 157.017C104.975 155.522 106.908 154.17 108.938 152.973C108.938 152.973 108.528 153.536 107.658 154.406L103.973 157.939L91.8438 169.459C80.4307 180.16 74.5962 185.433 73.9821 184.819C73.3679 184.204 77.0017 177.907 90.0013 167.257Z" fill="#7D7A7C"/>
<path d="M81.3008 175.808C84.6786 172.633 87.7494 170.432 88.1588 170.688C88.5683 170.944 86.0093 174.067 82.785 177.497C79.5607 180.928 76.6434 183.129 76.234 182.617C75.8246 182.105 77.9229 179.033 81.3008 175.808Z" fill="#F9E6CF"/>
<path opacity="0.5" d="M65.9981 195.622C73.0097 189.222 79.5606 183.488 84.3715 179.392L90.1036 174.528C90.7972 173.892 91.5515 173.326 92.3555 172.838C91.8058 173.607 91.1705 174.311 90.4619 174.937L85.3439 180.313C80.8401 184.768 74.6474 190.911 67.9941 197.619C59.8736 205.708 53.6467 211.716 49.3135 215.641C45.0656 219.583 42.8137 221.529 42.5578 221.273C42.3019 221.017 47.8293 212.006 65.9981 195.622Z" fill="#7D7A7C"/>
<path d="M53.5103 208.217C56.2252 205.08 59.4421 202.415 63.0297 200.332C60.8214 203.83 58.0751 206.958 54.8921 209.599C52.1983 212.717 49.08 215.44 45.6286 217.689C47.6843 214.096 50.3516 210.891 53.5103 208.217Z" fill="#F9E6CF"/>
<path opacity="0.5" d="M73.9821 197.977L87.9029 183.436L92.202 179.136C92.7167 178.573 93.2821 178.059 93.8909 177.6C93.5365 178.277 93.1073 178.912 92.6114 179.494L88.8242 184.256L76.234 199.615C64.258 213.951 57.0416 220.351 56.4275 220.095C55.8133 219.839 60.3683 212.313 73.9821 197.977Z" fill="#7D7A7C"/>
<path d="M64.7186 208.882C68.4035 204.735 71.679 201.663 72.0884 202.073C70.6927 205.126 68.7102 207.875 66.254 210.162C62.569 214.31 59.2935 217.33 58.8841 216.972C60.2799 213.919 62.2623 211.17 64.7186 208.882Z" fill="#F9E6CF"/>
<path opacity="0.5" d="M68.9153 177.497C76.0804 171.865 82.785 167.257 87.9029 163.622L93.7886 159.629C94.4763 159.072 95.2333 158.608 96.0405 158.246C95.4423 158.896 94.7919 159.495 94.0956 160.038L88.6706 164.595L70.8089 179.443C54.0732 193.267 45.6286 200.383 45.2191 199.923C44.8097 199.462 50.2859 191.168 68.9153 177.497Z" fill="#7D7A7C"/>
<path d="M56.1204 188.198C58.9095 185.428 62.1671 183.175 65.7422 181.542C66.1004 182.003 62.3131 185.587 57.3999 189.734C54.637 192.481 51.5013 194.825 48.0852 196.697C50.2056 193.384 52.9316 190.5 56.1204 188.198Z" fill="#F9E6CF"/>
<path opacity="0.5" d="M44.9633 161.011C53.7662 157.427 62.0061 154.611 67.9941 152.614L75.1592 150.362C76.0389 150.05 76.9476 149.827 77.8717 149.696C77.0625 150.143 76.2247 150.536 75.3639 150.874L68.4547 153.792C62.6202 156.249 54.6362 159.577 46.038 163.52C35.8021 168.281 27.9716 172.07 22.956 174.835C20.5116 176.42 17.964 177.839 15.3303 179.084C15.0232 179.084 16.5074 176.473 21.1648 173.094C28.6066 168.164 36.5922 164.11 44.9633 161.011Z" fill="#7D7A7C"/>
<path d="M29.0464 168.845C32.5649 166.647 36.4753 165.152 40.5618 164.441C37.2989 166.935 33.7406 169.016 29.9676 170.637C26.4937 172.801 22.8064 174.603 18.964 176.012C21.7643 172.919 25.2049 170.473 29.0464 168.845Z" fill="#F9E6CF"/>
<path opacity="0.5" d="M48.4435 169.664C55.5063 166.285 62.1596 163.469 66.9705 161.472L72.5491 159.168C73.2563 158.855 73.9937 158.614 74.7498 158.451C74.7498 158.451 74.0844 158.963 72.805 159.68L67.4311 162.598L49.6718 172.377C41.4319 176.934 35.188 180.364 31.0936 182.617C29.1029 184.021 26.9561 185.19 24.6961 186.099C23.9796 185.331 30.0188 178.214 48.4435 169.664Z" fill="#7D7A7C"/>
<path d="M35.6997 177.036C38.5031 175.035 41.6929 173.64 45.0656 172.94C45.3727 173.452 41.5342 175.91 36.7233 178.726C33.9543 180.694 30.922 182.263 27.7157 183.385C27.3574 182.924 30.8377 179.852 35.6997 177.036Z" fill="#F9E6CF"/>
<path opacity="0.5" d="M57.1952 171.149C62.9273 168.179 68.25 165.619 72.1396 163.827L76.797 161.779C77.3689 161.495 77.9694 161.272 78.5883 161.113C78.1331 161.561 77.616 161.94 77.0529 162.24L72.7026 164.953L58.5259 173.555C52.0566 178.009 45.2059 181.881 38.054 185.126C37.5422 184.512 42.4555 178.726 57.1952 171.149Z" fill="#7D7A7C"/>
<path d="M46.9592 177.497C50.9 175.04 54.3291 173.606 54.6362 174.067C54.9432 174.528 51.8725 176.78 47.9828 179.187C45.7688 180.905 43.2513 182.19 40.5618 182.976C40.357 182.617 43.1719 180.057 46.9592 177.497Z" fill="#F9E6CF"/>
<path opacity="0.5" d="M48.904 124.557C56.7857 124.557 64.002 125.069 69.3759 125.581L75.5686 126.298C76.3299 126.368 77.0834 126.505 77.8205 126.707C77.0547 126.783 76.2833 126.783 75.5174 126.707H69.1712C64.0532 126.707 56.7345 126.707 48.9552 127.219C41.9187 127.539 34.9099 128.309 27.9716 129.523C23.3654 130.445 21.1647 131.469 20.9088 131.059C20.6529 130.65 22.2907 129.011 26.8456 127.373C33.9944 125.231 41.4467 124.28 48.904 124.557Z" fill="#7D7A7C"/>
<path d="M34.2155 126.298C37.5805 125.497 41.0864 125.497 44.4514 126.298C41.2434 127.452 37.8778 128.108 34.4714 128.243C31.1899 128.996 27.8519 129.475 24.4914 129.677C24.2355 128.909 28.5346 126.963 34.2155 126.298Z" fill="#F9E6CF"/>
<path opacity="0.5" d="M62.3131 133.415C67.9429 132.851 73.112 132.647 76.8481 132.647C78.8989 132.567 80.9527 132.652 82.9897 132.903C81.01 133.408 78.9887 133.733 76.9505 133.875C73.2656 134.387 68.1476 135.104 62.7226 136.128C56.1204 137.408 51.2072 138.586 48.034 139.558C44.8609 140.531 43.3255 141.35 42.9161 141.043C42.5066 140.736 43.5814 139.2 46.6522 137.511C51.5609 135.151 56.8782 133.76 62.3131 133.415Z" fill="#7D7A7C"/>
<path d="M52.0772 135.923C56.018 134.848 59.3447 134.797 59.4471 135.309C59.5494 135.821 56.3763 136.794 52.589 137.869C50.3438 138.753 47.9818 139.305 45.5774 139.507C45.2191 138.944 48.0852 136.999 52.0772 135.923Z" fill="#F9E6CF"/>
<path opacity="0.5" d="M104.434 114.164C107.351 114.794 110.223 115.615 113.032 116.621C114.234 116.991 115.385 117.507 116.461 118.157C116.461 118.464 110.729 117.44 104.024 116.877C99.9492 116.919 95.8768 116.645 91.8438 116.058C91.8438 115.648 92.4067 114.88 94.5563 114.112C97.8066 113.349 101.192 113.366 104.434 114.164Z" fill="#7D7A7C"/>
<path d="M98.1389 114.061C100.647 114.061 102.591 114.778 102.54 115.29C102.489 115.802 100.493 116.007 98.1389 116.058C95.7846 116.109 93.891 116.058 93.7374 115.495C93.5839 114.932 95.324 114.061 98.1389 114.061Z" fill="#F9E6CF"/>
<path opacity="0.5" d="M86.3164 98.1894C90.1937 99.4858 93.9593 101.095 97.5759 103.002C99.1177 103.73 100.576 104.623 101.926 105.664C100.267 105.307 98.6402 104.81 97.0641 104.18C93.3239 102.818 89.5142 101.656 85.651 100.698C80.2162 99.671 74.7018 99.1228 69.1712 99.0597C69.1712 99.0597 69.1712 98.5478 69.8877 98.0358C70.8539 97.5467 71.8652 97.1524 72.9073 96.8582C77.4163 96.1153 82.0413 96.5745 86.3164 98.1894Z" fill="#7D7A7C"/>
<path d="M77.667 97.0629C81.0961 97.3701 83.7062 98.3429 83.6039 98.9573C83.5015 99.5717 80.789 99.3157 77.5647 98.9573C75.9781 98.9573 74.4939 98.9573 73.4191 98.9573C72.3444 98.9573 71.679 98.9573 71.6278 98.5477C71.5767 98.1381 72.1908 97.9333 73.2656 97.5237C74.7075 97.1855 76.1864 97.0307 77.667 97.0629Z" fill="#F9E6CF"/>
<path opacity="0.5" d="M71.8837 104.231C76.5861 105.441 81.2025 106.963 85.7022 108.788C87.5965 109.485 89.4284 110.341 91.1784 111.348C89.1788 111.066 87.2088 110.603 85.2928 109.965C81.7102 109.095 76.7458 107.764 71.3208 106.944C66.4526 106.081 61.5242 105.602 56.581 105.511C54.8859 105.783 53.1582 105.783 51.4631 105.511C51.4631 105.05 52.5378 104.077 55.9669 103.104C61.2911 102.312 66.724 102.697 71.8837 104.231Z" fill="#7D7A7C"/>
<path d="M61.3407 103.207C65.4351 103.207 68.557 104.487 68.4547 104.999C68.3523 105.511 65.1792 105.357 61.2895 104.999C59.3447 104.999 57.6046 104.999 56.1716 104.999C54.7386 104.999 54.1244 104.999 54.022 104.692C53.9197 104.384 54.7386 103.975 56.018 103.565C57.7745 103.257 59.5588 103.137 61.3407 103.207Z" fill="#F9E6CF"/>
<path opacity="0.5" d="M42.3019 110.375C51.1048 111.808 59.14 113.549 64.8721 114.983C67.7893 115.648 69.9901 116.263 71.7302 116.724C72.5966 116.893 73.4388 117.168 74.238 117.543C73.3607 117.515 72.4875 117.412 71.6278 117.236L64.6674 116.058C58.7817 115.188 50.7465 113.959 41.9436 113.037C33.9595 112.072 25.9304 111.526 17.8892 111.399C15.1617 111.546 12.4281 111.546 9.7005 111.399C9.7005 111.092 11.7989 109.607 17.1727 108.89C25.5773 108.207 34.0362 108.706 42.3019 110.375Z" fill="#7D7A7C"/>
<path d="M25.6173 109.248C29.5146 109.009 33.419 109.584 37.0816 110.938C33.2609 111.462 29.3868 111.462 25.5662 110.938C21.7503 111.229 17.9178 111.229 14.1019 110.938C17.7135 109.331 21.6966 108.747 25.6173 109.248Z" fill="#F9E6CF"/>
<path opacity="0.5" d="M121.118 107.2C122.777 108.236 124.177 109.637 125.213 111.296C126.032 112.525 126.339 113.396 126.236 113.447C124.253 112.002 122.147 110.734 119.941 109.658C118.482 109.141 116.928 108.949 115.386 109.095C114.209 109.095 113.493 109.095 113.288 108.839C113.083 108.583 113.288 107.61 114.465 106.893C115.486 106.299 116.657 106.012 117.837 106.066C119.017 106.121 120.156 106.515 121.118 107.2Z" fill="#7D7A7C"/>
<path d="M116.717 106.637C118.508 106.637 119.634 107.508 119.43 107.917C119.225 108.327 118.099 108.429 116.819 108.583C115.54 108.736 114.414 108.583 114.158 108.276C113.902 107.968 114.977 106.74 116.717 106.637Z" fill="#F9E6CF"/>
<path opacity="0.5" d="M121.886 90.0486C123.817 93.6482 125.41 97.4189 126.646 101.313C127.302 102.95 127.715 104.675 127.874 106.432C127.567 106.432 124.65 99.2645 119.532 91.687C117.384 88.2796 114.686 85.2519 111.548 82.7271C109.45 81.1399 108.016 80.7815 108.068 80.3719C108.119 79.9624 109.552 79.3992 112.418 80.3719C116.579 82.4302 119.918 85.8424 121.886 90.0486Z" fill="#7D7A7C"/>
<path d="M116.052 83.2391C118.56 85.6455 119.685 88.3591 119.276 88.3591C118.867 88.3591 116.973 86.6695 114.67 84.4679C112.367 82.2663 110.166 81.0375 110.32 80.5255C110.473 80.0135 113.493 80.7303 116.052 83.2391Z" fill="#F9E6CF"/>
<path opacity="0.5" d="M171.428 140.992C164.519 136.896 157.763 134.951 157.865 134.592C159.386 134.61 160.899 134.817 162.369 135.207C165.895 135.951 169.328 137.084 172.605 138.586C176.372 140.122 179.498 142.905 181.459 146.47C181.864 147.419 182.14 148.418 182.278 149.44C182.278 150.208 182.278 150.566 181.869 150.618C181.459 150.669 180.947 149.696 179.514 147.904C177.241 145.147 174.505 142.808 171.428 140.992Z" fill="#7D7A7C"/>
<path d="M177.621 144.986C176.597 144.013 175.625 143.142 175.011 142.426C174.396 141.709 173.936 141.248 174.089 140.992C174.243 140.736 174.908 140.992 175.829 141.248C176.963 141.906 178.026 142.678 179.003 143.552C181.254 145.856 181.817 148.672 181.306 148.672C180.794 148.672 179.566 146.778 177.621 144.986Z" fill="#F9E6CF"/>
<path opacity="0.5" d="M155.614 147.341C155.317 145.028 154.643 142.779 153.618 140.685C154.787 141.311 155.811 142.178 156.623 143.228C157.434 144.278 158.015 145.488 158.326 146.778C159.861 151.898 157.661 154.509 157.047 154.304C156.432 154.099 155.818 151.898 155.614 147.341Z" fill="#7D7A7C"/>
<path d="M156.33 150.72C156.33 149.389 156.33 148.262 157.149 148.16C157.968 148.058 158.377 149.235 158.326 150.72C158.275 152.205 157.712 153.331 157.149 153.28C156.586 153.229 156.33 151.898 156.33 150.72Z" fill="#F9E6CF"/>
<path opacity="0.5" d="M145.941 166.643C145.751 162.079 145.169 157.539 144.2 153.075C145.049 154.179 145.691 155.428 146.094 156.761C147.379 159.889 148.223 163.18 148.602 166.541C149.026 170.146 148.57 173.8 147.271 177.19C146.35 179.494 145.326 180.364 145.019 180.262C144.712 180.16 145.48 176.012 145.941 166.643Z" fill="#7D7A7C"/>
<path d="M145.941 173.504C146.299 170.893 146.811 168.793 147.322 168.793C147.834 168.793 148.295 171.046 147.885 173.913C147.476 176.78 146.35 178.777 145.787 178.572C145.224 178.368 145.378 176.064 145.941 173.504Z" fill="#F9E6CF"/>
<path opacity="0.5" d="M112.879 194.239L120.3 177.804C121.323 175.756 122.142 174.016 122.705 172.684C123.268 171.353 123.626 170.841 123.729 170.893C123.608 171.57 123.437 172.237 123.217 172.889L121.477 178.009C119.89 182.464 117.741 188.249 115.438 195.007C109.654 210.879 105.202 218.508 104.587 218.201C103.973 217.894 105.56 210.674 112.879 194.239Z" fill="#7D7A7C"/>
<path d="M108.375 206.425C109.232 203.491 110.697 200.769 112.674 198.438C112.511 201.502 111.672 204.492 110.217 207.193C109.383 210.137 107.916 212.863 105.918 215.18C106.116 212.122 106.953 209.139 108.375 206.425Z" fill="#F9E6CF"/>
<path opacity="0.5" d="M127.618 197.158C128.642 191.372 129.512 185.996 130.177 182.054C130.463 179.925 130.908 177.82 131.508 175.756C131.65 177.904 131.65 180.06 131.508 182.208C131.252 186.15 130.996 191.577 130.433 197.567C129.256 211.903 126.339 219.071 125.571 218.815C124.803 218.559 125.162 212.159 127.618 197.158Z" fill="#7D7A7C"/>
<path d="M126.492 208.217C127.209 204.07 127.977 200.691 128.54 200.742C129.234 203.289 129.234 205.976 128.54 208.524C127.874 212.671 126.902 215.999 126.288 215.897C125.783 213.354 125.853 210.73 126.492 208.217Z" fill="#F9E6CF"/>
<path opacity="0.5" d="M133.453 219.942C134.067 210.265 134.681 201.407 135.09 194.905C135.346 191.679 135.551 189.017 135.653 187.174C135.661 186.224 135.781 185.279 136.012 184.358C136.064 185.313 136.064 186.27 136.012 187.225C136.012 189.068 136.012 191.679 136.012 194.905C136.012 201.407 136.012 210.265 136.012 220.044C135.653 243.596 132.583 255.884 131.764 255.525C130.945 255.167 131.815 244.927 133.453 219.942Z" fill="#7D7A7C"/>
<path d="M132.787 238.066C132.757 233.839 133.343 229.631 134.528 225.573C135.311 229.729 135.397 233.985 134.783 238.169C134.806 242.422 134.096 246.648 132.685 250.661C132.143 246.478 132.177 242.24 132.787 238.066Z" fill="#F9E6CF"/>
<path opacity="0.5" d="M138.724 192.857C139.492 187.174 140.055 181.9 140.26 178.009C140.325 175.901 140.513 173.798 140.823 171.712C140.982 172.263 141.085 172.829 141.13 173.401C141.13 174.476 141.386 176.064 141.488 178.009C141.83 183.123 141.83 188.255 141.488 193.369C141.228 198.822 139.979 204.183 137.803 209.19C137.105 210.412 136.336 211.591 135.5 212.722C134.886 213.439 134.374 213.644 134.22 213.542C134.067 213.439 136.421 207.654 138.724 192.857Z" fill="#7D7A7C"/>
<path d="M137.24 203.609C137.559 201.107 138.358 198.69 139.594 196.492C140.208 196.492 140.106 199.974 139.134 204.121C138.628 205.878 137.977 207.591 137.189 209.241C136.421 210.47 135.807 211.135 135.602 210.982C135.398 210.828 135.602 210.009 135.858 208.729C136.114 207.449 136.575 205.555 137.24 203.609Z" fill="#F9E6CF"/>
<path opacity="0.5" d="M155.921 166.694C154.999 162.137 153.976 157.99 153.208 154.97L152.184 151.437C152.122 150.978 152.122 150.513 152.184 150.054C153.178 151.454 154.002 152.967 154.641 154.56C156.26 158.299 157.661 162.128 158.838 166.029C162.062 176.985 161.653 183.078 160.987 183.18C160.322 183.283 158.121 178.47 155.921 166.694Z" fill="#7D7A7C"/>
<path d="M158.172 175.091C157.456 171.814 157.354 169.101 157.865 168.947C158.377 168.793 159.401 171.405 160.117 174.681C160.834 177.958 160.783 180.774 160.117 180.825C159.452 180.876 158.889 178.368 158.172 175.091Z" fill="#F9E6CF"/>
<path opacity="0.5" d="M147.067 223.577C146.708 216.204 146.35 209.343 146.094 204.326C146.094 201.868 146.094 199.82 145.838 198.438C145.771 197.706 145.771 196.969 145.838 196.236C146.12 196.904 146.293 197.613 146.35 198.335C146.35 199.769 146.913 201.766 147.322 204.223C148.09 209.343 149.063 215.948 149.83 223.372C151.877 241.445 149.83 251.02 148.858 250.866C147.885 250.712 147.988 242.674 147.067 223.577Z" fill="#7D7A7C"/>
<path d="M148.192 237.349C147.762 234.117 147.954 230.833 148.755 227.673C149.942 230.735 150.431 234.023 150.188 237.298C150.712 240.546 150.413 243.873 149.318 246.975C148.429 243.848 148.048 240.598 148.192 237.349Z" fill="#F9E6CF"/>
<path opacity="0.5" d="M113.851 39.2588C116.512 48.2699 118.611 56.6154 120.044 62.7081C120.76 65.7289 121.323 68.2377 121.681 69.9784C121.947 70.8604 122.102 71.7719 122.142 72.692C121.747 71.8145 121.422 70.9072 121.17 69.9784L118.867 62.9641C116.922 56.9738 114.312 48.8331 111.241 39.9756C107.505 29.3261 104.587 21.2878 102.438 16.0654C101.174 13.4768 100.08 10.8088 99.1624 8.07834C99.4183 7.77114 101.619 9.51192 104.28 14.5295C108.359 22.4002 111.568 30.6923 113.851 39.2588Z" fill="#7D7A7C"/>
<path d="M107.658 22.619C109.454 26.3101 110.548 30.3034 110.883 34.3949C108.683 30.958 106.961 27.2375 105.765 23.3358C104.049 19.6652 102.678 15.8429 101.67 11.9183C104.468 14.9727 106.518 18.636 107.658 22.619Z" fill="#F9E6CF"/>
<path opacity="0.5" d="M103.666 91.3286C106.255 93.6806 108.62 96.2688 110.729 99.0597C111.682 100.183 112.49 101.421 113.134 102.746C112.879 102.746 108.272 98.0357 101.977 93.479C99.2702 91.4156 96.2451 89.8073 93.0209 88.7174C90.9225 88.1542 89.6942 88.359 89.5407 87.9494C89.3871 87.5399 90.2572 86.4135 93.0209 86.3111C97.0707 86.5968 100.868 88.3864 103.666 91.3286Z" fill="#7D7A7C"/>
<path d="M96.9105 87.5398C99.7254 88.7174 101.312 90.6118 101.005 91.0214C100.698 91.431 98.5995 90.407 96.1428 89.383C93.6862 88.359 91.639 88.0518 91.5367 87.4886C91.4343 86.9255 94.0957 86.2599 96.9105 87.5398Z" fill="#F9E6CF"/>
<path opacity="0.5" d="M48.8529 94.5542C59.0888 98.1893 68.5571 101.927 75.3639 104.794L83.348 108.224C84.348 108.644 85.3221 109.123 86.2652 109.658C85.2013 109.436 84.1571 109.128 83.1432 108.736L74.9033 105.818C67.9941 103.463 58.4235 100.237 47.9829 97.0629C35.2903 93.24 25.6856 90.5606 19.1687 89.0246C15.8359 88.4849 12.5377 87.7498 9.29108 86.8231C9.29108 86.4647 12.3619 85.7479 18.964 86.8231C29.164 88.3759 39.1789 90.9663 48.8529 94.5542Z" fill="#7D7A7C"/>
<path d="M28.9952 89.0246C33.7161 89.9813 38.2467 91.7113 42.4043 94.1446C37.6717 93.611 33.0172 92.5285 28.5346 90.919C23.8783 90.0062 19.2943 88.7571 14.8185 87.1814C19.6209 86.7972 24.4505 87.4251 28.9952 89.0246Z" fill="#F9E6CF"/>
<path opacity="0.5" d="M48.6482 104.999C58.0652 107.405 66.561 110.119 72.7026 112.064L80.0213 114.522C80.9166 114.795 81.7894 115.137 82.6314 115.546C81.6962 115.462 80.7708 115.291 79.8677 115.034L72.549 113.242C66.2539 111.757 57.6046 109.658 48.1875 107.661C36.7745 105.255 28.1251 103.565 22.2907 102.541C19.3094 102.327 16.3492 101.882 13.4366 101.21C13.4366 100.852 16.0467 99.9301 21.9324 100.084C30.9874 100.764 39.9437 102.412 48.6482 104.999Z" fill="#7D7A7C"/>
<path d="M30.7865 101.671C35.011 102.032 39.1279 103.196 42.916 105.101C38.7271 105.141 34.5496 104.659 30.4794 103.668C26.3176 103.26 22.2044 102.454 18.1963 101.261C22.3731 100.484 26.6689 100.624 30.7865 101.671Z" fill="#F9E6CF"/>
<path opacity="0.5" d="M68.3523 86.7719C75.1592 90.0998 81.2496 93.5302 85.5487 96.1414C87.6982 97.4213 89.4383 98.4965 90.6666 99.3157C91.3002 99.6888 91.8996 100.117 92.4579 100.596C91.7501 100.391 91.0644 100.117 90.4107 99.7765L84.9857 97.2166C80.4307 95.0662 74.1356 92.0966 67.2263 89.2806C60.9555 86.6389 54.5491 84.3316 48.034 82.3687C45.7382 82.0027 43.4898 81.3846 41.3295 80.5255C41.3295 80.2183 43.4278 79.3992 48.034 79.9623C55.1243 81.1423 61.9824 83.4407 68.3523 86.7719Z" fill="#7D7A7C"/>
<path d="M54.9432 81.9591C58.2051 82.6661 61.2447 84.1601 63.7973 86.3111C60.5331 85.9872 57.3389 85.1581 54.3291 83.8535C51.154 83.1268 48.0657 82.0626 45.1168 80.6791C48.4473 80.1673 51.8547 80.6111 54.9432 81.9591Z" fill="#F9E6CF"/>
<path opacity="0.5" d="M182.79 133.056C175.113 131.111 168.306 130.343 168.357 130.035C169.802 129.722 171.284 129.618 172.759 129.728C176.284 129.664 179.808 129.869 183.302 130.343C187.18 130.711 190.89 132.107 194.049 134.387C196.148 136.179 196.404 137.767 196.045 137.92C191.786 135.893 187.349 134.265 182.79 133.056Z" fill="#7D7A7C"/>
<path d="M189.904 134.695C187.345 133.671 185.144 132.749 185.298 132.186C185.451 131.623 187.857 131.725 190.416 132.851C192.975 133.978 194.971 135.975 194.51 136.384C194.049 136.794 192.463 135.667 189.904 134.695Z" fill="#F9E6CF"/>
<path opacity="0.5" d="M154.436 75.508C152.645 82.3687 150.751 88.5639 149.318 93.0182L147.476 98.1381C147.27 98.7963 146.995 99.4312 146.657 100.033C146.686 99.3409 146.789 98.6543 146.964 97.9846C147.22 96.6534 147.63 94.8102 148.09 92.5062C149.114 87.8983 150.496 81.6007 151.826 74.6888C153.413 66.3433 154.539 60.097 155.204 55.8986C155.365 53.7291 155.759 51.5833 156.381 49.4987C156.791 49.4987 157.661 51.3419 157.712 55.6938C157.461 62.4104 156.36 69.0682 154.436 75.508Z" fill="#7D7A7C"/>
<path d="M156.739 62.4521C156.575 65.5522 155.68 68.5696 154.129 71.2584C153.768 68.2059 153.994 65.1126 154.795 62.1449C154.972 59.1014 155.592 56.1001 156.637 53.2362C157.538 56.2373 157.573 59.4318 156.739 62.4521Z" fill="#F9E6CF"/>
<path opacity="0.5" d="M198.246 72.1288C192.207 77.6584 186.68 82.7783 182.636 86.5671C180.64 88.3591 178.951 89.8438 177.826 90.919C177.24 91.4693 176.606 91.9662 175.932 92.4038C176.344 91.696 176.842 91.0424 177.416 90.4582L181.766 85.6455C185.554 81.6007 190.672 76.0712 196.301 70.2857C209.966 55.8474 218.053 49.4475 218.564 49.8059C219.076 50.1643 213.651 57.5882 198.246 72.1288Z" fill="#7D7A7C"/>
<path d="M208.84 61.0186C206.494 63.7741 203.667 66.0812 200.498 67.8281C200.089 67.4185 203.159 63.7833 207.305 59.6362C209.699 56.8472 212.599 54.5367 215.852 52.8267C214.041 55.9673 211.663 58.7448 208.84 61.0186Z" fill="#F9E6CF"/>
<path opacity="0.5" d="M207.919 89.4854L187.754 99.7253L181.562 102.951C180.82 103.396 180.03 103.757 179.207 104.026C179.862 103.456 180.564 102.942 181.306 102.49L187.14 98.7013C192.258 95.527 198.963 91.2774 206.64 86.8743C213.571 82.7212 220.849 79.1753 228.391 76.276C233.509 74.3816 236.477 74.228 236.528 74.5864C236.58 74.9448 234.43 75.9176 229.824 78.2216L207.919 89.4854Z" fill="#7D7A7C"/>
<path d="M222.301 81.6519C219.007 83.6136 215.435 85.0637 211.706 85.9527C214.522 83.3105 217.825 81.2412 221.43 79.8599C224.739 77.8635 228.441 76.606 232.281 76.1736C229.208 78.4296 225.853 80.2715 222.301 81.6519Z" fill="#F9E6CF"/>
<path opacity="0.5" d="M100.237 81.6007C103.737 85.4582 107.018 89.5094 110.064 93.735C111.361 95.4419 112.508 97.2577 113.493 99.1621C111.84 97.7301 110.3 96.1725 108.887 94.503C106.174 91.6358 102.387 87.6423 98.0877 83.5463C94.2571 79.7931 90.2067 76.2712 85.9581 72.9992C83.1432 70.8488 81.4543 70.1321 81.5566 69.7225C81.659 69.3129 83.5015 69.1081 86.6746 70.7464C91.8426 73.4714 96.4453 77.155 100.237 81.6007Z" fill="#7D7A7C"/>
<path d="M91.6902 74.228C95.0681 76.9416 97.2176 79.7575 96.8082 80.1159C96.3988 80.4743 93.6862 78.4264 90.4107 75.764C87.1353 73.1016 84.3204 71.2072 84.5251 70.644C84.7298 70.0809 88.3124 71.412 91.6902 74.228Z" fill="#F9E6CF"/>
<path opacity="0.5" d="M52.8449 67.3673C61.4431 72.4872 68.9665 77.6072 74.3403 81.4471C77.0528 83.3415 79.4583 84.9287 80.6866 86.1063C81.4939 86.648 82.2479 87.2652 82.9385 87.9495C82.0426 87.5527 81.1858 87.0728 80.3795 86.5159L73.675 82.4711C67.9941 79.0408 60.2148 74.3816 51.5142 69.9785C43.6748 65.5783 35.5732 61.6627 27.2551 58.2538C24.3063 57.3925 21.4311 56.2968 18.6569 54.977C18.6569 54.6186 21.523 54.3114 27.4086 55.7962C36.3818 58.4572 44.9422 62.3514 52.8449 67.3673Z" fill="#7D7A7C"/>
<path d="M36.058 59.2778C40.1677 60.7156 43.9576 62.9417 47.2152 65.8313C43.0728 64.724 39.0715 63.1435 35.2903 61.121C31.2661 59.6972 27.3493 57.9861 23.5702 56.001C27.9317 56.1013 32.2088 57.2236 36.058 59.2778Z" fill="#F9E6CF"/>
<path opacity="0.5" d="M113.493 71.668C116.107 76.0686 118.433 80.635 120.453 85.3383C121.431 87.2953 122.236 89.3339 122.859 91.431C121.566 89.6748 120.403 87.8267 119.378 85.9015C117.28 82.4711 114.26 77.7608 110.985 72.948C108.036 68.5495 104.603 64.4964 100.749 60.8649C98.0877 58.6122 96.3476 58.049 96.3987 57.6394C96.4499 57.2298 98.3947 56.8714 101.824 58.7146C106.731 61.9925 110.743 66.4451 113.493 71.668Z" fill="#7D7A7C"/>
<path d="M106.021 62.8617C109.04 66.0873 110.678 69.2617 110.217 69.5689C109.757 69.8761 107.454 67.3161 104.587 64.4489C101.721 61.5817 99.0601 59.329 99.2136 59.0218C99.3671 58.7146 103.257 59.7386 106.021 62.8617Z" fill="#F9E6CF"/>
<path opacity="0.5" d="M67.4311 64.1929C75.5175 70.4905 82.785 76.7368 87.4935 81.3447C90.0013 83.6487 91.9973 85.5943 93.328 86.9255C94.0922 87.5787 94.7791 88.3173 95.3752 89.127C94.5482 88.5873 93.7614 87.9884 93.0209 87.3351L86.6746 82.2151C81.5567 78.0168 74.0844 72.2312 65.8445 66.2921C58.4179 60.8763 50.6573 55.9342 42.609 51.4955C37.1328 48.6283 34.062 48.0139 34.1132 47.5531C34.1644 47.0923 37.184 46.8875 43.0184 49.0891C51.84 52.9225 60.0623 58.0095 67.4311 64.1929Z" fill="#7D7A7C"/>
<path d="M51.463 53.7482C55.3489 55.7834 58.8204 58.527 61.699 61.8378C57.7248 60.1194 53.9494 57.9734 50.4395 55.4378C44.2467 51.6491 38.924 49.4987 39.0776 48.8331C43.5553 49.3965 47.8169 51.0877 51.463 53.7482Z" fill="#F9E6CF"/>
<path opacity="0.5" d="M86.3164 58.4074C91.9461 64.8585 96.5523 71.0024 100.186 75.508L104.229 80.9351C104.759 81.576 105.206 82.2813 105.56 83.0343C104.921 82.4992 104.322 81.9173 103.769 81.2935L99.2648 76.1736C95.4264 72.0264 90.206 66.2409 84.2692 60.1482C77.1552 52.929 71.6278 47.5531 67.7894 44.3787C65.7027 42.8013 63.7196 41.0911 61.8525 39.2588C61.8525 38.8492 64.4627 39.2588 68.813 42.126C75.3193 46.7822 81.2017 52.2539 86.3164 58.4074Z" fill="#7D7A7C"/>
<path d="M74.8521 47.2971C77.7976 49.595 80.2223 52.4918 81.9661 55.7962C78.8063 53.8866 75.9438 51.5233 73.4703 48.7819C70.6041 46.4982 67.9647 43.9435 65.5886 41.1532C69.1573 42.3619 72.3498 44.4794 74.8521 47.2971Z" fill="#F9E6CF"/>
<path opacity="0.5" d="M131.457 37.1084C132.941 46.6315 133.913 55.3866 134.476 61.7866C134.783 64.9609 134.988 67.5721 135.142 69.4153C135.22 70.3523 135.22 71.2942 135.142 72.2312C134.881 71.3231 134.676 70.3997 134.528 69.4665C134.22 67.6745 133.76 65.1145 133.197 61.9914C132.173 55.6426 130.638 46.9899 128.847 37.6204C126.544 26.2542 124.548 17.755 122.961 12.0207C121.374 6.28637 119.993 3.8288 120.3 3.5728C120.607 3.3168 122.756 5.26238 125.008 10.6895C128.175 19.2156 130.339 28.0816 131.457 37.1084Z" fill="#7D7A7C"/>
<path d="M127.311 19.547C128.666 23.5314 129.274 27.732 129.102 31.9373C127.348 28.1606 126.109 24.1655 125.418 20.059C124.137 16.1294 123.162 12.1068 122.5 8.02713C125.03 11.4111 126.682 15.3687 127.311 19.547Z" fill="#F9E6CF"/>
<path opacity="0.5" d="M103.82 52.7754C106.993 59.2266 109.501 65.2681 111.241 69.9784C112.111 72.2312 112.776 74.0232 113.237 75.0984C113.524 75.7534 113.731 76.4412 113.851 77.1464C113.381 76.5284 113.018 75.8362 112.776 75.0984L110.115 69.9784C107.914 65.7801 104.997 59.7386 101.363 53.7994C98.2543 48.1709 94.8371 42.7184 91.1272 37.4668C88.6706 33.9852 86.9817 32.6541 87.1352 32.3469C87.2888 32.0397 89.5407 32.3469 92.6626 35.6236C97.2952 40.6913 101.064 46.4857 103.82 52.7754Z" fill="#7D7A7C"/>
<path d="M96.6547 41.358C98.6569 43.8044 100.028 46.7053 100.647 49.8059C100.135 50.1131 97.8318 46.6827 94.9657 42.4844C92.9856 40.0999 91.2696 37.5077 89.8478 34.7532C90.3596 34.1389 93.7886 37.006 96.6547 41.358Z" fill="#F9E6CF"/>
<path opacity="0.5" d="M104.28 42.8939C108.733 53.6458 112.264 63.6809 114.516 71.0024L117.331 79.7575C117.687 80.8312 117.978 81.9255 118.201 83.0343C117.657 82.05 117.195 81.0225 116.819 79.9623L113.493 71.4632C110.575 64.2953 106.532 54.5162 101.721 44.0203C97.4533 34.4484 92.5106 25.1922 86.9305 16.3214C83.092 10.4847 80.2771 8.28313 80.4819 7.97594C80.6866 7.66874 83.9621 8.84632 88.4659 14.3247C95.0309 23.0714 100.353 32.6859 104.28 42.8939Z" fill="#7D7A7C"/>
<path d="M94.3004 23.899C97.0846 28.1236 99.111 32.8017 100.288 37.7228C97.335 33.6779 94.7487 29.3771 92.5603 24.8718C88.5683 17.7038 84.5763 12.4303 84.8834 12.0719C88.9217 15.2051 92.1509 19.2607 94.3004 23.899Z" fill="#F9E6CF"/>
<path opacity="0.5" d="M94.1468 55.8986C99.2648 64.8585 103.82 73.2552 106.993 79.3992C108.477 82.4711 109.757 85.0311 110.627 86.7719C111.088 87.6693 111.498 88.5924 111.855 89.5367C111.219 88.7518 110.654 87.9123 110.166 87.0279L105.867 80.2183C102.284 74.3304 97.3712 66.1897 91.7926 57.537C85.0369 46.8363 79.7654 39.2588 76.0293 34.1389C72.2932 29.0189 69.9901 26.7661 70.1948 26.4077C70.3995 26.0493 73.1632 27.3293 77.4623 31.9885C83.8396 39.3566 89.4313 47.37 94.1468 55.8986Z" fill="#7D7A7C"/>
<path d="M83.1944 39.822C86.0555 43.3281 88.3048 47.2919 89.8477 51.5466C86.6891 48.3734 83.9227 44.8324 81.6078 40.9996C78.8216 37.5107 76.3064 33.8135 74.0844 29.9405C77.7872 32.5507 80.8926 35.9191 83.1944 39.822Z" fill="#F9E6CF"/>
<path opacity="0.5" d="M84.0645 136.538C88.5957 135.605 93.1746 134.921 97.7806 134.49C99.7051 134.33 101.639 134.33 103.564 134.49C101.785 134.974 99.9714 135.316 98.1389 135.514C94.7099 136.333 89.9501 137.459 84.9345 138.995C78.8442 140.838 74.3915 142.477 71.4743 143.654C68.5571 144.832 67.0217 145.549 66.817 145.344C66.6122 145.139 67.3799 143.706 70.0413 141.709C74.3716 139.166 79.1202 137.415 84.0645 136.538Z" fill="#7D7A7C"/>
<path d="M74.5962 139.763C78.23 138.33 81.3519 137.971 81.5055 138.483C81.659 138.995 78.793 140.224 75.3639 141.606C73.5726 142.272 72.0884 142.989 70.8601 143.296C69.6318 143.603 69.0177 144.013 68.8129 143.757C68.6082 143.501 69.1712 142.886 70.1948 142.067C71.5805 141.153 73.0552 140.381 74.5962 139.763Z" fill="#F9E6CF"/>
<path opacity="0.5" d="M48.0852 144.32C55.9305 142.349 63.8744 140.794 71.8837 139.661C75.0056 139.2 77.5135 138.893 79.2536 138.739C80.1729 138.656 81.0979 138.656 82.0173 138.739L79.3559 139.456L72.1396 141.095C66.0492 142.477 57.7069 144.422 48.8017 147.136C40.7168 149.488 32.8693 152.59 25.3614 156.403C20.2435 159.168 18.5034 161.267 18.1451 161.011C17.7869 160.755 18.964 158.195 23.6213 154.714C31.0566 149.753 39.354 146.228 48.0852 144.32Z" fill="#7D7A7C"/>
<path d="M31.6054 150.464C35.2568 148.552 39.265 147.419 43.3767 147.136C39.9244 149.239 36.2515 150.956 32.4243 152.256C26.4874 154.97 21.8301 157.837 21.3695 157.478C20.9089 157.12 25.3103 153.229 31.6054 150.464Z" fill="#F9E6CF"/>
<path opacity="0.5" d="M45.6798 140.224C56.2228 138.535 65.8957 137.459 72.9585 136.794L81.3519 136.026H84.4739C83.4959 136.362 82.4828 136.585 81.4543 136.691L73.1632 138.125C66.1516 139.303 56.5298 140.941 46.1404 143.245C33.6014 145.805 24.1843 148.006 17.9916 149.85C11.7989 151.693 8.88163 153.075 8.67691 152.768C8.47219 152.461 10.6729 150.259 16.6097 147.648C25.9921 144.095 35.743 141.605 45.6798 140.224Z" fill="#7D7A7C"/>
<path d="M26.4874 144.781C30.8935 143.329 35.5143 142.636 40.1523 142.733C35.8694 144.589 31.3873 145.946 26.7945 146.778C22.4231 148.178 17.9597 149.273 13.4366 150.054C17.364 147.391 21.8127 145.593 26.4874 144.781Z" fill="#F9E6CF"/>
<path opacity="0.5" d="M42.5578 117.799C52.7937 118.925 61.7502 120.154 68.1476 121.178L76.0293 122.458C77.0183 122.574 77.9948 122.779 78.9465 123.072C77.9591 123.162 76.9655 123.162 75.9781 123.072L67.9941 122.509L42.046 120.666C29.9165 119.898 20.7553 119.335 14.6138 119.13C11.4985 119.21 8.38206 119.021 5.29907 118.567C5.29907 118.208 7.96041 117.133 13.9996 116.724C23.5323 116.29 33.0846 116.649 42.5578 117.799Z" fill="#7D7A7C"/>
<path d="M23.7237 116.98C28.1247 116.807 32.5225 117.396 36.7233 118.72C32.386 119.378 27.981 119.465 23.6213 118.976C19.2651 119.062 14.9109 118.719 10.6217 117.952C14.881 116.76 19.3351 116.429 23.7237 116.98Z" fill="#F9E6CF"/>
<path opacity="0.5" d="M148.858 79.1432C147.527 84.9799 146.145 90.3046 145.122 94.1446C144.622 96.2702 143.972 98.3575 143.177 100.391C143.238 98.2245 143.478 96.0668 143.893 93.9398C144.456 89.9462 145.275 84.5191 146.145 78.58C146.755 71.2802 148.162 64.0692 150.342 57.0762C151.212 57.025 152.338 64.0393 148.858 79.1432Z" fill="#7D7A7C"/>
<path d="M150.342 67.9817C149.728 72.2824 148.653 75.6104 148.09 75.508C147.503 72.9471 147.503 70.2865 148.09 67.7257C148.217 65.0998 148.86 62.5247 149.984 60.1482C150.803 60.1994 151.007 63.7321 150.342 67.9817Z" fill="#F9E6CF"/>
<path opacity="0.5" d="M142.153 53.3898C141.539 63.0665 140.771 71.924 140.106 78.3751C139.748 81.6007 139.492 84.2119 139.287 86.0039C139.261 86.9589 139.106 87.9061 138.827 88.8198C138.74 87.8831 138.74 86.9405 138.827 86.0039C138.827 84.1607 138.827 81.5495 138.827 78.3239C138.827 71.8216 139.134 62.9641 139.338 53.2874C139.645 41.614 139.799 32.8077 139.953 26.8173C139.801 23.819 139.99 20.8131 140.516 17.8574C141.437 17.6526 143.893 28.4045 142.153 53.3898Z" fill="#7D7A7C"/>
<path d="M142.256 35.2652C142.558 39.4891 142.125 43.7333 140.976 47.8091C140.166 43.6802 139.925 39.4596 140.26 35.2652C140.02 31.0683 140.277 26.8577 141.027 22.7214C142.238 26.785 142.655 31.0438 142.256 35.2652Z" fill="#F9E6CF"/>
<path opacity="0.5" d="M149.318 50.6763C147.937 60.3018 146.504 69.1081 145.326 75.4568C144.866 78.6312 144.201 81.2423 144.201 83.0343C144.032 83.968 143.81 84.8911 143.535 85.7991C143.412 84.8645 143.412 83.9177 143.535 82.9831C143.535 81.1399 143.945 78.5288 144.252 75.3032C144.917 68.8521 145.787 59.9434 146.759 50.3691C147.885 38.6956 148.755 29.8893 149.37 23.9502C149.43 20.926 149.842 17.9191 150.598 14.9903C151.468 14.8879 153.106 25.8446 149.318 50.6763Z" fill="#7D7A7C"/>
<path d="M150.905 32.5517C150.87 36.7926 150.126 40.9977 148.704 44.9932C148.167 40.8052 148.253 36.5607 148.96 32.3981C149.031 28.182 149.598 23.9889 150.649 19.9054C151.522 24.068 151.609 28.3572 150.905 32.5517Z" fill="#F9E6CF"/>
<path opacity="0.5" d="M163.393 78.324C160.885 83.9047 158.275 88.9734 156.586 92.6086C155.65 94.6114 154.573 96.5448 153.362 98.3941C153.874 96.2372 154.576 94.1298 155.46 92.0966C156.842 88.2054 158.735 82.9831 160.834 77.3C163.045 70.2133 165.695 63.2709 168.767 56.513C169.79 56.513 169.79 63.9369 163.393 78.324Z" fill="#7D7A7C"/>
<path d="M167.027 67.4697C165.594 71.6168 163.905 74.7912 163.393 74.5864C163.391 71.9119 163.985 69.2707 165.133 66.8553C166.566 62.7593 167.743 59.4826 168.306 59.585C168.635 62.2814 168.191 65.0158 167.027 67.4697Z" fill="#F9E6CF"/>
<path opacity="0.5" d="M152.747 180.16C151.673 174.732 150.444 169.92 149.421 166.131C148.778 164.188 148.265 162.203 147.885 160.192C147.885 160.192 148.244 160.704 148.755 161.677C149.267 162.649 149.83 163.981 150.598 165.721C152.49 170.224 154.097 174.841 155.409 179.545C159.196 192.959 156.432 200.639 155.409 200.281C154.385 199.923 155.102 199.82 155.051 199.052C154.867 197.848 154.747 196.634 154.692 195.417C154.356 190.296 153.706 185.201 152.747 180.16Z" fill="#7D7A7C"/>
<path d="M154.846 190.297C154.302 187.904 154.302 185.42 154.846 183.027C155.409 183.027 156.484 186.048 156.893 190.092C157.302 194.137 156.535 197.516 155.972 197.465C155.192 195.157 154.812 192.733 154.846 190.297Z" fill="#F9E6CF"/>
<path opacity="0.5" d="M155.972 209.753L149.881 185.536C149.114 182.412 148.5 179.852 148.09 178.06C147.837 177.153 147.649 176.23 147.527 175.296C147.97 176.129 148.33 177.003 148.602 177.907C149.165 179.648 150.035 182.156 151.11 185.177C153.157 191.321 155.869 199.769 158.582 209.036C165.44 231.513 166.054 244.056 165.082 244.056C163.875 241.507 163.031 238.802 162.574 236.018C161.141 230.284 158.991 221.836 155.972 209.753Z" fill="#7D7A7C"/>
<path d="M160.783 227.161C159.511 223.148 158.805 218.978 158.684 214.77C160.705 218.486 162.073 222.521 162.728 226.7C164.053 230.724 164.608 234.962 164.365 239.193C162.688 235.342 161.485 231.302 160.783 227.161Z" fill="#F9E6CF"/>
<path opacity="0.5" d="M165.286 192.857C162.318 185.331 159.35 178.521 157.2 173.504L154.692 167.257C154.364 166.545 154.09 165.809 153.873 165.056C153.873 165.056 154.436 165.721 155.204 167.053L158.326 172.685C160.936 177.446 164.365 184.051 167.794 191.475C171.12 198.19 173.711 205.246 175.522 212.518C176.648 217.638 176.29 220.198 175.932 220.198C175.574 220.198 173.219 211.954 165.286 192.857Z" fill="#7D7A7C"/>
<path d="M171.223 206.476C169.721 203.24 168.753 199.782 168.357 196.236C170.595 199.022 172.217 202.25 173.117 205.708C174.63 208.903 175.35 212.416 175.215 215.948C173.507 212.964 172.167 209.783 171.223 206.476Z" fill="#F9E6CF"/>
<path opacity="0.5" d="M183.199 177.139C179.77 172.019 176.239 167.769 173.68 164.544C172.22 162.915 170.853 161.206 169.586 159.424C169.586 159.424 170.149 159.731 171.019 160.499C171.889 161.267 173.117 162.393 174.601 163.827C178.447 167.519 182.054 171.453 185.4 175.603C189.168 179.975 192.022 185.059 193.794 190.553C194.766 194.393 194.254 196.492 193.794 196.492C190.833 189.744 187.289 183.268 183.199 177.139Z" fill="#7D7A7C"/>
<path d="M189.597 186.406C187.601 182.617 185.861 179.494 186.321 179.187C186.782 178.88 189.239 181.542 191.439 185.484C193.64 189.427 194.049 193.215 193.486 193.318C192.923 193.42 191.644 190.195 189.597 186.406Z" fill="#F9E6CF"/>
<path opacity="0.5" d="M177.518 152.819C174.14 149.901 170.814 147.392 168.408 145.6C167.011 144.711 165.708 143.682 164.519 142.528C166.106 143.023 167.634 143.693 169.074 144.525C172.634 146.314 176.056 148.368 179.31 150.669C182.927 153.027 185.942 156.201 188.113 159.936C189.443 162.649 189.238 164.339 188.88 164.39C188.522 164.441 186.27 160.345 177.518 152.819Z" fill="#7D7A7C"/>
<path d="M183.813 158.144C181.715 155.789 179.975 153.843 180.333 153.382C180.692 152.922 183.046 154.304 185.451 156.813C187.857 159.321 188.624 161.933 188.113 162.24C187.601 162.547 185.963 160.448 183.813 158.144Z" fill="#F9E6CF"/>
<path opacity="0.5" d="M200.498 127.015C194.51 126.298 188.931 126.042 184.837 125.786C182.629 125.778 180.423 125.624 178.235 125.325C180.408 124.868 182.618 124.61 184.837 124.557C188.931 124.301 194.51 124.045 200.703 124.25C206.449 124.21 212.144 125.342 217.438 127.578C221.072 129.267 222.045 131.52 221.738 131.674C221.431 131.827 220.202 130.855 216.62 129.933C211.339 128.499 205.946 127.523 200.498 127.015Z" fill="#7D7A7C"/>
<path d="M211.553 128.141C207.407 127.219 203.927 126.503 203.978 125.939C206.622 125.217 209.421 125.306 212.013 126.195C216.415 127.066 219.537 129.319 219.23 129.779C216.628 129.459 214.059 128.91 211.553 128.141Z" fill="#F9E6CF"/>
<path opacity="0.5" d="M167.897 89.383C164.979 93.4278 162.267 97.1141 160.22 99.6229C159.201 101.12 158.054 102.524 156.791 103.821C157.397 102.029 158.203 100.312 159.196 98.7013C160.783 95.783 163.035 91.7894 165.594 87.4887C171.684 77.2488 175.829 72.5384 176.7 72.948C177.57 73.3576 175.42 78.9383 167.897 89.383Z" fill="#7D7A7C"/>
<path d="M172.656 81.3959C170.712 84.3655 168.767 86.5159 168.306 86.2599C167.845 86.0039 169.023 83.2903 170.967 80.3207C172.912 77.3512 174.857 75.2008 175.318 75.4568C175.778 75.7128 174.601 78.4264 172.656 81.3959Z" fill="#F9E6CF"/>
<path opacity="0.5" d="M209.199 95.0662L189.136 103.77L182.943 106.432C182.205 106.809 181.435 107.118 180.64 107.354C180.64 107.354 181.357 106.791 182.688 105.972L188.573 102.644C193.691 99.9301 200.396 96.2438 208.073 92.4038C215.051 88.8511 222.351 85.971 229.875 83.8023C234.993 82.4711 237.859 82.7271 237.859 83.1367C237.859 83.5463 235.71 84.1095 231.052 85.9527C226.395 87.7959 219.281 90.8166 209.199 95.0662Z" fill="#7D7A7C"/>
<path d="M223.58 88.5639C220.348 90.1541 216.899 91.2583 213.344 91.8406C216.235 89.5089 219.557 87.7692 223.119 86.7207C226.466 85.0261 230.167 84.1488 233.918 84.1607C230.661 86.0369 227.19 87.5151 223.58 88.5639Z" fill="#F9E6CF"/>
<path opacity="0.5" d="M199.782 188.812C193.589 181.593 187.652 175.193 183.353 170.534L178.235 164.953C177.587 164.298 176.989 163.597 176.444 162.854C177.231 163.362 177.968 163.945 178.644 164.595L184.223 169.715C188.931 174.067 195.278 179.955 201.829 187.02C208.022 193.213 213.498 200.082 218.155 207.5C221.226 212.62 221.738 215.794 221.379 215.897C221.021 215.999 219.793 213.746 216.261 209.292C212.73 204.838 207.817 197.977 199.782 188.812Z" fill="#7D7A7C"/>
<path d="M211.502 202.073C208.722 198.973 206.349 195.532 204.439 191.833C207.861 194.227 210.796 197.25 213.088 200.742C215.943 203.808 218.061 207.485 219.281 211.494C216.434 208.572 213.833 205.421 211.502 202.073Z" fill="#F9E6CF"/>
<path opacity="0.5" d="M182.995 201.203C179.258 193.676 175.471 186.969 172.759 182.105L169.381 176.32C168.91 175.63 168.516 174.892 168.204 174.118C168.807 174.683 169.34 175.319 169.79 176.012C170.763 177.292 172.196 179.084 173.782 181.44C178.017 187.397 181.946 193.566 185.554 199.923C189.529 206.673 192.495 213.97 194.356 221.58C195.227 226.7 195.073 229.567 194.356 229.567C193.25 227.386 192.457 225.059 192.002 222.655C189.427 215.332 186.42 208.168 182.995 201.203Z" fill="#7D7A7C"/>
<path d="M189.853 215.231C188.267 211.978 187.097 208.538 186.372 204.991C188.77 207.781 190.518 211.069 191.49 214.617C192.37 217.076 193.088 219.59 193.64 222.143C193.64 224.191 193.64 225.42 193.64 225.471C193.64 225.522 192.923 224.345 192.309 222.502C191.695 220.658 190.927 218.047 189.853 215.231Z" fill="#F9E6CF"/>
<path opacity="0.5" d="M180.384 115.085C173.475 116.109 167.692 117.748 167.59 117.44C168.66 116.7 169.81 116.081 171.019 115.597C173.938 114.302 176.949 113.224 180.026 112.372C183.328 111.264 186.874 111.104 190.262 111.911C192.668 112.781 193.333 114.164 193.077 114.42C192.821 114.676 191.849 114.42 190.006 114.42C186.786 114.361 183.566 114.584 180.384 115.085Z" fill="#7D7A7C"/>
<path d="M186.68 113.908C184.274 113.908 182.176 113.908 182.073 113.344C181.971 112.781 183.967 111.962 186.628 111.911C189.29 111.86 191.746 112.986 191.183 113.498C190.62 114.01 189.085 113.754 186.68 113.908Z" fill="#F9E6CF"/>
<path opacity="0.5" d="M186.577 70.5417L174.089 85.9015L170.2 90.4582C169.729 91.0576 169.197 91.6067 168.613 92.0966C168.944 91.509 169.339 90.9596 169.79 90.4582L173.168 85.3383L184.428 68.9545C195.124 53.5946 201.778 46.7339 202.392 47.1947C203.006 47.6555 198.963 55.0282 186.577 70.5417Z" fill="#7D7A7C"/>
<path d="M194.868 58.817C191.593 63.2201 188.573 66.4969 188.113 66.1897C189.268 63.0288 191.004 60.1116 193.231 57.5882C196.557 53.185 199.577 49.9083 200.037 50.2155C198.899 53.3958 197.142 56.3191 194.868 58.817Z" fill="#F9E6CF"/>
<path opacity="0.5" d="M172.247 59.2266C167.948 67.8281 163.956 75.7128 161.09 81.4983C159.606 84.3143 158.377 86.6183 157.558 88.2567C157.132 89.1048 156.654 89.9256 156.125 90.7142C156.372 89.8005 156.698 88.9097 157.098 88.0519C157.763 86.3623 158.735 83.9047 159.964 80.9863C162.523 75.0984 165.952 66.9065 169.79 58.049C179.054 36.6988 185.144 26.3053 185.912 26.6125C186.68 26.9197 183.25 36.9548 172.247 59.2266Z" fill="#7D7A7C"/>
<path d="M179.463 42.7916C178.01 46.715 175.936 50.3796 173.322 53.6458C174.135 49.5297 175.603 45.5711 177.672 41.9212C179.126 37.982 181.199 34.3005 183.813 31.0157C183.014 35.1516 181.544 39.1292 179.463 42.7916Z" fill="#F9E6CF"/>
<path opacity="0.5" d="M194.51 143.091C190.529 141.125 186.426 139.415 182.227 137.971C180.476 137.448 178.766 136.797 177.109 136.026C177.619 135.969 178.134 135.969 178.644 136.026C180.019 136.16 181.385 136.365 182.739 136.64C187.192 137.491 191.56 138.742 195.79 140.378C200.446 142.058 204.576 144.936 207.766 148.723C208.436 149.809 209.034 150.938 209.557 152.102C209.557 152.973 209.557 153.434 209.557 153.536C205.091 149.322 200.019 145.801 194.51 143.091Z" fill="#7D7A7C"/>
<path d="M202.801 147.443C201.512 146.605 200.281 145.682 199.116 144.678C198.093 143.962 197.581 143.398 197.683 143.142C197.786 142.886 198.604 143.142 199.782 143.45C201.261 144.135 202.681 144.94 204.029 145.856C205.29 146.9 206.409 148.105 207.356 149.44C207.97 150.566 208.226 151.334 208.021 151.488C207.817 151.642 207.151 151.181 206.332 150.362C205.514 149.542 204.081 148.672 202.801 147.443Z" fill="#F9E6CF"/>
<path opacity="0.5" d="M218.82 140.07C210.12 138.125 202.033 136.743 196.199 135.77L189.187 134.592C188.322 134.469 187.466 134.281 186.628 134.029C187.497 133.962 188.37 133.962 189.239 134.029L196.301 134.541C202.289 135.053 210.478 135.821 219.332 137.357C227.552 138.505 235.555 140.869 243.08 144.371C248.197 146.931 249.835 149.491 249.579 149.85C249.323 150.208 247.43 148.57 242.568 146.778C234.83 143.954 226.892 141.713 218.82 140.07Z" fill="#7D7A7C"/>
<path d="M234.942 143.706C231.173 142.857 227.527 141.532 224.092 139.763C228.01 139.636 231.912 140.316 235.556 141.76C239.391 142.622 242.926 144.496 245.792 147.187C242.115 146.224 238.493 145.061 234.942 143.706Z" fill="#F9E6CF"/>
<path opacity="0.5" d="M168.716 52.673C165.133 62.6057 161.704 71.7192 159.094 78.2727C157.763 81.5495 156.688 84.2119 155.972 86.0551C155.652 87.0474 155.205 87.994 154.641 88.871C154.858 87.8666 155.132 86.8752 155.46 85.9015C156.023 83.9559 156.893 81.2423 157.917 77.8632C160.066 71.1048 163.035 61.8377 166.105 51.8026L174.908 24.2062C175.693 21.0123 176.843 17.9199 178.337 14.9903C179.207 15.0927 178.081 26.9709 168.716 52.673Z" fill="#7D7A7C"/>
<path d="M174.448 33.6781C173.414 38.1838 171.687 42.5018 169.33 46.4779C169.828 41.9039 170.912 37.4128 172.554 33.1149C173.595 28.6462 175.158 24.3157 177.211 20.2126C177.082 24.828 176.147 29.3852 174.448 33.6781Z" fill="#F9E6CF"/>
<path opacity="0.5" d="M196.66 160.653C191.542 157.529 187.191 154.867 183.814 152.973C181.927 152.005 180.098 150.928 178.337 149.747C178.901 149.827 179.452 149.982 179.975 150.208C181.05 150.566 182.534 151.078 184.325 151.846C189.043 153.729 193.641 155.901 198.093 158.349C202.915 160.896 207.275 164.237 210.99 168.23C213.293 171.251 213.958 172.992 213.549 173.35C213.139 173.708 209.045 168.896 196.66 160.653Z" fill="#7D7A7C"/>
<path d="M205.616 166.489C202.341 163.929 199.782 161.728 200.089 161.369C200.396 161.011 203.518 162.342 206.844 164.953C208.225 166.128 209.509 167.412 210.683 168.793C211.502 170.022 211.86 170.841 211.655 170.995C211.45 171.149 210.683 170.688 209.71 169.817C208.738 168.947 207.254 167.769 205.616 166.489Z" fill="#F9E6CF"/>
<path opacity="0.5" d="M230.438 116.058C224.245 116.058 218.513 116.826 214.317 117.236C212.061 117.56 209.788 117.748 207.51 117.799C208.053 117.503 208.641 117.296 209.25 117.184L214.112 116.007C219.448 114.816 224.848 113.927 230.285 113.344C236.112 112.481 242.05 112.724 247.788 114.061C251.729 115.239 253.264 116.928 252.906 117.184C252.548 117.44 251.063 117.184 247.532 116.519C241.855 115.913 236.139 115.759 230.438 116.058Z" fill="#7D7A7C"/>
<path d="M242.056 115.495C239.32 115.661 236.577 115.314 233.969 114.471C236.552 113.376 239.392 113.039 242.158 113.498C246.764 113.754 250.347 115.29 250.142 115.853C247.442 116.047 244.728 115.927 242.056 115.495Z" fill="#F9E6CF"/>
<path opacity="0.5" d="M223.222 104.18L206.64 108.583L201.522 109.914C200.293 110.221 199.628 110.375 199.577 110.272C200.144 109.925 200.744 109.633 201.368 109.402L206.23 107.405C210.376 105.767 216.108 103.668 222.403 101.569C228.196 99.5214 234.18 98.0634 240.265 97.2166C244.41 96.7558 246.611 97.2166 246.56 97.6774C238.942 100.387 231.143 102.56 223.222 104.18Z" fill="#7D7A7C"/>
<path d="M235.044 100.698C232.299 101.718 229.367 102.137 226.446 101.927C228.849 100.237 231.622 99.1489 234.532 98.7525C237.318 97.7425 240.326 97.5124 243.233 98.0869C240.67 99.4129 237.901 100.296 235.044 100.698Z" fill="#F9E6CF"/>
<path opacity="0.5" d="M206.793 72.5896C200.805 76.8904 195.38 80.9863 191.439 83.9047L186.731 87.4375C186.173 87.9116 185.553 88.3078 184.888 88.6151C185.325 88.0348 185.823 87.5028 186.372 87.0279L190.672 82.9831C194.305 79.604 199.372 75.0984 205.155 70.3881C210.365 65.9563 216.046 62.1103 222.096 58.9194C226.293 56.8714 228.903 56.769 228.903 57.1274C228.903 57.4858 227.265 58.3562 223.785 60.8138C220.305 63.2713 214.572 67.0601 206.793 72.5896Z" fill="#7D7A7C"/>
<path d="M217.746 64.2441C215.26 66.3162 212.415 67.913 209.352 68.9544C209.045 68.4937 212.218 65.5241 216.62 62.5545C219.141 60.4449 222.18 59.0484 225.423 58.5098C225.678 59.0218 222.096 61.2745 217.746 64.2441Z" fill="#F9E6CF"/>
<path opacity="0.5" d="M221.635 149.594C215.494 147.136 209.659 145.344 205.36 144.064L200.242 142.579L198.4 141.914C198.4 141.914 199.116 141.914 200.345 141.914C201.573 141.914 203.415 142.323 205.463 142.682C211.172 143.717 216.812 145.102 222.352 146.829C228.427 148.486 234.057 151.477 238.832 155.584C241.954 158.656 242.517 161.011 242.107 161.165C241.698 161.318 240.623 159.885 237.603 157.683C232.633 154.34 227.27 151.623 221.635 149.594Z" fill="#7D7A7C"/>
<path d="M232.997 154.253C228.903 151.898 225.422 150.208 225.678 149.645C228.662 149.774 231.543 150.77 233.969 152.512C238.269 154.918 240.828 158.246 240.316 158.605C237.783 157.317 235.338 155.863 232.997 154.253Z" fill="#F9E6CF"/>
<path opacity="0.5" d="M197.376 178.88C191.593 173.145 185.963 168.179 182.022 164.595L176.904 160.294C176.266 159.814 175.682 159.264 175.164 158.656C175.889 158.99 176.576 159.402 177.211 159.885C178.491 160.755 180.333 161.984 182.329 163.622C186.782 166.848 192.565 171.405 199.014 176.883C204.885 181.78 210.052 187.466 214.368 193.779C216.927 198.233 217.694 200.793 217.285 200.998C216.875 201.203 215.545 199.359 212.679 195.519C209.813 191.68 204.899 186.252 197.376 178.88Z" fill="#7D7A7C"/>
<path d="M208.277 189.478C204.439 185.126 201.317 181.542 201.726 181.132C202.136 180.723 205.872 183.744 209.762 188.198C211.411 190.133 212.916 192.187 214.265 194.342C215.187 196.031 215.545 197.209 215.34 197.363C215.135 197.516 214.317 196.595 213.139 195.161C211.962 193.727 210.171 191.68 208.277 189.478Z" fill="#F9E6CF"/>
<path opacity="0.5" d="M183.404 191.27C179.822 185.177 176.341 179.648 173.834 175.603L170.916 170.79C170.519 170.217 170.193 169.598 169.944 168.947C170.473 169.392 170.938 169.909 171.326 170.483C172.196 171.558 173.424 173.043 174.857 174.886C177.774 178.675 181.715 183.897 185.707 189.785C195.943 203.916 197.683 213.337 196.864 213.49C196.045 213.644 192.923 206.937 183.404 191.27Z" fill="#7D7A7C"/>
<path d="M190.569 202.38C188.771 199.849 187.468 197 186.731 193.983C187.191 193.676 189.75 196.953 192.309 201.407C194.127 203.981 195.255 206.978 195.585 210.111C195.022 210.316 193.077 206.732 190.569 202.38Z" fill="#F9E6CF"/>
<path opacity="0.5" d="M215.852 164.288C210.734 161.369 205.974 159.168 202.494 157.171C200.54 156.316 198.657 155.306 196.864 154.15C198.961 154.609 201.015 155.242 203.006 156.045C207.815 157.717 212.531 159.649 217.131 161.83C222.177 164.025 226.775 167.132 230.694 170.995C233.304 173.76 233.662 176.115 233.355 176.115C233.048 176.115 231.974 175.091 229.312 173.043C225.017 169.84 220.521 166.916 215.852 164.288Z" fill="#7D7A7C"/>
<path d="M225.474 169.51C222.045 167.155 219.281 165.158 219.588 164.39C219.895 163.622 223.068 165.158 226.6 167.616C230.131 170.073 232.229 172.992 231.718 173.35C231.206 173.709 228.852 171.814 225.474 169.51Z" fill="#F9E6CF"/>
<path opacity="0.5" d="M202.494 81.5495L187.14 92.0454L182.432 95.271C181.879 95.6992 181.278 96.0602 180.64 96.3462C181.083 95.8017 181.58 95.3041 182.125 94.8614L186.372 91.0726C189.955 87.9495 195.022 83.7511 200.703 79.2968C205.878 75.131 211.469 71.5108 217.387 68.4937C221.379 66.4969 223.785 66.1897 223.887 66.5481C217.052 71.9585 209.909 76.9674 202.494 81.5495Z" fill="#7D7A7C"/>
<path d="M213.191 73.6648C208.943 76.4296 205.36 78.7848 205.002 78.068C204.644 77.3512 207.817 74.7912 212.116 71.9752C214.552 69.947 217.485 68.604 220.612 68.0841C218.435 70.3098 215.933 72.1916 213.191 73.6648Z" fill="#F9E6CF"/>
<path opacity="0.5" d="M112.213 221.426L118.969 200.076L121.067 193.523C121.253 192.695 121.564 191.901 121.989 191.167C121.911 192.012 121.774 192.851 121.579 193.676C121.221 195.263 120.76 197.567 120.146 200.383C118.867 206.015 117.075 213.798 115.028 222.194C109.91 242.674 104.792 252.453 103.922 252.044C103.052 251.634 105.611 242.777 112.213 221.426Z" fill="#7D7A7C"/>
<path d="M107.965 237.042C108.8 233.344 110.217 229.801 112.162 226.546C112.065 230.341 111.285 234.087 109.859 237.605C109.008 241.252 107.518 244.719 105.458 247.845C105.673 244.128 106.521 240.474 107.965 237.042Z" fill="#F9E6CF"/>
<path opacity="0.5" d="M165.082 43.662C162.574 51.5467 159.964 58.6634 158.121 63.8345L155.767 69.9785C155.509 70.7398 155.184 71.4766 154.795 72.18C154.879 71.4333 155.033 70.6962 155.255 69.9785L156.944 63.6297C158.377 58.5098 160.322 50.9835 162.42 43.15C164.928 33.5757 166.771 26.4077 168.101 21.3902C168.493 18.7392 169.197 16.1441 170.2 13.6591C170.558 13.6591 171.121 16.0143 170.558 20.9294C169.407 28.6538 167.575 36.2611 165.082 43.662Z" fill="#7D7A7C"/>
<path d="M168.716 28.6605C168.224 32.2959 166.968 35.7859 165.031 38.9004C165.036 35.3137 165.624 31.7516 166.771 28.3533C167.343 24.8205 168.375 21.3779 169.841 18.1134C170.275 21.669 169.889 25.2766 168.716 28.6605Z" fill="#F9E6CF"/>
<path opacity="0.5" d="M190.262 74.6888C186.321 78.7336 182.688 82.4711 180.026 84.9287C178.63 86.4368 177.125 87.84 175.522 89.127C176.56 87.3158 177.759 85.6022 179.105 84.0071C181.408 80.9863 184.684 76.9416 188.266 72.5384C196.915 61.8889 202.494 57.1786 203.057 57.8954C203.62 58.6122 200.14 64.1417 190.262 74.6888Z" fill="#7D7A7C"/>
<path d="M196.762 66.4969C194.049 69.5176 191.644 71.6168 191.132 71.3608C190.62 71.1048 192.565 68.2377 195.278 65.1657C197.99 62.0937 200.396 60.0457 200.856 60.3529C201.317 60.6601 199.423 63.4761 196.762 66.4969Z" fill="#F9E6CF"/>
<path opacity="0.5" d="M183.865 61.1721L171.428 78.9896L167.538 84.4167C167.068 85.0949 166.537 85.729 165.952 86.3111C166.256 85.5428 166.633 84.8056 167.078 84.1095L170.404 78.324C173.322 73.5112 177.262 66.8553 181.562 59.6874C192.156 42.3308 198.86 34.0876 199.526 34.5484C200.191 35.0092 196.199 43.3035 183.865 61.1721Z" fill="#7D7A7C"/>
<path d="M192.105 47.8091C190.332 51.0793 187.972 53.9951 185.144 56.4106C186.257 52.9045 187.991 49.6269 190.262 46.7339C191.954 43.4677 194.246 40.5497 197.018 38.1324C195.958 41.6205 194.295 44.8957 192.105 47.8091Z" fill="#F9E6CF"/>
</g>
</g>
</svg>
