<svg width="288" height="293" viewBox="0 0 288 293" fill="none" xmlns="http://www.w3.org/2000/svg">
<g opacity="0.8">
<g style="mix-blend-mode:screen">
<path opacity="0.5" d="M157.399 143.7C159.168 143.17 161.054 143.17 162.823 143.7C161.48 144.815 160.007 145.765 158.437 146.529C155.609 148.261 153.532 147.741 153.186 146.991C152.839 146.24 153.705 144.277 157.399 143.7Z" fill="#7D7A7C"/>
<path d="M155.09 145.028C156.013 144.624 156.937 145.028 157.168 145.374C157.399 145.721 156.821 146.702 155.898 147.106C154.975 147.51 154.051 147.106 153.82 146.76C153.59 146.413 154.109 145.374 155.09 145.028Z" fill="#F9E6CF"/>
<path opacity="0.5" d="M161.15 157.787C161.719 156.136 161.858 154.368 161.554 152.649C161.554 151.263 160.573 150.57 160.746 150.455C160.919 150.339 161.9 150.455 162.823 152.014C163.904 153.862 164.388 156 164.209 158.133C163.862 163.907 161.15 166.043 160.457 165.754C159.765 165.466 159.534 162.81 161.15 157.787Z" fill="#7D7A7C"/>
<path d="M160.688 161.655C161.092 160.212 161.958 159.115 162.477 159.23C162.997 159.346 163.285 160.731 162.823 162.29C162.362 163.849 161.381 164.888 160.861 164.715C160.342 164.542 160.342 163.156 160.688 161.655Z" fill="#F9E6CF"/>
<path opacity="0.5" d="M149.319 129.093C150.712 130.35 151.647 132.037 151.974 133.885C152.262 135.155 152.262 136.021 151.974 136.021C151.685 136.021 150.011 132.961 147.414 131.691C144.817 130.421 142.509 132.095 141.99 131.172C141.47 130.248 141.99 130.017 142.74 129.093C143.451 128.544 144.281 128.168 145.164 127.996C145.894 127.838 146.651 127.855 147.373 128.046C148.095 128.236 148.762 128.595 149.319 129.093Z" fill="#7D7A7C"/>
<path d="M145.164 128.631C146.837 128.631 148.049 129.382 147.761 129.902C147.472 130.421 146.549 130.652 145.568 130.825C144.587 130.998 143.432 130.825 143.144 130.825C142.855 130.825 143.375 129.093 145.164 128.631Z" fill="#F9E6CF"/>
<path opacity="0.5" d="M135.064 137.176C136.453 136.867 137.891 136.856 139.284 137.145C140.677 137.433 141.992 138.015 143.144 138.85C140.716 138.988 138.314 139.415 135.988 140.12C132.352 142.141 130.216 143.873 129.582 143.354C128.947 142.834 129.062 142.257 129.582 140.986C130.15 139.979 130.938 139.114 131.887 138.454C132.836 137.794 133.922 137.357 135.064 137.176Z" fill="#7D7A7C"/>
<path d="M131.371 139.601C132.756 138.619 134.141 138.446 134.429 139.081C134.718 139.716 133.852 140.582 132.756 141.391C131.659 142.199 130.62 142.776 130.216 142.43C129.812 142.083 130.159 140.756 131.371 139.601Z" fill="#F9E6CF"/>
<path opacity="0.5" d="M126.581 156.286C129.864 154.301 133.482 152.932 137.257 152.245C137.257 152.245 132.929 155.189 128.312 158.884C122.541 163.33 120.463 165.754 119.713 165.523C118.963 165.293 119.078 164.253 120.001 162.464C121.537 159.8 123.826 157.651 126.581 156.286Z" fill="#7D7A7C"/>
<path d="M122.079 160.327C123.753 158.769 125.484 158.076 125.888 158.595C126.292 159.115 125.138 160.501 123.637 161.944C122.137 163.387 120.867 164.484 120.29 164.138C119.713 163.791 120.521 161.944 122.079 160.327Z" fill="#F9E6CF"/>
<path opacity="0.5" d="M168.248 131.691C166.68 133.5 164.701 134.906 162.477 135.79C163.363 133.776 164.426 131.844 165.651 130.017C166.632 128.17 166.979 127.073 167.267 127.073C167.556 127.073 167.267 126.668 167.267 126.322C167.168 126.082 167.168 125.812 167.267 125.571C167.267 125.571 168.017 124.359 169.691 125.571C170.048 126.032 170.278 126.578 170.359 127.156C170.44 127.733 170.369 128.321 170.153 128.862C169.725 129.929 169.076 130.893 168.248 131.691Z" fill="#7D7A7C"/>
<path d="M169.807 128.112C169.287 129.671 168.191 130.248 167.729 129.902C167.267 129.555 167.325 128.458 167.729 127.534C167.671 127.346 167.671 127.145 167.729 126.957C167.684 126.846 167.684 126.722 167.729 126.611C167.729 126.322 167.729 126.033 167.729 125.745C167.799 125.66 167.888 125.592 167.987 125.545C168.087 125.498 168.196 125.474 168.306 125.474C168.416 125.474 168.525 125.498 168.625 125.545C168.725 125.592 168.813 125.66 168.883 125.745C169.153 126.052 169.368 126.403 169.518 126.784C169.675 127.211 169.772 127.658 169.807 128.112Z" fill="#F9E6CF"/>
<path opacity="0.5" d="M155.263 118.874C154.971 122.086 153.945 125.188 152.262 127.939C151.916 127.939 152.262 123.551 152.262 118.817C152.228 116.838 151.837 114.883 151.108 113.043C150.795 112.66 150.542 112.232 150.358 111.773C150.069 111.484 149.954 111.253 150.011 111.023C150.069 110.792 150.993 110.041 152.839 111.023C153.929 111.98 154.732 113.22 155.16 114.606C155.588 115.992 155.624 117.469 155.263 118.874Z" fill="#7D7A7C"/>
<path d="M154.109 113.794C154.917 115.814 154.109 117.373 153.705 117.431C153.301 117.489 152.608 115.988 152.031 114.66C151.454 113.332 151.397 113.447 151.339 112.87C151.185 112.736 151.067 112.565 150.996 112.373C150.925 112.182 150.904 111.975 150.935 111.773C150.935 111.484 151.57 111.484 152.32 111.773C153.111 112.245 153.736 112.951 154.109 113.794Z" fill="#F9E6CF"/>
<path opacity="0.5" d="M157.803 116.623C158.668 111.831 159.476 107.443 160.053 104.152C160.258 102.39 160.625 100.651 161.15 98.9561C161.464 100.708 161.561 102.492 161.438 104.268C161.438 107.558 161.438 112.119 160.919 117.027C159.938 128.862 157.456 134.693 156.648 134.347C155.84 134.001 155.436 128.92 157.803 116.623Z" fill="#7D7A7C"/>
<path d="M156.706 125.687C157.225 122.223 158.149 119.509 158.726 119.567C159.303 119.625 159.476 122.512 158.726 126.033C157.976 129.555 157.168 132.211 156.591 131.807C156.013 131.403 156.706 129.093 156.706 125.687Z" fill="#F9E6CF"/>
<path opacity="0.5" d="M170.961 105.538C169.518 109.695 168.017 113.39 166.806 116.103C166.265 117.617 165.527 119.054 164.612 120.375C164.324 120.375 166.113 113.159 167.96 104.672C168.81 99.5464 170.104 94.5046 171.826 89.6032C172.173 89.6032 173.154 90.7001 173.327 93.4714C173.246 97.6006 172.445 101.684 170.961 105.538Z" fill="#7D7A7C"/>
<path d="M172.461 97.3973C171.884 100.515 170.73 103.171 170.095 102.709C169.46 102.247 169.691 99.9953 170.095 96.9354C170.499 93.8755 171.249 91.5662 171.884 91.5662C172.519 91.5662 173.096 94.2797 172.461 97.3973Z" fill="#F9E6CF"/>
<path opacity="0.5" d="M125.599 148.434C129.067 147.082 132.8 146.548 136.507 146.875C136.507 147.222 131.775 148.55 126.811 151.263C121.04 154.554 118.212 156.459 117.462 155.94C116.712 155.42 117.174 154.554 118.385 153.111C120.262 150.858 122.777 149.227 125.599 148.434Z" fill="#7D7A7C"/>
<path d="M120.809 151.552C122.598 150.224 124.445 150.051 124.676 150.57C124.907 151.09 123.637 152.245 122.021 153.399C120.405 154.554 118.905 155.305 118.443 154.785C117.981 154.265 118.963 152.764 120.809 151.552Z" fill="#F9E6CF"/>
<path opacity="0.5" d="M100.206 132.269C104.754 132.588 109.259 133.361 113.653 134.578C115.537 134.914 117.364 135.517 119.078 136.368C119.078 136.772 110.364 135.098 100.149 135.329C95.5269 135.428 90.9178 135.853 86.3555 136.599C83.2968 137.061 81.6809 137.407 81.5077 137.003C81.3346 136.599 82.258 135.329 85.3167 134.116C90.0543 132.292 95.1668 131.658 100.206 132.269Z" fill="#7D7A7C"/>
<path d="M90.2799 133.25C94.0889 132.615 97.2053 133.25 97.2053 133.712C97.2053 134.174 94.2043 134.867 90.6262 135.444C87.0481 136.021 84.1625 136.656 83.8739 135.964C83.5854 135.271 86.4132 133.712 90.2799 133.25Z" fill="#F9E6CF"/>
<path opacity="0.5" d="M191.333 120.318L180.195 126.553C178.701 127.547 177.116 128.397 175.462 129.093C176.64 127.726 177.977 126.505 179.444 125.456C181.984 123.32 185.562 120.491 189.602 117.662C193.316 114.935 197.448 112.829 201.837 111.427C204.953 110.503 206.857 111.427 206.742 111.427C206.627 111.427 202.298 114.082 191.333 120.318Z" fill="#7D7A7C"/>
<path d="M198.951 115.468C195.835 117.027 193.18 118.066 192.834 117.546C192.487 117.027 194.738 115.064 197.912 113.447C201.086 111.831 204.145 111.369 204.318 112.004C204.491 112.639 202.01 113.851 198.951 115.468Z" fill="#F9E6CF"/>
<path opacity="0.5" d="M191.852 137.061C186.081 137.061 181.118 137.869 181.06 137.522C184.341 135.676 187.946 134.48 191.679 134.001C193.195 133.588 194.789 133.556 196.319 133.909C197.85 134.261 199.269 134.987 200.451 136.021C202.067 137.984 201.317 139.37 200.971 139.37C200.625 139.37 199.99 138.677 198.835 138.158C196.602 137.34 194.229 136.967 191.852 137.061Z" fill="#7D7A7C"/>
<path d="M197.104 137.003C195.315 136.541 193.584 136.079 193.584 135.502C193.584 134.924 195.373 134.232 197.681 134.809C199.99 135.386 201.202 137.753 200.567 137.984C199.932 138.215 198.778 137.407 197.104 137.003Z" fill="#F9E6CF"/>
<path opacity="0.5" d="M184.177 100.688C181.407 104.845 178.406 108.54 176.732 111.196C175.733 112.704 174.572 114.098 173.269 115.353C173.834 113.638 174.589 111.992 175.52 110.445C177.078 107.443 179.214 103.459 181.291 98.8984C187.178 88.564 190.64 83.8298 191.333 83.8298C192.026 83.8298 191.333 90.0651 184.177 100.688Z" fill="#7D7A7C"/>
<path d="M188.447 92.4322C186.716 95.5498 184.812 97.8014 184.292 97.455C183.773 97.1086 184.754 94.4528 186.485 91.3352C188.217 88.2176 189.832 85.9659 190.41 86.1969C190.987 86.4278 190.179 89.6032 188.447 92.4322Z" fill="#F9E6CF"/>
<path opacity="0.5" d="M151.974 85.6195C152.724 91.3929 153.07 97.1663 153.243 100.977C153.409 103.129 153.409 105.291 153.243 107.443C152.603 105.389 152.14 103.283 151.858 101.15C151.108 97.2241 150.185 91.9126 148.915 86.1969C147.414 79.2688 146.145 74.1305 145.164 70.7242C144.183 67.3179 143.49 65.759 143.836 65.4704C144.183 65.1817 145.856 66.1054 147.53 69.3963C149.965 74.4962 151.47 79.9902 151.974 85.6195Z" fill="#7D7A7C"/>
<path d="M149.146 74.8233C150.3 78.9801 150.415 82.5019 149.838 82.6174C149.261 82.7328 148.107 79.442 147.01 75.4584C145.914 71.4747 145.164 68.2993 145.164 67.9529C145.164 67.6065 148.049 70.6664 149.146 74.8233Z" fill="#F9E6CF"/>
<path opacity="0.5" d="M137.892 163.849C139.48 161.713 141.434 159.876 143.663 158.422C142.774 160.908 141.653 163.305 140.316 165.581C139.478 167.27 138.452 168.858 137.257 170.315C136.565 171.239 135.814 171.701 135.41 171.643C135.006 171.586 134.602 170.777 134.776 169.334C135.285 167.252 136.364 165.353 137.892 163.849Z" fill="#7D7A7C"/>
<path d="M136.103 167.544C136.853 166.158 137.95 165.35 138.469 165.697C138.989 166.043 138.758 167.313 138.065 168.641C137.373 169.969 136.449 170.777 135.93 170.604C135.41 170.431 135.295 168.93 136.103 167.544Z" fill="#F9E6CF"/>
<path opacity="0.5" d="M116.308 227.414L127.85 203.801L131.428 196.642C131.849 195.744 132.331 194.876 132.871 194.044C132.672 195.019 132.362 195.968 131.948 196.873C131.313 198.663 130.332 201.261 129.12 204.378C126.638 210.671 123.349 219.332 119.424 228.684C110.248 251.374 103.958 262.401 103.207 262.055C102.457 261.708 105.4 251.258 116.308 227.414Z" fill="#7D7A7C"/>
<path d="M109.325 244.908C110.744 240.726 112.872 236.821 115.615 233.361C114.884 237.724 113.441 241.936 111.345 245.831C109.931 250.004 107.824 253.908 105.112 257.378C105.808 253.015 107.232 248.799 109.325 244.908Z" fill="#F9E6CF"/>
<path opacity="0.5" d="M104.766 233.938L118.963 209.401C120.867 206.284 122.368 203.628 123.464 201.954C123.996 201.008 124.594 200.101 125.253 199.24C124.913 200.255 124.488 201.24 123.984 202.184C123.118 204.09 121.79 206.745 120.232 210.036L107.478 235.382C95.474 258.995 87.7406 270.484 86.9903 270.022C86.2401 269.56 90.7416 258.417 104.766 233.938Z" fill="#7D7A7C"/>
<path d="M95.4739 252.067C97.3778 247.685 99.9906 243.647 103.207 240.116C101.965 244.736 100.018 249.137 97.4361 253.164C95.4645 257.509 92.8583 261.536 89.7028 265.115C90.9146 260.484 92.8632 256.078 95.4739 252.067Z" fill="#F9E6CF"/>
<path opacity="0.5" d="M92.7038 238.268C97.8979 230.532 102.688 223.431 106.324 218.35L110.652 212.577C111.691 211.191 112.268 210.383 112.383 210.44C112.041 211.307 111.616 212.138 111.114 212.923L107.478 219.331C104.304 224.758 100.033 232.148 95.3008 240.173C83.7585 259.514 77.0062 269.04 76.0829 268.521C75.1595 268.001 79.1416 258.129 92.7038 238.268Z" fill="#7D7A7C"/>
<path d="M83.7585 253.221C85.6339 249.597 88.1347 246.333 91.1456 243.58C89.9205 247.528 87.9626 251.211 85.3744 254.434C83.6023 258.095 81.1771 261.401 78.2182 264.191C79.36 260.219 81.2395 256.497 83.7585 253.221Z" fill="#F9E6CF"/>
<path opacity="0.5" d="M98.9944 218.985L109.786 204.725C111.258 202.684 112.878 200.754 114.634 198.951C113.583 201.241 112.347 203.442 110.941 205.533C108.575 209.517 105.17 214.886 101.534 220.775C92.5884 234.92 86.6441 241.27 85.8938 240.809C85.1436 240.347 88.2023 233.303 98.9944 218.985Z" fill="#7D7A7C"/>
<path d="M91.8958 229.897C94.7237 225.798 97.3784 222.796 97.667 223.142C97.9555 223.488 96.3396 227.068 93.5117 231.167C90.6839 235.266 88.0291 238.268 87.7406 237.922C87.452 237.575 89.1257 233.938 91.8958 229.897Z" fill="#F9E6CF"/>
<path opacity="0.5" d="M101.361 187.751C107.132 183.075 112.268 178.975 116.192 176.204C118.245 174.518 120.426 172.993 122.714 171.643C122.714 171.643 122.252 172.278 121.271 173.26L117.116 177.243L103.438 190.234C90.5685 202.3 83.9893 208.247 83.2968 207.554C82.6043 206.861 86.7018 199.76 101.361 187.751Z" fill="#7D7A7C"/>
<path d="M91.5496 197.393C95.3585 193.813 98.8212 191.33 99.2829 191.619C99.7446 191.908 96.859 195.43 93.2232 199.298C89.5874 203.166 86.2978 205.649 85.8361 205.071C85.3744 204.494 87.7406 201.03 91.5496 197.393Z" fill="#F9E6CF"/>
<path opacity="0.5" d="M74.2938 219.736C82.2003 212.519 89.5874 206.053 95.0123 201.434L101.476 195.949C102.258 195.233 103.109 194.594 104.015 194.044C103.395 194.911 102.679 195.705 101.88 196.411L96.1088 202.473C91.0302 207.496 84.0471 214.424 76.5445 221.987C67.3876 231.109 60.366 237.883 55.4798 242.31C50.6897 246.755 48.1504 248.949 47.8618 248.66C47.5733 248.372 53.8061 238.211 74.2938 219.736Z" fill="#7D7A7C"/>
<path d="M60.2121 233.938C63.2736 230.4 66.901 227.396 70.9465 225.047C68.4564 228.992 65.3596 232.518 61.7704 235.497C58.7328 239.012 55.2165 242.083 51.3246 244.619C53.6426 240.568 56.6503 236.953 60.2121 233.938Z" fill="#F9E6CF"/>
<path opacity="0.5" d="M83.2968 222.391L98.9944 205.995L103.842 201.145C104.423 200.511 105.06 199.931 105.747 199.413C105.347 200.177 104.863 200.893 104.304 201.549L100.033 206.919L85.8361 224.239C72.3316 240.404 64.1942 247.621 63.5017 247.332C62.8092 247.044 67.9455 238.557 83.2968 222.391Z" fill="#7D7A7C"/>
<path d="M72.851 234.689C77.0062 230.012 80.6998 226.548 81.1615 227.01C79.5876 230.453 77.3521 233.552 74.5823 236.132C70.4271 240.809 66.7336 244.215 66.2719 243.811C67.8458 240.368 70.0812 237.268 72.851 234.689Z" fill="#F9E6CF"/>
<path opacity="0.5" d="M77.5833 199.298C85.663 192.947 93.2232 187.751 98.9944 183.652L105.631 179.149C106.407 178.521 107.26 177.998 108.171 177.59C107.496 178.322 106.763 178.998 105.977 179.611L99.86 184.749L79.7187 201.492C60.847 217.08 51.3245 225.105 50.8629 224.585C50.4012 224.066 56.5763 214.713 77.5833 199.298Z" fill="#7D7A7C"/>
<path d="M63.1554 211.364C66.3005 208.241 69.9739 205.7 74.0052 203.859C74.4092 204.378 70.1385 208.42 64.5982 213.096C61.4827 216.194 57.9468 218.837 54.0947 220.948C56.4857 217.212 59.5597 213.96 63.1554 211.364Z" fill="#F9E6CF"/>
<path opacity="0.5" d="M50.5743 180.707C60.5007 176.666 69.7923 173.491 76.5445 171.239L84.6242 168.699C85.6161 168.347 86.6408 168.096 87.6829 167.948C86.7703 168.452 85.8257 168.896 84.855 169.276L77.0639 172.567C70.4848 175.338 61.4818 179.091 51.7862 183.536C40.2439 188.906 31.414 193.178 25.7583 196.296C23.0019 198.083 20.1291 199.684 17.1593 201.088C16.813 201.088 18.4866 198.143 23.7384 194.333C32.13 188.773 41.1349 184.201 50.5743 180.707Z" fill="#7D7A7C"/>
<path d="M32.626 189.541C36.5935 187.063 41.003 185.377 45.6111 184.576C41.9318 187.388 37.9193 189.734 33.6648 191.561C29.7475 194.002 25.5896 196.034 21.2568 197.623C24.4145 194.135 28.2942 191.377 32.626 189.541Z" fill="#F9E6CF"/>
<path opacity="0.5" d="M54.4987 190.465C62.4629 186.654 69.9654 183.479 75.3903 181.227L81.6809 178.629C82.4784 178.276 83.3099 178.005 84.1625 177.821C84.1625 177.821 83.4122 178.398 81.9694 179.206L75.9097 182.497L55.8838 193.524C46.5922 198.663 39.5514 202.531 34.9344 205.071C32.6897 206.655 30.2689 207.972 27.7205 208.997C26.9125 208.131 33.7225 200.106 54.4987 190.465Z" fill="#7D7A7C"/>
<path d="M40.1285 198.778C43.2896 196.521 46.8866 194.948 50.6897 194.159C51.036 194.737 46.7076 197.508 41.2827 200.683C38.1603 202.903 34.741 204.672 31.1255 205.937C30.7215 205.418 34.6459 201.954 40.1285 198.778Z" fill="#F9E6CF"/>
<path opacity="0.5" d="M64.3674 192.139C70.8311 188.79 76.8331 185.904 81.2192 183.883L86.4709 181.573C87.1159 181.253 87.793 181.001 88.4909 180.823C87.9776 181.327 87.3945 181.755 86.7595 182.093L81.854 185.153L65.8679 194.852C58.573 199.875 50.8479 204.241 42.7832 207.9C42.2061 207.207 47.7464 200.683 64.3674 192.139Z" fill="#7D7A7C"/>
<path d="M52.825 199.298C57.2688 196.527 61.1355 194.91 61.4818 195.43C61.8281 195.949 58.3654 198.49 53.9793 201.203C51.4827 203.14 48.6439 204.589 45.6111 205.475C45.3802 205.071 48.5544 202.184 52.825 199.298Z" fill="#F9E6CF"/>
<path opacity="0.5" d="M55.0181 139.601C63.9057 139.601 72.043 140.178 78.1027 140.756L85.0859 141.564C85.9443 141.642 86.794 141.797 87.6252 142.026C86.7616 142.111 85.8917 142.111 85.0281 142.026H77.8719C72.1007 142.026 63.848 142.026 55.0758 142.603C47.1412 142.963 39.2378 143.831 31.414 145.201C26.22 146.24 23.7384 147.395 23.4498 146.933C23.1613 146.471 25.008 144.624 30.1444 142.776C38.2056 140.361 46.6089 139.288 55.0181 139.601Z" fill="#7D7A7C"/>
<path d="M38.4549 141.564C42.2493 140.661 46.2027 140.661 49.9972 141.564C46.3797 142.865 42.5846 143.605 38.7434 143.758C35.0431 144.606 31.279 145.147 27.4896 145.374C27.2011 144.508 32.0489 142.314 38.4549 141.564Z" fill="#F9E6CF"/>
<path opacity="0.5" d="M70.1385 149.589C76.4868 148.954 82.3157 148.723 86.5286 148.723C88.8411 148.633 91.1571 148.729 93.4541 149.012C91.2216 149.581 88.9424 149.948 86.6441 150.108C82.4888 150.686 76.7177 151.494 70.6002 152.649C63.1554 154.092 57.6151 155.42 54.037 156.517C50.4589 157.614 48.7275 158.538 48.2658 158.191C47.8041 157.845 49.0161 156.113 52.4788 154.208C58.014 151.547 64.01 149.979 70.1385 149.589Z" fill="#7D7A7C"/>
<path d="M58.5962 152.418C63.04 151.205 66.7913 151.148 66.9067 151.725C67.0221 152.302 63.444 153.399 59.1733 154.612C56.6416 155.609 53.9781 156.231 51.2668 156.459C50.8629 155.824 54.0947 153.63 58.5962 152.418Z" fill="#F9E6CF"/>
<path opacity="0.5" d="M117.635 127.881C120.924 128.592 124.163 129.518 127.331 130.652C128.686 131.069 129.984 131.651 131.197 132.384C131.197 132.731 124.734 131.576 117.174 130.941C112.578 130.987 107.986 130.679 103.438 130.017C103.438 129.555 104.073 128.689 106.497 127.823C110.162 126.962 113.979 126.982 117.635 127.881Z" fill="#7D7A7C"/>
<path d="M110.537 127.765C113.365 127.765 115.558 128.574 115.5 129.151C115.442 129.728 113.191 129.959 110.537 130.017C107.882 130.075 105.747 130.017 105.573 129.382C105.4 128.747 107.363 127.765 110.537 127.765Z" fill="#F9E6CF"/>
<path opacity="0.5" d="M97.2053 109.868C101.577 111.33 105.824 113.145 109.902 115.295C111.64 116.116 113.285 117.122 114.807 118.297C112.936 117.894 111.102 117.334 109.325 116.623C105.107 115.087 100.811 113.777 96.455 112.697C90.3266 111.539 84.1084 110.92 77.8719 110.849C77.8719 110.849 77.8719 110.272 78.6799 109.695C79.7694 109.143 80.9097 108.698 82.0848 108.367C87.1693 107.529 92.3846 108.047 97.2053 109.868Z" fill="#7D7A7C"/>
<path d="M87.452 108.598C91.3187 108.944 94.262 110.041 94.1466 110.734C94.0312 111.427 90.9724 111.138 87.3366 110.734C85.5475 110.734 83.8739 110.734 82.662 110.734C81.45 110.734 80.6998 110.734 80.6421 110.272C80.5843 109.81 81.2769 109.579 82.4888 109.117C84.1148 108.736 85.7824 108.561 87.452 108.598Z" fill="#F9E6CF"/>
<path opacity="0.5" d="M80.9306 116.68C86.2332 118.044 91.4388 119.761 96.5128 121.819C98.6488 122.605 100.714 123.571 102.688 124.705C100.433 124.388 98.2116 123.866 96.0511 123.147C92.0112 122.165 86.4132 120.664 80.2958 119.74C74.8063 118.767 69.2489 118.227 63.6748 118.124C61.7633 118.43 59.8152 118.43 57.9037 118.124C57.9037 117.604 59.1156 116.507 62.9823 115.41C68.986 114.517 75.1124 114.951 80.9306 116.68Z" fill="#7D7A7C"/>
<path d="M69.042 115.526C73.6589 115.526 77.1794 116.969 77.0639 117.546C76.9485 118.124 73.3704 117.951 68.9843 117.546C66.7913 117.546 64.8291 117.546 63.2131 117.546C61.5972 117.546 60.9047 117.546 60.7893 117.2C60.6738 116.854 61.5972 116.392 63.04 115.93C65.0206 115.582 67.0327 115.447 69.042 115.526Z" fill="#F9E6CF"/>
<path opacity="0.5" d="M47.5733 123.609C57.4997 125.225 66.5604 127.188 73.0241 128.805C76.3137 129.555 78.7953 130.248 80.7575 130.768C81.7344 130.958 82.6842 131.268 83.5854 131.691C82.5962 131.66 81.6115 131.544 80.6421 131.345L72.7933 130.017C66.1564 129.036 57.0957 127.65 47.1693 126.611C38.1661 125.523 29.1123 124.906 20.0448 124.763C16.9691 124.93 13.8867 124.93 10.811 124.763C10.811 124.417 13.1772 122.743 19.2369 121.934C28.7141 121.163 38.2526 121.727 47.5733 123.609Z" fill="#7D7A7C"/>
<path d="M28.7593 122.338C33.154 122.068 37.5567 122.717 41.6867 124.244C37.3784 124.834 33.0098 124.834 28.7016 124.244C24.3987 124.572 20.0771 124.572 15.7742 124.244C19.8467 122.432 24.3382 121.773 28.7593 122.338Z" fill="#F9E6CF"/>
<path opacity="0.5" d="M136.449 120.029C138.32 121.197 139.899 122.777 141.066 124.648C141.99 126.033 142.336 127.015 142.22 127.073C139.984 125.443 137.609 124.013 135.122 122.8C133.476 122.217 131.723 122.001 129.986 122.165C128.658 122.165 127.85 122.165 127.619 121.877C127.388 121.588 127.619 120.491 128.947 119.683C130.098 119.012 131.418 118.689 132.749 118.75C134.08 118.811 135.364 119.256 136.449 120.029Z" fill="#7D7A7C"/>
<path d="M131.486 119.394C133.506 119.394 134.776 120.375 134.545 120.837C134.314 121.299 133.044 121.415 131.601 121.588C130.159 121.761 128.889 121.588 128.6 121.241C128.312 120.895 129.524 119.509 131.486 119.394Z" fill="#F9E6CF"/>
<path opacity="0.5" d="M137.315 100.688C139.492 104.747 141.289 108.999 142.682 113.39C143.421 115.237 143.888 117.181 144.067 119.163C143.721 119.163 140.431 111.08 134.66 102.536C132.238 98.6933 129.196 95.2792 125.657 92.4321C123.291 90.6424 121.675 90.2383 121.733 89.7764C121.79 89.3145 123.406 88.6794 126.638 89.7764C131.331 92.0974 135.096 95.945 137.315 100.688Z" fill="#7D7A7C"/>
<path d="M130.736 93.0095C133.564 95.723 134.833 98.7829 134.372 98.7829C133.91 98.7829 131.775 96.8777 129.178 94.3951C126.581 91.9125 124.099 90.5269 124.272 89.9496C124.445 89.3722 127.85 90.1805 130.736 93.0095Z" fill="#F9E6CF"/>
<path opacity="0.5" d="M193.18 158.133C185.389 153.515 177.771 151.321 177.886 150.917C179.601 150.937 181.307 151.17 182.965 151.61C186.941 152.449 190.812 153.727 194.507 155.42C198.755 157.152 202.279 160.291 204.491 164.311C204.948 165.381 205.259 166.507 205.415 167.66C205.415 168.526 205.415 168.93 204.953 168.987C204.491 169.045 203.914 167.948 202.298 165.928C199.735 162.819 196.649 160.181 193.18 158.133Z" fill="#7D7A7C"/>
<path d="M200.163 162.637C199.009 161.54 197.912 160.558 197.22 159.75C196.527 158.942 196.008 158.422 196.181 158.133C196.354 157.845 197.104 158.133 198.143 158.422C199.421 159.164 200.62 160.035 201.721 161.02C204.26 163.618 204.895 166.794 204.318 166.794C203.741 166.794 202.356 164.657 200.163 162.637Z" fill="#F9E6CF"/>
<path opacity="0.5" d="M175.347 165.292C175.012 162.684 174.252 160.149 173.096 157.787C174.415 158.493 175.57 159.471 176.485 160.655C177.4 161.839 178.054 163.203 178.406 164.657C180.137 170.431 177.655 173.375 176.963 173.144C176.27 172.913 175.578 170.431 175.347 165.292Z" fill="#7D7A7C"/>
<path d="M176.155 169.103C176.155 167.602 176.155 166.332 177.078 166.216C178.002 166.101 178.463 167.429 178.406 169.103C178.348 170.777 177.713 172.047 177.078 171.99C176.443 171.932 176.155 170.431 176.155 169.103Z" fill="#F9E6CF"/>
<path opacity="0.5" d="M164.439 187.058C164.226 181.912 163.569 176.793 162.477 171.759C163.434 173.004 164.158 174.412 164.613 175.916C166.062 179.442 167.014 183.154 167.44 186.943C167.919 191.008 167.404 195.129 165.94 198.951C164.901 201.549 163.747 202.531 163.401 202.415C163.054 202.3 163.92 197.624 164.439 187.058Z" fill="#7D7A7C"/>
<path d="M164.439 194.795C164.843 191.85 165.42 189.483 165.998 189.483C166.575 189.483 167.094 192.023 166.632 195.256C166.171 198.49 164.901 200.741 164.266 200.51C163.631 200.279 163.805 197.681 164.439 194.795Z" fill="#F9E6CF"/>
<path opacity="0.5" d="M127.158 218.177L135.526 199.644C136.68 197.335 137.603 195.372 138.238 193.871C138.873 192.37 139.277 191.792 139.393 191.85C139.257 192.614 139.064 193.367 138.815 194.102L136.853 199.875C135.064 204.898 132.64 211.422 130.043 219.043C123.522 236.94 118.501 245.543 117.808 245.196C117.116 244.85 118.905 236.709 127.158 218.177Z" fill="#7D7A7C"/>
<path d="M122.079 231.918C123.046 228.609 124.698 225.54 126.927 222.911C126.743 226.366 125.797 229.738 124.157 232.784C123.216 236.103 121.562 239.177 119.309 241.79C119.532 238.342 120.476 234.978 122.079 231.918Z" fill="#F9E6CF"/>
<path opacity="0.5" d="M143.779 221.468C144.933 214.944 145.914 208.882 146.664 204.436C146.987 202.035 147.488 199.661 148.165 197.335C148.325 199.757 148.325 202.187 148.165 204.609C147.876 209.055 147.588 215.175 146.953 221.93C145.625 238.095 142.336 246.178 141.47 245.889C140.604 245.6 141.008 238.384 143.779 221.468Z" fill="#7D7A7C"/>
<path d="M142.509 233.938C143.317 229.262 144.183 225.451 144.817 225.509C145.6 228.382 145.6 231.412 144.817 234.285C144.067 238.961 142.971 242.714 142.278 242.598C141.709 239.73 141.788 236.772 142.509 233.938Z" fill="#F9E6CF"/>
<path opacity="0.5" d="M150.358 247.159C151.05 236.248 151.743 226.26 152.204 218.927C152.493 215.29 152.724 212.288 152.839 210.21C152.848 209.139 152.983 208.073 153.243 207.034C153.302 208.111 153.302 209.19 153.243 210.267C153.243 212.346 153.243 215.29 153.243 218.927C153.243 226.26 153.243 236.248 153.243 247.275C152.839 273.832 149.377 287.689 148.453 287.284C147.53 286.88 148.511 275.334 150.358 247.159Z" fill="#7D7A7C"/>
<path d="M149.607 267.597C149.573 262.831 150.234 258.085 151.57 253.51C152.453 258.195 152.551 262.995 151.858 267.713C151.883 272.509 151.083 277.275 149.492 281.8C148.881 277.083 148.919 272.304 149.607 267.597Z" fill="#F9E6CF"/>
<path opacity="0.5" d="M156.302 216.618C157.168 210.21 157.803 204.263 158.033 199.875C158.107 197.498 158.319 195.127 158.668 192.774C158.848 193.395 158.964 194.034 159.014 194.679C159.014 195.892 159.303 197.681 159.418 199.875C159.804 205.642 159.804 211.428 159.418 217.195C159.125 223.345 157.717 229.39 155.263 235.035C154.476 236.413 153.609 237.743 152.666 239.019C151.974 239.827 151.397 240.058 151.223 239.943C151.05 239.827 153.705 233.303 156.302 216.618Z" fill="#7D7A7C"/>
<path d="M154.628 228.742C154.988 225.921 155.889 223.196 157.283 220.717C157.976 220.717 157.86 224.643 156.764 229.32C156.193 231.301 155.459 233.232 154.571 235.093C153.705 236.479 153.012 237.229 152.782 237.056C152.551 236.883 152.782 235.959 153.07 234.516C153.359 233.072 153.878 230.936 154.628 228.742Z" fill="#F9E6CF"/>
<path opacity="0.5" d="M175.693 187.116C174.654 181.978 173.5 177.301 172.634 173.895L171.48 169.911C171.41 169.394 171.41 168.87 171.48 168.352C172.6 169.931 173.53 171.636 174.25 173.433C176.076 177.649 177.656 181.967 178.983 186.365C182.619 198.721 182.157 205.591 181.407 205.706C180.656 205.822 178.175 200.395 175.693 187.116Z" fill="#7D7A7C"/>
<path d="M178.232 196.584C177.424 192.889 177.309 189.829 177.886 189.656C178.463 189.483 179.618 192.427 180.425 196.122C181.233 199.817 181.176 202.993 180.425 203.051C179.675 203.108 179.04 200.279 178.232 196.584Z" fill="#F9E6CF"/>
<path opacity="0.5" d="M165.709 251.258C165.305 242.945 164.901 235.208 164.613 229.55C164.613 226.779 164.612 224.47 164.324 222.911C164.248 222.085 164.248 221.254 164.324 220.428C164.642 221.181 164.837 221.981 164.901 222.796C164.901 224.412 165.536 226.664 165.998 229.435C166.863 235.208 167.96 242.656 168.825 251.027C171.134 271.408 168.825 282.204 167.729 282.031C166.632 281.857 166.748 272.793 165.709 251.258Z" fill="#7D7A7C"/>
<path d="M166.979 266.789C166.494 263.144 166.709 259.441 167.613 255.877C168.951 259.33 169.503 263.038 169.229 266.731C169.82 270.393 169.483 274.145 168.248 277.643C167.245 274.117 166.816 270.452 166.979 266.789Z" fill="#F9E6CF"/>
<path opacity="0.5" d="M128.254 43.416C131.255 53.5772 133.621 62.9878 135.237 69.8582C136.045 73.2645 136.68 76.0934 137.084 78.0564C137.383 79.0509 137.558 80.0787 137.603 81.1163C137.158 80.1268 136.791 79.1036 136.507 78.0564L133.91 70.1468C131.717 63.3919 128.774 54.2122 125.311 44.2243C121.098 32.2156 117.808 23.1513 115.384 17.2625C113.96 14.3434 112.726 11.3349 111.691 8.25596C111.979 7.90956 114.461 9.87252 117.462 15.5305C122.062 24.4058 125.68 33.7562 128.254 43.416Z" fill="#7D7A7C"/>
<path d="M121.271 24.6524C123.296 28.8146 124.529 33.3176 124.907 37.9312C122.426 34.0557 120.485 29.8603 119.136 25.4607C117.201 21.3217 115.655 17.0115 114.519 12.586C117.674 16.0302 119.986 20.1611 121.271 24.6524Z" fill="#F9E6CF"/>
<path opacity="0.5" d="M116.77 102.131C119.689 104.784 122.355 107.702 124.734 110.849C125.809 112.116 126.72 113.512 127.446 115.006C127.158 115.006 121.964 109.695 114.865 104.556C111.812 102.23 108.401 100.416 104.766 99.187C102.399 98.552 101.014 98.7829 100.841 98.321C100.668 97.8592 101.649 96.589 104.766 96.4735C109.332 96.7957 113.614 98.8137 116.77 102.131Z" fill="#7D7A7C"/>
<path d="M109.152 97.8591C112.326 99.187 114.115 101.323 113.769 101.785C113.422 102.247 111.056 101.092 108.286 99.9376C105.516 98.7829 103.207 98.4365 103.092 97.8014C102.976 97.1663 105.977 96.4158 109.152 97.8591Z" fill="#F9E6CF"/>
<path opacity="0.5" d="M54.9604 105.769C66.5027 109.868 77.1794 114.082 84.855 117.316L93.858 121.184C94.9857 121.657 96.0842 122.196 97.1476 122.8C95.9479 122.55 94.7705 122.202 93.6272 121.761L84.3356 118.47C76.5445 115.814 65.7525 112.177 53.9793 108.598C39.6668 104.287 28.8362 101.265 21.4876 99.5334C17.7294 98.9249 14.0103 98.0959 10.3493 97.0509C10.3493 96.6467 13.812 95.8384 21.2568 97.0509C32.7586 98.8019 44.0517 101.723 54.9604 105.769Z" fill="#7D7A7C"/>
<path d="M32.5683 99.5335C37.8917 100.612 43.0005 102.563 47.6887 105.307C42.3521 104.705 37.1035 103.485 32.0489 101.67C26.7983 100.64 21.6292 99.2318 16.5821 97.455C21.9975 97.0218 27.4435 97.7298 32.5683 99.5335Z" fill="#F9E6CF"/>
<path opacity="0.5" d="M54.7295 117.546C65.3485 120.26 74.9286 123.32 81.854 125.514L90.1068 128.285C91.1165 128.593 92.1005 128.979 93.0501 129.44C91.9954 129.346 90.952 129.152 89.9336 128.862L81.6809 126.842C74.5823 125.167 64.8291 122.8 54.2101 120.549C41.3404 117.835 31.5872 115.93 25.008 114.775C21.6463 114.533 18.3082 114.032 15.0239 113.274C15.0239 112.87 17.9672 111.831 24.6041 112.004C34.8148 112.771 44.9141 114.629 54.7295 117.546Z" fill="#7D7A7C"/>
<path d="M34.5882 113.794C39.3519 114.201 43.9942 115.514 48.2658 117.662C43.5423 117.706 38.8316 117.163 34.2419 116.045C29.5489 115.586 24.9108 114.677 20.3911 113.332C25.101 112.455 29.9451 112.613 34.5882 113.794Z" fill="#F9E6CF"/>
<path opacity="0.5" d="M76.9485 96.9931C84.6242 100.746 91.4919 104.614 96.3396 107.558C98.7635 109.002 100.726 110.214 102.111 111.138C102.825 111.559 103.501 112.042 104.131 112.581C103.333 112.35 102.559 112.041 101.822 111.658L95.7048 108.771C90.5685 106.346 83.4699 102.997 75.6789 99.8221C68.6077 96.8431 61.3836 94.2415 54.037 92.028C51.4482 91.6152 48.9128 90.9182 46.4768 89.9496C46.4768 89.6032 48.843 88.6794 54.037 89.3145C62.0322 90.645 69.7656 93.2368 76.9485 96.9931Z" fill="#7D7A7C"/>
<path d="M61.8281 91.5662C65.5062 92.3633 68.9338 94.048 71.8122 96.4735C68.1313 96.1083 64.5295 95.1734 61.1355 93.7023C57.5552 92.8829 54.0727 91.6829 50.7474 90.1228C54.5031 89.5456 58.3454 90.0461 61.8281 91.5662Z" fill="#F9E6CF"/>
<path opacity="0.5" d="M205.992 149.185C197.335 146.991 189.659 146.125 189.717 145.778C191.346 145.424 193.018 145.308 194.68 145.432C198.655 145.36 202.629 145.591 206.569 146.125C210.942 146.54 215.126 148.114 218.688 150.686C221.055 152.706 221.343 154.496 220.939 154.669C216.136 152.384 211.133 150.548 205.992 149.185Z" fill="#7D7A7C"/>
<path d="M214.014 151.032C211.128 149.877 208.647 148.838 208.82 148.203C208.993 147.568 211.705 147.684 214.591 148.954C217.476 150.224 219.727 152.476 219.208 152.937C218.688 153.399 216.899 152.129 214.014 151.032Z" fill="#F9E6CF"/>
<path opacity="0.5" d="M174.02 84.2917C172 92.028 169.864 99.0138 168.248 104.037L166.171 109.81C165.938 110.552 165.628 111.268 165.247 111.946C165.28 111.166 165.396 110.392 165.594 109.637C165.882 108.136 166.344 106.057 166.863 103.459C168.017 98.2633 169.576 91.162 171.076 83.3679C172.865 73.9573 174.135 66.9137 174.885 62.1795C175.066 59.7331 175.511 57.3134 176.213 54.9628C176.674 54.9628 177.655 57.0412 177.713 61.9486C177.43 69.5225 176.189 77.0299 174.02 84.2917Z" fill="#7D7A7C"/>
<path d="M176.617 69.5695C176.431 73.0653 175.422 76.4677 173.673 79.4997C173.266 76.0577 173.521 72.5695 174.423 69.2231C174.623 65.7911 175.323 62.4068 176.501 59.1774C177.517 62.5614 177.557 66.1637 176.617 69.5695Z" fill="#F9E6CF"/>
<path opacity="0.5" d="M223.421 80.4812C216.611 86.7165 210.378 92.4899 205.819 96.7622C203.568 98.7829 201.663 100.457 200.394 101.67C199.733 102.29 199.019 102.85 198.258 103.344C198.723 102.546 199.285 101.809 199.932 101.15L204.838 95.723C209.108 91.162 214.879 84.9267 221.228 78.4028C236.637 62.1218 245.755 54.905 246.332 55.3092C246.909 55.7133 240.792 64.0848 223.421 80.4812Z" fill="#7D7A7C"/>
<path d="M235.367 67.9529C232.721 71.0601 229.534 73.6617 225.96 75.6315C225.498 75.1697 228.961 71.0706 233.636 66.3941C236.335 63.2492 239.605 60.6438 243.273 58.7155C241.231 62.2569 238.55 65.389 235.367 67.9529Z" fill="#F9E6CF"/>
<path opacity="0.5" d="M234.328 100.053L211.59 111.6L204.607 115.237C203.77 115.739 202.879 116.146 201.952 116.45C202.69 115.806 203.482 115.227 204.318 114.717L210.897 110.445C216.668 106.866 224.229 102.074 232.885 97.1086C240.702 92.4255 248.908 88.427 257.413 85.1577C263.184 83.0215 266.531 82.8483 266.589 83.2525C266.647 83.6566 264.223 84.7535 259.029 87.3516L234.328 100.053Z" fill="#7D7A7C"/>
<path d="M250.545 91.2197C246.831 93.4317 242.803 95.0669 238.599 96.0694C241.774 93.09 245.498 90.7566 249.564 89.1991C253.295 86.9478 257.469 85.5298 261.799 85.0422C258.335 87.5862 254.551 89.6632 250.545 91.2197Z" fill="#F9E6CF"/>
<path opacity="0.5" d="M112.903 91.162C116.85 95.5118 120.549 100.08 123.984 104.845C125.446 106.77 126.74 108.817 127.85 110.965C125.986 109.35 124.25 107.594 122.656 105.711C119.597 102.478 115.327 97.9746 110.479 93.3559C106.16 89.1237 101.592 85.1523 96.8013 81.4627C93.6272 79.0379 91.7227 78.2296 91.8381 77.7677C91.9535 77.3058 94.0312 77.0749 97.6093 78.9224C103.437 81.9951 108.627 86.1488 112.903 91.162Z" fill="#7D7A7C"/>
<path d="M103.265 82.8483C107.074 85.9082 109.498 89.0836 109.036 89.4877C108.575 89.8919 105.516 87.5825 101.822 84.5803C98.1287 81.5782 94.9546 79.442 95.1854 78.8069C95.4163 78.1719 99.4561 79.673 103.265 82.8483Z" fill="#F9E6CF"/>
<path opacity="0.5" d="M59.4619 75.1119C69.1574 80.8853 77.6411 86.6587 83.7008 90.9888C86.7595 93.125 89.472 94.9147 90.857 96.2426C91.7673 96.8534 92.6176 97.5494 93.3963 98.321C92.3861 97.8737 91.42 97.3324 90.5108 96.7045L82.9505 92.1435C76.5445 88.2753 67.7724 83.0215 57.9614 78.0564C49.1214 73.0946 39.9859 68.6793 30.6061 64.8353C27.2809 63.8641 24.0388 62.6285 20.9105 61.1403C20.9105 60.7362 24.1424 60.3898 30.7792 62.0641C40.8976 65.0647 50.5506 69.4559 59.4619 75.1119Z" fill="#7D7A7C"/>
<path d="M40.5325 65.99C45.1667 67.6113 49.4402 70.1215 53.1136 73.3799C48.4425 72.1313 43.9306 70.3491 39.6668 68.0684C35.129 66.4629 30.7123 64.5335 26.4508 62.295C31.369 62.4081 36.192 63.6736 40.5325 65.99Z" fill="#F9E6CF"/>
<path opacity="0.5" d="M127.85 79.9616C130.799 84.9238 133.42 90.073 135.699 95.3766C136.801 97.5833 137.709 99.8822 138.411 102.247C136.954 100.267 135.642 98.1827 134.487 96.0116C132.121 92.1435 128.716 86.8319 125.022 81.4049C121.697 76.4451 117.825 71.8747 113.48 67.7797C110.479 65.2394 108.517 64.6043 108.574 64.1425C108.632 63.6806 110.825 63.2765 114.692 65.3549C120.226 69.0511 124.749 74.0721 127.85 79.9616Z" fill="#7D7A7C"/>
<path d="M119.424 70.0314C122.829 73.6686 124.676 77.2481 124.157 77.5945C123.637 77.9409 121.04 75.0542 117.808 71.8211C114.577 68.588 111.575 66.0477 111.749 65.7013C111.922 65.3549 116.308 66.5096 119.424 70.0314Z" fill="#F9E6CF"/>
<path opacity="0.5" d="M75.9097 71.5324C85.0281 78.6337 93.2232 85.6773 98.5327 90.8733C101.361 93.4714 103.611 95.6653 105.112 97.1663C105.974 97.9029 106.748 98.7359 107.42 99.6489C106.488 99.0403 105.601 98.3649 104.766 97.6282L97.6093 91.8548C91.8381 87.1206 83.4122 80.5967 74.1206 73.8995C65.7462 67.7925 56.9951 62.2197 47.9196 57.2144C41.7444 53.9813 38.2817 53.2885 38.3394 52.7689C38.3971 52.2493 41.8021 52.0183 48.3812 54.5009C58.3287 58.8236 67.6004 64.5599 75.9097 71.5324Z" fill="#7D7A7C"/>
<path d="M57.9037 59.7547C62.2855 62.0496 66.2001 65.1434 69.446 68.8767C64.9647 66.939 60.7074 64.5191 56.7494 61.6599C49.7663 57.3876 43.7643 54.9628 43.9375 54.2122C48.9867 54.8476 53.7921 56.7546 57.9037 59.7547Z" fill="#F9E6CF"/>
<path opacity="0.5" d="M97.2053 65.0085C103.554 72.283 108.748 79.2111 112.845 84.2917L117.404 90.4115C118.002 91.1342 118.506 91.9295 118.905 92.7786C118.184 92.1752 117.509 91.519 116.885 90.8156L111.806 85.0422C107.478 80.3657 101.591 73.8418 94.8968 66.9715C86.8749 58.831 80.6421 52.7689 76.3137 49.1894C73.9607 47.4106 71.7245 45.4821 69.6191 43.416C69.6191 42.9541 72.5624 43.416 77.4679 46.6491C84.8046 51.8995 91.4379 58.0697 97.2053 65.0085Z" fill="#7D7A7C"/>
<path d="M84.2779 52.4802C87.5993 55.0714 90.3334 58.3379 92.2998 62.0641C88.7367 59.9107 85.509 57.2458 82.7197 54.1545C79.4877 51.5794 76.5114 48.6986 73.8321 45.5521C77.8562 46.9152 81.4562 49.3029 84.2779 52.4802Z" fill="#F9E6CF"/>
<path opacity="0.5" d="M148.107 40.9911C149.781 51.7297 150.877 61.6022 151.512 68.8189C151.858 72.3985 152.089 75.3429 152.262 77.4213C152.351 78.4779 152.351 79.5401 152.262 80.5967C151.968 79.5726 151.737 78.5314 151.57 77.479C151.223 75.4584 150.704 72.5717 150.069 69.0499C148.915 61.8909 147.184 52.1338 145.164 41.5685C142.567 28.7515 140.316 19.1677 138.527 12.7015C136.738 6.23527 135.18 3.46403 135.526 3.17536C135.872 2.88669 138.296 5.08059 140.835 11.2004C144.407 20.8147 146.847 30.8122 148.107 40.9911Z" fill="#7D7A7C"/>
<path d="M143.432 21.1884C144.96 25.6813 145.645 30.4181 145.452 35.16C143.474 30.9013 142.077 26.3964 141.297 21.7657C139.853 17.3346 138.754 12.7986 138.007 8.19823C140.86 12.014 142.723 16.4768 143.432 21.1884Z" fill="#F9E6CF"/>
<path opacity="0.5" d="M116.943 58.6578C120.521 65.9322 123.349 72.7449 125.311 78.0564C126.292 80.5967 127.042 82.6174 127.562 83.8298C127.886 84.5684 128.118 85.3439 128.254 86.1391C127.724 85.4423 127.315 84.6618 127.042 83.8298L124.041 78.0564C121.56 73.3222 118.27 66.5096 114.173 59.8124C110.667 53.4655 106.814 47.3171 102.63 41.3953C99.86 37.4694 97.9555 35.9683 98.1287 35.6219C98.3018 35.2755 100.841 35.6219 104.362 39.3169C109.585 45.0313 113.836 51.5652 116.943 58.6578Z" fill="#7D7A7C"/>
<path d="M108.863 45.7831C111.121 48.5417 112.667 51.8129 113.365 55.3092C112.787 55.6556 110.19 51.7874 106.959 47.0532C104.726 44.3644 102.791 41.4414 101.187 38.3354C101.765 37.6426 105.631 40.8757 108.863 45.7831Z" fill="#F9E6CF"/>
<path opacity="0.5" d="M117.462 47.5151C122.483 59.6392 126.465 70.9551 129.004 79.2111L132.179 89.0836C132.58 90.2943 132.907 91.5282 133.16 92.7786C132.546 91.6686 132.025 90.51 131.601 89.3145L127.85 79.7307C124.561 71.6479 120.001 60.6207 114.577 48.7852C109.764 37.9917 104.19 27.554 97.8978 17.5511C93.5695 10.9695 90.3953 8.4869 90.6262 8.1405C90.857 7.7941 94.5506 9.12198 99.6292 15.2995C107.032 25.1626 113.034 36.0042 117.462 47.5151Z" fill="#7D7A7C"/>
<path d="M106.208 26.0958C109.348 30.8596 111.633 36.1347 112.961 41.684C109.63 37.1227 106.714 32.2731 104.246 27.1927C99.7446 19.11 95.2431 13.1634 95.5894 12.7592C100.143 16.2923 103.784 20.8655 106.208 26.0958Z" fill="#F9E6CF"/>
<path opacity="0.5" d="M106.035 62.1795C111.806 72.283 116.943 81.7514 120.521 88.6795C122.194 92.1435 123.637 95.0302 124.618 96.9932C125.139 98.0052 125.601 99.0461 126.003 100.111C125.287 99.2257 124.649 98.2791 124.099 97.2818L119.251 89.6032C115.211 82.9638 109.671 73.7841 103.38 64.027C95.7625 51.9606 89.8182 43.416 85.6053 37.6426C81.3923 31.8692 78.7953 29.3289 79.0261 28.9247C79.257 28.5206 82.3734 29.964 87.2212 35.2178C94.4124 43.5263 100.718 52.5624 106.035 62.1795Z" fill="#7D7A7C"/>
<path d="M93.6849 44.0511C96.9111 48.0047 99.4476 52.4744 101.187 57.2721C97.6257 53.6939 94.5062 49.701 91.8958 45.3789C88.754 41.4447 85.9179 37.2757 83.4122 32.9084C87.5876 35.8518 91.0894 39.65 93.6849 44.0511Z" fill="#F9E6CF"/>
<path opacity="0.5" d="M94.666 153.111C99.7755 152.058 104.939 151.287 110.133 150.801C112.303 150.621 114.484 150.621 116.654 150.801C114.649 151.347 112.603 151.733 110.537 151.956C106.67 152.88 101.303 154.15 95.6471 155.882C88.7794 157.96 83.7585 159.808 80.4689 161.136C77.1794 162.464 75.448 163.272 75.2172 163.041C74.9863 162.81 75.852 161.193 78.853 158.942C83.736 156.074 89.0907 154.099 94.666 153.111Z" fill="#7D7A7C"/>
<path d="M83.9893 156.748C88.0869 155.131 91.6073 154.727 91.7804 155.304C91.9535 155.882 88.7217 157.267 84.855 158.826C82.8351 159.577 81.1615 160.385 79.7764 160.731C78.3913 161.078 77.6988 161.54 77.4679 161.251C77.2371 160.962 77.8719 160.27 79.0261 159.346C80.5887 158.315 82.2516 157.444 83.9893 156.748Z" fill="#F9E6CF"/>
<path opacity="0.5" d="M54.0947 161.886C62.9413 159.663 71.8991 157.91 80.9306 156.632C84.451 156.113 87.2789 155.766 89.2411 155.593C90.2778 155.499 91.3208 155.499 92.3575 155.593L89.3565 156.401L81.2192 158.249C74.3515 159.808 64.9445 162.002 54.9027 165.062C45.7859 167.714 36.9368 171.212 28.4707 175.511C22.6996 178.629 20.7374 180.996 20.3334 180.707C19.9294 180.419 21.2568 177.532 26.5085 173.606C34.8928 168.013 44.2492 164.038 54.0947 161.886Z" fill="#7D7A7C"/>
<path d="M35.5116 168.814C39.629 166.658 44.1488 165.38 48.7852 165.062C44.8923 167.433 40.7507 169.369 36.4349 170.835C29.7404 173.895 24.4886 177.128 23.9692 176.724C23.4498 176.32 28.413 171.932 35.5116 168.814Z" fill="#F9E6CF"/>
<path opacity="0.5" d="M51.3823 157.267C63.2709 155.362 74.1784 154.15 82.1426 153.399L91.6073 152.533H95.1277C94.0249 152.912 92.8825 153.164 91.7227 153.284L82.3734 154.9C74.4669 156.228 63.6171 158.076 51.9017 160.674C37.7623 163.56 27.1434 166.043 20.1603 168.121C13.1772 170.2 9.88759 171.759 9.65674 171.412C9.4259 171.066 11.9075 168.583 18.602 165.639C29.1819 161.632 40.1773 158.824 51.3823 157.267Z" fill="#7D7A7C"/>
<path d="M29.7404 162.406C34.7089 160.768 39.9194 159.987 45.1494 160.096C40.3198 162.189 35.2657 163.719 30.0867 164.657C25.1574 166.237 20.1243 167.471 15.0239 168.352C19.4526 165.349 24.469 163.322 29.7404 162.406Z" fill="#F9E6CF"/>
<path opacity="0.5" d="M47.8619 131.98C59.4042 133.25 69.5037 134.636 76.7177 135.79L85.6053 137.234C86.7206 137.364 87.8216 137.596 88.8948 137.927C87.7814 138.028 86.661 138.028 85.5476 137.927L76.5445 137.291L47.2847 135.213C33.6071 134.347 23.2767 133.712 16.3513 133.481C12.8384 133.571 9.32424 133.359 5.84777 132.846C5.84777 132.442 8.84878 131.229 15.6587 130.768C26.4082 130.278 37.1796 130.684 47.8619 131.98Z" fill="#7D7A7C"/>
<path d="M26.624 131.056C31.5867 130.862 36.5457 131.526 41.2827 133.019C36.3918 133.761 31.4247 133.858 26.5085 133.308C21.5963 133.404 16.6865 133.017 11.8498 132.153C16.6527 130.809 21.6753 130.436 26.624 131.056Z" fill="#F9E6CF"/>
<path opacity="0.5" d="M167.729 88.3908C166.228 94.9724 164.67 100.977 163.516 105.307C162.953 107.704 162.22 110.057 161.323 112.35C161.392 109.907 161.662 107.474 162.131 105.076C162.766 100.573 163.689 94.4528 164.67 87.7557C165.357 79.5242 166.944 71.3929 169.403 63.5074C170.384 63.4497 171.653 71.3592 167.729 88.3908Z" fill="#7D7A7C"/>
<path d="M169.403 75.8048C168.71 80.6544 167.498 84.4071 166.863 84.2917C166.201 81.4039 166.201 78.4038 166.863 75.5161C167.006 72.555 167.731 69.6513 168.999 66.9715C169.922 67.0292 170.153 71.0128 169.403 75.8048Z" fill="#F9E6CF"/>
<path opacity="0.5" d="M160.169 59.3506C159.476 70.2623 158.61 80.2503 157.86 87.5247C157.456 91.162 157.168 94.1064 156.937 96.1271C156.907 97.2041 156.732 98.2721 156.417 99.3025C156.32 98.2463 156.32 97.1833 156.417 96.1271C156.417 94.0487 156.417 91.1043 156.417 87.467C156.417 80.1348 156.764 70.1468 156.995 59.2351C157.341 46.0717 157.514 36.1415 157.687 29.3866C157.516 26.0056 157.729 22.6161 158.322 19.2832C159.361 19.0522 162.131 31.1764 160.169 59.3506Z" fill="#7D7A7C"/>
<path d="M160.284 38.9127C160.625 43.6757 160.136 48.4616 158.841 53.0576C157.928 48.4016 157.656 43.6425 158.033 38.9127C157.763 34.1801 158.053 29.4321 158.899 24.7679C160.264 29.3501 160.734 34.1525 160.284 38.9127Z" fill="#F9E6CF"/>
<path opacity="0.5" d="M168.248 56.2907C166.69 67.1447 165.074 77.0749 163.747 84.2339C163.227 87.8134 162.477 90.7579 162.477 92.7786C162.287 93.8314 162.037 94.8724 161.727 95.8962C161.588 94.8423 161.588 93.7747 161.727 92.7208C161.727 90.6424 162.189 87.698 162.535 84.0607C163.285 76.7862 164.266 66.7405 165.363 55.9443C166.632 42.7809 167.614 32.8507 168.306 26.1535C168.374 22.7433 168.839 19.3527 169.691 16.0501C170.672 15.9346 172.519 28.2897 168.248 56.2907Z" fill="#7D7A7C"/>
<path d="M170.037 35.8528C169.998 40.635 169.159 45.3768 167.556 49.8822C166.95 45.1598 167.047 40.3735 167.844 35.6796C167.924 30.9254 168.563 26.1972 169.749 21.5925C170.733 26.2864 170.831 31.123 170.037 35.8528Z" fill="#F9E6CF"/>
<path opacity="0.5" d="M184.119 87.467C181.291 93.76 178.348 99.4757 176.443 103.575C175.388 105.833 174.173 108.013 172.808 110.099C173.386 107.667 174.177 105.29 175.174 102.997C176.732 98.6097 178.867 92.7208 181.233 86.3124C183.727 78.3212 186.714 70.4928 190.179 62.8723C191.333 62.8723 191.333 71.2438 184.119 87.467Z" fill="#7D7A7C"/>
<path d="M188.217 75.2274C186.601 79.9039 184.696 83.4834 184.119 83.2524C184.116 80.2366 184.787 77.2583 186.081 74.5346C187.697 69.9159 189.025 66.2209 189.659 66.3364C190.03 69.3769 189.53 72.4603 188.217 75.2274Z" fill="#F9E6CF"/>
<path opacity="0.5" d="M172.115 202.3C170.903 196.18 169.518 190.753 168.364 186.481C167.639 184.289 167.06 182.052 166.632 179.784C166.632 179.784 167.036 180.361 167.613 181.458C168.191 182.555 168.825 184.056 169.691 186.019C171.824 191.096 173.636 196.302 175.116 201.607C179.387 216.733 176.27 225.394 175.116 224.989C173.962 224.585 174.77 224.47 174.712 223.604C174.505 222.246 174.37 220.877 174.308 219.505C173.929 213.73 173.196 207.985 172.115 202.3Z" fill="#7D7A7C"/>
<path d="M174.481 213.731C173.867 211.033 173.867 208.231 174.481 205.533C175.116 205.533 176.328 208.939 176.79 213.5C177.251 218.061 176.386 221.872 175.751 221.814C174.872 219.211 174.443 216.478 174.481 213.731Z" fill="#F9E6CF"/>
<path opacity="0.5" d="M175.751 235.67L168.883 208.362C168.017 204.84 167.325 201.954 166.863 199.933C166.577 198.91 166.365 197.868 166.228 196.815C166.728 197.755 167.134 198.741 167.44 199.76C168.075 201.723 169.056 204.552 170.268 207.958C172.577 214.886 175.635 224.412 178.694 234.862C186.427 260.207 187.12 274.352 186.024 274.352C184.663 271.478 183.711 268.426 183.196 265.288C181.58 258.822 179.156 249.295 175.751 235.67Z" fill="#7D7A7C"/>
<path d="M181.176 255.3C179.742 250.775 178.946 246.073 178.81 241.328C181.088 245.518 182.631 250.068 183.369 254.78C184.863 259.318 185.49 264.097 185.216 268.867C183.325 264.525 181.968 259.969 181.176 255.3Z" fill="#F9E6CF"/>
<path opacity="0.5" d="M186.254 216.618C182.907 208.131 179.56 200.452 177.136 194.795L174.308 187.751C173.937 186.948 173.629 186.118 173.385 185.268C173.385 185.268 174.02 186.019 174.885 187.52L178.406 193.871C181.349 199.24 185.216 206.688 189.082 215.059C192.832 222.632 195.754 230.588 197.797 238.788C199.066 244.561 198.662 247.448 198.258 247.448C197.854 247.448 195.2 238.153 186.254 216.618Z" fill="#7D7A7C"/>
<path d="M192.949 231.975C191.255 228.326 190.164 224.427 189.717 220.428C192.24 223.569 194.07 227.21 195.084 231.109C196.79 234.712 197.602 238.673 197.45 242.656C195.524 239.291 194.013 235.704 192.949 231.975Z" fill="#F9E6CF"/>
<path opacity="0.5" d="M206.453 198.894C202.587 193.12 198.605 188.328 195.719 184.691C194.073 182.855 192.532 180.927 191.102 178.918C191.102 178.918 191.737 179.264 192.718 180.13C193.699 180.996 195.084 182.266 196.758 183.883C201.094 188.046 205.161 192.482 208.935 197.162C213.184 202.092 216.402 207.825 218.4 214.02C219.496 218.35 218.919 220.717 218.4 220.717C215.062 213.108 211.065 205.805 206.453 198.894Z" fill="#7D7A7C"/>
<path d="M213.667 209.344C211.417 205.071 209.454 201.549 209.974 201.203C210.493 200.857 213.263 203.859 215.745 208.304C218.227 212.75 218.688 217.022 218.053 217.138C217.419 217.253 215.976 213.616 213.667 209.344Z" fill="#F9E6CF"/>
<path opacity="0.5" d="M200.047 171.47C196.238 168.179 192.487 165.35 189.775 163.33C188.199 162.327 186.729 161.166 185.389 159.865C187.179 160.424 188.901 161.179 190.525 162.117C194.54 164.135 198.398 166.451 202.067 169.045C206.147 171.705 209.546 175.284 211.994 179.495C213.494 182.555 213.263 184.46 212.859 184.518C212.455 184.576 209.916 179.957 200.047 171.47Z" fill="#7D7A7C"/>
<path d="M207.146 177.474C204.78 174.819 202.818 172.625 203.222 172.105C203.626 171.586 206.28 173.144 208.993 175.973C211.705 178.802 212.571 181.747 211.994 182.093C211.417 182.439 209.57 180.072 207.146 177.474Z" fill="#F9E6CF"/>
<path opacity="0.5" d="M225.96 142.372C219.208 141.564 212.917 141.275 208.3 140.986C205.81 140.977 203.323 140.804 200.855 140.467C203.305 139.951 205.797 139.661 208.3 139.601C212.917 139.312 219.208 139.024 226.191 139.254C232.671 139.209 239.092 140.486 245.063 143.007C249.16 144.912 250.257 147.453 249.91 147.626C249.564 147.799 248.179 146.702 244.139 145.663C238.185 144.046 232.103 142.945 225.96 142.372Z" fill="#7D7A7C"/>
<path d="M238.426 143.642C233.751 142.603 229.827 141.795 229.884 141.16C232.865 140.345 236.022 140.445 238.945 141.448C243.908 142.43 247.429 144.97 247.082 145.49C244.148 145.128 241.252 144.51 238.426 143.642Z" fill="#F9E6CF"/>
<path opacity="0.5" d="M189.198 99.9376C185.908 104.499 182.849 108.655 180.541 111.484C179.392 113.172 178.099 114.756 176.674 116.219C177.357 114.198 178.267 112.261 179.387 110.445C181.176 107.154 183.715 102.651 186.601 97.8014C193.468 86.2546 198.143 80.9431 199.124 81.405C200.105 81.8668 197.681 88.1598 189.198 99.9376Z" fill="#7D7A7C"/>
<path d="M194.565 90.9311C192.372 94.2796 190.179 96.7045 189.659 96.4158C189.14 96.1271 190.467 93.0672 192.66 89.7187C194.853 86.3701 197.046 83.9453 197.566 84.2339C198.085 84.5226 196.758 87.5825 194.565 90.9311Z" fill="#F9E6CF"/>
<path opacity="0.5" d="M235.771 106.346L213.148 116.161L206.165 119.163C205.333 119.588 204.463 119.936 203.568 120.202C203.568 120.202 204.376 119.567 205.876 118.643L212.513 114.891C218.284 111.831 225.845 107.674 234.501 103.344C242.37 99.3378 250.602 96.09 259.086 93.6446C264.858 92.1435 268.089 92.4322 268.089 92.894C268.089 93.3559 265.666 93.991 260.414 96.0694C255.162 98.1478 247.14 101.554 235.771 106.346Z" fill="#7D7A7C"/>
<path d="M251.988 99.0138C248.343 100.807 244.454 102.052 240.446 102.709C243.706 100.08 247.451 98.1178 251.469 96.9354C255.243 95.0245 259.416 94.0353 263.646 94.0487C259.972 96.1643 256.058 97.8313 251.988 99.0138Z" fill="#F9E6CF"/>
<path opacity="0.5" d="M225.152 212.057C218.169 203.917 211.474 196.7 206.627 191.446L200.855 185.153C200.125 184.414 199.45 183.623 198.836 182.786C199.724 183.359 200.555 184.016 201.317 184.749L207.608 190.522C212.917 195.43 220.073 202.069 227.46 210.036C234.444 217.019 240.619 224.765 245.871 233.13C249.333 238.903 249.91 242.483 249.506 242.598C249.102 242.714 247.717 240.173 243.735 235.151C239.753 230.128 234.213 222.391 225.152 212.057Z" fill="#7D7A7C"/>
<path d="M238.368 227.01C235.234 223.515 232.558 219.635 230.404 215.463C234.263 218.163 237.572 221.572 240.157 225.509C243.376 228.966 245.765 233.113 247.14 237.633C243.93 234.338 240.997 230.785 238.368 227.01Z" fill="#F9E6CF"/>
<path opacity="0.5" d="M206.223 226.029C202.01 217.542 197.739 209.979 194.68 204.494L190.871 197.97C190.341 197.193 189.896 196.36 189.544 195.487C190.224 196.125 190.825 196.842 191.333 197.624C192.43 199.067 194.045 201.088 195.834 203.743C200.609 210.461 205.04 217.417 209.108 224.585C213.591 232.197 216.936 240.425 219.035 249.007C220.016 254.78 219.843 258.013 219.035 258.013C217.787 255.553 216.893 252.929 216.38 250.219C213.476 241.961 210.085 233.884 206.223 226.029Z" fill="#7D7A7C"/>
<path d="M213.956 241.848C212.167 238.179 210.849 234.3 210.032 230.301C212.735 233.447 214.706 237.154 215.803 241.155C216.795 243.928 217.604 246.763 218.227 249.642C218.227 251.951 218.227 253.337 218.227 253.395C218.227 253.452 217.419 252.124 216.726 250.046C216.034 247.968 215.168 245.023 213.956 241.848Z" fill="#F9E6CF"/>
<path opacity="0.5" d="M203.279 128.92C195.488 130.075 188.967 131.922 188.851 131.576C190.059 130.741 191.356 130.043 192.718 129.497C196.01 128.037 199.405 126.822 202.875 125.86C206.599 124.611 210.597 124.431 214.418 125.341C217.13 126.322 217.88 127.881 217.592 128.17C217.303 128.458 216.207 128.17 214.129 128.17C210.498 128.104 206.867 128.355 203.279 128.92Z" fill="#7D7A7C"/>
<path d="M210.378 127.592C207.665 127.592 205.299 127.592 205.184 126.957C205.068 126.322 207.319 125.398 210.32 125.341C213.321 125.283 216.091 126.553 215.456 127.13C214.822 127.708 213.09 127.419 210.378 127.592Z" fill="#F9E6CF"/>
<path opacity="0.5" d="M210.262 78.6915L196.181 96.0117L191.795 101.15C191.264 101.826 190.664 102.445 190.006 102.997C190.379 102.335 190.824 101.715 191.333 101.15L195.142 95.3766L207.839 76.9017C219.9 59.5815 227.403 51.8452 228.095 52.3648C228.788 52.8844 224.229 61.1981 210.262 78.6915Z" fill="#7D7A7C"/>
<path d="M219.612 65.4704C215.918 70.4355 212.513 74.1305 211.994 73.7841C213.297 70.2198 215.254 66.9303 217.765 64.0848C221.516 59.1196 224.921 55.4247 225.441 55.7711C224.156 59.3572 222.175 62.6537 219.612 65.4704Z" fill="#F9E6CF"/>
<path opacity="0.5" d="M194.103 65.9322C189.255 75.6316 184.754 84.5226 181.522 91.0465C179.848 94.2219 178.463 96.8199 177.54 98.6674C177.059 99.6239 176.52 100.549 175.924 101.439C176.203 100.408 176.57 99.4039 177.021 98.4365C177.771 96.5313 178.867 93.76 180.252 90.4692C183.138 83.8298 187.005 74.5924 191.333 64.6044C201.779 40.5293 208.646 28.8093 209.512 29.1557C210.378 29.5021 206.511 40.818 194.103 65.9322Z" fill="#7D7A7C"/>
<path d="M202.24 47.3996C200.601 51.8238 198.263 55.9562 195.315 59.6392C196.232 54.9978 197.888 50.5339 200.221 46.4181C201.86 41.9762 204.198 37.8248 207.146 34.1208C206.244 38.7846 204.587 43.2699 202.24 47.3996Z" fill="#F9E6CF"/>
<path opacity="0.5" d="M219.208 160.501C214.718 158.283 210.092 156.355 205.357 154.727C203.383 154.137 201.454 153.403 199.586 152.533C200.161 152.469 200.742 152.469 201.317 152.533C202.867 152.685 204.408 152.916 205.934 153.226C210.956 154.186 215.882 155.596 220.651 157.441C225.901 159.335 230.559 162.581 234.155 166.851C234.911 168.076 235.585 169.349 236.175 170.662C236.175 171.643 236.175 172.163 236.175 172.278C231.139 167.526 225.42 163.556 219.208 160.501Z" fill="#7D7A7C"/>
<path d="M228.557 165.408C227.104 164.463 225.715 163.422 224.402 162.29C223.248 161.482 222.67 160.847 222.786 160.558C222.901 160.27 223.825 160.558 225.152 160.905C226.82 161.677 228.422 162.585 229.942 163.618C231.364 164.795 232.625 166.154 233.693 167.66C234.386 168.93 234.674 169.796 234.444 169.969C234.213 170.142 233.463 169.623 232.539 168.699C231.616 167.775 230 166.794 228.557 165.408Z" fill="#F9E6CF"/>
<path opacity="0.5" d="M246.621 157.094C236.81 154.9 227.691 153.342 221.112 152.245L213.206 150.917C212.229 150.778 211.265 150.565 210.32 150.282C211.3 150.206 212.284 150.206 213.263 150.282L221.228 150.859C227.98 151.436 237.214 152.302 247.198 154.034C256.466 155.329 265.491 157.994 273.976 161.944C279.747 164.831 281.594 167.717 281.305 168.121C281.017 168.526 278.882 166.678 273.399 164.657C264.673 161.474 255.722 158.946 246.621 157.094Z" fill="#7D7A7C"/>
<path d="M264.8 161.193C260.55 160.236 256.439 158.742 252.565 156.748C256.983 156.605 261.383 157.371 265.492 158.999C269.817 159.972 273.803 162.085 277.035 165.119C272.889 164.033 268.804 162.722 264.8 161.193Z" fill="#F9E6CF"/>
<path opacity="0.5" d="M190.121 58.5423C186.081 69.7427 182.215 80.0193 179.271 87.4093C177.771 91.1043 176.559 94.1064 175.751 96.1849C175.39 97.3039 174.886 98.3713 174.25 99.3602C174.495 98.2276 174.803 97.1096 175.174 96.0117C175.809 93.8178 176.79 90.7579 177.944 86.9474C180.368 79.3265 183.715 68.8767 187.178 57.5608L197.104 26.4422C197.989 22.8407 199.286 19.3536 200.971 16.0501C201.952 16.1655 200.682 29.5598 190.121 58.5423Z" fill="#7D7A7C"/>
<path d="M196.585 37.123C195.419 42.2038 193.472 47.0728 190.814 51.5565C191.376 46.3987 192.598 41.3344 194.449 36.4879C195.623 31.4489 197.386 26.5656 199.701 21.9389C199.556 27.1434 198.501 32.2822 196.585 37.123Z" fill="#F9E6CF"/>
<path opacity="0.5" d="M221.632 180.303C215.86 176.782 210.955 173.779 207.146 171.643C205.019 170.552 202.957 169.338 200.971 168.006C201.607 168.095 202.228 168.27 202.818 168.526C204.03 168.93 205.703 169.507 207.723 170.373C213.043 172.496 218.228 174.945 223.248 177.705C228.685 180.578 233.601 184.345 237.791 188.848C240.388 192.254 241.138 194.217 240.676 194.621C240.215 195.026 235.598 189.598 221.632 180.303Z" fill="#7D7A7C"/>
<path d="M231.731 186.885C228.038 183.998 225.152 181.516 225.498 181.112C225.845 180.707 229.365 182.209 233.116 185.153C234.674 186.477 236.121 187.925 237.445 189.483C238.368 190.869 238.772 191.792 238.541 191.966C238.31 192.139 237.445 191.619 236.348 190.638C235.252 189.656 233.578 188.328 231.731 186.885Z" fill="#F9E6CF"/>
<path opacity="0.5" d="M259.721 130.017C252.738 130.017 246.274 130.883 241.542 131.345C238.999 131.711 236.435 131.923 233.866 131.98C234.48 131.646 235.142 131.413 235.829 131.287L241.311 129.959C247.329 128.617 253.418 127.614 259.548 126.957C266.12 125.984 272.816 126.258 279.286 127.765C283.729 129.093 285.461 130.999 285.057 131.287C284.653 131.576 282.979 131.287 278.997 130.537C272.596 129.854 266.15 129.68 259.721 130.017Z" fill="#7D7A7C"/>
<path d="M272.822 129.382C269.737 129.57 266.644 129.178 263.703 128.227C266.615 126.993 269.818 126.613 272.937 127.13C278.131 127.419 282.171 129.151 281.94 129.786C278.895 130.005 275.835 129.869 272.822 129.382Z" fill="#F9E6CF"/>
<path opacity="0.5" d="M251.584 116.623L232.885 121.588L227.114 123.089C225.729 123.435 224.979 123.609 224.921 123.493C225.561 123.101 226.238 122.772 226.941 122.512L232.424 120.26C237.098 118.412 243.562 116.045 250.661 113.678C257.193 111.37 263.94 109.726 270.802 108.771C275.477 108.251 277.958 108.771 277.9 109.29C269.31 112.346 260.516 114.796 251.584 116.623Z" fill="#7D7A7C"/>
<path d="M264.915 112.697C261.82 113.847 258.514 114.32 255.22 114.082C257.93 112.177 261.056 110.95 264.338 110.503C267.479 109.364 270.872 109.104 274.149 109.752C271.259 111.248 268.137 112.243 264.915 112.697Z" fill="#F9E6CF"/>
<path opacity="0.5" d="M233.058 81.0008C226.306 85.8505 220.189 90.4692 215.745 93.76L210.436 97.7437C209.806 98.2784 209.107 98.7251 208.358 99.0716C208.851 98.4173 209.412 97.8173 210.032 97.2818L214.879 92.7208C218.977 88.9104 224.69 83.8298 231.212 78.5183C237.087 73.5208 243.493 69.184 250.314 65.5858C255.047 63.2765 257.99 63.161 257.99 63.5651C257.99 63.9693 256.143 64.9508 252.219 67.722C248.294 70.4932 241.831 74.7655 233.058 81.0008Z" fill="#7D7A7C"/>
<path d="M245.409 71.5902C242.606 73.9268 239.398 75.7273 235.944 76.9017C235.598 76.3821 239.176 73.0335 244.139 69.6849C246.982 67.3061 250.409 65.7313 254.066 65.124C254.354 65.7013 250.314 68.2416 245.409 71.5902Z" fill="#F9E6CF"/>
<path opacity="0.5" d="M249.795 167.833C242.87 165.062 236.29 163.041 231.443 161.597L225.671 159.923L223.594 159.173C223.594 159.173 224.402 159.173 225.787 159.173C227.172 159.173 229.25 159.635 231.558 160.039C237.996 161.206 244.356 162.768 250.603 164.715C257.454 166.584 263.802 169.956 269.186 174.588C272.706 178.052 273.341 180.707 272.88 180.881C272.418 181.054 271.206 179.437 267.801 176.955C262.197 173.185 256.149 170.121 249.795 167.833Z" fill="#7D7A7C"/>
<path d="M262.607 173.087C257.99 170.431 254.066 168.526 254.354 167.891C257.718 168.036 260.968 169.159 263.703 171.124C268.551 173.837 271.437 177.59 270.86 177.994C268.004 176.542 265.247 174.902 262.607 173.087Z" fill="#F9E6CF"/>
<path opacity="0.5" d="M222.44 200.857C215.918 194.39 209.57 188.79 205.126 184.749L199.355 179.899C198.635 179.358 197.977 178.738 197.393 178.052C198.21 178.428 198.984 178.893 199.701 179.437C201.144 180.419 203.222 181.804 205.472 183.652C210.493 187.289 217.015 192.427 224.286 198.605C230.907 204.127 236.734 210.539 241.6 217.657C244.485 222.68 245.351 225.567 244.889 225.798C244.428 226.029 242.927 223.95 239.695 219.62C236.463 215.29 230.923 209.17 222.44 200.857Z" fill="#7D7A7C"/>
<path d="M234.732 212.808C230.404 207.9 226.883 203.859 227.345 203.397C227.807 202.935 232.02 206.341 236.406 211.364C238.265 213.546 239.963 215.862 241.484 218.292C242.523 220.198 242.927 221.525 242.696 221.699C242.465 221.872 241.542 220.833 240.215 219.216C238.887 217.599 236.867 215.29 234.732 212.808Z" fill="#F9E6CF"/>
<path opacity="0.5" d="M206.684 214.828C202.644 207.958 198.72 201.723 195.892 197.162L192.603 191.735C192.155 191.089 191.787 190.391 191.506 189.656C192.103 190.159 192.628 190.742 193.064 191.388C194.045 192.601 195.431 194.275 197.046 196.353C200.336 200.626 204.78 206.515 209.281 213.154C220.824 229.089 222.786 239.712 221.862 239.885C220.939 240.058 217.419 232.495 206.684 214.828Z" fill="#7D7A7C"/>
<path d="M214.764 227.357C212.736 224.502 211.267 221.289 210.436 217.888C210.955 217.542 213.841 221.237 216.726 226.26C218.776 229.162 220.047 232.541 220.42 236.074C219.785 236.305 217.592 232.264 214.764 227.357Z" fill="#F9E6CF"/>
<path opacity="0.5" d="M243.274 184.402C237.502 181.112 232.135 178.629 228.211 176.377C226.007 175.413 223.884 174.274 221.862 172.971C224.227 173.488 226.543 174.203 228.788 175.107C234.211 176.993 239.528 179.171 244.716 181.631C250.406 184.106 255.591 187.609 260.01 191.966C262.953 195.083 263.357 197.739 263.011 197.739C262.665 197.739 261.453 196.584 258.452 194.275C253.608 190.664 248.538 187.366 243.274 184.402Z" fill="#7D7A7C"/>
<path d="M254.123 190.291C250.257 187.636 247.14 185.384 247.486 184.518C247.833 183.652 251.411 185.384 255.393 188.155C259.375 190.926 261.741 194.217 261.164 194.621C260.587 195.025 257.932 192.889 254.123 190.291Z" fill="#F9E6CF"/>
<path opacity="0.5" d="M228.211 91.1043L210.897 102.94L205.588 106.577C204.965 107.06 204.287 107.467 203.568 107.789C204.067 107.175 204.628 106.614 205.241 106.115L210.032 101.843C214.071 98.321 219.785 93.5868 226.191 88.564C232.026 83.8666 238.331 79.7843 245.005 76.3821C249.506 74.1305 252.219 73.7841 252.334 74.1882C244.627 80.2892 236.572 85.9374 228.211 91.1043Z" fill="#7D7A7C"/>
<path d="M240.272 82.2132C235.482 85.3309 231.443 87.9866 231.039 87.1784C230.635 86.3701 234.213 83.4834 239.061 80.308C241.808 78.0209 245.115 76.5065 248.641 75.9202C246.186 78.43 243.365 80.552 240.272 82.2132Z" fill="#F9E6CF"/>
<path opacity="0.5" d="M126.407 248.834L134.025 224.758L136.392 217.369C136.601 216.436 136.951 215.54 137.43 214.713C137.343 215.665 137.188 216.611 136.969 217.542C136.565 219.331 136.045 221.93 135.353 225.105C133.91 231.456 131.89 240.231 129.582 249.7C123.81 272.793 118.039 283.82 117.058 283.359C116.077 282.897 118.963 272.909 126.407 248.834Z" fill="#7D7A7C"/>
<path d="M121.617 266.442C122.559 262.272 124.156 258.277 126.35 254.607C126.24 258.886 125.36 263.111 123.753 267.078C122.793 271.19 121.113 275.099 118.789 278.624C119.032 274.432 119.989 270.313 121.617 266.442Z" fill="#F9E6CF"/>
<path opacity="0.5" d="M186.024 48.3811C183.196 57.2721 180.252 65.2972 178.175 71.1283L175.52 78.0564C175.229 78.9149 174.862 79.7457 174.423 80.5389C174.518 79.6969 174.692 78.8657 174.943 78.0564L176.847 70.8974C178.463 65.124 180.656 56.6371 183.023 47.8038C185.85 37.0075 187.928 28.9247 189.428 23.2668C189.87 20.2775 190.664 17.3511 191.795 14.549C192.199 14.549 192.834 17.2047 192.199 22.7472C190.901 31.4575 188.834 40.0356 186.024 48.3811Z" fill="#7D7A7C"/>
<path d="M190.121 31.465C189.567 35.5645 188.151 39.4999 185.966 43.0118C185.972 38.9673 186.635 34.9506 187.928 31.1186C188.573 27.1349 189.737 23.2529 191.391 19.5718C191.879 23.5812 191.445 27.6492 190.121 31.465Z" fill="#F9E6CF"/>
<path opacity="0.5" d="M214.418 83.3679C209.974 87.9289 205.876 92.1435 202.875 94.9147C201.301 96.6153 199.603 98.1977 197.797 99.6489C198.967 97.6065 200.319 95.6742 201.837 93.8755C204.434 90.4692 208.127 85.9082 212.167 80.9431C221.92 68.9344 228.211 63.6229 228.846 64.4312C229.48 65.2394 225.556 71.4747 214.418 83.3679Z" fill="#7D7A7C"/>
<path d="M221.747 74.1305C218.688 77.5368 215.976 79.9039 215.399 79.6152C214.822 79.3265 217.015 76.0934 220.073 72.6294C223.132 69.1653 225.845 66.856 226.364 67.2024C226.883 67.5488 224.748 70.7242 221.747 74.1305Z" fill="#F9E6CF"/>
<path opacity="0.5" d="M207.204 68.1261L193.18 88.2176L188.794 94.3374C188.263 95.1022 187.664 95.8172 187.005 96.4735C187.347 95.6073 187.773 94.7759 188.274 93.991L192.026 87.467C195.315 82.04 199.759 74.5346 204.607 66.4519C216.553 46.88 224.113 37.5848 224.863 38.1045C225.614 38.6241 221.112 47.977 207.204 68.1261Z" fill="#7D7A7C"/>
<path d="M216.495 53.0576C214.496 56.7451 211.836 60.033 208.646 62.7569C209.902 58.8033 211.856 55.1074 214.418 51.8452C216.325 48.1621 218.91 44.8716 222.036 42.1458C220.841 46.0791 218.965 49.7723 216.495 53.0576Z" fill="#F9E6CF"/>
</g>
</g>
</svg>
