<svg width="138" height="140" viewBox="0 0 138 140" fill="none" xmlns="http://www.w3.org/2000/svg">
<g opacity="0.8">
<g style="mix-blend-mode:screen">
<path opacity="0.5" d="M75.6571 68.5955C76.5018 68.3427 77.402 68.3427 78.2467 68.5955C77.6053 69.1278 76.9024 69.5812 76.153 69.9459C74.8031 70.7727 73.8113 70.5246 73.6461 70.1664C73.4808 69.8081 73.894 68.8711 75.6571 68.5955Z" fill="#7D7A7C"/>
<path d="M74.5552 69.2293C74.9959 69.0364 75.4367 69.2293 75.5469 69.3947C75.6571 69.56 75.3816 70.0286 74.9408 70.2215C74.5001 70.4144 74.0593 70.2215 73.9491 70.0561C73.8389 69.8908 74.0868 69.3947 74.5552 69.2293Z" fill="#F9E6CF"/>
<path opacity="0.5" d="M77.4478 75.32C77.7193 74.5321 77.7856 73.6879 77.6406 72.8672C77.6406 72.2058 77.1723 71.8751 77.2549 71.8199C77.3376 71.7648 77.8059 71.8199 78.2467 72.564C78.7627 73.4464 78.9936 74.4667 78.9078 75.4853C78.7426 78.2413 77.4478 79.261 77.1172 79.1232C76.7866 78.9854 76.6764 77.7177 77.4478 75.32Z" fill="#7D7A7C"/>
<path d="M77.2274 77.1665C77.4202 76.4775 77.8335 75.9538 78.0814 76.009C78.3293 76.0641 78.4671 76.7255 78.2467 77.4696C78.0263 78.2137 77.558 78.7098 77.31 78.6271C77.0621 78.5444 77.0621 77.883 77.2274 77.1665Z" fill="#F9E6CF"/>
<path opacity="0.5" d="M71.8003 61.6229C72.4655 62.223 72.9115 63.028 73.0675 63.9104C73.2053 64.5167 73.2053 64.9301 73.0675 64.9301C72.9298 64.9301 72.1309 63.4694 70.8912 62.8631C69.6515 62.2568 68.5495 63.056 68.3016 62.6151C68.0536 62.1741 68.3016 62.0639 68.6597 61.6229C68.9994 61.3606 69.3956 61.1813 69.8168 61.0993C70.1652 61.0238 70.5266 61.0319 70.8714 61.1229C71.2161 61.2139 71.5344 61.3853 71.8003 61.6229Z" fill="#7D7A7C"/>
<path d="M69.8168 61.4025C70.6157 61.4025 71.1942 61.7607 71.0565 62.0088C70.9187 62.2568 70.4779 62.367 70.0096 62.4497C69.5413 62.5324 68.9903 62.4497 68.8526 62.4497C68.7148 62.4497 68.9628 61.6229 69.8168 61.4025Z" fill="#F9E6CF"/>
<path opacity="0.5" d="M64.9957 65.4812C65.6585 65.3336 66.3451 65.3285 67.01 65.4663C67.6749 65.604 68.303 65.8816 68.8526 66.2805C67.6939 66.3463 66.5471 66.5498 65.4365 66.8868C63.701 67.8514 62.6816 68.6781 62.3786 68.4301C62.0756 68.1821 62.1307 67.9065 62.3786 67.3002C62.6498 66.8194 63.026 66.4061 63.4792 66.0912C63.9323 65.7762 64.4508 65.5677 64.9957 65.4812Z" fill="#7D7A7C"/>
<path d="M63.2326 66.6387C63.8938 66.1702 64.5549 66.0876 64.6927 66.3907C64.8304 66.6939 64.4172 67.1073 63.8938 67.4931C63.3704 67.8789 62.8745 68.1545 62.6816 67.9892C62.4888 67.8238 62.6541 67.1899 63.2326 66.6387Z" fill="#F9E6CF"/>
<path opacity="0.5" d="M60.9461 74.6034C62.5136 73.6559 64.2407 73.0021 66.0426 72.6743C66.0426 72.6743 63.9764 74.0798 61.7725 75.8436C59.0176 77.9657 58.0259 79.1232 57.6678 79.0129C57.3096 78.9027 57.3647 78.4066 57.8055 77.5523C58.5387 76.281 59.6314 75.255 60.9461 74.6034Z" fill="#7D7A7C"/>
<path d="M58.7972 76.5326C59.5962 75.7885 60.4226 75.4578 60.6155 75.7058C60.8083 75.9538 60.2573 76.6153 59.5411 77.3042C58.8248 77.9932 58.2187 78.5169 57.9432 78.3515C57.6677 78.1861 58.0534 77.3042 58.7972 76.5326Z" fill="#F9E6CF"/>
<path opacity="0.5" d="M80.8363 62.8631C80.0878 63.7266 79.143 64.3976 78.0814 64.8198C78.5044 63.8584 79.0115 62.9361 79.5966 62.0639C80.0649 61.182 80.2302 60.6583 80.3679 60.6583C80.5057 60.6583 80.3679 60.4654 80.3679 60.3001C80.3205 60.1854 80.3205 60.0565 80.3679 59.9418C80.3679 59.9418 80.7261 59.363 81.525 59.9418C81.6952 60.1618 81.8051 60.4225 81.8437 60.698C81.8824 60.9735 81.8485 61.2543 81.7454 61.5127C81.5411 62.022 81.2312 62.4822 80.8363 62.8631Z" fill="#7D7A7C"/>
<path d="M81.5801 61.1544C81.3321 61.8985 80.8087 62.1741 80.5883 62.0088C80.3679 61.8434 80.3955 61.3198 80.5883 60.8788C80.5607 60.789 80.5607 60.693 80.5883 60.6032C80.5669 60.5502 80.5669 60.4909 80.5883 60.4379C80.5883 60.3001 80.5883 60.1623 80.5883 60.0245C80.6219 59.984 80.664 59.9514 80.7117 59.9291C80.7593 59.9067 80.8112 59.8951 80.8638 59.8951C80.9164 59.8951 80.9684 59.9067 81.016 59.9291C81.0636 59.9514 81.1057 59.984 81.1393 60.0245C81.2684 60.171 81.3709 60.3389 81.4423 60.5206C81.5171 60.7245 81.5634 60.9378 81.5801 61.1544Z" fill="#F9E6CF"/>
<path opacity="0.5" d="M74.6378 56.7449C74.4985 58.278 74.0083 59.7585 73.2052 61.0717C73.04 61.0717 73.2052 58.9772 73.2052 56.7174C73.1887 55.773 73.0021 54.8394 72.6543 53.9614C72.505 53.7785 72.3843 53.5741 72.2961 53.3551C72.1584 53.2173 72.1033 53.1071 72.1308 52.9968C72.1584 52.8866 72.5992 52.5283 73.4807 52.9968C74.0009 53.4537 74.3843 54.0458 74.5885 54.7074C74.7928 55.3689 74.8098 56.0742 74.6378 56.7449Z" fill="#7D7A7C"/>
<path d="M74.0868 54.3197C74.4725 55.2842 74.0868 56.0284 73.894 56.0559C73.7011 56.0835 73.3705 55.3669 73.0951 54.7331C72.8196 54.0992 72.792 54.1543 72.7645 53.8787C72.6908 53.8148 72.6345 53.7332 72.6008 53.6417C72.5671 53.5501 72.557 53.4516 72.5716 53.3551C72.5716 53.2173 72.8747 53.2173 73.2328 53.3551C73.6105 53.5803 73.909 53.9174 74.0868 54.3197Z" fill="#F9E6CF"/>
<path opacity="0.5" d="M75.8499 55.6701C76.2632 53.3827 76.6489 51.2881 76.9243 49.7173C77.0223 48.8761 77.1975 48.0458 77.4478 47.2369C77.598 48.0732 77.6442 48.9248 77.5855 49.7724C77.5855 51.3433 77.5855 53.5205 77.3376 55.863C76.8692 61.5127 75.6847 64.2962 75.299 64.1308C74.9133 63.9655 74.7204 61.5403 75.8499 55.6701Z" fill="#7D7A7C"/>
<path d="M75.3265 59.9969C75.5745 58.3434 76.0152 57.0481 76.2907 57.0756C76.5662 57.1032 76.6489 58.4812 76.2907 60.1623C75.9326 61.8434 75.5469 63.1111 75.2714 62.9182C74.9959 62.7253 75.3265 61.6229 75.3265 59.9969Z" fill="#F9E6CF"/>
<path opacity="0.5" d="M82.131 50.3787C81.4423 52.363 80.7261 54.1268 80.1475 55.4221C79.8894 56.1448 79.5374 56.8305 79.1007 57.4615C78.9629 57.4615 79.817 54.0165 80.6985 49.9653C81.1046 47.5187 81.7221 45.112 82.5443 42.7723C82.7096 42.7723 83.1779 43.2959 83.2605 44.6188C83.2218 46.5898 82.8395 48.539 82.131 50.3787Z" fill="#7D7A7C"/>
<path d="M82.8473 46.4928C82.5718 47.981 82.0209 49.2487 81.7178 49.0283C81.4148 48.8078 81.525 47.733 81.7178 46.2723C81.9107 44.8117 82.2688 43.7093 82.5718 43.7093C82.8749 43.7093 83.1504 45.0046 82.8473 46.4928Z" fill="#F9E6CF"/>
<path opacity="0.5" d="M60.4777 70.8553C62.1329 70.2098 63.9148 69.9551 65.6845 70.1112C65.6845 70.2766 63.4255 70.9104 61.0563 72.2057C58.3014 73.7766 56.9515 74.6861 56.5934 74.4381C56.2352 74.19 56.4556 73.7766 57.0341 73.0876C57.9298 72.0121 59.1305 71.2337 60.4777 70.8553Z" fill="#7D7A7C"/>
<path d="M58.1912 72.3436C59.0452 71.7097 59.9268 71.627 60.0369 71.875C60.1471 72.1231 59.5411 72.6743 58.7697 73.2255C57.9983 73.7766 57.2821 74.1349 57.0617 73.8869C56.8413 73.6388 57.3096 72.9223 58.1912 72.3436Z" fill="#F9E6CF"/>
<path opacity="0.5" d="M48.3563 63.1387C50.5273 63.291 52.6776 63.6603 54.7751 64.2411C55.6744 64.4017 56.5463 64.6894 57.3647 65.0954C57.3647 65.2883 53.2049 64.4891 48.3287 64.5993C46.1225 64.647 43.9224 64.8496 41.7446 65.2057C40.2845 65.4261 39.5131 65.5915 39.4305 65.3986C39.3478 65.2057 39.7886 64.5993 41.2487 64.0206C43.5102 63.1498 45.9506 62.847 48.3563 63.1387Z" fill="#7D7A7C"/>
<path d="M43.6179 63.6072C45.4361 63.304 46.9238 63.6072 46.9238 63.8277C46.9238 64.0482 45.4912 64.3789 43.7832 64.6545C42.0752 64.9301 40.6977 65.2332 40.56 64.9025C40.4222 64.5718 41.7721 63.8277 43.6179 63.6072Z" fill="#F9E6CF"/>
<path opacity="0.5" d="M91.8558 57.4339L86.5388 60.4103C85.8257 60.8847 85.0693 61.2907 84.2798 61.6229C84.842 60.9704 85.4802 60.3875 86.1807 59.8867C87.3929 58.867 89.1009 57.5166 91.0293 56.1661C92.8023 54.8645 94.7747 53.8593 96.8696 53.1897C98.3573 52.7488 99.2664 53.1897 99.2113 53.1897C99.1562 53.1897 97.09 54.4575 91.8558 57.4339Z" fill="#7D7A7C"/>
<path d="M95.4922 55.1189C94.0046 55.863 92.7373 56.3591 92.572 56.111C92.4067 55.863 93.4812 54.926 94.9963 54.1543C96.5115 53.3826 97.9716 53.1622 98.0542 53.4653C98.1369 53.7685 96.9523 54.3472 95.4922 55.1189Z" fill="#F9E6CF"/>
<path opacity="0.5" d="M92.1037 65.4261C89.3488 65.4261 86.9796 65.812 86.9521 65.6466C88.5179 64.7653 90.2391 64.1945 92.0211 63.9655C92.7444 63.7683 93.5053 63.7532 94.2359 63.9215C94.9665 64.0898 95.6442 64.4363 96.2085 64.9301C96.9798 65.8671 96.6217 66.5285 96.4564 66.5285C96.2911 66.5285 95.9881 66.1978 95.4371 65.9498C94.3707 65.5594 93.2383 65.3815 92.1037 65.4261Z" fill="#7D7A7C"/>
<path d="M94.6107 65.3986C93.7566 65.1781 92.9302 64.9576 92.9302 64.682C92.9302 64.4064 93.7842 64.0757 94.8861 64.3513C95.9881 64.6269 96.5666 65.7568 96.2636 65.8671C95.9605 65.9773 95.4096 65.5915 94.6107 65.3986Z" fill="#F9E6CF"/>
<path opacity="0.5" d="M88.4397 48.0637C87.1174 50.048 85.6848 51.8118 84.8859 53.0795C84.409 53.7993 83.8548 54.4647 83.233 55.0638C83.5024 54.2452 83.8628 53.4594 84.3074 52.7212C85.0512 51.2881 86.0705 49.3865 87.0623 47.2093C89.8723 42.2762 91.5252 40.0163 91.8558 40.0163C92.1863 40.0163 91.8558 42.9927 88.4397 48.0637Z" fill="#7D7A7C"/>
<path d="M90.4783 44.1227C89.6519 45.6109 88.7428 46.6857 88.4948 46.5204C88.2469 46.355 88.7152 45.0873 89.5417 43.5991C90.3681 42.1108 91.1395 41.036 91.415 41.1463C91.6905 41.2565 91.3048 42.7723 90.4783 44.1227Z" fill="#F9E6CF"/>
<path opacity="0.5" d="M73.0675 40.8707C73.4256 43.6266 73.5909 46.3826 73.6736 48.2015C73.7528 49.2288 73.7528 50.2608 73.6736 51.2881C73.3682 50.3074 73.147 49.3025 73.0124 48.2842C72.6543 46.4101 72.2135 43.8746 71.6074 41.1463C70.8912 37.8391 70.2851 35.3863 69.8168 33.7603C69.3484 32.1343 69.0178 31.3902 69.1831 31.2524C69.3484 31.1146 70.1473 31.5556 70.9463 33.1265C72.1087 35.5609 72.827 38.1835 73.0675 40.8707Z" fill="#7D7A7C"/>
<path d="M71.7176 35.717C72.2686 37.7013 72.3237 39.3825 72.0482 39.4376C71.7727 39.4927 71.2218 37.9218 70.6983 36.0202C70.1749 34.1186 69.8168 32.6028 69.8168 32.4375C69.8168 32.2721 71.1942 33.7328 71.7176 35.717Z" fill="#F9E6CF"/>
<path opacity="0.5" d="M66.3456 78.2137C67.1036 77.1941 68.0364 76.317 69.1005 75.6231C68.6761 76.8098 68.1411 77.954 67.5027 79.0405C67.1029 79.8466 66.6131 80.6047 66.0426 81.3004C65.712 81.7413 65.3539 81.9618 65.161 81.9342C64.9682 81.9067 64.7754 81.5209 64.858 80.8319C65.1013 79.8379 65.6164 78.9314 66.3456 78.2137Z" fill="#7D7A7C"/>
<path d="M65.4916 79.9775C65.8498 79.3161 66.3732 78.9302 66.6211 79.0956C66.8691 79.261 66.7589 79.8673 66.4283 80.5011C66.0977 81.135 65.6569 81.5208 65.409 81.4381C65.161 81.3555 65.1059 80.6389 65.4916 79.9775Z" fill="#F9E6CF"/>
<path opacity="0.5" d="M56.0424 108.557L61.5521 97.2848L63.2601 93.8675C63.461 93.4387 63.6911 93.0244 63.9489 92.6273C63.8539 93.0928 63.706 93.5459 63.5081 93.9777C63.205 94.832 62.7367 96.0722 62.1582 97.5604C60.9736 100.564 59.4033 104.698 57.53 109.163C53.1498 119.994 50.1469 125.258 49.7888 125.092C49.4307 124.927 50.8357 119.939 56.0424 108.557Z" fill="#7D7A7C"/>
<path d="M52.709 116.907C53.3866 114.911 54.4023 113.047 55.7118 111.395C55.3625 113.478 54.6738 115.489 53.6732 117.348C52.9985 119.34 51.9926 121.203 50.6979 122.86C51.0301 120.777 51.7099 118.765 52.709 116.907Z" fill="#F9E6CF"/>
<path opacity="0.5" d="M50.5326 111.671L57.3096 99.9581C58.2187 98.4699 58.935 97.2022 59.4584 96.4029C59.7123 95.9516 59.9977 95.5188 60.3124 95.1076C60.1499 95.5922 59.9472 96.0624 59.7064 96.5132C59.2931 97.4226 58.6595 98.6904 57.9157 100.261L51.8274 112.36C46.0973 123.632 42.4057 129.116 42.0476 128.896C41.6895 128.675 43.8383 123.356 50.5326 111.671Z" fill="#7D7A7C"/>
<path d="M46.0973 120.325C47.0061 118.233 48.2533 116.306 49.7888 114.62C49.1956 116.825 48.2664 118.926 47.0339 120.848C46.0928 122.922 44.8487 124.845 43.3424 126.553C43.9209 124.342 44.851 122.239 46.0973 120.325Z" fill="#F9E6CF"/>
<path opacity="0.5" d="M44.7749 113.738C47.2543 110.045 49.5409 106.655 51.2764 104.23L53.3426 101.474C53.8385 100.812 54.114 100.427 54.169 100.454C54.0054 100.868 53.8025 101.265 53.563 101.639L51.8274 104.698C50.3122 107.289 48.2736 110.817 46.0146 114.647C40.5049 123.88 37.2817 128.427 36.8409 128.179C36.4001 127.931 38.301 123.218 44.7749 113.738Z" fill="#7D7A7C"/>
<path d="M40.5049 120.876C41.4001 119.146 42.5939 117.588 44.0311 116.273C43.4463 118.158 42.5117 119.916 41.2762 121.454C40.4303 123.202 39.2727 124.78 37.8602 126.112C38.4052 124.216 39.3024 122.44 40.5049 120.876Z" fill="#F9E6CF"/>
<path opacity="0.5" d="M47.7778 104.533L52.9294 97.7258C53.6319 96.7514 54.4053 95.8302 55.2435 94.9698C54.7415 96.063 54.1518 97.1137 53.4804 98.1116C52.3509 100.013 50.7255 102.576 48.9899 105.387C44.7199 112.139 41.8823 115.171 41.5242 114.95C41.1661 114.73 42.6262 111.368 47.7778 104.533Z" fill="#7D7A7C"/>
<path d="M44.3893 109.742C45.7391 107.785 47.0064 106.352 47.1441 106.517C47.2819 106.683 46.5105 108.391 45.1606 110.348C43.8107 112.305 42.5435 113.738 42.4057 113.572C42.268 113.407 43.0669 111.671 44.3893 109.742Z" fill="#F9E6CF"/>
<path opacity="0.5" d="M48.9073 89.6233C51.6621 87.391 54.114 85.4343 55.9873 84.1114C56.9672 83.3064 58.008 82.5784 59.1003 81.9342C59.1003 81.9342 58.8799 82.2374 58.4116 82.7059L56.4281 84.6075L49.899 90.8084C43.7556 96.5683 40.6151 99.4069 40.2845 99.0762C39.9539 98.7455 41.9099 95.3557 48.9073 89.6233Z" fill="#7D7A7C"/>
<path d="M44.224 94.2257C46.0422 92.5171 47.6951 91.332 47.9155 91.4698C48.1359 91.6076 46.7584 93.2887 45.0229 95.1352C43.2873 96.9817 41.717 98.1667 41.4966 97.8912C41.2762 97.6156 42.4057 95.962 44.224 94.2257Z" fill="#F9E6CF"/>
<path opacity="0.5" d="M35.9869 104.891C39.7611 101.446 43.2873 98.3597 45.8769 96.1549L48.9624 93.5368C49.3357 93.1947 49.7417 92.8901 50.1745 92.6273C49.8786 93.0413 49.5366 93.4204 49.1552 93.7572L46.4003 96.651C43.976 99.0486 40.6426 102.356 37.0613 105.966C32.6902 110.32 29.3385 113.554 27.006 115.667C24.7194 117.789 23.5073 118.836 23.3696 118.699C23.2318 118.561 26.2071 113.71 35.9869 104.891Z" fill="#7D7A7C"/>
<path d="M29.265 111.671C30.7264 109.982 32.458 108.548 34.3891 107.427C33.2004 109.31 31.7221 110.993 30.0088 112.415C28.5588 114.093 26.8803 115.559 25.0225 116.769C26.129 114.836 27.5648 113.11 29.265 111.671Z" fill="#F9E6CF"/>
<path opacity="0.5" d="M40.2845 106.159L47.7778 98.3321L50.0919 96.0171C50.3689 95.7142 50.6732 95.4374 51.001 95.1903C50.8102 95.5549 50.5792 95.8969 50.3123 96.21L48.2736 98.773L41.4966 107.041C35.0502 114.758 31.1659 118.202 30.8353 118.065C30.5047 117.927 32.9565 113.876 40.2845 106.159Z" fill="#7D7A7C"/>
<path d="M35.2982 112.029C37.2817 109.797 39.0448 108.143 39.2652 108.364C38.5139 110.007 37.4468 111.487 36.1246 112.718C34.1411 114.95 32.378 116.576 32.1576 116.384C32.9089 114.74 33.976 113.261 35.2982 112.029Z" fill="#F9E6CF"/>
<path opacity="0.5" d="M37.5572 95.1352C41.414 92.1037 45.0229 89.6233 47.7778 87.6666L50.9459 85.517C51.3161 85.2176 51.7235 84.9675 52.158 84.7729C51.836 85.1225 51.4859 85.4451 51.1111 85.7374L48.191 88.1902L38.5765 96.1825C29.568 103.624 25.0225 107.454 24.8021 107.206C24.5817 106.958 27.5294 102.494 37.5572 95.1352Z" fill="#7D7A7C"/>
<path d="M30.67 100.895C32.1713 99.4042 33.9248 98.1912 35.8491 97.3124C36.042 97.5604 34.0034 99.4896 31.3587 101.722C29.8715 103.2 28.1836 104.462 26.3448 105.47C27.4862 103.687 28.9535 102.134 30.67 100.895Z" fill="#F9E6CF"/>
<path opacity="0.5" d="M24.6643 86.2611C29.4027 84.3319 33.8381 82.8161 37.0613 81.7413L40.9181 80.5287C41.3916 80.3608 41.8808 80.2407 42.3782 80.1704C41.9426 80.411 41.4916 80.6227 41.0283 80.8043L37.3092 82.3752C34.1687 83.698 29.8711 85.4894 25.2429 87.6115C19.7331 90.1745 15.5182 92.2139 12.8184 93.7021C11.5026 94.5552 10.1313 95.3194 8.71362 95.9895C8.54832 95.9895 9.34724 94.584 11.8542 92.7651C15.8599 90.1114 20.1584 87.9289 24.6643 86.2611Z" fill="#7D7A7C"/>
<path d="M16.0967 90.4777C17.9906 89.2949 20.0955 88.4901 22.2951 88.1075C20.5388 89.4498 18.6235 90.5699 16.5926 91.4422C14.7226 92.6074 12.7379 93.5771 10.6696 94.336C12.1769 92.6707 14.0289 91.354 16.0967 90.4777Z" fill="#F9E6CF"/>
<path opacity="0.5" d="M26.5377 90.9186C30.3394 89.0997 33.9207 87.5839 36.5103 86.5091L39.5131 85.2689C39.8938 85.1003 40.2908 84.971 40.6977 84.8831C40.6977 84.8831 40.3396 85.1587 39.6509 85.5445L36.7582 87.1154L27.1988 92.3793C22.7635 94.832 19.4025 96.6785 17.1986 97.8911C16.1271 98.647 14.9715 99.2759 13.755 99.7652C13.3694 99.3518 16.6201 95.521 26.5377 90.9186Z" fill="#7D7A7C"/>
<path d="M19.678 94.8872C21.187 93.8096 22.904 93.0587 24.7194 92.6824C24.8847 92.958 22.8186 94.2808 20.229 95.7966C18.7385 96.8561 17.1063 97.7004 15.3804 98.3045C15.1876 98.0565 17.0609 96.4029 19.678 94.8872Z" fill="#F9E6CF"/>
<path opacity="0.5" d="M31.2485 91.7178C34.334 90.1194 37.199 88.7414 39.2928 87.7768L41.7997 86.6745C42.1076 86.5214 42.4308 86.4013 42.7639 86.3162C42.5189 86.5569 42.2406 86.7611 41.9374 86.9225L39.5958 88.3832L31.9648 93.0131C28.4825 95.4105 24.795 97.4948 20.9453 99.2416C20.6698 98.9109 23.3145 95.7966 31.2485 91.7178Z" fill="#7D7A7C"/>
<path d="M25.7387 95.1352C27.86 93.8123 29.7058 93.0407 29.871 93.2887C30.0363 93.5367 28.3834 94.7494 26.2897 96.0447C25.098 96.9693 23.7428 97.6612 22.2951 98.0841C22.1849 97.8911 23.7001 96.5132 25.7387 95.1352Z" fill="#F9E6CF"/>
<path opacity="0.5" d="M26.7856 66.6388C31.0281 66.6388 34.9125 66.9144 37.8051 67.19L41.1385 67.5758C41.5483 67.6133 41.9539 67.6871 42.3507 67.7963C41.9384 67.8372 41.5232 67.8372 41.111 67.7963H37.6949C34.94 67.7963 31.0006 67.7963 26.8132 68.0719C23.0256 68.2439 19.2529 68.6581 15.5182 69.312C13.0388 69.8081 11.8542 70.3593 11.7164 70.1388C11.5787 69.9183 12.4602 69.0364 14.9121 68.1545C18.7601 67.0016 22.7715 66.4895 26.7856 66.6388Z" fill="#7D7A7C"/>
<path d="M18.8791 67.5758C20.6904 67.1446 22.5776 67.1446 24.3889 67.5758C22.6621 68.1969 20.8504 68.5501 19.0169 68.623C17.2505 69.028 15.4537 69.2861 13.6448 69.3947C13.5071 68.9813 15.8212 67.9341 18.8791 67.5758Z" fill="#F9E6CF"/>
<path opacity="0.5" d="M34.0034 71.4065C37.0337 71.1034 39.8162 70.9931 41.8272 70.9931C42.9311 70.9502 44.0366 70.9963 45.1331 71.1309C44.0674 71.4029 42.9794 71.5781 41.8823 71.6545C39.8988 71.9301 37.1439 72.316 34.2238 72.8672C30.67 73.5562 28.0253 74.19 26.3173 74.7136C24.6092 75.2373 23.7828 75.6782 23.5624 75.5129C23.342 75.3475 23.9205 74.5207 25.5734 73.6113C28.2157 72.3413 31.0779 71.5927 34.0034 71.4065Z" fill="#7D7A7C"/>
<path d="M28.4936 72.757C30.6149 72.1782 32.4056 72.1506 32.4607 72.4262C32.5157 72.7018 30.8077 73.2255 28.7691 73.8042C27.5606 74.2801 26.2892 74.5772 24.9949 74.6861C24.8021 74.383 26.3448 73.3357 28.4936 72.757Z" fill="#F9E6CF"/>
<path opacity="0.5" d="M56.676 61.0442C58.246 61.3836 59.792 61.8255 61.3042 62.367C61.951 62.566 62.5709 62.8437 63.15 63.1938C63.15 63.3592 60.0645 62.808 56.4556 62.5048C54.262 62.5271 52.0699 62.3797 49.899 62.0639C49.899 61.8434 50.2021 61.43 51.3591 61.0166C53.1087 60.6056 54.9308 60.615 56.676 61.0442Z" fill="#7D7A7C"/>
<path d="M53.2875 60.9891C54.6374 60.9891 55.6843 61.3749 55.6567 61.6505C55.6292 61.9261 54.5548 62.0363 53.2875 62.0639C52.0203 62.0915 51.001 62.0639 50.9183 61.7607C50.8357 61.4576 51.7723 60.9891 53.2875 60.9891Z" fill="#F9E6CF"/>
<path opacity="0.5" d="M46.9238 52.4456C49.0108 53.1434 51.0377 54.0098 52.9845 55.0362C53.8144 55.4281 54.5995 55.9085 55.3261 56.4693C54.4328 56.277 53.5574 56.0096 52.709 55.6701C50.6958 54.9372 48.6451 54.3117 46.5656 53.796C43.6402 53.2432 40.6719 52.9481 37.6949 52.9141C37.6949 52.9141 37.6949 52.6385 38.0806 52.3629C38.6007 52.0997 39.145 51.8874 39.706 51.7291C42.133 51.3292 44.6226 51.5764 46.9238 52.4456Z" fill="#7D7A7C"/>
<path d="M42.268 51.8393C44.1138 52.0047 45.5188 52.5283 45.4637 52.859C45.4086 53.1898 43.9485 53.052 42.2129 52.859C41.3589 52.859 40.56 52.859 39.9815 52.859C39.4029 52.859 39.0448 52.859 39.0173 52.6386C38.9897 52.4181 39.3203 52.3078 39.8988 52.0874C40.675 51.9053 41.471 51.822 42.268 51.8393Z" fill="#F9E6CF"/>
<path opacity="0.5" d="M39.155 55.6976C41.6862 56.3488 44.1711 57.1682 46.5931 58.1504C47.6128 58.5259 48.5988 58.9868 49.5409 59.5284C48.4645 59.3768 47.4041 59.1277 46.3728 58.7843C44.4443 58.3158 41.7721 57.5992 38.8519 57.1583C36.2315 56.6937 33.5787 56.4357 30.9179 56.3866C30.0054 56.5329 29.0755 56.5329 28.163 56.3866C28.163 56.1386 28.7415 55.615 30.5873 55.0913C33.4532 54.665 36.3776 54.872 39.155 55.6976Z" fill="#7D7A7C"/>
<path d="M33.4799 55.1464C35.6838 55.1464 37.3643 55.8354 37.3092 56.111C37.2541 56.3866 35.5461 56.3039 33.4524 56.111C32.4055 56.111 31.4689 56.111 30.6975 56.111C29.9261 56.111 29.5956 56.111 29.5405 55.9457C29.4854 55.7803 29.9261 55.5598 30.6149 55.3394C31.5603 55.1733 32.5208 55.1087 33.4799 55.1464Z" fill="#F9E6CF"/>
<path opacity="0.5" d="M23.2318 59.0048C27.9702 59.7764 32.2953 60.7134 35.3808 61.4851C36.9511 61.8434 38.1357 62.1741 39.0723 62.4221C39.5387 62.5131 39.9921 62.6612 40.4222 62.8631C39.95 62.8482 39.48 62.7929 39.0172 62.6977L35.2706 62.0639C32.1025 61.5953 27.7773 60.9339 23.039 60.4379C18.7413 59.9186 14.4194 59.6242 10.091 59.5559C8.62285 59.6354 7.15144 59.6354 5.68324 59.5559C5.68324 59.3906 6.81274 58.5914 9.70536 58.2055C14.2293 57.8376 18.7826 58.1067 23.2318 59.0048Z" fill="#7D7A7C"/>
<path d="M14.2509 58.3985C16.3487 58.2694 18.4504 58.5791 20.4218 59.3079C18.3653 59.5897 16.2799 59.5897 14.2234 59.3079C12.1694 59.4647 10.1064 59.4647 8.05244 59.3079C9.99649 58.4431 12.1405 58.1285 14.2509 58.3985Z" fill="#F9E6CF"/>
<path opacity="0.5" d="M65.6569 57.2961C66.5497 57.8537 67.3035 58.6077 67.8608 59.5009C68.3016 60.1623 68.4669 60.6308 68.4118 60.6584C67.3443 59.8804 66.2104 59.198 65.0233 58.619C64.2377 58.3408 63.401 58.2373 62.5714 58.3158C61.9378 58.3158 61.5521 58.3158 61.4419 58.178C61.3317 58.0402 61.4419 57.5166 62.0756 57.1308C62.6252 56.8108 63.2554 56.6563 63.8906 56.6856C64.5258 56.7149 65.1391 56.9269 65.6569 57.2961Z" fill="#7D7A7C"/>
<path d="M63.2877 56.993C64.2519 56.993 64.858 57.4615 64.7478 57.6819C64.6376 57.9024 64.0315 57.9575 63.3428 58.0402C62.6541 58.1229 62.048 58.0402 61.9103 57.8749C61.7725 57.7095 62.3511 57.0481 63.2877 56.993Z" fill="#F9E6CF"/>
<path opacity="0.5" d="M66.0701 48.0637C67.1095 50.0012 67.9671 52.0309 68.6322 54.1267C68.9851 55.0084 69.2078 55.9368 69.2933 56.8827C69.128 56.8827 67.5578 53.0244 64.8029 48.9456C63.6466 47.1114 62.1944 45.4817 60.5053 44.1227C59.3758 43.2683 58.6044 43.0754 58.632 42.8549C58.6595 42.6345 59.4309 42.3313 60.9736 42.8549C63.2137 43.9629 65.0108 45.7995 66.0701 48.0637Z" fill="#7D7A7C"/>
<path d="M62.9296 44.3983C64.2795 45.6936 64.8855 47.1542 64.6651 47.1542C64.4448 47.1542 63.4255 46.2448 62.1858 45.0597C60.9461 43.8746 59.7615 43.2132 59.8441 42.9376C59.9268 42.662 61.5521 43.0479 62.9296 44.3983Z" fill="#F9E6CF"/>
<path opacity="0.5" d="M92.7373 75.4853C89.0182 73.2806 85.3818 72.2333 85.4369 72.0404C86.2555 72.0501 87.0698 72.1612 87.8612 72.3711C89.7593 72.7719 91.6072 73.382 93.3709 74.19C95.3986 75.017 97.081 76.5152 98.1369 78.4342C98.355 78.9448 98.5033 79.4824 98.5777 80.0326C98.5777 80.446 98.5777 80.6389 98.3573 80.6665C98.1369 80.6941 97.8614 80.1704 97.09 79.2059C95.8665 77.7218 94.3935 76.4628 92.7373 75.4853Z" fill="#7D7A7C"/>
<path d="M96.0707 77.635C95.5197 77.1113 94.9963 76.6428 94.6657 76.257C94.3352 75.8712 94.0872 75.6231 94.1699 75.4853C94.2525 75.3475 94.6106 75.4853 95.1065 75.6231C95.7165 75.9774 96.2888 76.393 96.8145 76.8633C98.0267 78.1035 98.3297 79.6192 98.0542 79.6192C97.7787 79.6192 97.1176 78.5995 96.0707 77.635Z" fill="#F9E6CF"/>
<path opacity="0.5" d="M84.2248 78.9027C84.0651 77.6577 83.7021 76.4473 83.1504 75.32C83.7799 75.6572 84.3311 76.1237 84.7679 76.6888C85.2047 77.254 85.5171 77.9051 85.6848 78.5996C86.5113 81.3555 85.3267 82.761 84.9961 82.6508C84.6655 82.5406 84.335 81.3555 84.2248 78.9027Z" fill="#7D7A7C"/>
<path d="M84.6104 80.7216C84.6104 80.0051 84.6104 79.3988 85.0512 79.3436C85.492 79.2885 85.7124 79.9224 85.6848 80.7216C85.6573 81.5208 85.3543 82.1271 85.0512 82.0996C84.7482 82.072 84.6104 81.3555 84.6104 80.7216Z" fill="#F9E6CF"/>
<path opacity="0.5" d="M79.018 89.2926C78.916 86.8358 78.6026 84.3924 78.0814 81.9894C78.5383 82.5837 78.8836 83.256 79.1007 83.9737C79.7925 85.6572 80.2468 87.4288 80.4506 89.2375C80.6791 91.1781 80.4333 93.1453 79.7343 94.9699C79.2384 96.2101 78.6875 96.6786 78.5222 96.6234C78.3569 96.5683 78.7701 94.336 79.018 89.2926Z" fill="#7D7A7C"/>
<path d="M79.018 92.9856C79.2109 91.58 79.4864 90.4501 79.7619 90.4501C80.0374 90.4501 80.2853 91.6627 80.0649 93.206C79.8445 94.7494 79.2384 95.8242 78.9354 95.714C78.6324 95.6037 78.715 94.3635 79.018 92.9856Z" fill="#F9E6CF"/>
<path opacity="0.5" d="M61.2215 104.147L65.2161 95.3005C65.7671 94.1982 66.2079 93.2611 66.5109 92.5446C66.8139 91.8281 67.0068 91.5525 67.0619 91.58C66.9971 91.9447 66.905 92.304 66.7864 92.6548L65.8497 95.4108C64.9957 97.8085 63.8387 100.923 62.599 104.561C59.486 113.104 57.0892 117.21 56.7586 117.045C56.4281 116.88 57.2821 112.994 61.2215 104.147Z" fill="#7D7A7C"/>
<path d="M58.7973 110.706C59.2589 109.127 60.0473 107.662 61.1114 106.407C61.0236 108.056 60.5721 109.666 59.789 111.12C59.3401 112.704 58.5503 114.172 57.4749 115.419C57.5814 113.773 58.0319 112.167 58.7973 110.706Z" fill="#F9E6CF"/>
<path opacity="0.5" d="M69.1556 105.718C69.7066 102.604 70.1749 99.7101 70.533 97.588C70.687 96.4418 70.9264 95.3087 71.2493 94.1982C71.3258 95.3544 71.3258 96.5144 71.2493 97.6707C71.1116 99.7927 70.9738 102.714 70.6708 105.939C70.0371 113.655 68.4669 117.513 68.0536 117.376C67.6404 117.238 67.8332 113.793 69.1556 105.718Z" fill="#7D7A7C"/>
<path d="M68.5495 111.671C68.9352 109.439 69.3484 107.62 69.6515 107.647C70.0251 109.019 70.0251 110.465 69.6515 111.836C69.2933 114.069 68.7699 115.86 68.4393 115.805C68.1679 114.436 68.2055 113.023 68.5495 111.671Z" fill="#F9E6CF"/>
<path opacity="0.5" d="M72.2961 117.982C72.6267 112.773 72.9573 108.005 73.1777 104.505C73.3154 102.769 73.4256 101.336 73.4807 100.344C73.4847 99.8328 73.5495 99.324 73.6736 98.8282C73.7015 99.3422 73.7015 99.8574 73.6736 100.371C73.6736 101.364 73.6736 102.769 73.6736 104.505C73.6736 108.005 73.6736 112.773 73.6736 118.037C73.4807 130.714 71.8278 137.329 71.387 137.136C70.9463 136.943 71.4146 131.431 72.2961 117.982Z" fill="#7D7A7C"/>
<path d="M71.938 127.738C71.9218 125.463 72.2373 123.198 72.8747 121.014C73.2964 123.25 73.343 125.541 73.0124 127.793C73.0244 130.083 72.6423 132.358 71.8829 134.518C71.591 132.266 71.6095 129.985 71.938 127.738Z" fill="#F9E6CF"/>
<path opacity="0.5" d="M75.1337 103.403C75.5469 100.344 75.8499 97.5053 75.9601 95.4108C75.9951 94.2759 76.0963 93.144 76.2632 92.021C76.3492 92.3177 76.4046 92.6224 76.4285 92.9304C76.4285 93.5092 76.5662 94.3635 76.6213 95.4108C76.8052 98.1637 76.8052 100.926 76.6213 103.679C76.4813 106.614 75.8092 109.5 74.6378 112.194C74.2622 112.852 73.8483 113.487 73.3981 114.096C73.0675 114.482 72.792 114.592 72.7094 114.537C72.6267 114.482 73.894 111.368 75.1337 103.403Z" fill="#7D7A7C"/>
<path d="M74.3347 109.191C74.5063 107.844 74.9366 106.543 75.602 105.36C75.9326 105.36 75.8775 107.234 75.354 109.466C75.0816 110.412 74.7315 111.334 74.3072 112.222C73.894 112.883 73.5634 113.242 73.4532 113.159C73.343 113.076 73.4532 112.635 73.5909 111.946C73.7287 111.257 73.9766 110.238 74.3347 109.191Z" fill="#F9E6CF"/>
<path opacity="0.5" d="M84.39 89.3202C83.8942 86.8674 83.3432 84.6351 82.93 83.0091L82.379 81.1074C82.3454 80.8606 82.3454 80.6102 82.379 80.3633C82.9136 81.1169 83.3575 81.9309 83.7013 82.7886C84.5728 84.801 85.3271 86.8622 85.9603 88.9619C87.6959 94.8596 87.4755 98.1392 87.1174 98.1943C86.7592 98.2494 85.5746 95.6588 84.39 89.3202Z" fill="#7D7A7C"/>
<path d="M85.6022 93.8399C85.2165 92.0761 85.1614 90.6154 85.4369 90.5328C85.7124 90.4501 86.2634 91.8556 86.6491 93.6194C87.0347 95.3832 87.0072 96.899 86.6491 96.9266C86.2909 96.9541 85.9879 95.6037 85.6022 93.8399Z" fill="#F9E6CF"/>
<path opacity="0.5" d="M79.6241 119.939C79.4313 115.97 79.2384 112.277 79.1007 109.576C79.1007 108.254 79.1007 107.151 78.9629 106.407C78.9267 106.013 78.9267 105.616 78.9629 105.222C79.1148 105.581 79.2078 105.963 79.2384 106.352C79.2384 107.124 79.5415 108.198 79.7619 109.521C80.1751 112.277 80.6985 115.832 81.1117 119.828C82.2137 129.557 81.1117 134.711 80.5883 134.628C80.0649 134.545 80.12 130.218 79.6241 119.939Z" fill="#7D7A7C"/>
<path d="M80.2302 127.352C79.9987 125.612 80.1015 123.845 80.5332 122.143C81.1716 123.792 81.4351 125.562 81.3046 127.325C81.5865 129.073 81.4255 130.864 80.8362 132.533C80.3573 130.85 80.1526 129.101 80.2302 127.352Z" fill="#F9E6CF"/>
<path opacity="0.5" d="M61.745 20.7247C63.1775 25.5752 64.307 30.0674 65.0784 33.3469C65.464 34.9729 65.7671 36.3233 65.9599 37.2604C66.1028 37.7351 66.1861 38.2257 66.2079 38.721C65.9952 38.2487 65.8202 37.7603 65.6844 37.2604L64.4447 33.4847C63.3979 30.2603 61.9929 25.8783 60.34 21.1105C58.3289 15.3782 56.7586 11.0513 55.6016 8.24027C54.9215 6.84686 54.3326 5.41075 53.8385 3.941C53.9762 3.77564 55.1608 4.71267 56.5933 7.41349C58.7889 11.6501 60.5163 16.1136 61.745 20.7247Z" fill="#7D7A7C"/>
<path d="M58.4116 11.7679C59.3783 13.7547 59.9668 15.9042 60.1471 18.1066C58.963 16.2566 58.0362 14.2539 57.3923 12.1537C56.4687 10.1779 55.7309 8.12049 55.1884 6.00797C56.6945 7.65206 57.798 9.62394 58.4116 11.7679Z" fill="#F9E6CF"/>
<path opacity="0.5" d="M56.2628 48.7527C57.6565 50.0187 58.9292 51.4119 60.0645 52.9142C60.5776 53.5186 61.0126 54.1853 61.3593 54.8984C61.2216 54.8984 58.7422 52.363 55.3537 49.9102C53.8965 48.7995 52.2682 47.9338 50.5326 47.3471C49.4031 47.044 48.742 47.1542 48.6593 46.9338C48.5767 46.7133 49.045 46.107 50.5326 46.0518C52.7126 46.2056 54.7563 47.1689 56.2628 48.7527Z" fill="#7D7A7C"/>
<path d="M52.6263 46.7133C54.1415 47.3471 54.9955 48.3668 54.8302 48.5873C54.6649 48.8078 53.5355 48.2566 52.2131 47.7054C50.8908 47.1542 49.7888 46.9889 49.7337 46.6857C49.6786 46.3825 51.1112 46.0243 52.6263 46.7133Z" fill="#F9E6CF"/>
<path opacity="0.5" d="M26.7581 50.4889C32.2678 52.4456 37.3643 54.4575 41.0283 56.0008L45.3259 57.8473C45.8642 58.073 46.3886 58.3307 46.8962 58.6189C46.3235 58.4995 45.7615 58.3336 45.2157 58.1229L40.7804 56.552C37.0613 55.2842 31.9097 53.548 26.2897 51.8393C19.4576 49.7815 14.2876 48.3393 10.7798 47.5125C8.9858 47.222 7.21043 46.8263 5.46286 46.3274C5.46286 46.1345 7.11579 45.7487 10.6696 46.3274C16.16 47.1633 21.5508 48.5577 26.7581 50.4889Z" fill="#7D7A7C"/>
<path d="M16.0691 47.5125C18.6103 48.0275 21.049 48.9586 23.2869 50.2684C20.7395 49.9812 18.2341 49.3986 15.8212 48.5322C13.3148 48.0409 10.8473 47.3685 8.43813 46.5203C11.0232 46.3135 13.6228 46.6515 16.0691 47.5125Z" fill="#F9E6CF"/>
<path opacity="0.5" d="M26.6479 56.111C31.7168 57.4063 36.2899 58.867 39.5958 59.9142L43.5353 61.2371C44.0172 61.3839 44.487 61.5682 44.9402 61.7883C44.4368 61.7434 43.9387 61.6511 43.4526 61.5127L39.5131 60.5481C36.1246 59.7489 31.4689 58.6189 26.3999 57.5441C20.2565 56.2488 15.6008 55.3394 12.4602 54.7882C10.8555 54.6728 9.26208 54.4332 7.69431 54.0716C7.69431 53.8787 9.09929 53.3826 12.2674 53.4653C17.1415 53.8315 21.9624 54.7185 26.6479 56.111Z" fill="#7D7A7C"/>
<path d="M17.0333 54.3197C19.3073 54.514 21.5233 55.1407 23.5624 56.1661C21.3076 56.1873 19.0589 55.9281 16.868 55.3945C14.6278 55.175 12.4138 54.7412 10.2563 54.0992C12.5046 53.6807 14.817 53.7559 17.0333 54.3197Z" fill="#F9E6CF"/>
<path opacity="0.5" d="M37.2541 46.2999C40.9181 48.0912 44.1964 49.9377 46.5105 51.3432C47.6676 52.0322 48.6042 52.611 49.2654 53.0519C49.6064 53.2527 49.9291 53.4833 50.2296 53.7409C49.8486 53.6307 49.4795 53.483 49.1276 53.3L46.2075 51.922C43.7556 50.7645 40.3671 49.166 36.648 47.6503C33.2726 46.2283 29.8242 44.9863 26.3173 43.9298C25.0815 43.7327 23.8712 43.4 22.7084 42.9376C22.7084 42.7723 23.8379 42.3313 26.3173 42.6345C30.1338 43.2696 33.8254 44.5068 37.2541 46.2999Z" fill="#7D7A7C"/>
<path d="M30.0363 43.7093C31.7921 44.0898 33.4283 44.894 34.8023 46.0518C33.0452 45.8775 31.3259 45.4312 29.7058 44.729C27.9967 44.3378 26.3343 43.765 24.747 43.0203C26.5398 42.7448 28.3739 42.9837 30.0363 43.7093Z" fill="#F9E6CF"/>
<path opacity="0.5" d="M98.8532 71.2136C94.7208 70.1663 91.0569 69.753 91.0844 69.5876C91.8621 69.4187 92.66 69.363 93.4536 69.4222C95.3509 69.3877 97.2481 69.4983 99.1286 69.753C101.216 69.9511 103.213 70.7027 104.914 71.9302C106.043 72.8947 106.181 73.7491 105.988 73.8318C103.696 72.7408 101.307 71.8643 98.8532 71.2136Z" fill="#7D7A7C"/>
<path d="M102.682 72.0955C101.305 71.5443 100.12 71.0483 100.203 70.7451C100.286 70.4419 101.58 70.4971 102.958 71.1034C104.335 71.7097 105.41 72.7845 105.162 73.005C104.914 73.2254 104.06 72.6191 102.682 72.0955Z" fill="#F9E6CF"/>
<path opacity="0.5" d="M83.5912 40.2368C82.627 43.9298 81.6076 47.2645 80.8363 49.6621L79.8445 52.4181C79.7334 52.7724 79.5857 53.1141 79.4037 53.4378C79.4195 53.0655 79.4749 52.6959 79.569 52.3354C79.7068 51.6189 79.9272 50.6267 80.1751 49.3865C80.7261 46.9062 81.4699 43.5164 82.1862 39.7958C83.0402 35.3037 83.6463 31.9414 84.0044 29.6815C84.0908 28.5137 84.3032 27.3587 84.638 26.2366C84.8584 26.2366 85.3267 27.2287 85.3543 29.5713C85.2193 33.1867 84.6268 36.7704 83.5912 40.2368Z" fill="#7D7A7C"/>
<path d="M84.8308 33.2091C84.7422 34.8779 84.2608 36.502 83.4258 37.9494C83.2316 36.3063 83.3532 34.6412 83.784 33.0438C83.8792 31.4055 84.2133 29.79 84.7757 28.2484C85.2606 29.8638 85.2797 31.5834 84.8308 33.2091Z" fill="#F9E6CF"/>
<path opacity="0.5" d="M107.173 38.4179C103.922 41.3943 100.947 44.1502 98.7705 46.1896C97.6961 47.1542 96.787 47.9534 96.1809 48.5322C95.8656 48.8284 95.5245 49.0958 95.1616 49.3314C95.3833 48.9504 95.6517 48.5986 95.9605 48.2841L98.3022 45.6936C100.341 43.5164 103.096 40.5399 106.126 37.4257C113.482 29.654 117.834 26.209 118.11 26.4019C118.385 26.5949 115.465 30.591 107.173 38.4179Z" fill="#7D7A7C"/>
<path d="M112.875 32.4375C111.612 33.9207 110.091 35.1626 108.385 36.1029C108.165 35.8824 109.818 33.9257 112.049 31.6934C113.338 30.1921 114.899 28.9484 116.65 28.028C115.675 29.7185 114.395 31.2136 112.875 32.4375Z" fill="#F9E6CF"/>
<path opacity="0.5" d="M112.38 47.7605L101.525 53.2724L98.192 55.0086C97.7925 55.2484 97.3675 55.4425 96.9247 55.5874C97.2772 55.2803 97.6551 55.0038 98.0542 54.7606L101.195 52.7212C103.95 51.0125 107.559 48.7251 111.691 46.355C115.422 44.1195 119.339 42.2108 123.399 40.6502C126.154 39.6305 127.752 39.5478 127.779 39.7407C127.807 39.9336 126.65 40.4573 124.17 41.6974L112.38 47.7605Z" fill="#7D7A7C"/>
<path d="M120.121 43.5439C118.348 44.5998 116.425 45.3804 114.418 45.8589C115.934 44.4367 117.712 43.3229 119.652 42.5793C121.434 41.5047 123.426 40.8278 125.493 40.5951C123.839 41.8094 122.033 42.8009 120.121 43.5439Z" fill="#F9E6CF"/>
<path opacity="0.5" d="M54.417 43.5164C56.301 45.5928 58.0669 47.7734 59.7064 50.048C60.4046 50.9667 61.0221 51.9441 61.5521 52.9693C60.6623 52.1985 59.8334 51.36 59.0728 50.4614C57.6127 48.918 55.5741 46.7684 53.26 44.5636C51.1981 42.5434 49.0179 40.6476 46.7309 38.8864C45.2157 37.7289 44.3066 37.3431 44.3617 37.1226C44.4168 36.9021 45.4086 36.7919 47.1166 37.6738C49.8984 39.1406 52.3759 41.1233 54.417 43.5164Z" fill="#7D7A7C"/>
<path d="M49.8164 39.5478C51.6346 41.0085 52.7916 42.5242 52.5712 42.7172C52.3509 42.9101 50.8908 41.8077 49.1277 40.3746C47.3645 38.9415 45.8494 37.9218 45.9595 37.6187C46.0697 37.3155 47.9982 38.0321 49.8164 39.5478Z" fill="#F9E6CF"/>
<path opacity="0.5" d="M28.9068 35.8549C33.535 38.6108 37.5847 41.3667 40.4773 43.4337C41.9374 44.4534 43.2322 45.3077 43.8934 45.9416C44.3279 46.2332 44.7338 46.5654 45.1055 46.9338C44.6233 46.7202 44.1621 46.4618 43.7281 46.1621L40.1192 43.9849C37.0613 42.1384 32.8739 39.6305 28.1906 37.2604C23.9708 34.8919 19.6099 32.7842 15.1325 30.9493C13.5452 30.4857 11.9975 29.8959 10.5043 29.1855C10.5043 28.9926 12.047 28.8272 15.2151 29.6264C20.0451 31.0588 24.653 33.1549 28.9068 35.8549Z" fill="#7D7A7C"/>
<path d="M19.8709 31.5004C22.083 32.2744 24.123 33.4726 25.8765 35.028C23.6467 34.432 21.4929 33.5813 19.4576 32.4926C17.2915 31.7262 15.1832 30.8052 13.149 29.7366C15.4966 29.7906 17.7989 30.3947 19.8709 31.5004Z" fill="#F9E6CF"/>
<path opacity="0.5" d="M61.5521 38.1698C62.9596 40.5385 64.2111 42.9965 65.2988 45.5282C65.825 46.5816 66.2582 47.679 66.5936 48.8078C65.8977 47.8625 65.2716 46.8677 64.7202 45.8313C63.5907 43.9849 61.9654 41.4494 60.2022 38.8588C58.6149 36.4912 56.7668 34.3095 54.6925 32.3548C53.26 31.1422 52.3233 30.839 52.3508 30.6185C52.3784 30.3981 53.4252 30.2051 55.271 31.1973C57.9127 32.9617 60.0718 35.3585 61.5521 38.1698Z" fill="#7D7A7C"/>
<path d="M57.53 33.4296C59.1554 35.1659 60.0369 36.8746 59.789 37.0399C59.5411 37.2053 58.3014 35.8273 56.7586 34.284C55.2159 32.7406 53.7834 31.528 53.866 31.3627C53.9487 31.1973 56.0424 31.7485 57.53 33.4296Z" fill="#F9E6CF"/>
<path opacity="0.5" d="M36.7583 34.1462C41.111 37.536 45.0229 40.8982 47.5574 43.3786C48.9073 44.6188 49.9817 45.666 50.6979 46.3826C51.1093 46.7342 51.479 47.1318 51.7999 47.5676C51.3548 47.2771 50.9312 46.9547 50.5326 46.603L47.1166 43.8471C44.3617 41.5872 40.3396 38.473 35.9042 35.2761C31.9067 32.3609 27.7293 29.7007 23.3971 27.3114C20.4494 25.7681 18.7965 25.4374 18.824 25.1894C18.8516 24.9413 20.4769 24.8311 23.6175 26.0161C28.3659 28.0796 32.7918 30.8178 36.7583 34.1462Z" fill="#7D7A7C"/>
<path d="M28.163 28.524C30.2547 29.6195 32.1233 31.0963 33.6728 32.8784C31.5336 31.9535 29.5014 30.7983 27.612 29.4335C24.2786 27.3941 21.4136 26.2366 21.4962 25.8783C23.9065 26.1816 26.2004 27.0919 28.163 28.524Z" fill="#F9E6CF"/>
<path opacity="0.5" d="M46.9237 31.032C49.9541 34.5044 52.4335 37.8116 54.3895 40.2368L56.5658 43.1581C56.8512 43.5031 57.0918 43.8827 57.2821 44.288C56.9379 44 56.6156 43.6868 56.3179 43.351L53.8936 40.5951C51.8274 38.3628 49.0175 35.2486 45.8218 31.969C41.9925 28.0831 39.0172 25.1894 36.9511 23.4807C35.8279 22.6316 34.7604 21.711 33.7554 20.7247C33.7554 20.5042 35.1604 20.7247 37.5021 22.2681C41.0043 24.7744 44.1706 27.7197 46.9237 31.032Z" fill="#7D7A7C"/>
<path d="M40.7528 25.0515C42.3383 26.2884 43.6434 27.8477 44.5821 29.6264C42.8812 28.5985 41.3404 27.3264 40.009 25.8508C38.4662 24.6215 37.0455 23.2464 35.7665 21.7444C37.6874 22.3951 39.4059 23.5348 40.7528 25.0515Z" fill="#F9E6CF"/>
<path opacity="0.5" d="M71.2217 19.5672C72.0207 24.6933 72.5441 29.4059 72.8471 32.8509C73.0124 34.5596 73.1226 35.9651 73.2053 36.9572C73.2474 37.4616 73.2474 37.9686 73.2053 38.473C73.0648 37.9842 72.9544 37.4872 72.8747 36.9848C72.7094 36.0202 72.4614 34.6422 72.1584 32.9611C71.6074 29.5437 70.781 24.8862 69.8168 19.8428C68.5771 13.7246 67.5027 9.14976 66.6486 6.0631C65.7946 2.97644 65.0508 1.65359 65.2161 1.51579C65.3814 1.37799 66.5385 2.42525 67.7506 5.34655C69.4554 9.93596 70.6202 14.7083 71.2217 19.5672Z" fill="#7D7A7C"/>
<path d="M68.9903 10.1143C69.7198 12.259 70.0466 14.5201 69.9545 16.7837C69.0103 14.7508 68.3432 12.6004 67.971 10.3899C67.2819 8.27469 66.7569 6.10945 66.4007 3.91345C67.7622 5.73494 68.6519 7.86525 68.9903 10.1143Z" fill="#F9E6CF"/>
<path opacity="0.5" d="M56.3454 28.0004C58.0534 31.4729 59.4033 34.7249 60.34 37.2604C60.8083 38.473 61.1665 39.4376 61.4144 40.0163C61.5692 40.3689 61.6802 40.7391 61.745 41.1187C61.492 40.7861 61.2965 40.4135 61.1665 40.0163L59.7339 37.2604C58.5493 35.0005 56.979 31.7485 55.0231 28.5516C53.3496 25.5219 51.5103 22.5869 49.5133 19.7601C48.191 17.8861 47.2819 17.1696 47.3645 17.0042C47.4472 16.8388 48.6593 17.0042 50.3398 18.768C52.8334 21.4958 54.8623 24.6148 56.3454 28.0004Z" fill="#7D7A7C"/>
<path d="M52.4886 21.8547C53.5663 23.1715 54.3042 24.733 54.6374 26.402C54.3619 26.5673 53.1222 24.7208 51.5795 22.461C50.5136 21.1774 49.5899 19.7821 48.8246 18.2995C49.1001 17.9688 50.9459 19.5121 52.4886 21.8547Z" fill="#F9E6CF"/>
<path opacity="0.5" d="M56.5933 22.6814C58.9901 28.4689 60.891 33.8706 62.1031 37.8116L63.6183 42.5242C63.8098 43.1022 63.9662 43.6912 64.0866 44.288C63.7937 43.7582 63.5449 43.2051 63.3428 42.6345L61.5521 38.0596C59.9818 34.2013 57.8055 28.9374 55.2159 23.2877C52.9185 18.1354 50.2579 13.153 47.2543 8.37807C45.1882 5.23629 43.673 4.05124 43.7832 3.88588C43.8934 3.72053 45.6565 4.35439 48.0808 7.30325C51.6146 12.0114 54.4794 17.1867 56.5933 22.6814Z" fill="#7D7A7C"/>
<path d="M51.2214 12.4569C52.72 14.7309 53.8108 17.249 54.4446 19.8979C52.8548 17.7206 51.4627 15.4056 50.2847 12.9805C48.1359 9.12218 45.9871 6.28355 46.1524 6.09064C48.3262 7.77716 50.0643 9.96017 51.2214 12.4569Z" fill="#F9E6CF"/>
<path opacity="0.5" d="M51.1387 29.6815C53.8936 34.5044 56.3454 39.0242 58.0534 42.3313C58.8524 43.9849 59.5411 45.3629 60.0094 46.2999C60.2579 46.783 60.4787 47.2798 60.6706 47.7881C60.3284 47.3656 60.0242 46.9137 59.7615 46.4377L57.4474 42.7723C55.519 39.6029 52.8743 35.221 49.8715 30.5634C46.235 24.8035 43.3975 20.7247 41.3865 17.9688C39.3754 15.2128 38.1357 14.0002 38.2459 13.8073C38.3561 13.6144 39.8437 14.3034 42.1578 16.8113C45.5905 20.7774 48.6004 25.0908 51.1387 29.6815Z" fill="#7D7A7C"/>
<path d="M45.2433 21.0279C46.7833 22.9151 47.9941 25.0488 48.8246 27.339C47.1244 25.6309 45.6353 23.7249 44.3893 21.6617C42.8895 19.7837 41.5357 17.7936 40.3396 15.7089C42.3327 17.1139 44.0043 18.927 45.2433 21.0279Z" fill="#F9E6CF"/>
<path opacity="0.5" d="M45.7116 73.0876C48.1506 72.5854 50.6153 72.2174 53.0947 71.9853C54.1305 71.8991 55.1718 71.8991 56.2077 71.9853C55.2504 72.2458 54.2739 72.4301 53.2875 72.5365C51.4417 72.9774 48.8797 73.5837 46.1799 74.4105C42.9016 75.4026 40.5049 76.2845 38.9346 76.9184C37.3643 77.5523 36.5379 77.9381 36.4277 77.8279C36.3175 77.7176 36.7307 76.946 38.1632 75.8711C40.4941 74.5022 43.0502 73.5596 45.7116 73.0876Z" fill="#7D7A7C"/>
<path d="M40.6151 74.8239C42.571 74.0522 44.2515 73.8593 44.3342 74.1349C44.4168 74.4105 42.8741 75.0719 41.0283 75.816C40.0641 76.1743 39.2652 76.5601 38.604 76.7255C37.9428 76.8909 37.6123 77.1113 37.5021 76.9735C37.3919 76.8357 37.6949 76.505 38.2459 76.0641C38.9918 75.5718 39.7856 75.1563 40.6151 74.8239Z" fill="#F9E6CF"/>
<path opacity="0.5" d="M26.3448 77.2767C30.5677 76.2156 34.8438 75.3785 39.155 74.7688C40.8355 74.5208 42.1854 74.3554 43.122 74.2727C43.6169 74.228 44.1148 74.228 44.6097 74.2727L43.1771 74.6585L39.2927 75.5405C36.0144 76.2846 31.524 77.3318 26.7305 78.7925C22.3786 80.0585 18.1545 81.7285 14.1132 83.7807C11.3583 85.2689 10.4216 86.3989 10.2288 86.2611C10.036 86.1233 10.6696 84.7453 13.1765 82.8713C17.1788 80.2012 21.645 78.3037 26.3448 77.2767Z" fill="#7D7A7C"/>
<path d="M17.4741 80.5838C19.4396 79.5546 21.5971 78.9447 23.8103 78.7925C21.952 79.9244 19.975 80.8486 17.9149 81.5484C14.7192 83.0091 12.2123 84.5524 11.9644 84.3595C11.7164 84.1666 14.0856 82.0721 17.4741 80.5838Z" fill="#F9E6CF"/>
<path opacity="0.5" d="M25.05 75.0719C30.7251 74.1625 35.9318 73.5837 39.7335 73.2255L44.2515 72.8121H45.932C45.4056 72.9929 44.8602 73.1131 44.3066 73.1703L39.8437 73.942C36.0695 74.5759 30.8904 75.4578 25.298 76.698C18.5485 78.0759 13.4795 79.261 10.1461 80.2531C6.81274 81.2453 5.24246 81.9894 5.13227 81.824C5.02207 81.6587 6.20667 80.4736 9.40233 79.0681C14.4527 77.1555 19.7013 75.8151 25.05 75.0719Z" fill="#7D7A7C"/>
<path d="M14.7192 77.5247C17.0909 76.743 19.5782 76.3703 22.0748 76.4223C19.7693 77.4213 17.3568 78.1518 14.8845 78.5995C12.5315 79.3534 10.129 79.9427 7.69431 80.3633C9.80836 78.9297 12.2029 77.9621 14.7192 77.5247Z" fill="#F9E6CF"/>
<path opacity="0.5" d="M23.3696 63.0009C28.8793 63.6072 33.7003 64.2686 37.1439 64.8198L41.3864 65.5088C41.9188 65.5711 42.4444 65.6818 42.9567 65.8395C42.4252 65.8881 41.8904 65.8881 41.3589 65.8395L37.0613 65.5364L23.0941 64.5442C16.565 64.1308 11.6338 63.8277 8.32793 63.7174C6.65104 63.7605 4.97356 63.6591 3.31406 63.4143C3.31406 63.2214 4.74659 62.6426 7.99735 62.4222C13.1286 62.1887 18.2704 62.3823 23.3696 63.0009Z" fill="#7D7A7C"/>
<path d="M13.2316 62.5599C15.6006 62.4673 17.9678 62.7843 20.229 63.497C17.8943 63.8512 15.5232 63.8976 13.1765 63.6348C10.8316 63.6807 8.48792 63.4961 6.17912 63.0836C8.47178 62.4418 10.8694 62.2637 13.2316 62.5599Z" fill="#F9E6CF"/>
<path opacity="0.5" d="M80.5883 42.1935C79.872 45.3353 79.1282 48.2015 78.5773 50.2684C78.3084 51.4126 77.9585 52.5362 77.5304 53.6307C77.5633 52.4646 77.6923 51.3031 77.9161 50.1582C78.2191 48.0086 78.6599 45.0873 79.1282 41.8904C79.4562 37.9611 80.2138 34.0796 81.3872 30.3154C81.8556 30.2878 82.4616 34.0635 80.5883 42.1935Z" fill="#7D7A7C"/>
<path d="M81.3873 36.1856C81.0567 38.5006 80.4781 40.2919 80.1751 40.2368C79.8591 38.8583 79.8591 37.4262 80.1751 36.0478C80.2432 34.6343 80.5896 33.2482 81.1944 31.969C81.6352 31.9965 81.7454 33.8981 81.3873 36.1856Z" fill="#F9E6CF"/>
<path opacity="0.5" d="M76.9795 28.3311C76.6489 33.5398 76.2356 38.3076 75.8775 41.7801C75.6847 43.5164 75.5469 44.9219 75.4367 45.8865C75.4224 46.4006 75.339 46.9104 75.1888 47.4022C75.1424 46.898 75.1424 46.3907 75.1888 45.8865C75.1888 44.8943 75.1888 43.4888 75.1888 41.7526C75.1888 38.2525 75.3541 33.4847 75.4643 28.276C75.6296 21.9924 75.7122 17.2522 75.7949 14.0278C75.7132 12.4138 75.8148 10.7958 76.0979 9.20485C76.5938 9.09461 77.9161 14.8821 76.9795 28.3311Z" fill="#7D7A7C"/>
<path d="M77.0345 18.5751C77.1971 20.8487 76.964 23.1332 76.3458 25.3271C75.9097 23.1046 75.7799 20.8328 75.9601 18.5751C75.831 16.3159 75.9697 14.0495 76.3734 11.823C77.025 14.0103 77.2495 16.3028 77.0345 18.5751Z" fill="#F9E6CF"/>
<path opacity="0.5" d="M80.8363 26.8705C80.0925 32.0517 79.3211 36.7919 78.6875 40.2092C78.4395 41.9179 78.0814 43.3235 78.0814 44.288C77.9908 44.7906 77.8713 45.2875 77.7233 45.7763C77.6569 45.2732 77.6569 44.7636 77.7233 44.2605C77.7233 43.2683 77.9437 41.8628 78.109 40.1266C78.4671 36.6541 78.9354 31.8587 79.4589 26.7051C80.0649 20.4216 80.5333 15.6813 80.8638 12.4844C80.8963 10.8566 81.1182 9.23806 81.525 7.66155C81.9933 7.60643 82.8749 13.5041 80.8363 26.8705Z" fill="#7D7A7C"/>
<path d="M81.6903 17.1144C81.6713 19.3972 81.2709 21.6607 80.5057 23.8114C80.2163 21.5571 80.2627 19.2724 80.6434 17.0318C80.6815 14.7623 80.9867 12.5053 81.5525 10.3073C82.0224 12.5479 82.0691 14.8566 81.6903 17.1144Z" fill="#F9E6CF"/>
<path opacity="0.5" d="M88.4122 41.7526C87.0623 44.7565 85.6573 47.4849 84.7482 49.4416C84.2444 50.5197 83.6644 51.5604 83.0126 52.5559C83.2886 51.3948 83.6665 50.2605 84.1421 49.166C84.8859 47.0715 85.9052 44.2605 87.0347 41.2014C88.225 37.3868 89.6511 33.6499 91.3048 30.0122C91.8558 30.0122 91.8558 34.0084 88.4122 41.7526Z" fill="#7D7A7C"/>
<path d="M90.3681 35.91C89.5968 38.1423 88.6877 39.851 88.4122 39.7407C88.411 38.3011 88.731 36.8794 89.3488 35.5792C90.1202 33.3745 90.7538 31.6107 91.0569 31.6658C91.2339 33.1172 90.995 34.5891 90.3681 35.91Z" fill="#F9E6CF"/>
<path opacity="0.5" d="M82.682 96.5683C82.1035 93.647 81.4424 91.0564 80.8914 89.017C80.5452 87.9709 80.2691 86.9029 80.0649 85.8201C80.0649 85.8201 80.2578 86.0957 80.5332 86.6194C80.8087 87.143 81.1118 87.8595 81.525 88.7965C82.5434 91.2201 83.4083 93.7054 84.1146 96.2376C86.1532 103.458 84.6656 107.592 84.1146 107.399C83.5636 107.206 83.9493 107.151 83.9217 106.738C83.8229 106.089 83.7585 105.436 83.7289 104.781C83.5478 102.025 83.1982 99.2819 82.682 96.5683Z" fill="#7D7A7C"/>
<path d="M83.8115 102.025C83.5186 100.737 83.5186 99.3997 83.8115 98.1116C84.1146 98.1116 84.6931 99.7376 84.9135 101.915C85.1339 104.092 84.7206 105.911 84.4176 105.883C83.998 104.641 83.7931 103.336 83.8115 102.025Z" fill="#F9E6CF"/>
<path opacity="0.5" d="M84.4176 112.498L81.1393 99.462C80.7261 97.7809 80.3955 96.4029 80.1751 95.4383C80.0387 94.9502 79.9374 94.4528 79.8721 93.9501C80.1105 94.3985 80.3043 94.8693 80.4506 95.3557C80.7536 96.2927 81.222 97.6431 81.8005 99.2691C82.9024 102.576 84.3625 107.124 85.8226 112.112C89.5141 124.21 89.8447 130.962 89.3213 130.962C88.6716 129.59 88.2172 128.134 87.9714 126.636C87.2 123.549 86.043 119.002 84.4176 112.498Z" fill="#7D7A7C"/>
<path d="M87.0072 121.868C86.3229 119.708 85.9427 117.463 85.8777 115.198C86.9655 117.198 87.7017 119.37 88.054 121.62C88.7674 123.786 89.0664 126.067 88.9356 128.344C88.033 126.272 87.3855 124.097 87.0072 121.868Z" fill="#F9E6CF"/>
<path opacity="0.5" d="M89.4315 103.403C87.8337 99.3518 86.2358 95.6864 85.0788 92.9856L83.7289 89.6233C83.5519 89.2401 83.4046 88.844 83.2881 88.4383C83.2881 88.4383 83.5912 88.7965 84.0044 89.5131L85.6849 92.5446C87.0898 95.1076 88.9356 98.6628 90.7814 102.659C92.5714 106.274 93.9661 110.071 94.9412 113.986C95.5473 116.742 95.3545 118.12 95.1616 118.12C94.9688 118.12 93.7015 113.683 89.4315 103.403Z" fill="#7D7A7C"/>
<path d="M92.6271 110.734C91.8186 108.992 91.2976 107.131 91.0844 105.222C92.2889 106.721 93.1621 108.459 93.6464 110.32C94.4608 112.04 94.8483 113.931 94.7759 115.832C93.8566 114.226 93.1351 112.514 92.6271 110.734Z" fill="#F9E6CF"/>
<path opacity="0.5" d="M99.0735 94.9423C97.2278 92.1864 95.3269 89.8989 93.9495 88.1627C93.1638 87.2861 92.428 86.366 91.7456 85.4067C91.7456 85.4067 92.0486 85.5721 92.5169 85.9855C92.9853 86.3989 93.6464 87.0052 94.4454 87.7769C96.5153 89.7644 98.4568 91.8815 100.258 94.1155C102.286 96.4691 103.823 99.2054 104.776 102.163C105.3 104.23 105.024 105.36 104.776 105.36C103.183 101.727 101.275 98.2417 99.0735 94.9423Z" fill="#7D7A7C"/>
<path d="M102.517 99.9305C101.443 97.8911 100.506 96.21 100.754 96.0447C101.002 95.8793 102.324 97.3124 103.509 99.4345C104.693 101.557 104.914 103.596 104.611 103.651C104.308 103.706 103.619 101.97 102.517 99.9305Z" fill="#F9E6CF"/>
<path opacity="0.5" d="M96.0156 81.8516C94.1974 80.2807 92.4067 78.9303 91.112 77.9657C90.3597 77.4871 89.6582 76.9331 89.0182 76.3121C89.8728 76.5785 90.6951 76.939 91.4701 77.3869C93.3866 78.3502 95.2283 79.4557 96.9798 80.6941C98.9272 81.9637 100.55 83.6721 101.718 85.6823C102.435 87.143 102.324 88.0524 102.131 88.08C101.939 88.1075 100.726 85.9028 96.0156 81.8516Z" fill="#7D7A7C"/>
<path d="M99.4041 84.7177C98.2747 83.45 97.338 82.4027 97.5308 82.1547C97.7237 81.9067 98.9909 82.6508 100.286 84.0012C101.581 85.3516 101.994 86.7571 101.718 86.9225C101.443 87.0879 100.561 85.9579 99.4041 84.7177Z" fill="#F9E6CF"/>
<path opacity="0.5" d="M108.385 67.9616C105.162 67.5758 102.159 67.438 99.9551 67.3002C98.7664 67.2958 97.5792 67.2129 96.4013 67.0522C97.5708 66.8059 98.7604 66.6675 99.9551 66.6388C102.159 66.501 105.162 66.3632 108.495 66.4734C111.589 66.4518 114.654 67.0613 117.504 68.2648C119.46 69.1742 119.983 70.3868 119.818 70.4695C119.652 70.5522 118.991 70.0286 117.063 69.5325C114.221 68.7608 111.317 68.2352 108.385 67.9616Z" fill="#7D7A7C"/>
<path d="M114.336 68.5679C112.104 68.0718 110.231 67.686 110.258 67.3828C111.681 66.9939 113.188 67.0419 114.584 67.5206C116.953 67.9891 118.633 69.2018 118.468 69.4498C117.067 69.2771 115.685 68.982 114.336 68.5679Z" fill="#F9E6CF"/>
<path opacity="0.5" d="M90.8365 47.7054C89.2662 49.8826 87.8061 51.8669 86.7042 53.2173C86.1559 54.0229 85.5383 54.7791 84.8584 55.4772C85.1845 54.5125 85.6189 53.588 86.1532 52.7212C87.0072 51.1503 88.2194 49.0007 89.5968 46.6857C92.8751 41.1738 95.1065 38.6384 95.5749 38.8588C96.0432 39.0793 94.8862 42.0833 90.8365 47.7054Z" fill="#7D7A7C"/>
<path d="M93.3985 43.4061C92.3517 45.0046 91.3048 46.1621 91.0569 46.0243C90.8089 45.8865 91.4425 44.4258 92.4894 42.8274C93.5362 41.2289 94.5831 40.0714 94.831 40.2092C95.079 40.347 94.4454 41.8077 93.3985 43.4061Z" fill="#F9E6CF"/>
<path opacity="0.5" d="M113.068 50.7645L102.269 55.4496L98.9358 56.8827C98.5386 57.0856 98.1236 57.2517 97.6961 57.3788C97.6961 57.3788 98.0818 57.0756 98.7981 56.6347L101.966 54.8433C104.721 53.3827 108.33 51.3984 112.462 49.3314C116.218 47.4191 120.148 45.8688 124.198 44.7014C126.953 43.9849 128.496 44.1227 128.496 44.3432C128.496 44.5636 127.339 44.8668 124.832 45.8589C122.325 46.8511 118.495 48.4771 113.068 50.7645Z" fill="#7D7A7C"/>
<path d="M120.81 47.2645C119.07 48.1205 117.213 48.7148 115.3 49.0283C116.856 47.7732 118.644 46.8367 120.562 46.2723C122.363 45.3602 124.355 44.8879 126.374 44.8944C124.621 45.9042 122.753 46.7 120.81 47.2645Z" fill="#F9E6CF"/>
<path opacity="0.5" d="M107.999 101.226C104.666 97.34 101.47 93.895 99.1562 91.3871L96.4013 88.3831C96.0528 88.0305 95.7305 87.6529 95.4371 87.2532C95.8611 87.5267 96.2578 87.8405 96.6217 88.1902L99.6245 90.9462C102.159 93.2887 105.575 96.4581 109.101 100.261C112.435 103.594 115.383 107.292 117.889 111.285C119.542 114.041 119.818 115.75 119.625 115.805C119.432 115.86 118.771 114.647 116.87 112.25C114.969 109.852 112.324 106.159 107.999 101.226Z" fill="#7D7A7C"/>
<path d="M114.308 108.364C112.812 106.695 111.535 104.843 110.506 102.852C112.348 104.14 113.928 105.768 115.162 107.647C116.699 109.298 117.839 111.277 118.495 113.435C116.963 111.862 115.563 110.166 114.308 108.364Z" fill="#F9E6CF"/>
<path opacity="0.5" d="M98.9634 107.895C96.9523 103.844 94.9137 100.234 93.4536 97.6156L91.6354 94.5013C91.3821 94.1303 91.1696 93.733 91.0018 93.3163C91.3265 93.6204 91.6133 93.9628 91.8558 94.336C92.3792 95.025 93.1506 95.9896 94.0046 97.2573C96.2839 100.464 98.3987 103.785 100.341 107.206C102.481 110.84 104.077 114.767 105.079 118.864C105.548 121.62 105.465 123.163 105.079 123.163C104.484 121.989 104.057 120.736 103.812 119.443C102.426 115.501 100.807 111.645 98.9634 107.895Z" fill="#7D7A7C"/>
<path d="M102.655 115.447C101.801 113.695 101.172 111.843 100.782 109.935C102.072 111.436 103.013 113.206 103.536 115.116C104.01 116.44 104.396 117.793 104.694 119.167C104.694 120.269 104.694 120.931 104.694 120.958C104.694 120.986 104.308 120.352 103.977 119.36C103.647 118.368 103.233 116.962 102.655 115.447Z" fill="#F9E6CF"/>
<path opacity="0.5" d="M97.5584 61.5403C93.8393 62.0914 90.7263 62.9734 90.6712 62.808C91.2474 62.4093 91.8665 62.0765 92.5169 61.8159C94.0883 61.1188 95.7089 60.5385 97.3655 60.0796C99.1428 59.4834 101.052 59.3974 102.875 59.8316C104.17 60.3001 104.528 61.0442 104.39 61.182C104.253 61.3198 103.729 61.182 102.738 61.182C101.004 61.1505 99.2711 61.2704 97.5584 61.5403Z" fill="#7D7A7C"/>
<path d="M100.947 60.9064C99.6521 60.9064 98.5226 60.9064 98.4675 60.6032C98.4124 60.3001 99.4868 59.8591 100.919 59.8316C102.352 59.804 103.674 60.4103 103.371 60.6859C103.068 60.9615 102.242 60.8237 100.947 60.9064Z" fill="#F9E6CF"/>
<path opacity="0.5" d="M100.892 37.5635L94.1699 45.8314L92.0762 48.2842C91.8227 48.6068 91.5365 48.9023 91.2222 49.1661C91.4005 48.8498 91.613 48.554 91.8558 48.2842L93.674 45.5282L99.7347 36.7092C105.492 28.4414 109.074 24.7484 109.404 24.9964C109.735 25.2445 107.559 29.213 100.892 37.5635Z" fill="#7D7A7C"/>
<path d="M105.355 31.2524C103.592 33.6225 101.966 35.3863 101.718 35.221C102.34 33.5195 103.275 31.9493 104.473 30.591C106.264 28.2209 107.889 26.4571 108.137 26.6224C107.524 28.3343 106.578 29.9079 105.355 31.2524Z" fill="#F9E6CF"/>
<path opacity="0.5" d="M93.1781 31.4729C90.864 36.1029 88.7152 40.347 87.1725 43.4613C86.3736 44.977 85.7124 46.2172 85.2716 47.0991C85.0422 47.5557 84.7846 47.9975 84.5002 48.422C84.6333 47.9301 84.8084 47.4506 85.0237 46.9889C85.3818 46.0794 85.9052 44.7565 86.5664 43.1857C87.9438 40.0163 89.7896 35.6068 91.8558 30.839C96.8421 19.3467 100.12 13.7522 100.534 13.9175C100.947 14.0829 99.1011 19.4845 93.1781 31.4729Z" fill="#7D7A7C"/>
<path d="M97.0625 22.6263C96.28 24.7382 95.1639 26.7108 93.7567 28.4689C94.1943 26.2533 94.9849 24.1224 96.0983 22.1578C96.8807 20.0374 97.9967 18.0557 99.4042 16.2876C98.9736 18.5139 98.1827 20.655 97.0625 22.6263Z" fill="#F9E6CF"/>
<path opacity="0.5" d="M105.162 76.6152C103.019 75.5567 100.81 74.6362 98.5501 73.8593C97.6077 73.5774 96.687 73.2274 95.7953 72.812C96.0699 72.7813 96.3471 72.7813 96.6217 72.812C97.3615 72.8844 98.0971 72.9947 98.8256 73.1428C101.223 73.6008 103.574 74.2741 105.851 75.1546C108.357 76.059 110.58 77.6084 112.297 79.6468C112.658 80.2314 112.98 80.839 113.261 81.4657C113.261 81.9342 113.261 82.1823 113.261 82.2374C110.857 79.9689 108.127 78.0738 105.162 76.6152Z" fill="#7D7A7C"/>
<path d="M109.625 78.9578C108.931 78.5069 108.268 78.0097 107.641 77.4696C107.09 77.0838 106.815 76.7806 106.87 76.6428C106.925 76.505 107.366 76.6428 107.999 76.8082C108.796 77.177 109.56 77.6102 110.286 78.1035C110.965 78.6653 111.567 79.3139 112.077 80.0326C112.407 80.6389 112.545 81.0523 112.435 81.135C112.325 81.2177 111.966 80.9697 111.526 80.5287C111.085 80.0878 110.313 79.6192 109.625 78.9578Z" fill="#F9E6CF"/>
<path opacity="0.5" d="M118.247 74.9892C113.564 73.942 109.211 73.1979 106.071 72.6743L102.297 72.0404C101.831 71.974 101.37 71.8727 100.919 71.7372C101.387 71.7012 101.857 71.7012 102.324 71.7372L106.126 72.0128C109.349 72.2884 113.757 72.7018 118.523 73.5286C122.947 74.1464 127.255 75.4189 131.306 77.3042C134.06 78.6822 134.942 80.0602 134.804 80.2531C134.667 80.446 133.647 79.5641 131.03 78.5995C126.865 77.0799 122.592 75.8731 118.247 74.9892Z" fill="#7D7A7C"/>
<path d="M126.925 76.946C124.897 76.489 122.934 75.7759 121.085 74.8239C123.194 74.7555 125.294 75.1213 127.256 75.8987C129.32 76.3627 131.223 77.3715 132.766 78.82C130.787 78.3013 128.837 77.6757 126.925 76.946Z" fill="#F9E6CF"/>
<path opacity="0.5" d="M91.2773 27.9453C89.3489 33.2918 87.5031 38.1974 86.0981 41.725C85.3818 43.4888 84.8033 44.9219 84.4176 45.914C84.2455 46.4482 84.0048 46.9577 83.7014 47.4298C83.8182 46.8891 83.9654 46.3555 84.1421 45.8314C84.4452 44.7841 84.9135 43.3234 85.4645 41.5045C86.6215 37.8667 88.2193 32.8784 89.8723 27.4768L94.6107 12.6222C95.0329 10.9031 95.6523 9.23847 96.4564 7.66153C96.9248 7.71665 96.3187 14.1104 91.2773 27.9453Z" fill="#7D7A7C"/>
<path d="M94.3627 17.7207C93.8061 20.1461 92.8768 22.4703 91.6078 24.6106C91.8763 22.1485 92.4596 19.7311 93.3434 17.4176C93.9038 15.0122 94.7452 12.6812 95.8504 10.4726C95.7809 12.957 95.2774 15.41 94.3627 17.7207Z" fill="#F9E6CF"/>
<path opacity="0.5" d="M106.319 86.0682C103.564 84.387 101.222 82.9539 99.4041 81.9342C98.3886 81.4134 97.4043 80.8337 96.4564 80.198C96.7601 80.2407 97.0566 80.3241 97.338 80.446C97.9165 80.6389 98.7154 80.9145 99.6796 81.3279C102.219 82.3414 104.694 83.5103 107.09 84.828C109.686 86.1994 112.033 87.9974 114.033 90.147C115.272 91.773 115.63 92.71 115.41 92.9029C115.19 93.0958 112.986 90.5052 106.319 86.0682Z" fill="#7D7A7C"/>
<path d="M111.14 89.2099C109.377 87.832 107.999 86.6469 108.165 86.454C108.33 86.2611 110.01 86.9776 111.801 88.3832C112.544 89.0152 113.235 89.7065 113.867 90.4501C114.308 91.1115 114.501 91.5525 114.391 91.6352C114.28 91.7178 113.867 91.4698 113.344 91.0013C112.82 90.5328 112.021 89.8989 111.14 89.2099Z" fill="#F9E6CF"/>
<path opacity="0.5" d="M124.501 62.0639C121.168 62.0639 118.082 62.4773 115.823 62.6978C114.609 62.8723 113.386 62.9735 112.159 63.0009C112.452 62.8417 112.768 62.73 113.096 62.6702L115.713 62.0363C118.586 61.3954 121.492 60.917 124.418 60.6032C127.555 60.1385 130.752 60.2694 133.84 60.9891C135.961 61.6229 136.788 62.5324 136.595 62.6702C136.402 62.808 135.603 62.6702 133.702 62.3119C130.647 61.9861 127.57 61.9031 124.501 62.0639Z" fill="#7D7A7C"/>
<path d="M130.755 61.7607C129.282 61.8504 127.806 61.6634 126.402 61.2095C127.792 60.6205 129.321 60.4389 130.81 60.6859C133.289 60.8237 135.218 61.6505 135.107 61.9536C133.654 62.0579 132.193 61.9932 130.755 61.7607Z" fill="#F9E6CF"/>
<path opacity="0.5" d="M120.617 55.6701L111.691 58.0402L108.936 58.7568C108.275 58.9221 107.917 59.0048 107.889 58.9497C108.195 58.7625 108.518 58.6056 108.853 58.4812L111.47 57.4063C113.702 56.5244 116.787 55.3945 120.176 54.2646C123.294 53.1627 126.515 52.3778 129.79 51.922C132.022 51.674 133.206 51.922 133.179 52.17C129.078 53.6286 124.881 54.7982 120.617 55.6701Z" fill="#7D7A7C"/>
<path d="M126.98 53.7961C125.503 54.3452 123.925 54.5707 122.352 54.4575C123.646 53.5481 125.138 52.9621 126.705 52.7488C128.204 52.2051 129.824 52.0813 131.388 52.3905C130.009 53.1043 128.518 53.5795 126.98 53.7961Z" fill="#F9E6CF"/>
<path opacity="0.5" d="M111.774 38.6659C108.55 40.9809 105.63 43.1857 103.509 44.7566L100.974 46.6582C100.674 46.9134 100.34 47.1266 99.9827 47.292C100.218 46.9797 100.486 46.6933 100.782 46.4377L103.096 44.2605C105.052 42.4416 107.779 40.0163 110.892 37.4809C113.696 35.0953 116.754 33.0252 120.011 31.3076C122.27 30.2052 123.675 30.1501 123.675 30.343C123.675 30.5359 122.793 31.0044 120.92 32.3273C119.046 33.6501 115.961 35.6895 111.774 38.6659Z" fill="#7D7A7C"/>
<path d="M117.669 34.1737C116.331 35.2891 114.8 36.1486 113.151 36.7092C112.986 36.4612 114.694 34.8627 117.063 33.2643C118.42 32.1287 120.056 31.377 121.801 31.0871C121.939 31.3627 120.011 32.5753 117.669 34.1737Z" fill="#F9E6CF"/>
<path opacity="0.5" d="M119.763 80.1153C116.457 78.7924 113.316 77.8279 111.002 77.1389L108.247 76.3397L107.256 75.9814C107.256 75.9814 107.641 75.9814 108.302 75.9814C108.964 75.9814 109.955 76.2019 111.057 76.3948C114.13 76.9521 117.167 77.6976 120.148 78.6271C123.419 79.5191 126.449 81.129 129.019 83.3398C130.7 84.9933 131.003 86.2611 130.782 86.3437C130.562 86.4264 129.983 85.6547 128.358 84.4697C125.683 82.6702 122.796 81.2077 119.763 80.1153Z" fill="#7D7A7C"/>
<path d="M125.878 82.6232C123.675 81.3555 121.801 80.446 121.939 80.1429C123.545 80.2122 125.096 80.7485 126.402 81.6862C128.716 82.9815 130.093 84.7729 129.818 84.9658C128.455 84.2726 127.139 83.49 125.878 82.6232Z" fill="#F9E6CF"/>
<path opacity="0.5" d="M106.705 95.8793C103.592 92.7927 100.561 90.1194 98.4399 88.1902L95.685 85.8752C95.3413 85.6167 95.0272 85.3209 94.7484 84.9933C95.1387 85.173 95.5082 85.3948 95.8503 85.6548C96.5391 86.1233 97.5308 86.7847 98.6052 87.6666C101.002 89.4029 104.115 91.8556 107.586 94.8045C110.747 97.4406 113.528 100.501 115.851 103.899C117.228 106.297 117.641 107.675 117.421 107.785C117.201 107.895 116.484 106.903 114.942 104.836C113.399 102.769 110.754 99.8479 106.705 95.8793Z" fill="#7D7A7C"/>
<path d="M112.572 101.584C110.506 99.2416 108.826 97.3124 109.046 97.0919C109.267 96.8715 111.278 98.4975 113.371 100.895C114.259 101.937 115.069 103.042 115.796 104.202C116.292 105.112 116.484 105.746 116.374 105.828C116.264 105.911 115.823 105.415 115.19 104.643C114.556 103.872 113.592 102.769 112.572 101.584Z" fill="#F9E6CF"/>
<path opacity="0.5" d="M99.1837 102.549C97.2553 99.2691 95.382 96.2927 94.0321 94.1155L92.4618 91.5249C92.2481 91.2165 92.0723 90.8834 91.9384 90.5328C92.2234 90.7726 92.4738 91.0508 92.6822 91.3596C93.1506 91.9383 93.8117 92.7375 94.5831 93.7297C96.1534 95.7691 98.2746 98.5801 100.423 101.749C105.933 109.356 106.87 114.427 106.429 114.509C105.988 114.592 104.308 110.982 99.1837 102.549Z" fill="#7D7A7C"/>
<path d="M103.041 108.529C102.073 107.167 101.372 105.633 100.974 104.009C101.222 103.844 102.6 105.608 103.977 108.005C104.956 109.391 105.563 111.004 105.74 112.691C105.437 112.801 104.39 110.872 103.041 108.529Z" fill="#F9E6CF"/>
<path opacity="0.5" d="M116.65 88.0249C113.895 86.454 111.333 85.2689 109.459 84.1941C108.408 83.7339 107.394 83.1901 106.429 82.5681C107.558 82.8148 108.663 83.1559 109.735 83.5878C112.324 84.4881 114.862 85.5277 117.338 86.702C120.054 87.8833 122.529 89.5556 124.639 91.6352C126.044 93.1234 126.237 94.3911 126.071 94.3911C125.906 94.3911 125.328 93.8399 123.895 92.7375C121.583 91.0137 119.163 89.4396 116.65 88.0249Z" fill="#7D7A7C"/>
<path d="M121.829 90.8359C119.983 89.5682 118.495 88.4934 118.661 88.08C118.826 87.6666 120.534 88.4934 122.435 89.8162C124.336 91.1391 125.465 92.71 125.19 92.9029C124.914 93.0958 123.647 92.0761 121.829 90.8359Z" fill="#F9E6CF"/>
<path opacity="0.5" d="M109.459 43.4888L101.195 49.1385L98.6603 50.8748C98.363 51.1053 98.0393 51.2996 97.6961 51.4535C97.9343 51.1604 98.202 50.8926 98.495 50.6543L100.782 48.6149C102.71 46.9338 105.437 44.6739 108.495 42.2762C111.281 40.0339 114.29 38.0852 117.476 36.4612C119.625 35.3864 120.92 35.221 120.975 35.4139C117.296 38.3262 113.451 41.0224 109.459 43.4888Z" fill="#7D7A7C"/>
<path d="M115.217 39.2446C112.931 40.7329 111.002 42.0006 110.809 41.6148C110.616 41.2289 112.325 39.8509 114.639 38.3352C115.95 37.2434 117.529 36.5205 119.212 36.2407C118.04 37.4387 116.693 38.4516 115.217 39.2446Z" fill="#F9E6CF"/>
<path opacity="0.5" d="M60.8634 118.781L64.4998 107.289L65.6293 103.761C65.7293 103.316 65.8965 102.888 66.1252 102.494C66.0833 102.948 66.0097 103.4 65.9048 103.844C65.712 104.698 65.464 105.938 65.1335 107.454C64.4447 110.486 63.4805 114.675 62.3786 119.195C59.6237 130.218 56.8688 135.482 56.4005 135.262C55.9322 135.041 57.3096 130.273 60.8634 118.781Z" fill="#7D7A7C"/>
<path d="M58.5769 127.187C59.0264 125.196 59.7889 123.289 60.8359 121.537C60.7835 123.58 60.3636 125.596 59.5962 127.49C59.1382 129.453 58.336 131.319 57.227 133.002C57.3429 131.001 57.7994 129.034 58.5769 127.187Z" fill="#F9E6CF"/>
<path opacity="0.5" d="M89.3213 23.0948C87.9714 27.339 86.5664 31.1697 85.5747 33.9532L84.3074 37.2604C84.1685 37.6702 83.9934 38.0668 83.784 38.4454C83.8291 38.0435 83.9122 37.6467 84.0319 37.2604L84.941 33.843C85.7124 31.087 86.7593 27.0358 87.8888 22.8192C89.2387 17.6656 90.2304 13.8073 90.9467 11.1065C91.1574 9.6795 91.5366 8.28259 92.0762 6.94498C92.269 6.94498 92.5721 8.21271 92.269 10.8584C91.6495 15.0163 90.6631 19.1111 89.3213 23.0948Z" fill="#7D7A7C"/>
<path d="M91.2773 15.0199C91.0129 16.9768 90.3368 18.8553 89.2938 20.5318C89.2967 18.6011 89.613 16.6837 90.2304 14.8545C90.5383 12.9529 91.094 11.0998 91.8833 9.34265C92.1164 11.2565 91.9091 13.1984 91.2773 15.0199Z" fill="#F9E6CF"/>
<path opacity="0.5" d="M102.875 39.7958C100.754 41.973 98.7981 43.9849 97.3655 45.3077C96.614 46.1195 95.8037 46.8748 94.9412 47.5676C95.4996 46.5927 96.1451 45.6702 96.8696 44.8117C98.1093 43.1856 99.8725 41.0085 101.801 38.6383C106.457 32.906 109.459 30.3705 109.762 30.7563C110.065 31.1422 108.192 34.1186 102.875 39.7958Z" fill="#7D7A7C"/>
<path d="M106.374 35.3863C104.914 37.0123 103.619 38.1423 103.344 38.0045C103.068 37.8667 104.115 36.3233 105.575 34.6698C107.035 33.0162 108.33 31.9138 108.578 32.0792C108.826 32.2445 107.807 33.7603 106.374 35.3863Z" fill="#F9E6CF"/>
<path opacity="0.5" d="M99.4317 32.5202L92.7373 42.1109L90.6436 45.0322C90.3904 45.3972 90.1046 45.7386 89.7896 46.0519C89.9532 45.6383 90.1562 45.2415 90.3957 44.8668L92.1864 41.7526C93.7566 39.162 95.8779 35.5793 98.192 31.7209C103.895 22.3783 107.503 17.9412 107.862 18.1893C108.22 18.4373 106.071 22.9019 99.4317 32.5202Z" fill="#7D7A7C"/>
<path d="M103.867 25.3271C102.913 27.0874 101.643 28.6569 100.12 29.9571C100.72 28.0699 101.653 26.3056 102.875 24.7484C103.786 22.9903 105.02 21.4196 106.512 20.1184C105.941 21.996 105.046 23.7589 103.867 25.3271Z" fill="#F9E6CF"/>
</g>
</g>
</svg>
