<svg width="162" height="165" viewBox="0 0 162 165" fill="none" xmlns="http://www.w3.org/2000/svg">
<g opacity="0.8">
<g style="mix-blend-mode:screen">
<path opacity="0.5" d="M88.2078 80.8554C89.2034 80.5575 90.2645 80.5575 91.2602 80.8554C90.5042 81.4829 89.6756 82.0173 88.7923 82.4472C87.2011 83.4217 86.0321 83.1294 85.8373 82.7071C85.6424 82.2848 86.1295 81.1803 88.2078 80.8554Z" fill="#7D7A7C"/>
<path d="M86.9089 81.6026C87.4284 81.3752 87.948 81.6026 88.0779 81.7975C88.2078 81.9924 87.883 82.5447 87.3635 82.7721C86.8439 82.9995 86.3244 82.7721 86.1945 82.5771C86.0646 82.3822 86.3568 81.7975 86.9089 81.6026Z" fill="#F9E6CF"/>
<path opacity="0.5" d="M90.3185 88.7818C90.6385 87.8531 90.7168 86.858 90.5458 85.8906C90.5458 85.111 89.9938 84.7212 90.0912 84.6562C90.1886 84.5912 90.7406 84.6562 91.2602 85.5333C91.8684 86.5734 92.1406 87.776 92.0395 88.9767C91.8447 92.2252 90.3185 93.4272 89.9288 93.2648C89.5391 93.1023 89.4093 91.608 90.3185 88.7818Z" fill="#7D7A7C"/>
<path d="M90.0587 90.9583C90.286 90.1462 90.7731 89.529 91.0653 89.5939C91.3576 89.6589 91.52 90.4385 91.2602 91.3156C91.0004 92.1927 90.4484 92.7775 90.1561 92.68C89.8639 92.5826 89.8639 91.8029 90.0587 90.9583Z" fill="#F9E6CF"/>
<path opacity="0.5" d="M83.6616 72.6367C84.4458 73.344 84.9714 74.2929 85.1554 75.333C85.3177 76.0477 85.3177 76.5349 85.1554 76.5349C84.993 76.5349 84.0513 74.8132 82.59 74.0986C81.1288 73.3839 79.8299 74.3259 79.5376 73.8062C79.2454 73.2864 79.5376 73.1565 79.9598 72.6367C80.3601 72.3275 80.8271 72.1162 81.3236 72.0195C81.7343 71.9305 82.1603 71.94 82.5667 72.0473C82.973 72.1546 83.3483 72.3566 83.6616 72.6367Z" fill="#7D7A7C"/>
<path d="M81.3236 72.3768C82.2653 72.3768 82.9472 72.7991 82.7849 73.0915C82.6225 73.3839 82.103 73.5138 81.5509 73.6113C80.9989 73.7087 80.3494 73.6113 80.1871 73.6113C80.0247 73.6113 80.317 72.6367 81.3236 72.3768Z" fill="#F9E6CF"/>
<path opacity="0.5" d="M75.6409 77.1847C76.4222 77.0106 77.2315 77.0046 78.0152 77.167C78.7989 77.3294 79.5392 77.6565 80.1871 78.1267C78.8213 78.2043 77.4696 78.4442 76.1605 78.8414C74.1147 79.9784 72.9132 80.9529 72.556 80.6606C72.1988 80.3682 72.2638 80.0433 72.556 79.3287C72.8757 78.762 73.3191 78.2748 73.8533 77.9036C74.3875 77.5323 74.9985 77.2866 75.6409 77.1847Z" fill="#7D7A7C"/>
<path d="M73.5627 78.549C74.342 77.9968 75.1213 77.8993 75.2837 78.2567C75.4461 78.614 74.959 79.1013 74.342 79.5561C73.725 80.0109 73.1405 80.3357 72.9132 80.1408C72.6859 79.9459 72.8807 79.1987 73.5627 78.549Z" fill="#F9E6CF"/>
<path opacity="0.5" d="M70.8675 87.9372C72.7152 86.8203 74.7509 86.0498 76.8749 85.6633C76.8749 85.6633 74.4394 87.32 71.8416 89.3991C68.5944 91.9004 67.4254 93.2648 67.0032 93.1348C66.5811 93.0049 66.646 92.4202 67.1656 91.4131C68.0299 89.9146 69.3178 88.7053 70.8675 87.9372Z" fill="#7D7A7C"/>
<path d="M68.3346 90.2112C69.2763 89.3341 70.2504 88.9442 70.4778 89.2366C70.7051 89.529 70.0556 90.3086 69.2113 91.1207C68.367 91.9329 67.6526 92.5501 67.3279 92.3552C67.0032 92.1603 67.4578 91.1207 68.3346 90.2112Z" fill="#F9E6CF"/>
<path opacity="0.5" d="M94.3126 74.0985C93.4304 75.1163 92.3168 75.9073 91.0654 76.405C91.564 75.2717 92.1617 74.1847 92.8514 73.1565C93.4034 72.117 93.5982 71.4997 93.7606 71.4997C93.923 71.4997 93.7606 71.2723 93.7606 71.0774C93.7047 70.9422 93.7047 70.7903 93.7606 70.6551C93.7606 70.6551 94.1827 69.9729 95.1244 70.6551C95.3251 70.9145 95.4546 71.2217 95.5001 71.5464C95.5457 71.8712 95.5057 72.2022 95.3842 72.5068C95.1434 73.1071 94.7782 73.6496 94.3126 74.0985Z" fill="#7D7A7C"/>
<path d="M95.1894 72.0845C94.8971 72.9616 94.2802 73.2864 94.0204 73.0915C93.7606 72.8966 93.7931 72.2794 94.0204 71.7596C93.9878 71.6538 93.9878 71.5406 94.0204 71.4348C93.9951 71.3723 93.9951 71.3024 94.0204 71.2399C94.0204 71.0774 94.0204 70.915 94.0204 70.7526C94.06 70.7049 94.1096 70.6665 94.1658 70.6401C94.2219 70.6138 94.2831 70.6001 94.3451 70.6001C94.4071 70.6001 94.4683 70.6138 94.5245 70.6401C94.5806 70.6665 94.6302 70.7049 94.6698 70.7526C94.8219 70.9253 94.9428 71.1231 95.027 71.3373C95.1151 71.5778 95.1698 71.8292 95.1894 72.0845Z" fill="#F9E6CF"/>
<path opacity="0.5" d="M87.0063 66.8868C86.8421 68.694 86.2643 70.4391 85.3178 71.987C85.1229 71.987 85.3178 69.5181 85.3178 66.8544C85.2983 65.7413 85.0783 64.6408 84.6683 63.6059C84.4924 63.3903 84.3501 63.1493 84.2462 62.8912C84.0838 62.7288 84.0189 62.5988 84.0513 62.4689C84.0838 62.3389 84.6034 61.9166 85.6425 62.4689C86.2556 63.0074 86.7075 63.7053 86.9483 64.4851C87.189 65.265 87.2091 66.0963 87.0063 66.8868Z" fill="#7D7A7C"/>
<path d="M86.3568 64.0281C86.8114 65.1651 86.3568 66.0422 86.1295 66.0747C85.9022 66.1072 85.5125 65.2626 85.1878 64.5154C84.8631 63.7683 84.8306 63.8332 84.7981 63.5084C84.7113 63.433 84.645 63.3369 84.6052 63.229C84.5655 63.1211 84.5536 63.0049 84.5708 62.8912C84.5708 62.7287 84.928 62.7287 85.3502 62.8912C85.7954 63.1566 86.1472 63.5539 86.3568 64.0281Z" fill="#F9E6CF"/>
<path opacity="0.5" d="M88.4351 65.62C88.9222 62.9237 89.3768 60.4548 89.7015 58.6032C89.8169 57.6117 90.0235 56.633 90.3185 55.6795C90.4955 56.6652 90.5501 57.669 90.4809 58.6681C90.4809 60.5198 90.4809 63.0861 90.1886 65.8473C89.6366 72.5068 88.2403 75.7878 87.7856 75.5929C87.331 75.398 87.1037 72.5393 88.4351 65.62Z" fill="#7D7A7C"/>
<path d="M87.8181 70.7201C88.1104 68.771 88.6299 67.2442 88.9547 67.2767C89.2794 67.3091 89.3768 68.9334 88.9547 70.915C88.5325 72.8966 88.0779 74.3909 87.7532 74.1635C87.4285 73.9361 87.8181 72.6367 87.8181 70.7201Z" fill="#F9E6CF"/>
<path opacity="0.5" d="M95.8388 59.3828C95.027 61.7217 94.1827 63.8008 93.5008 65.3276C93.1965 66.1795 92.7816 66.9877 92.2668 67.7315C92.1045 67.7315 93.1111 63.6708 94.1502 58.8955C94.6288 56.0117 95.3568 53.1748 96.3259 50.4169C96.5207 50.4169 97.0728 51.0341 97.1702 52.5934C97.1245 54.9168 96.6739 57.2143 95.8388 59.3828Z" fill="#7D7A7C"/>
<path d="M96.6831 54.8024C96.3584 56.5566 95.7089 58.0509 95.3517 57.791C94.9945 57.5311 95.1244 56.2642 95.3517 54.5425C95.579 52.8208 96.0012 51.5214 96.3584 51.5214C96.7156 51.5214 97.0403 53.0482 96.6831 54.8024Z" fill="#F9E6CF"/>
<path opacity="0.5" d="M70.3154 83.5192C72.2665 82.7583 74.3668 82.4581 76.4528 82.6421C76.4528 82.8371 73.79 83.5842 70.9974 85.111C67.7501 86.9627 66.159 88.0347 65.7368 87.7423C65.3147 87.4499 65.5745 86.9627 66.2564 86.1505C67.3121 84.8828 68.7275 83.9653 70.3154 83.5192Z" fill="#7D7A7C"/>
<path d="M67.6202 85.2734C68.6269 84.5263 69.666 84.4288 69.7959 84.7212C69.9258 85.0135 69.2114 85.6632 68.3021 86.3129C67.3929 86.9627 66.5486 87.385 66.2888 87.0926C66.0291 86.8002 66.5811 85.9556 67.6202 85.2734Z" fill="#F9E6CF"/>
<path opacity="0.5" d="M56.0275 74.4234C58.5866 74.6029 61.1213 75.0382 63.5936 75.7228C64.6537 75.9121 65.6814 76.2512 66.6461 76.7298C66.6461 76.9572 61.7427 76.0152 55.9951 76.1451C53.3946 76.2013 50.8012 76.4401 48.2341 76.8598C46.5131 77.1197 45.6039 77.3146 45.5064 77.0872C45.409 76.8598 45.9286 76.1451 47.6496 75.4629C50.3153 74.4365 53.1919 74.0795 56.0275 74.4234Z" fill="#7D7A7C"/>
<path d="M50.4423 74.9756C52.5854 74.6183 54.339 74.9756 54.339 75.2355C54.339 75.4954 52.6504 75.8852 50.6371 76.2101C48.6238 76.5349 47.0002 76.8923 46.8378 76.5024C46.6754 76.1126 48.2666 75.2355 50.4423 74.9756Z" fill="#F9E6CF"/>
<path opacity="0.5" d="M107.302 67.699L101.034 71.2074C100.194 71.7666 99.3023 72.2452 98.3717 72.6367C99.0343 71.8676 99.7866 71.1805 100.612 70.5902C102.041 69.3882 104.054 67.7964 106.327 66.2047C108.417 64.6704 110.742 63.4856 113.212 62.6963C114.965 62.1765 116.037 62.6963 115.972 62.6963C115.907 62.6963 113.471 64.1906 107.302 67.699Z" fill="#7D7A7C"/>
<path d="M111.588 64.9702C109.835 65.8473 108.341 66.432 108.146 66.1397C107.951 65.8473 109.218 64.7428 111.004 63.8332C112.79 62.9237 114.511 62.6638 114.608 63.0211C114.705 63.3784 113.309 64.0606 111.588 64.9702Z" fill="#F9E6CF"/>
<path opacity="0.5" d="M107.594 77.1197C104.347 77.1197 101.554 77.5745 101.521 77.3796C103.367 76.3407 105.396 75.6679 107.496 75.398C108.349 75.1656 109.246 75.1478 110.107 75.3462C110.968 75.5445 111.767 75.9529 112.432 76.5349C113.341 77.6394 112.919 78.4191 112.725 78.4191C112.53 78.4191 112.172 78.0293 111.523 77.7369C110.266 77.2768 108.931 77.0671 107.594 77.1197Z" fill="#7D7A7C"/>
<path d="M110.549 77.0872C109.542 76.8273 108.568 76.5674 108.568 76.2426C108.568 75.9177 109.575 75.5279 110.874 75.8527C112.173 76.1776 112.854 77.5095 112.497 77.6394C112.14 77.7694 111.491 77.3146 110.549 77.0872Z" fill="#F9E6CF"/>
<path opacity="0.5" d="M103.275 56.654C101.716 58.993 100.028 61.072 99.086 62.5663C98.5239 63.4148 97.8706 64.1991 97.1377 64.9053C97.4553 63.9404 97.8801 63.0142 98.4041 62.144C99.2809 60.4548 100.482 58.2133 101.651 55.647C104.964 49.8322 106.912 47.1684 107.302 47.1684C107.691 47.1684 107.302 50.6768 103.275 56.654Z" fill="#7D7A7C"/>
<path d="M105.678 52.0087C104.704 53.7629 103.632 55.0298 103.34 54.8349C103.048 54.64 103.6 53.1457 104.574 51.3915C105.548 49.6373 106.457 48.3703 106.782 48.5003C107.107 48.6302 106.652 50.4169 105.678 52.0087Z" fill="#F9E6CF"/>
<path opacity="0.5" d="M85.1554 48.1754C85.5775 51.4239 85.7723 54.6724 85.8698 56.8165C85.9632 58.0274 85.9632 59.2438 85.8698 60.4548C85.5098 59.2988 85.249 58.1142 85.0904 56.9139C84.6683 54.7049 84.1487 51.7163 83.4343 48.5003C82.59 44.6021 81.8756 41.7109 81.3236 39.7943C80.7716 37.8776 80.3819 37.0005 80.5767 36.8381C80.7716 36.6757 81.7133 37.1954 82.655 39.0471C84.0251 41.9166 84.8719 45.008 85.1554 48.1754Z" fill="#7D7A7C"/>
<path d="M83.5642 42.1007C84.2137 44.4396 84.2786 46.4212 83.9539 46.4862C83.6292 46.5512 82.9797 44.6995 82.3627 42.458C81.7458 40.2166 81.3236 38.4299 81.3236 38.235C81.3236 38.0401 82.9472 39.7618 83.5642 42.1007Z" fill="#F9E6CF"/>
<path opacity="0.5" d="M77.2321 92.1928C78.1255 90.9909 79.225 89.957 80.4793 89.1392C79.979 90.5379 79.3484 91.8866 78.5959 93.1673C78.1247 94.1175 77.5473 95.0111 76.8749 95.8311C76.4852 96.3509 76.063 96.6107 75.8357 96.5782C75.6084 96.5458 75.3811 96.091 75.4785 95.2788C75.7654 94.1073 76.3725 93.0387 77.2321 92.1928Z" fill="#7D7A7C"/>
<path d="M76.2254 94.2718C76.6475 93.4922 77.2645 93.0374 77.5568 93.2323C77.849 93.4272 77.7191 94.1419 77.3295 94.889C76.9398 95.6362 76.4202 96.091 76.128 95.9935C75.8357 95.8961 75.7708 95.0514 76.2254 94.2718Z" fill="#F9E6CF"/>
<path opacity="0.5" d="M65.0874 127.959L71.5819 114.672L73.5952 110.644C73.8319 110.139 74.1031 109.651 74.407 109.182C74.2951 109.731 74.1207 110.265 73.8874 110.774C73.5302 111.781 72.9782 113.243 72.2963 114.997C70.9 118.538 69.049 123.411 66.8409 128.674C61.6778 141.44 58.1382 147.645 57.7161 147.45C57.294 147.255 58.9501 141.375 65.0874 127.959Z" fill="#7D7A7C"/>
<path d="M61.1582 137.802C61.9569 135.449 63.1542 133.251 64.6977 131.305C64.2859 133.76 63.4742 136.13 62.2947 138.322C61.4995 140.669 60.3138 142.866 58.7877 144.819C59.1792 142.363 59.9806 139.991 61.1582 137.802Z" fill="#F9E6CF"/>
<path opacity="0.5" d="M58.5929 131.63L66.5811 117.823C67.6527 116.069 68.497 114.575 69.114 113.633C69.4132 113.101 69.7496 112.591 70.1206 112.106C69.929 112.677 69.6901 113.231 69.4062 113.763C68.9191 114.835 68.1723 116.329 67.2955 118.181L60.1191 132.442C53.3648 145.728 49.0135 152.193 48.5913 151.933C48.1692 151.673 50.702 145.403 58.5929 131.63Z" fill="#7D7A7C"/>
<path d="M53.3647 141.83C54.436 139.365 55.9061 137.093 57.7161 135.106C57.0169 137.705 55.9216 140.181 54.4688 142.447C53.3594 144.892 51.893 147.158 50.1175 149.172C50.7993 146.566 51.8958 144.087 53.3647 141.83Z" fill="#F9E6CF"/>
<path opacity="0.5" d="M51.8061 134.066C54.7286 129.713 57.4238 125.717 59.4696 122.859L61.905 119.61C62.4895 118.831 62.8143 118.376 62.8792 118.408C62.6863 118.896 62.4471 119.363 62.1648 119.805L60.119 123.411C58.333 126.465 55.9301 130.623 53.2673 135.138C46.7728 146.021 42.9735 151.381 42.454 151.088C41.9344 150.796 44.175 145.241 51.8061 134.066Z" fill="#7D7A7C"/>
<path d="M46.7728 142.48C47.8281 140.441 49.2352 138.604 50.9293 137.055C50.24 139.276 49.1383 141.348 47.6821 143.162C46.6849 145.222 45.3204 147.082 43.6555 148.652C44.2979 146.417 45.3555 144.323 46.7728 142.48Z" fill="#F9E6CF"/>
<path opacity="0.5" d="M55.3456 123.216L61.418 115.192C62.246 114.044 63.1577 112.958 64.1457 111.944C63.5539 113.232 62.8589 114.471 62.0674 115.647C60.736 117.888 58.8202 120.91 56.7744 124.223C51.7412 132.182 48.3965 135.755 47.9743 135.495C47.5522 135.236 49.2732 131.272 55.3456 123.216Z" fill="#7D7A7C"/>
<path d="M51.3515 129.356C52.9426 127.049 54.4364 125.36 54.5987 125.555C54.7611 125.75 53.8519 127.764 52.2607 130.07C50.6696 132.377 49.1758 134.066 49.0135 133.871C48.8511 133.676 49.7928 131.63 51.3515 129.356Z" fill="#F9E6CF"/>
<path opacity="0.5" d="M56.677 105.642C59.9242 103.01 62.8143 100.704 65.0224 99.1446C66.1775 98.1956 67.4043 97.3376 68.6918 96.5782C68.6918 96.5782 68.432 96.9356 67.88 97.4878L65.542 99.7293L57.846 107.038C50.6046 113.828 46.9028 117.174 46.5131 116.784C46.1234 116.394 48.429 112.398 56.677 105.642Z" fill="#7D7A7C"/>
<path d="M51.1566 111.067C53.2998 109.053 55.2482 107.656 55.5079 107.818C55.7677 107.981 54.1441 109.962 52.0983 112.139C50.0526 114.315 48.2016 115.712 47.9419 115.387C47.6821 115.062 49.0134 113.113 51.1566 111.067Z" fill="#F9E6CF"/>
<path opacity="0.5" d="M41.4473 123.638C45.8961 119.578 50.0526 115.939 53.105 113.341L56.7419 110.254C57.182 109.851 57.6605 109.492 58.1707 109.182C57.8219 109.67 57.4188 110.117 56.9692 110.514L53.722 113.925C50.8644 116.751 46.9352 120.65 42.7138 124.905C37.5615 130.038 33.6106 133.849 30.8613 136.34C28.1661 138.841 26.7373 140.076 26.5749 139.913C26.4126 139.751 29.9196 134.034 41.4473 123.638Z" fill="#7D7A7C"/>
<path d="M33.5241 131.63C35.2467 129.639 37.2877 127.949 39.564 126.627C38.1629 128.846 36.4204 130.831 34.4008 132.507C32.6917 134.485 30.7132 136.212 28.5233 137.639C29.8276 135.36 31.52 133.326 33.5241 131.63Z" fill="#F9E6CF"/>
<path opacity="0.5" d="M46.5131 125.133L55.3456 115.907L58.0733 113.178C58.3999 112.821 58.7586 112.495 59.1449 112.204C58.92 112.633 58.6477 113.036 58.3331 113.405L55.9301 116.427L47.9418 126.172C40.3433 135.268 35.7647 139.329 35.375 139.166C34.9853 139.004 37.8754 134.228 46.5131 125.133Z" fill="#7D7A7C"/>
<path d="M40.6355 132.052C42.9735 129.421 45.0518 127.472 45.3116 127.731C44.426 129.669 43.1682 131.413 41.6097 132.864C39.2717 135.495 37.1934 137.412 36.9337 137.185C37.8192 135.247 39.0771 133.503 40.6355 132.052Z" fill="#F9E6CF"/>
<path opacity="0.5" d="M43.2983 112.139C47.8444 108.565 52.0983 105.642 55.3456 103.335L59.0799 100.801C59.5163 100.448 59.9966 100.154 60.5087 99.9242C60.1292 100.336 59.7165 100.717 59.2747 101.061L55.8327 103.952L44.4998 113.373C33.8812 122.144 28.5233 126.659 28.2635 126.367C28.0037 126.075 31.4783 120.812 43.2983 112.139Z" fill="#7D7A7C"/>
<path d="M35.1802 118.928C36.9498 117.171 39.0167 115.741 41.285 114.705C41.5123 114.997 39.1093 117.271 35.992 119.903C34.239 121.645 32.2494 123.133 30.082 124.321C31.4273 122.218 33.1569 120.389 35.1802 118.928Z" fill="#F9E6CF"/>
<path opacity="0.5" d="M28.1011 101.678C33.6864 99.4045 38.9145 97.6178 42.7138 96.3509L47.2599 94.9215C47.8181 94.7236 48.3946 94.5821 48.981 94.4992C48.4675 94.7828 47.936 95.0324 47.3898 95.2464L43.006 97.098C39.3042 98.6573 34.2384 100.769 28.7831 103.27C22.2886 106.291 17.3203 108.695 14.138 110.449C12.587 111.455 10.9706 112.356 9.29955 113.146C9.10471 113.146 10.0464 111.489 13.0014 109.345C17.7231 106.217 22.7899 103.644 28.1011 101.678Z" fill="#7D7A7C"/>
<path d="M18.0022 106.649C20.2346 105.254 22.7157 104.306 25.3085 103.855C23.2383 105.437 20.9806 106.757 18.5867 107.786C16.3826 109.159 14.0431 110.302 11.6051 111.197C13.3818 109.234 15.5649 107.682 18.0022 106.649Z" fill="#F9E6CF"/>
<path opacity="0.5" d="M30.3093 107.168C34.7905 105.024 39.0119 103.238 42.0643 101.971L45.6038 100.509C46.0526 100.31 46.5204 100.158 47.0001 100.054C47.0001 100.054 46.578 100.379 45.7662 100.834L42.3566 102.685L31.0886 108.89C25.8605 111.781 21.8989 113.958 19.3011 115.387C18.038 116.278 16.6759 117.019 15.242 117.596C14.7874 117.109 18.6191 112.593 30.3093 107.168Z" fill="#7D7A7C"/>
<path d="M22.2236 111.846C24.0023 110.576 26.0262 109.691 28.1661 109.247C28.3609 109.572 25.9255 111.132 22.8731 112.918C21.1162 114.167 19.1922 115.162 17.1579 115.874C16.9306 115.582 19.1387 113.633 22.2236 111.846Z" fill="#F9E6CF"/>
<path opacity="0.5" d="M35.8621 108.11C39.499 106.226 42.8761 104.602 45.344 103.465L48.299 102.166C48.6619 101.985 49.0429 101.844 49.4356 101.743C49.1468 102.027 48.8187 102.268 48.4614 102.458L45.7012 104.18L36.7063 109.637C32.6017 112.463 28.2551 114.92 23.7173 116.979C23.3926 116.589 26.51 112.918 35.8621 108.11Z" fill="#7D7A7C"/>
<path d="M29.3675 112.139C31.8679 110.579 34.0436 109.67 34.2384 109.962C34.4333 110.254 32.4849 111.684 30.017 113.211C28.6123 114.301 27.0149 115.116 25.3085 115.614C25.1786 115.387 26.9646 113.763 29.3675 112.139Z" fill="#F9E6CF"/>
<path opacity="0.5" d="M30.6015 78.549C35.6023 78.549 40.1809 78.8739 43.5906 79.1987L47.5197 79.6535C48.0027 79.6978 48.4809 79.7847 48.9485 79.9134C48.4626 79.9616 47.9732 79.9616 47.4873 79.9134H43.4607C40.2134 79.9134 35.5698 79.9134 30.634 80.2382C26.1695 80.441 21.7225 80.9293 17.3203 81.7001C14.3978 82.2848 13.0014 82.9345 12.8391 82.6746C12.6767 82.4147 13.7158 81.3752 16.6059 80.3357C21.1417 78.9767 25.87 78.3731 30.6015 78.549Z" fill="#7D7A7C"/>
<path d="M21.2819 79.6535C23.4169 79.1453 25.6414 79.1453 27.7764 79.6535C25.741 80.3857 23.6055 80.802 21.4443 80.8879C19.3622 81.3652 17.2443 81.6695 15.1121 81.7975C14.9497 81.3102 17.6774 80.0758 21.2819 79.6535Z" fill="#F9E6CF"/>
<path opacity="0.5" d="M39.1093 84.1689C42.6813 83.8116 45.961 83.6817 48.3315 83.6817C49.6327 83.6311 50.9358 83.6854 52.2282 83.8441C50.9721 84.1646 49.6897 84.3712 48.3965 84.4613C46.0585 84.7861 42.8112 85.2409 39.3691 85.8906C35.1802 86.7028 32.0628 87.4499 30.0495 88.0671C28.0362 88.6844 27.062 89.2041 26.8023 89.0092C26.5425 88.8143 27.2244 87.8398 29.1727 86.7677C32.2873 85.2708 35.661 84.3884 39.1093 84.1689Z" fill="#7D7A7C"/>
<path d="M32.6148 85.7607C35.1152 85.0785 37.2259 85.046 37.2908 85.3709C37.3558 85.6957 35.3425 86.313 32.9395 86.9951C31.515 87.5561 30.0163 87.9063 28.4908 88.0347C28.2635 87.6773 30.082 86.4429 32.6148 85.7607Z" fill="#F9E6CF"/>
<path opacity="0.5" d="M65.8342 71.9545C67.6847 72.3546 69.5071 72.8755 71.2896 73.5138C72.0519 73.7484 72.7826 74.0757 73.4652 74.4884C73.4652 74.6833 69.8283 74.0336 65.5744 73.6763C62.9887 73.7025 60.4049 73.5287 57.8459 73.1565C57.8459 72.8966 58.2031 72.4093 59.567 71.9221C61.6293 71.4376 63.777 71.4487 65.8342 71.9545Z" fill="#7D7A7C"/>
<path d="M61.8401 71.8896C63.4313 71.8896 64.6652 72.3444 64.6327 72.6692C64.6003 72.9941 63.3338 73.124 61.8401 73.1565C60.3464 73.189 59.1449 73.1565 59.0475 72.7991C58.95 72.4418 60.0541 71.8896 61.8401 71.8896Z" fill="#F9E6CF"/>
<path opacity="0.5" d="M54.3389 61.8192C56.799 62.6417 59.1882 63.6629 61.4829 64.8728C62.4611 65.3346 63.3866 65.901 64.243 66.562C63.1901 66.3353 62.1582 66.0201 61.1582 65.6199C58.7851 64.7561 56.3679 64.0187 53.9168 63.4109C50.4685 62.7592 46.9697 62.4114 43.4606 62.3714C43.4606 62.3714 43.4606 62.0466 43.9152 61.7217C44.5283 61.4114 45.1699 61.1612 45.8311 60.9746C48.692 60.5032 51.6265 60.7946 54.3389 61.8192Z" fill="#7D7A7C"/>
<path d="M48.8511 61.1045C51.0268 61.2994 52.6829 61.9166 52.6179 62.3065C52.553 62.6963 50.8319 62.5339 48.7861 62.3065C47.7795 62.3065 46.8378 62.3065 46.1559 62.3065C45.474 62.3065 45.0518 62.3065 45.0193 62.0466C44.9869 61.7867 45.3765 61.6568 46.0585 61.3969C46.9733 61.1823 47.9116 61.0841 48.8511 61.1045Z" fill="#F9E6CF"/>
<path opacity="0.5" d="M45.1817 65.6524C48.1653 66.4199 51.0943 67.3858 53.9493 68.5436C55.1511 68.9861 56.3135 69.5295 57.4238 70.1678C56.1551 69.9891 54.9052 69.6955 53.6895 69.2907C51.4164 68.7385 48.2666 67.8939 44.8245 67.3741C41.7357 66.8265 38.6088 66.5223 35.4724 66.4645C34.3969 66.6369 33.3007 66.6369 32.2252 66.4645C32.2252 66.1722 32.9071 65.5549 35.0827 64.9377C38.4608 64.4352 41.908 64.6792 45.1817 65.6524Z" fill="#7D7A7C"/>
<path d="M38.4924 65.0027C41.0902 65.0027 43.071 65.8148 43.006 66.1397C42.9411 66.4645 40.9278 66.3671 38.4599 66.1397C37.2259 66.1397 36.1219 66.1397 35.2126 66.1397C34.3034 66.1397 33.9137 66.1397 33.8488 65.9448C33.7838 65.7499 34.3034 65.49 35.1152 65.2301C36.2296 65.0344 37.3618 64.9582 38.4924 65.0027Z" fill="#F9E6CF"/>
<path opacity="0.5" d="M26.4126 69.5506C31.9979 70.4602 37.0961 71.5647 40.733 72.4743C42.5839 72.8966 43.9802 73.2864 45.0843 73.5788C45.634 73.686 46.1684 73.8606 46.6755 74.0986C46.1189 74.0811 45.5648 74.0158 45.0194 73.9036L40.6031 73.1565C36.8687 72.6042 31.7706 71.8246 26.1853 71.2399C21.1195 70.6278 16.0252 70.2808 10.9232 70.2003C9.1926 70.294 7.4582 70.294 5.7276 70.2003C5.7276 70.0054 7.05897 69.0634 10.4686 68.6086C15.8011 68.1749 21.1681 68.492 26.4126 69.5506Z" fill="#7D7A7C"/>
<path d="M15.8265 68.8359C18.2993 68.6838 20.7765 69.0489 23.1004 69.908C20.6762 70.2401 18.2182 70.2401 15.794 69.908C13.373 70.0928 10.9413 70.0928 8.5202 69.908C10.8117 68.8885 13.3389 68.5177 15.8265 68.8359Z" fill="#F9E6CF"/>
<path opacity="0.5" d="M76.4203 67.5366C77.4726 68.1938 78.3611 69.0826 79.0181 70.1354C79.5377 70.915 79.7325 71.4673 79.6675 71.4997C78.4092 70.5828 77.0727 69.7784 75.6734 69.0959C74.7475 68.7679 73.7612 68.646 72.7834 68.7385C72.0365 68.7385 71.5819 68.7385 71.452 68.5761C71.3221 68.4137 71.452 67.7964 72.1989 67.3417C72.8467 66.9645 73.5895 66.7824 74.3383 66.8169C75.087 66.8515 75.8099 67.1014 76.4203 67.5366Z" fill="#7D7A7C"/>
<path d="M73.6276 67.1792C74.7641 67.1792 75.4785 67.7315 75.3486 67.9914C75.2188 68.2512 74.5044 68.3162 73.6925 68.4137C72.8807 68.5111 72.1663 68.4137 72.004 68.2188C71.8416 68.0238 72.5235 67.2442 73.6276 67.1792Z" fill="#F9E6CF"/>
<path opacity="0.5" d="M76.9073 56.654C78.1324 58.9379 79.1434 61.3304 79.9273 63.8008C80.3433 64.84 80.6058 65.9343 80.7066 67.0493C80.5118 67.0493 78.6609 62.5014 75.4136 57.6936C74.0506 55.5316 72.3389 53.6106 70.3479 52.0087C69.0165 51.0016 68.1073 50.7742 68.1398 50.5144C68.1722 50.2545 69.0815 49.8971 70.8999 50.5144C73.5403 51.8203 75.6587 53.9853 76.9073 56.654Z" fill="#7D7A7C"/>
<path d="M73.2055 52.3335C74.7966 53.8603 75.511 55.582 75.2512 55.582C74.9914 55.582 73.79 54.51 72.3287 53.1132C70.8674 51.7163 69.4711 50.9367 69.5685 50.6118C69.666 50.287 71.5818 50.7417 73.2055 52.3335Z" fill="#F9E6CF"/>
<path opacity="0.5" d="M108.341 88.9767C103.957 86.3779 99.6706 85.1435 99.7355 84.9161C100.7 84.9275 101.66 85.0585 102.593 85.3059C104.83 85.7783 107.009 86.4974 109.088 87.4499C111.478 88.4246 113.461 90.1906 114.705 92.4526C114.962 93.0544 115.137 93.6882 115.225 94.3368C115.225 94.824 115.225 95.0514 114.965 95.0839C114.705 95.1164 114.381 94.4992 113.471 93.3622C112.029 91.6129 110.293 90.1289 108.341 88.9767Z" fill="#7D7A7C"/>
<path d="M112.27 91.5106C111.62 90.8934 111.003 90.3411 110.614 89.8863C110.224 89.4315 109.932 89.1392 110.029 88.9767C110.127 88.8143 110.549 88.9767 111.133 89.1392C111.852 89.5568 112.527 90.0466 113.147 90.601C114.575 92.0628 114.933 93.8495 114.608 93.8495C114.283 93.8495 113.504 92.6475 112.27 91.5106Z" fill="#F9E6CF"/>
<path opacity="0.5" d="M98.3067 93.0049C98.1185 91.5373 97.6907 90.1106 97.0403 88.7818C97.7823 89.1793 98.4321 89.7291 98.9469 90.3953C99.4618 91.0615 99.8301 91.829 100.028 92.6475C101.002 95.896 99.6056 97.5528 99.2159 97.4228C98.8263 97.2929 98.4366 95.896 98.3067 93.0049Z" fill="#7D7A7C"/>
<path d="M98.7614 95.1489C98.7614 94.3043 98.7614 93.5896 99.2809 93.5247C99.8005 93.4597 100.06 94.2068 100.028 95.1489C99.9953 96.091 99.6381 96.8057 99.2809 96.7732C98.9237 96.7407 98.7614 95.8961 98.7614 95.1489Z" fill="#F9E6CF"/>
<path opacity="0.5" d="M92.1694 105.252C92.0491 102.356 91.6797 99.4757 91.0654 96.6432C91.6039 97.3438 92.011 98.1363 92.2669 98.9822C93.0823 100.967 93.6179 103.055 93.858 105.187C94.1274 107.474 93.8377 109.793 93.0137 111.944C92.4292 113.406 91.7798 113.958 91.5849 113.893C91.3901 113.828 91.8772 111.197 92.1694 105.252Z" fill="#7D7A7C"/>
<path d="M92.1694 109.605C92.3967 107.948 92.7215 106.616 93.0462 106.616C93.3709 106.616 93.6632 108.045 93.4034 109.865C93.1436 111.684 92.4292 112.951 92.072 112.821C91.7148 112.691 91.8122 111.229 92.1694 109.605Z" fill="#F9E6CF"/>
<path opacity="0.5" d="M71.1922 122.761L75.9007 112.333C76.5502 111.034 77.0697 109.93 77.4269 109.085C77.7841 108.24 78.0114 107.916 78.0764 107.948C78 108.378 77.8915 108.801 77.7517 109.215L76.6476 112.463C75.6409 115.29 74.2771 118.96 72.8158 123.248C69.1464 133.319 66.3213 138.159 65.9317 137.964C65.542 137.769 66.5486 133.189 71.1922 122.761Z" fill="#7D7A7C"/>
<path d="M68.3346 130.493C68.8788 128.631 69.8081 126.904 71.0623 125.425C70.9589 127.369 70.4266 129.266 69.5036 130.98C68.9745 132.848 68.0435 134.578 66.7759 136.048C66.9015 134.107 67.4325 132.215 68.3346 130.493Z" fill="#F9E6CF"/>
<path opacity="0.5" d="M80.5443 124.613C81.1937 120.942 81.7458 117.531 82.1679 115.03C82.3494 113.679 82.6316 112.343 83.0122 111.034C83.1024 112.397 83.1024 113.764 83.0122 115.127C82.8498 117.629 82.6875 121.072 82.3303 124.873C81.5834 133.969 79.7325 138.517 79.2454 138.354C78.7583 138.192 78.9856 134.131 80.5443 124.613Z" fill="#7D7A7C"/>
<path d="M79.8299 131.63C80.2845 128.998 80.7716 126.854 81.1288 126.887C81.5692 128.503 81.5692 130.208 81.1288 131.825C80.7066 134.456 80.0897 136.567 79.7 136.502C79.38 134.889 79.4244 133.224 79.8299 131.63Z" fill="#F9E6CF"/>
<path opacity="0.5" d="M84.2461 139.069C84.6358 132.929 85.0255 127.309 85.2852 123.184C85.4476 121.137 85.5775 119.448 85.6424 118.278C85.6472 117.676 85.7235 117.076 85.8698 116.492C85.9027 117.098 85.9027 117.705 85.8698 118.311C85.8698 119.48 85.8698 121.137 85.8698 123.184C85.8698 127.309 85.8698 132.929 85.8698 139.134C85.6424 154.077 83.6941 161.873 83.1745 161.646C82.655 161.419 83.207 154.921 84.2461 139.069Z" fill="#7D7A7C"/>
<path d="M83.824 150.568C83.8049 147.887 84.1768 145.216 84.9281 142.642C85.4252 145.278 85.4801 147.979 85.0905 150.633C85.1046 153.332 84.6542 156.014 83.7591 158.56C83.415 155.906 83.4368 153.217 83.824 150.568Z" fill="#F9E6CF"/>
<path opacity="0.5" d="M87.5908 121.884C88.0779 118.278 88.4351 114.932 88.565 112.463C88.6063 111.126 88.7255 109.792 88.9222 108.468C89.0236 108.818 89.0889 109.177 89.117 109.54C89.117 110.222 89.2794 111.229 89.3443 112.463C89.561 115.708 89.561 118.964 89.3443 122.209C89.1793 125.669 88.3871 129.07 87.0063 132.247C86.5636 133.022 86.0757 133.771 85.545 134.488C85.1554 134.943 84.8306 135.073 84.7332 135.008C84.6358 134.943 86.1295 131.272 87.5908 121.884Z" fill="#7D7A7C"/>
<path d="M86.6491 128.706C86.8513 127.119 87.3585 125.585 88.1428 124.191C88.5325 124.191 88.4675 126.4 87.8506 129.031C87.5295 130.146 87.1167 131.232 86.6166 132.279C86.1295 133.059 85.7399 133.481 85.61 133.384C85.4801 133.286 85.61 132.767 85.7723 131.955C85.9347 131.142 86.2269 129.94 86.6491 128.706Z" fill="#F9E6CF"/>
<path opacity="0.5" d="M98.5015 105.284C97.917 102.393 97.2676 99.7618 96.7805 97.8452L96.131 95.6037C96.0914 95.3127 96.0914 95.0176 96.131 94.7266C96.7613 95.6148 97.2844 96.5743 97.6897 97.5853C98.717 99.9574 99.6061 102.387 100.352 104.862C102.398 111.814 102.138 115.679 101.716 115.744C101.294 115.809 99.8979 112.756 98.5015 105.284Z" fill="#7D7A7C"/>
<path d="M99.9304 110.612C99.4758 108.533 99.4108 106.811 99.7355 106.714C100.06 106.616 100.71 108.273 101.164 110.352C101.619 112.431 101.586 114.218 101.164 114.25C100.742 114.283 100.385 112.691 99.9304 110.612Z" fill="#F9E6CF"/>
<path opacity="0.5" d="M92.8839 141.375C92.6565 136.697 92.4292 132.344 92.2669 129.161C92.2669 127.602 92.2669 126.302 92.1045 125.425C92.0618 124.96 92.0618 124.493 92.1045 124.028C92.2835 124.452 92.3931 124.902 92.4292 125.36C92.4292 126.27 92.7864 127.537 93.0462 129.096C93.5333 132.344 94.1503 136.535 94.6374 141.245C95.9363 152.713 94.6374 158.787 94.0204 158.69C93.4034 158.592 93.4684 153.492 92.8839 141.375Z" fill="#7D7A7C"/>
<path d="M93.5982 150.114C93.3253 148.063 93.4466 145.979 93.9554 143.974C94.7079 145.917 95.0185 148.003 94.8646 150.081C95.197 152.142 95.0071 154.253 94.3126 156.221C93.748 154.237 93.5068 152.175 93.5982 150.114Z" fill="#F9E6CF"/>
<path opacity="0.5" d="M71.8092 24.4288C73.4977 30.1462 74.8291 35.4413 75.7384 39.307C76.193 41.2236 76.5502 42.8154 76.7775 43.9199C76.9458 44.4794 77.044 45.0578 77.0697 45.6416C76.8191 45.0848 76.6128 44.5091 76.4527 43.9199L74.9915 39.4694C73.7575 35.6687 72.1014 30.5035 70.1531 24.8836C67.7826 18.1267 65.9316 13.0265 64.5678 9.71305C63.7662 8.0706 63.072 6.37781 62.4896 4.64537C62.6519 4.45046 64.0482 5.55496 65.7368 8.7385C68.3248 13.7324 70.3609 18.9935 71.8092 24.4288Z" fill="#7D7A7C"/>
<path d="M67.88 13.8711C69.0195 16.2131 69.7132 18.7468 69.9257 21.3427C68.53 19.1621 67.4375 16.8015 66.6785 14.3259C65.5899 11.997 64.7202 9.57185 64.0807 7.08176C65.856 9.0197 67.1567 11.344 67.88 13.8711Z" fill="#F9E6CF"/>
<path opacity="0.5" d="M65.3471 57.4662C66.9899 58.9585 68.4901 60.6006 69.8283 62.3714C70.4331 63.0839 70.9459 63.8697 71.3545 64.7103C71.1922 64.7103 68.2696 61.7217 64.2755 58.8305C62.5579 57.5213 60.6386 56.5009 58.5928 55.8094C57.2615 55.4521 56.4821 55.582 56.3847 55.3221C56.2873 55.0623 56.8393 54.3476 58.5928 54.2826C61.1624 54.4639 63.5714 55.5994 65.3471 57.4662Z" fill="#7D7A7C"/>
<path d="M61.0608 55.0623C62.8468 55.8094 63.8534 57.0114 63.6586 57.2712C63.4638 57.5311 62.1324 56.8814 60.5737 56.2317C59.015 55.582 57.7161 55.3871 57.6512 55.0298C57.5862 54.6724 59.2748 54.2501 61.0608 55.0623Z" fill="#F9E6CF"/>
<path opacity="0.5" d="M30.569 59.5127C37.0635 61.8192 43.071 64.1906 47.3898 66.0097L52.4555 68.1862C53.09 68.4524 53.7081 68.7561 54.3065 69.0958C53.6314 68.955 52.9689 68.7595 52.3256 68.5111L47.0976 66.6594C42.7138 65.1651 36.6414 63.1186 30.017 61.1045C21.9638 58.6789 15.8698 56.9789 11.735 56.0043C9.62036 55.6619 7.52769 55.1955 5.46777 54.6075C5.46777 54.3801 7.41613 53.9253 11.6051 54.6075C18.0768 55.5927 24.431 57.2363 30.569 59.5127Z" fill="#7D7A7C"/>
<path d="M17.9697 56.0043C20.9651 56.6114 23.8397 57.709 26.4775 59.2529C23.4748 58.9143 20.5216 58.2275 17.6775 57.2063C14.7232 56.6272 11.8147 55.8346 8.97485 54.8349C12.0219 54.5911 15.0862 54.9895 17.9697 56.0043Z" fill="#F9E6CF"/>
<path opacity="0.5" d="M30.4392 66.1397C36.4141 67.6665 41.8046 69.3882 45.7013 70.6226L50.3448 72.1819C50.913 72.355 51.4667 72.5722 52.0009 72.8316C51.4075 72.7787 50.8204 72.6699 50.2474 72.5068L45.6039 71.3698C41.6097 70.4277 36.1219 69.0958 30.1469 67.8289C22.9056 66.3021 17.4177 65.2301 13.7158 64.5804C11.8243 64.4444 9.94606 64.162 8.09808 63.7358C8.09808 63.5084 9.75418 62.9237 13.4885 63.0211C19.2338 63.4528 24.9163 64.4983 30.4392 66.1397Z" fill="#7D7A7C"/>
<path d="M19.1063 64.0282C21.7867 64.2572 24.3987 64.9959 26.8023 66.2047C24.1445 66.2296 21.4939 65.9241 18.9114 65.2951C16.2709 65.0364 13.6611 64.5251 11.118 63.7683C13.7682 63.275 16.4938 63.3637 19.1063 64.0282Z" fill="#F9E6CF"/>
<path opacity="0.5" d="M42.9411 54.575C47.2599 56.6865 51.1242 58.863 53.8519 60.5198C55.2157 61.3319 56.3198 62.0141 57.0991 62.5339C57.5011 62.7706 57.8814 63.0423 58.2356 63.346C57.7866 63.2161 57.3515 63.042 56.9368 62.8262L53.4947 61.202C50.6046 59.8376 46.6105 57.9535 42.2267 56.1668C38.248 54.4906 34.1832 53.0267 30.0495 51.7813C28.5929 51.549 27.1663 51.1569 25.7956 50.6118C25.7956 50.4169 27.127 49.8971 30.0495 50.2545C34.5482 51.0031 38.8995 52.4615 42.9411 54.575Z" fill="#7D7A7C"/>
<path d="M34.4333 51.5214C36.5029 51.9699 38.4314 52.9179 40.051 54.2826C37.9799 54.0771 35.9533 53.5511 34.0436 52.7233C32.0291 52.2623 30.0696 51.5871 28.1985 50.7093C30.3117 50.3845 32.4737 50.6661 34.4333 51.5214Z" fill="#F9E6CF"/>
<path opacity="0.5" d="M115.55 83.9416C110.679 82.7071 106.36 82.2199 106.392 82.0249C107.309 81.8258 108.25 81.7602 109.185 81.83C111.421 81.7893 113.658 81.9196 115.874 82.2199C118.335 82.4534 120.689 83.3393 122.694 84.7862C124.025 85.9232 124.187 86.9302 123.96 87.0277C121.258 85.7417 118.442 84.7086 115.55 83.9416Z" fill="#7D7A7C"/>
<path d="M120.063 84.9811C118.44 84.3314 117.043 83.7466 117.141 83.3893C117.238 83.032 118.764 83.0969 120.388 83.8116C122.012 84.5263 123.278 85.7932 122.986 86.0531C122.694 86.313 121.687 85.5983 120.063 84.9811Z" fill="#F9E6CF"/>
<path opacity="0.5" d="M97.5598 47.4283C96.4233 51.7813 95.2218 55.712 94.3126 58.5382L93.1436 61.7867C93.0126 62.2043 92.8385 62.6071 92.624 62.9886C92.6426 62.5498 92.7079 62.1142 92.8189 61.6892C92.9812 60.8446 93.241 59.6752 93.5333 58.2133C94.1827 55.2897 95.0595 51.294 95.9037 46.9085C96.9104 41.6134 97.6248 37.6502 98.0469 34.9865C98.1488 33.6099 98.3992 32.2485 98.7938 30.9258C99.0536 30.9258 99.6056 32.0953 99.6381 34.8565C99.4789 39.1181 98.7806 43.3423 97.5598 47.4283Z" fill="#7D7A7C"/>
<path d="M99.0212 39.1446C98.9166 41.1115 98.3492 43.026 97.3651 44.732C97.1361 42.7953 97.2794 40.8326 97.7872 38.9497C97.8995 37.0186 98.2933 35.1143 98.9562 33.2972C99.5278 35.2014 99.5503 37.2282 99.0212 39.1446Z" fill="#F9E6CF"/>
<path opacity="0.5" d="M125.356 45.2842C121.525 48.7926 118.018 52.0411 115.452 54.445C114.186 55.582 113.114 56.5241 112.4 57.2063C112.028 57.5554 111.626 57.8707 111.198 58.1484C111.46 57.6992 111.776 57.2845 112.14 56.9139L114.9 53.8603C117.303 51.294 120.55 47.7856 124.122 44.1148C132.793 34.954 137.923 30.8933 138.248 31.1207C138.573 31.3481 135.131 36.0585 125.356 45.2842Z" fill="#7D7A7C"/>
<path d="M132.078 38.235C130.589 39.9833 128.796 41.4471 126.785 42.5555C126.525 42.2956 128.474 39.9892 131.104 37.3579C132.623 35.5883 134.463 34.1223 136.527 33.0374C135.378 35.03 133.869 36.7923 132.078 38.235Z" fill="#F9E6CF"/>
<path opacity="0.5" d="M131.494 56.2967L118.7 62.7937L114.77 64.8403C114.3 65.1229 113.798 65.3517 113.277 65.5225C113.692 65.1605 114.137 64.8345 114.608 64.5479L118.31 62.144C121.557 60.1299 125.811 57.4337 130.682 54.64C135.08 52.0049 139.697 49.7551 144.483 47.9155C147.73 46.7136 149.613 46.6161 149.646 46.8435C149.678 47.0709 148.314 47.6881 145.392 49.15L131.494 56.2967Z" fill="#7D7A7C"/>
<path d="M140.618 51.3265C138.529 52.5711 136.262 53.4912 133.897 54.0552C135.683 52.3788 137.779 51.0659 140.066 50.1895C142.166 48.9228 144.514 48.125 146.951 47.8506C145.001 49.282 142.872 50.4507 140.618 51.3265Z" fill="#F9E6CF"/>
<path opacity="0.5" d="M63.1715 51.294C65.3922 53.7415 67.4737 56.3119 69.4062 58.993C70.2292 60.0759 70.9571 61.228 71.5819 62.4364C70.533 61.5278 69.5559 60.5395 68.6593 59.4802C66.9383 57.6611 64.5353 55.1272 61.8076 52.5284C59.3772 50.1471 56.8073 47.9125 54.1117 45.8365C52.3257 44.4721 51.2541 44.0173 51.319 43.7574C51.384 43.4976 52.553 43.3676 54.5663 44.4071C57.8453 46.1361 60.7656 48.4732 63.1715 51.294Z" fill="#7D7A7C"/>
<path d="M57.7486 46.6161C59.8917 48.3378 61.2556 50.1245 60.9958 50.3519C60.736 50.5793 59.015 49.2799 56.9367 47.5907C54.8585 45.9015 53.0725 44.6995 53.2024 44.3422C53.3323 43.9848 55.6054 44.8295 57.7486 46.6161Z" fill="#F9E6CF"/>
<path opacity="0.5" d="M33.1019 42.2631C38.5573 45.5117 43.3308 48.7602 46.7404 51.1965C48.4614 52.3985 49.9876 53.4055 50.767 54.1527C51.2792 54.4964 51.7576 54.888 52.1958 55.3222C51.6273 55.0704 51.0837 54.7659 50.5721 54.4126L46.3182 51.8462C42.7138 49.6697 37.778 46.7136 32.2576 43.9199C27.2837 41.128 22.1434 38.6437 16.8657 36.4808C14.9947 35.9343 13.1704 35.2391 11.4103 34.4017C11.4103 34.1743 13.2287 33.9794 16.9631 34.9215C22.6564 36.6099 28.0878 39.0806 33.1019 42.2631Z" fill="#7D7A7C"/>
<path d="M22.4509 37.1305C25.0585 38.0427 27.4631 39.4552 29.53 41.2886C26.9017 40.586 24.3629 39.5832 21.9639 38.2999C19.4106 37.3966 16.9255 36.311 14.5276 35.0514C17.2949 35.115 20.0087 35.8271 22.4509 37.1305Z" fill="#F9E6CF"/>
<path opacity="0.5" d="M71.5819 44.9919C73.2409 47.7839 74.7161 50.6813 75.9981 53.6654C76.6184 54.9071 77.1291 56.2006 77.5243 57.5311C76.7041 56.4169 75.9661 55.2443 75.3162 54.0227C73.9848 51.8462 72.069 48.8576 69.9907 45.804C68.1197 43.0132 65.9412 40.4416 63.4962 38.1375C61.8076 36.7082 60.7036 36.3508 60.736 36.091C60.7685 35.8311 62.0025 35.6037 64.1781 36.7731C67.2919 38.8529 69.8369 41.678 71.5819 44.9919Z" fill="#7D7A7C"/>
<path d="M66.8409 39.4044C68.7568 41.451 69.7959 43.4651 69.5036 43.66C69.2114 43.8549 67.7501 42.2307 65.9316 40.4115C64.1132 38.5923 62.4246 37.163 62.522 36.9681C62.6194 36.7732 65.0874 37.4229 66.8409 39.4044Z" fill="#F9E6CF"/>
<path opacity="0.5" d="M42.3566 40.2491C47.4872 44.2447 52.0983 48.2079 55.0858 51.1316C56.6769 52.5934 57.9434 53.8278 58.7877 54.6724C59.2726 55.0869 59.7084 55.5556 60.0866 56.0693C59.5619 55.7268 59.0627 55.3469 58.5928 54.9323L54.5662 51.6838C51.319 49.02 46.578 45.3492 41.3499 41.5809C36.6379 38.1447 31.7139 35.0091 26.6074 32.1927C23.1328 30.3736 21.1845 29.9838 21.217 29.6914C21.2494 29.399 23.1653 29.2691 26.8672 30.6659C32.4643 33.0982 37.6812 36.3258 42.3566 40.2491Z" fill="#7D7A7C"/>
<path d="M32.2252 33.6221C34.6906 34.9134 36.8933 36.6541 38.7197 38.7547C36.1981 37.6645 33.8027 36.3029 31.5757 34.6941C27.6465 32.2902 24.2694 30.9258 24.3668 30.5035C27.2079 30.861 29.9117 31.934 32.2252 33.6221Z" fill="#F9E6CF"/>
<path opacity="0.5" d="M54.3389 36.5782C57.9109 40.6714 60.8335 44.5696 63.139 47.4283L65.7043 50.8717C66.0407 51.2783 66.3244 51.7258 66.5486 52.2036C66.143 51.8641 65.7631 51.4949 65.4121 51.0991L62.5545 47.8506C60.1191 45.2193 56.8069 41.5485 53.04 37.6827C48.5264 33.1023 45.0193 29.6914 42.5839 27.6773C41.2599 26.6765 40.0017 25.5914 38.8171 24.4288C38.8171 24.1689 40.4732 24.4288 43.2333 26.248C47.3615 29.2023 51.0938 32.674 54.3389 36.5782Z" fill="#7D7A7C"/>
<path d="M47.0651 29.529C48.9339 30.9869 50.4723 32.8249 51.5788 34.9215C49.5739 33.7099 47.7578 32.2104 46.1883 30.471C44.3698 29.0221 42.6951 27.4012 41.1876 25.6308C43.4518 26.3977 45.4774 27.7412 47.0651 29.529Z" fill="#F9E6CF"/>
<path opacity="0.5" d="M82.9797 23.0644C83.9214 29.1067 84.5384 34.6616 84.8956 38.7223C85.0904 40.7363 85.2203 42.3931 85.3177 43.5625C85.3674 44.1571 85.3674 44.7547 85.3177 45.3492C85.1521 44.773 85.022 44.1872 84.928 43.595C84.7332 42.458 84.4409 40.8338 84.0838 38.8522C83.4343 34.824 82.4601 29.3341 81.3236 23.3893C79.8623 16.1776 78.5959 10.7851 77.5892 7.14673C76.5826 3.50839 75.7058 1.94911 75.9007 1.78668C76.0955 1.62426 77.4594 2.85869 78.8881 6.30212C80.8976 11.7118 82.2707 17.3371 82.9797 23.0644Z" fill="#7D7A7C"/>
<path d="M80.3494 11.922C81.2093 14.4501 81.5946 17.1153 81.4859 19.7834C80.3731 17.3872 79.5867 14.8524 79.1479 12.2469C78.3357 9.75361 77.7169 7.20137 77.297 4.61288C78.9019 6.75993 79.9505 9.27098 80.3494 11.922Z" fill="#F9E6CF"/>
<path opacity="0.5" d="M65.4445 33.0049C67.4578 37.098 69.049 40.9312 70.1531 43.9199C70.7051 45.3492 71.1272 46.4862 71.4195 47.1684C71.602 47.584 71.7328 48.0204 71.8092 48.4678C71.511 48.0757 71.2805 47.6365 71.1272 47.1684L69.4387 43.9199C68.0423 41.2561 66.1914 37.4229 63.8859 33.6546C61.9133 30.0834 59.7452 26.6239 57.3913 23.2918C55.8327 21.0828 54.7611 20.2382 54.8585 20.0433C54.9559 19.8484 56.3847 20.0433 58.3655 22.1224C61.3048 25.3377 63.6963 29.0141 65.4445 33.0049Z" fill="#7D7A7C"/>
<path d="M60.8984 25.7607C62.1687 27.3129 63.0385 29.1535 63.4312 31.1207C63.1065 31.3157 61.6452 29.1392 59.8268 26.4754C58.5704 24.9624 57.4816 23.3178 56.5795 21.5701C56.9043 21.1803 59.0799 22.9995 60.8984 25.7607Z" fill="#F9E6CF"/>
<path opacity="0.5" d="M65.7368 26.7353C68.5619 33.5571 70.8025 39.9242 72.2313 44.5696L74.0173 50.1245C74.243 50.8058 74.4274 51.5001 74.5693 52.2036C74.2241 51.5791 73.9308 50.9272 73.6926 50.2545L71.5819 44.8619C69.7309 40.314 67.1656 34.1094 64.1132 27.4499C61.4052 21.3767 58.2691 15.5038 54.7286 9.87548C52.2932 6.17218 50.5072 4.77532 50.6371 4.58041C50.767 4.3855 52.8452 5.13265 55.7028 8.60856C59.8682 14.1582 63.245 20.2585 65.7368 26.7353Z" fill="#7D7A7C"/>
<path d="M59.4046 14.6833C61.1712 17.3637 62.4568 20.3319 63.2039 23.4543C61.3301 20.8878 59.6891 18.159 58.3006 15.3005C55.7677 10.7526 53.2349 7.40661 53.4297 7.17921C55.992 9.16716 58.0408 11.7403 59.4046 14.6833Z" fill="#F9E6CF"/>
<path opacity="0.5" d="M59.3072 34.9865C62.5545 40.6714 65.4446 45.9989 67.4579 49.8971C68.3996 51.8462 69.2114 53.4705 69.7634 54.575C70.0563 55.1444 70.3165 55.7301 70.5427 56.3292C70.1394 55.8312 69.7808 55.2985 69.4712 54.7374L66.7435 50.4169C64.4704 46.6811 61.353 41.516 57.8135 36.026C53.5271 29.2366 50.1825 24.4288 47.812 21.1803C45.4415 17.9318 43.9802 16.5024 44.1101 16.275C44.24 16.0477 45.9935 16.8598 48.7212 19.8159C52.7675 24.4909 56.3153 29.5752 59.3072 34.9865Z" fill="#7D7A7C"/>
<path d="M52.3581 24.7862C54.1734 27.0107 55.6006 29.5257 56.5795 32.2252C54.5755 30.2119 52.8202 27.9652 51.3515 25.5333C49.5837 23.3197 47.9878 20.9739 46.578 18.5165C48.9274 20.1727 50.8977 22.3098 52.3581 24.7862Z" fill="#F9E6CF"/>
<path opacity="0.5" d="M52.9101 86.1505C55.7851 85.5585 58.6903 85.1247 61.6128 84.8511C62.8338 84.7496 64.0611 84.7496 65.2822 84.8511C64.1538 85.1583 63.0028 85.3755 61.8401 85.5008C59.6644 86.0206 56.6445 86.7353 53.4622 87.7098C49.5979 88.8793 46.7728 89.9188 44.9219 90.666C43.071 91.4131 42.0968 91.8679 41.9669 91.738C41.837 91.608 42.3241 90.6984 44.0127 89.4315C46.7602 87.8179 49.7731 86.7069 52.9101 86.1505Z" fill="#7D7A7C"/>
<path d="M46.9028 88.1971C49.2083 87.2875 51.1891 87.0601 51.2866 87.385C51.384 87.7098 49.5655 88.4894 47.3899 89.3665C46.2533 89.7889 45.3116 90.2436 44.5323 90.4386C43.7529 90.6335 43.3633 90.8933 43.2334 90.7309C43.1035 90.5685 43.4607 90.1787 44.1101 89.6589C44.9894 89.0787 45.925 88.5889 46.9028 88.1971Z" fill="#F9E6CF"/>
<path opacity="0.5" d="M30.082 91.0883C35.0597 89.8375 40.0999 88.8508 45.1817 88.1321C47.1625 87.8398 48.7537 87.6448 49.8578 87.5474C50.4411 87.4947 51.028 87.4947 51.6113 87.5474L49.9227 88.0022L45.3441 89.0417C41.4798 89.9188 36.1868 91.1532 30.5366 92.8749C25.4069 94.3672 20.4278 96.3357 15.6642 98.7548C12.4169 100.509 11.3129 101.841 11.0856 101.678C10.8582 101.516 11.6051 99.8917 14.5601 97.6827C19.2777 94.5354 24.5422 92.2988 30.082 91.0883Z" fill="#7D7A7C"/>
<path d="M19.6258 94.9865C21.9426 93.7733 24.4857 93.0543 27.0945 92.8749C24.9041 94.2092 22.5737 95.2985 20.1454 96.1234C16.3786 97.8452 13.4236 99.6643 13.1313 99.4369C12.8391 99.2095 15.6317 96.7407 19.6258 94.9865Z" fill="#F9E6CF"/>
<path opacity="0.5" d="M28.5557 88.4895C35.2451 87.4175 41.3824 86.7353 45.8636 86.313L51.1891 85.8257H53.1699C52.5494 86.0388 51.9066 86.1805 51.254 86.248L45.9935 87.1576C41.5448 87.9047 35.4399 88.9443 28.848 90.4061C20.8922 92.0303 14.9173 93.4272 10.9881 94.5967C7.05894 95.7661 5.208 96.6432 5.07811 96.4483C4.94822 96.2534 6.34454 94.8565 10.1114 93.1998C16.0643 90.9454 22.251 89.3655 28.5557 88.4895Z" fill="#7D7A7C"/>
<path d="M16.3786 91.3806C19.1742 90.4592 22.106 90.0198 25.0487 90.0812C22.3313 91.2587 19.4875 92.1198 16.5734 92.6475C13.7998 93.5361 10.9679 94.2308 8.09808 94.7266C10.59 93.0367 13.4125 91.8962 16.3786 91.3806Z" fill="#F9E6CF"/>
<path opacity="0.5" d="M26.5749 74.261C33.0694 74.9757 38.7521 75.7553 42.8112 76.405L47.812 77.2171C48.4395 77.2905 49.0591 77.421 49.6629 77.6069C49.0364 77.6642 48.406 77.6642 47.7795 77.6069L42.7138 77.2496L26.2502 76.0801C18.5542 75.5929 12.7416 75.2355 8.84494 75.1056C6.86834 75.1564 4.89104 75.0368 2.93494 74.7483C2.93494 74.5209 4.62351 73.8387 8.45527 73.5788C14.5036 73.3036 20.5644 73.5318 26.5749 74.261Z" fill="#7D7A7C"/>
<path d="M14.625 73.7412C17.4174 73.632 20.2077 74.0056 22.8731 74.8457C20.1211 75.2633 17.3263 75.3179 14.5601 75.0081C11.7961 75.0622 9.03352 74.8446 6.31207 74.3584C9.0145 73.6019 11.8406 73.3921 14.625 73.7412Z" fill="#F9E6CF"/>
<path opacity="0.5" d="M94.0203 49.7347C93.1761 53.438 92.2993 56.8165 91.6499 59.2529C91.3329 60.6015 90.9206 61.9259 90.4159 63.216C90.4547 61.8415 90.6068 60.4725 90.8705 59.1229C91.2277 56.5891 91.7473 53.1457 92.2993 49.3774C92.6859 44.7458 93.5789 40.1706 94.9621 35.7336C95.5141 35.7012 96.2285 40.1516 94.0203 49.7347Z" fill="#7D7A7C"/>
<path d="M94.9621 42.653C94.5724 45.3817 93.8905 47.4932 93.5333 47.4283C93.1608 45.8035 93.1608 44.1154 93.5333 42.4905C93.6135 40.8244 94.0218 39.1906 94.7347 37.6827C95.2543 37.7152 95.3842 39.9567 94.9621 42.653Z" fill="#F9E6CF"/>
<path opacity="0.5" d="M89.7665 33.3947C89.3768 39.5344 88.8897 45.1543 88.4676 49.2474C88.2403 51.294 88.0779 52.9507 87.948 54.0877C87.9312 54.6937 87.8329 55.2946 87.6558 55.8744C87.6011 55.2801 87.6011 54.682 87.6558 54.0877C87.6558 52.9182 87.6558 51.2615 87.6558 49.2149C87.6558 45.0893 87.8506 39.4694 87.9805 33.3297C88.1753 25.9231 88.2727 20.3357 88.3702 16.5349C88.2739 14.6325 88.3937 12.7254 88.7274 10.85C89.3119 10.7201 90.8705 17.542 89.7665 33.3947Z" fill="#7D7A7C"/>
<path d="M89.8314 21.895C90.023 24.5749 89.7483 27.2678 89.0196 29.8538C88.5056 27.2341 88.3526 24.5562 88.565 21.895C88.4128 19.2321 88.5763 16.5605 89.0521 13.9361C89.8202 16.5144 90.0848 19.2166 89.8314 21.895Z" fill="#F9E6CF"/>
<path opacity="0.5" d="M94.3126 31.673C93.4359 37.7802 92.5267 43.3676 91.7798 47.3958C91.4875 49.4099 91.0654 51.0666 91.0654 52.2036C90.9586 52.796 90.8177 53.3817 90.6433 53.9578C90.565 53.3648 90.565 52.7641 90.6433 52.1711C90.6433 51.0016 90.903 49.3449 91.0979 47.2983C91.52 43.2052 92.072 37.5528 92.689 31.4781C93.4034 24.0715 93.9555 18.484 94.3451 14.7158C94.3834 12.797 94.645 10.8891 95.1245 9.03086C95.6765 8.96589 96.7156 15.9177 94.3126 31.673Z" fill="#7D7A7C"/>
<path d="M95.3193 20.1733C95.2969 22.864 94.825 25.5321 93.923 28.0672C93.5818 25.41 93.6365 22.7169 94.0853 20.0758C94.1302 17.4008 94.4899 14.7403 95.1569 12.1494C95.7108 14.7905 95.7658 17.5119 95.3193 20.1733Z" fill="#F9E6CF"/>
<path opacity="0.5" d="M103.243 49.215C101.651 52.7558 99.9953 55.9719 98.9237 58.2783C98.3299 59.549 97.6462 60.7757 96.8779 61.9491C97.2032 60.5806 97.6487 59.2435 98.2093 57.9534C99.0861 55.4846 100.288 52.1711 101.619 48.5653C103.022 44.0689 104.703 39.6641 106.652 35.3763C107.302 35.3763 107.302 40.0866 103.243 49.215Z" fill="#7D7A7C"/>
<path d="M105.548 42.3281C104.639 44.9594 103.567 46.9735 103.243 46.8435C103.241 45.1466 103.618 43.4708 104.347 41.9383C105.256 39.3395 106.003 37.2604 106.36 37.3254C106.569 39.0362 106.287 40.7712 105.548 42.3281Z" fill="#F9E6CF"/>
<path opacity="0.5" d="M96.4883 113.828C95.8064 110.384 95.027 107.331 94.3776 104.927C93.9695 103.694 93.6441 102.435 93.4034 101.159C93.4034 101.159 93.6307 101.484 93.9554 102.101C94.2801 102.718 94.6373 103.563 95.1244 104.667C96.3248 107.524 97.3443 110.453 98.1768 113.438C100.58 121.949 98.8263 126.822 98.1768 126.595C97.5274 126.367 97.982 126.302 97.9495 125.815C97.833 125.051 97.7571 124.281 97.7222 123.508C97.5088 120.259 97.0967 117.026 96.4883 113.828Z" fill="#7D7A7C"/>
<path d="M97.8197 120.26C97.4743 118.742 97.4743 117.165 97.8197 115.647C98.1769 115.647 98.8588 117.564 99.1186 120.13C99.3783 122.696 98.8913 124.84 98.5341 124.808C98.0395 123.343 97.7979 121.805 97.8197 120.26Z" fill="#F9E6CF"/>
<path opacity="0.5" d="M98.5341 132.604L94.6698 117.239C94.1827 115.257 93.7931 113.633 93.5333 112.496C93.3725 111.921 93.2531 111.334 93.1761 110.742C93.4572 111.27 93.6856 111.825 93.858 112.399C94.2152 113.503 94.7672 115.095 95.4492 117.011C96.7481 120.91 98.4691 126.27 100.19 132.149C104.541 146.41 104.931 154.369 104.314 154.369C103.548 152.752 103.013 151.035 102.723 149.269C101.814 145.631 100.45 140.271 98.5341 132.604Z" fill="#7D7A7C"/>
<path d="M101.586 143.649C100.78 141.103 100.332 138.457 100.255 135.788C101.537 138.145 102.405 140.705 102.82 143.357C103.661 145.91 104.014 148.599 103.86 151.283C102.796 148.84 102.032 146.277 101.586 143.649Z" fill="#F9E6CF"/>
<path opacity="0.5" d="M104.444 121.884C102.561 117.109 100.677 112.788 99.3134 109.605L97.7223 105.642C97.5137 105.19 97.34 104.723 97.2027 104.245C97.2027 104.245 97.5599 104.667 98.047 105.512L100.028 109.085C101.684 112.106 103.86 116.297 106.035 121.007C108.145 125.268 109.789 129.744 110.939 134.358C111.653 137.607 111.426 139.231 111.198 139.231C110.971 139.231 109.477 134.001 104.444 121.884Z" fill="#7D7A7C"/>
<path d="M108.211 130.525C107.258 128.472 106.644 126.278 106.392 124.028C107.812 125.796 108.841 127.844 109.412 130.038C110.372 132.065 110.829 134.294 110.744 136.535C109.66 134.641 108.81 132.623 108.211 130.525Z" fill="#F9E6CF"/>
<path opacity="0.5" d="M115.809 111.911C113.634 108.663 111.393 105.966 109.77 103.92C108.843 102.887 107.976 101.802 107.172 100.671C107.172 100.671 107.529 100.866 108.081 101.354C108.633 101.841 109.412 102.556 110.354 103.465C112.794 105.808 115.082 108.303 117.206 110.937C119.596 113.711 121.407 116.936 122.531 120.422C123.148 122.859 122.824 124.191 122.531 124.191C120.653 119.909 118.404 115.8 115.809 111.911Z" fill="#7D7A7C"/>
<path d="M119.868 117.791C118.602 115.387 117.498 113.406 117.79 113.211C118.083 113.016 119.641 114.705 121.038 117.206C122.434 119.708 122.694 122.112 122.336 122.177C121.979 122.241 121.167 120.195 119.868 117.791Z" fill="#F9E6CF"/>
<path opacity="0.5" d="M112.205 96.4808C110.062 94.6292 107.951 93.0374 106.425 91.9004C105.538 91.3363 104.711 90.6832 103.957 89.9513C104.964 90.2653 105.934 90.6902 106.847 91.2182C109.106 92.3537 111.277 93.6567 113.342 95.1164C115.637 96.6129 117.55 98.6267 118.927 100.996C119.771 102.718 119.641 103.79 119.414 103.822C119.187 103.855 117.758 101.256 112.205 96.4808Z" fill="#7D7A7C"/>
<path d="M116.199 99.8593C114.868 98.3649 113.764 97.1305 113.991 96.8382C114.218 96.5458 115.712 97.4229 117.238 99.0146C118.764 100.606 119.252 102.263 118.927 102.458C118.602 102.653 117.563 101.321 116.199 99.8593Z" fill="#F9E6CF"/>
<path opacity="0.5" d="M126.785 80.1083C122.986 79.6535 119.446 79.4911 116.849 79.3287C115.447 79.3235 114.048 79.2258 112.66 79.0363C114.038 78.746 115.44 78.5829 116.849 78.549C119.446 78.3866 122.986 78.2242 126.915 78.3541C130.561 78.3286 134.174 79.0471 137.534 80.4656C139.839 81.5376 140.456 82.967 140.261 83.0644C140.066 83.1619 139.287 82.5447 137.014 81.96C133.664 81.0503 130.242 80.4308 126.785 80.1083Z" fill="#7D7A7C"/>
<path d="M133.799 80.823C131.169 80.2382 128.961 79.7835 128.993 79.4261C130.671 78.9676 132.447 79.0242 134.091 79.5885C136.884 80.1408 138.865 81.5701 138.67 81.8625C137.019 81.659 135.389 81.3111 133.799 80.823Z" fill="#F9E6CF"/>
<path opacity="0.5" d="M106.1 56.2317C104.249 58.798 102.528 61.137 101.229 62.7287C100.583 63.6784 99.855 64.5697 99.0536 65.3925C99.438 64.2555 99.95 63.1657 100.58 62.144C101.586 60.2924 103.015 57.7585 104.639 55.0298C108.503 48.5327 111.133 45.5441 111.685 45.804C112.237 46.0639 110.874 49.6048 106.1 56.2317Z" fill="#7D7A7C"/>
<path d="M109.12 51.164C107.886 53.0482 106.652 54.4126 106.36 54.2501C106.068 54.0877 106.815 52.366 108.048 50.4819C109.282 48.5977 110.516 47.2333 110.809 47.3958C111.101 47.5582 110.354 49.2799 109.12 51.164Z" fill="#F9E6CF"/>
<path opacity="0.5" d="M132.305 59.8376L119.576 65.3601L115.647 67.0493C115.179 67.2884 114.69 67.4842 114.186 67.634C114.186 67.634 114.64 67.2767 115.485 66.7569L119.219 64.6454C122.466 62.9237 126.72 60.5848 131.591 58.1484C136.019 55.8943 140.651 54.0669 145.424 52.6909C148.672 51.8463 150.49 52.0087 150.49 52.2686C150.49 52.5284 149.126 52.8858 146.171 54.0552C143.216 55.2247 138.703 57.1413 132.305 59.8376Z" fill="#7D7A7C"/>
<path d="M141.43 55.712C139.379 56.721 137.191 57.4215 134.936 57.791C136.77 56.3116 138.878 55.2078 141.138 54.5425C143.262 53.4673 145.61 52.9107 147.99 52.9183C145.923 54.1086 143.721 55.0466 141.43 55.712Z" fill="#F9E6CF"/>
<path opacity="0.5" d="M126.331 119.318C122.401 114.737 118.635 110.677 115.907 107.721L112.66 104.18C112.249 103.764 111.869 103.319 111.523 102.848C112.023 103.17 112.491 103.54 112.919 103.952L116.459 107.201C119.446 109.962 123.473 113.698 127.629 118.181C131.559 122.11 135.034 126.468 137.988 131.175C139.937 134.423 140.261 136.437 140.034 136.502C139.807 136.567 139.027 135.138 136.787 132.312C134.546 129.486 131.429 125.133 126.331 119.318Z" fill="#7D7A7C"/>
<path d="M133.767 127.731C132.003 125.765 130.498 123.582 129.286 121.234C131.457 122.753 133.319 124.671 134.773 126.887C136.585 128.832 137.929 131.165 138.703 133.709C136.897 131.855 135.246 129.856 133.767 127.731Z" fill="#F9E6CF"/>
<path opacity="0.5" d="M115.68 127.179C113.309 122.404 110.906 118.148 109.185 115.062L107.042 111.391C106.743 110.954 106.493 110.486 106.295 109.995C106.678 110.353 107.016 110.757 107.302 111.197C107.919 112.009 108.828 113.146 109.834 114.64C112.521 118.42 115.014 122.334 117.303 126.367C119.826 130.65 121.707 135.28 122.888 140.108C123.44 143.357 123.343 145.176 122.888 145.176C122.186 143.792 121.684 142.315 121.395 140.79C119.761 136.144 117.853 131.599 115.68 127.179Z" fill="#7D7A7C"/>
<path d="M120.031 136.08C119.024 134.016 118.283 131.833 117.823 129.583C119.344 131.353 120.453 133.439 121.07 135.69C121.628 137.251 122.084 138.846 122.434 140.466C122.434 141.765 122.434 142.545 122.434 142.577C122.434 142.61 121.979 141.863 121.59 140.693C121.2 139.524 120.713 137.867 120.031 136.08Z" fill="#F9E6CF"/>
<path opacity="0.5" d="M114.023 72.5393C109.64 73.189 105.97 74.2285 105.905 74.0336C106.585 73.5636 107.314 73.1713 108.081 72.8641C109.933 72.0425 111.843 71.3585 113.796 70.8175C115.891 70.1147 118.141 70.0134 120.291 70.5252C121.817 71.0774 122.239 71.9545 122.077 72.117C121.914 72.2794 121.297 72.117 120.128 72.117C118.085 72.0798 116.042 72.2211 114.023 72.5393Z" fill="#7D7A7C"/>
<path d="M118.018 71.7921C116.491 71.7921 115.16 71.7921 115.095 71.4348C115.03 71.0774 116.297 70.5577 117.985 70.5252C119.674 70.4927 121.232 71.2074 120.875 71.5322C120.518 71.8571 119.544 71.6946 118.018 71.7921Z" fill="#F9E6CF"/>
<path opacity="0.5" d="M117.953 44.2772L110.029 54.0228L107.561 56.9139C107.263 57.2942 106.925 57.6426 106.555 57.9534C106.765 57.5806 107.015 57.232 107.302 56.9139L109.445 53.6654L116.589 43.2702C123.376 33.5246 127.597 29.1716 127.987 29.464C128.376 29.7564 125.811 34.4342 117.953 44.2772Z" fill="#7D7A7C"/>
<path d="M123.213 36.8381C121.135 39.6318 119.219 41.7109 118.927 41.516C119.66 39.5104 120.761 37.6596 122.174 36.0585C124.285 33.2648 126.201 31.1857 126.493 31.3806C125.77 33.3985 124.656 35.2533 123.213 36.8381Z" fill="#F9E6CF"/>
<path opacity="0.5" d="M108.86 37.098C106.133 42.5555 103.6 47.5582 101.781 51.229C100.84 53.0157 100.06 54.4775 99.5407 55.5171C99.2703 56.0552 98.9667 56.576 98.6315 57.0763C98.7883 56.4966 98.9947 55.9314 99.2484 55.3871C99.6706 54.3151 100.288 52.7558 101.067 50.9042C102.691 47.1684 104.866 41.9708 107.302 36.3508C113.179 22.8045 117.043 16.2101 117.53 16.405C118.018 16.5999 115.842 22.967 108.86 37.098Z" fill="#7D7A7C"/>
<path d="M113.439 26.6703C112.517 29.1596 111.201 31.4848 109.542 33.5571C110.058 30.9455 110.99 28.4338 112.302 26.118C113.225 23.6187 114.54 21.2828 116.199 19.1987C115.692 21.8229 114.759 24.3466 113.439 26.6703Z" fill="#F9E6CF"/>
<path opacity="0.5" d="M122.986 90.3086C120.46 89.0609 117.857 87.9758 115.192 87.0601C114.082 86.7279 112.996 86.3153 111.945 85.8257C112.269 85.7895 112.596 85.7895 112.919 85.8257C113.791 85.9109 114.658 86.041 115.517 86.2155C118.343 86.7554 121.114 87.5491 123.798 88.5869C126.752 89.6529 129.373 91.4793 131.396 93.882C131.821 94.5711 132.201 95.2873 132.533 96.026C132.533 96.5783 132.533 96.8706 132.533 96.9356C129.699 94.2617 126.481 92.0279 122.986 90.3086Z" fill="#7D7A7C"/>
<path d="M128.246 93.0698C127.429 92.5383 126.648 91.9522 125.908 91.3156C125.259 90.8608 124.934 90.5035 124.999 90.3411C125.064 90.1787 125.584 90.3411 126.331 90.536C127.269 90.9707 128.17 91.4813 129.026 92.0628C129.826 92.725 130.536 93.4895 131.136 94.3368C131.526 95.0514 131.689 95.5387 131.559 95.6362C131.429 95.7336 131.007 95.4412 130.487 94.9215C129.967 94.4017 129.058 93.8495 128.246 93.0698Z" fill="#F9E6CF"/>
<path opacity="0.5" d="M138.41 88.392C132.89 87.1576 127.759 86.2805 124.057 85.6632L119.609 84.9161C119.059 84.8378 118.517 84.7184 117.985 84.5587C118.536 84.5163 119.09 84.5163 119.641 84.5587L124.122 84.8836C127.922 85.2084 133.117 85.6957 138.735 86.6703C143.95 87.3985 149.028 88.8984 153.802 91.1207C157.05 92.745 158.089 94.3692 157.926 94.5966C157.764 94.824 156.562 93.7845 153.478 92.6475C148.568 90.8563 143.532 89.4338 138.41 88.392Z" fill="#7D7A7C"/>
<path d="M148.639 90.6985C146.248 90.1598 143.935 89.3193 141.755 88.1971C144.241 88.1165 146.717 88.5477 149.029 89.464C151.462 90.011 153.705 91.2 155.523 92.9074C153.19 92.296 150.892 91.5586 148.639 90.6985Z" fill="#F9E6CF"/>
<path opacity="0.5" d="M106.62 32.9399C104.347 39.242 102.171 45.0244 100.515 49.1825C99.6706 51.2615 98.9887 52.9507 98.534 54.1202C98.3312 54.7498 98.0474 55.3504 97.6898 55.9069C97.8275 55.2696 98.0009 54.6405 98.2093 54.0228C98.5665 52.7883 99.1185 51.0666 99.768 48.9226C101.132 44.6346 103.015 38.7547 104.964 32.3877L110.549 14.8782C111.047 12.8518 111.777 10.8897 112.725 9.03087C113.277 9.09584 112.562 16.6324 106.62 32.9399Z" fill="#7D7A7C"/>
<path d="M110.257 20.8879C109.601 23.7467 108.505 26.4864 107.009 29.0092C107.326 26.1071 108.013 23.2576 109.055 20.5306C109.716 17.6953 110.708 14.9477 112.01 12.3443C111.928 15.2727 111.335 18.1642 110.257 20.8879Z" fill="#F9E6CF"/>
<path opacity="0.5" d="M124.35 101.451C121.102 99.4694 118.342 97.7802 116.199 96.5782C115.002 95.9644 113.842 95.281 112.725 94.5317C113.082 94.582 113.432 94.6804 113.764 94.824C114.446 95.0514 115.387 95.3763 116.524 95.8636C119.517 97.0581 122.435 98.4359 125.259 99.9892C128.318 101.606 131.085 103.725 133.442 106.259C134.903 108.175 135.325 109.28 135.066 109.507C134.806 109.735 132.208 106.681 124.35 101.451Z" fill="#7D7A7C"/>
<path d="M130.032 105.154C127.954 103.53 126.331 102.133 126.525 101.906C126.72 101.678 128.701 102.523 130.812 104.18C131.688 104.925 132.502 105.74 133.247 106.616C133.767 107.396 133.994 107.916 133.864 108.013C133.734 108.11 133.247 107.818 132.63 107.266C132.013 106.714 131.072 105.966 130.032 105.154Z" fill="#F9E6CF"/>
<path opacity="0.5" d="M145.782 73.1565C141.852 73.1565 138.215 73.6437 135.553 73.9036C134.122 74.1094 132.679 74.2287 131.234 74.261C131.579 74.0733 131.952 73.9417 132.338 73.8711L135.423 73.124C138.809 72.3685 142.235 71.8046 145.684 71.4348C149.382 70.8869 153.149 71.0412 156.79 71.8896C159.29 72.6367 160.264 73.7087 160.037 73.8711C159.81 74.0336 158.868 73.8711 156.627 73.4488C153.026 73.0647 149.399 72.967 145.782 73.1565Z" fill="#7D7A7C"/>
<path d="M153.153 72.7991C151.417 72.9048 149.677 72.6844 148.022 72.1494C149.661 71.4551 151.462 71.2411 153.218 71.5322C156.14 71.6946 158.413 72.6692 158.284 73.0265C156.57 73.1494 154.849 73.0731 153.153 72.7991Z" fill="#F9E6CF"/>
<path opacity="0.5" d="M141.203 65.62L130.682 68.4137L127.435 69.2583C126.655 69.4532 126.233 69.5506 126.201 69.4857C126.561 69.2651 126.941 69.0801 127.337 68.9334L130.422 67.6665C133.052 66.627 136.689 65.2951 140.683 63.9632C144.359 62.6644 148.156 61.7393 152.016 61.202C154.647 60.9096 156.043 61.202 156.01 61.4943C151.177 63.2136 146.229 64.5922 141.203 65.62Z" fill="#7D7A7C"/>
<path d="M148.704 63.411C146.962 64.0582 145.102 64.3241 143.249 64.1906C144.773 63.1186 146.533 62.428 148.379 62.1765C150.147 61.5357 152.055 61.3897 153.9 61.7542C152.274 62.5955 150.517 63.1557 148.704 63.411Z" fill="#F9E6CF"/>
<path opacity="0.5" d="M130.779 45.5766C126.98 48.3054 123.538 50.9042 121.038 52.7558L118.05 54.9973C117.696 55.2981 117.303 55.5495 116.881 55.7445C117.158 55.3763 117.474 55.0387 117.823 54.7374L120.55 52.1711C122.856 50.0271 126.071 47.1684 129.74 44.1798C133.046 41.3679 136.65 38.9277 140.489 36.9031C143.151 35.6037 144.807 35.5387 144.807 35.7661C144.807 35.9935 143.768 36.5457 141.56 38.105C139.352 39.6643 135.715 42.0682 130.779 45.5766Z" fill="#7D7A7C"/>
<path d="M137.728 40.2815C136.152 41.5963 134.346 42.6094 132.403 43.2702C132.208 42.9778 134.221 41.0937 137.014 39.2095C138.614 37.871 140.542 36.985 142.599 36.6432C142.762 36.9681 140.489 38.3974 137.728 40.2815Z" fill="#F9E6CF"/>
<path opacity="0.5" d="M140.196 94.4342C136.3 92.8749 132.598 91.738 129.87 90.9258L126.623 89.9838L125.454 89.5615C125.454 89.5615 125.908 89.5615 126.688 89.5615C127.467 89.5615 128.636 89.8213 129.935 90.0487C133.557 90.7056 137.136 91.5844 140.651 92.68C144.506 93.7315 148.078 95.6292 151.107 98.235C153.088 100.184 153.445 101.678 153.185 101.776C152.926 101.873 152.244 100.964 150.328 99.5669C147.174 97.4458 143.772 95.7219 140.196 94.4342Z" fill="#7D7A7C"/>
<path d="M147.405 97.3904C144.807 95.896 142.599 94.824 142.762 94.4667C144.655 94.5484 146.483 95.1806 148.022 96.2859C150.75 97.8127 152.373 99.9242 152.049 100.152C150.442 99.3345 148.891 98.4121 147.405 97.3904Z" fill="#F9E6CF"/>
<path opacity="0.5" d="M124.804 113.016C121.135 109.377 117.563 106.226 115.063 103.952L111.815 101.224C111.41 100.919 111.04 100.57 110.711 100.184C111.171 100.396 111.607 100.657 112.01 100.964C112.822 101.516 113.991 102.296 115.257 103.335C118.083 105.382 121.752 108.273 125.843 111.749C129.569 114.856 132.847 118.464 135.585 122.469C137.209 125.295 137.696 126.919 137.436 127.049C137.176 127.179 136.332 126.01 134.514 123.573C132.695 121.137 129.578 117.694 124.804 113.016Z" fill="#7D7A7C"/>
<path d="M131.721 119.74C129.286 116.979 127.305 114.705 127.565 114.445C127.824 114.185 130.195 116.102 132.663 118.928C133.709 120.156 134.664 121.459 135.52 122.826C136.105 123.898 136.332 124.645 136.202 124.743C136.072 124.84 135.553 124.256 134.806 123.346C134.059 122.436 132.922 121.137 131.721 119.74Z" fill="#F9E6CF"/>
<path opacity="0.5" d="M115.939 120.877C113.666 117.011 111.458 113.503 109.867 110.937L108.016 107.883C107.764 107.52 107.557 107.127 107.399 106.714C107.735 106.996 108.03 107.324 108.276 107.688C108.828 108.37 109.607 109.312 110.516 110.482C112.367 112.886 114.868 116.199 117.401 119.935C123.895 128.901 124.999 134.878 124.48 134.976C123.96 135.073 121.979 130.818 115.939 120.877Z" fill="#7D7A7C"/>
<path d="M120.485 127.926C119.345 126.32 118.518 124.513 118.05 122.599C118.342 122.404 119.966 124.483 121.59 127.309C122.743 128.942 123.458 130.843 123.668 132.832C123.311 132.962 122.077 130.688 120.485 127.926Z" fill="#F9E6CF"/>
<path opacity="0.5" d="M136.527 103.757C133.28 101.906 130.26 100.509 128.052 99.242C126.812 98.6995 125.617 98.0586 124.48 97.3254C125.81 97.6162 127.113 98.0183 128.376 98.5274C131.428 99.5886 134.42 100.814 137.339 102.198C140.54 103.591 143.457 105.562 145.944 108.013C147.6 109.767 147.827 111.262 147.633 111.262C147.438 111.262 146.756 110.612 145.067 109.312C142.342 107.281 139.489 105.425 136.527 103.757Z" fill="#7D7A7C"/>
<path d="M142.632 107.071C140.456 105.577 138.703 104.31 138.897 103.822C139.092 103.335 141.106 104.31 143.346 105.869C145.587 107.428 146.918 109.28 146.593 109.507C146.269 109.735 144.775 108.533 142.632 107.071Z" fill="#F9E6CF"/>
<path opacity="0.5" d="M128.052 51.2615L118.31 57.921L115.322 59.9675C114.972 60.2392 114.59 60.4682 114.186 60.6497C114.467 60.3042 114.782 59.9885 115.127 59.7076L117.823 57.3037C120.096 55.3221 123.311 52.6584 126.915 49.8322C130.199 47.1891 133.746 44.8921 137.501 42.9778C140.034 41.7109 141.56 41.516 141.625 41.7434C137.289 45.1762 132.756 48.3542 128.052 51.2615Z" fill="#7D7A7C"/>
<path d="M134.838 46.2588C132.143 48.013 129.87 49.5073 129.643 49.0525C129.415 48.5977 131.429 46.9735 134.156 45.1868C135.702 43.8999 137.563 43.0478 139.547 42.7179C138.166 44.1301 136.578 45.3241 134.838 46.2588Z" fill="#F9E6CF"/>
<path opacity="0.5" d="M70.77 140.011L75.0564 126.465L76.3878 122.306C76.5056 121.782 76.7027 121.278 76.9723 120.812C76.9229 121.348 76.8361 121.88 76.7125 122.404C76.4852 123.411 76.1929 124.873 75.8033 126.659C74.9915 130.233 73.8549 135.171 72.556 140.498C69.3088 153.492 66.0615 159.697 65.5095 159.437C64.9574 159.177 66.5811 153.557 70.77 140.011Z" fill="#7D7A7C"/>
<path d="M68.0748 149.919C68.6046 147.572 69.5034 145.324 70.7375 143.259C70.6758 145.667 70.1808 148.044 69.2763 150.276C68.7364 152.59 67.7909 154.79 66.4836 156.773C66.6202 154.414 67.1583 152.096 68.0748 149.919Z" fill="#F9E6CF"/>
<path opacity="0.5" d="M104.314 27.2225C102.723 32.2252 101.067 36.7407 99.8979 40.0217L98.4042 43.9199C98.2404 44.4029 98.0339 44.8704 97.7872 45.3167C97.8404 44.8429 97.9382 44.3752 98.0794 43.9199L99.151 39.8917C100.06 36.6432 101.294 31.8679 102.626 26.8977C104.217 20.823 105.386 16.275 106.23 13.0915C106.478 11.4095 106.925 9.76293 107.561 8.18625C107.789 8.18625 108.146 9.68056 107.789 12.7991C107.059 17.7001 105.896 22.5268 104.314 27.2225Z" fill="#7D7A7C"/>
<path d="M106.62 17.7044C106.308 20.011 105.511 22.2253 104.282 24.2014C104.285 21.9257 104.658 19.6656 105.386 17.5095C105.749 15.2679 106.404 13.0837 107.334 11.0125C107.609 13.2684 107.365 15.5574 106.62 17.7044Z" fill="#F9E6CF"/>
<path opacity="0.5" d="M120.291 46.9085C117.79 49.4748 115.485 51.8462 113.796 53.4055C112.91 54.3624 111.955 55.2527 110.939 56.0693C111.597 54.9201 112.358 53.8328 113.212 52.8208C114.673 50.9042 116.751 48.3379 119.024 45.5441C124.512 38.7872 128.052 35.7986 128.409 36.2534C128.766 36.7082 126.558 40.2166 120.291 46.9085Z" fill="#7D7A7C"/>
<path d="M124.415 41.7109C122.694 43.6275 121.167 44.9594 120.843 44.797C120.518 44.6345 121.752 42.8154 123.473 40.8663C125.194 38.9172 126.72 37.6178 127.012 37.8127C127.305 38.0076 126.103 39.7943 124.415 41.7109Z" fill="#F9E6CF"/>
<path opacity="0.5" d="M116.232 38.3324L108.341 49.6373L105.873 53.0807C105.574 53.511 105.237 53.9133 104.866 54.2826C105.059 53.7952 105.298 53.3274 105.581 52.8858L107.691 49.215C109.542 46.1614 112.043 41.9383 114.77 37.3904C121.492 26.3779 125.746 21.1478 126.168 21.4402C126.59 21.7325 124.057 26.9951 116.232 38.3324Z" fill="#7D7A7C"/>
<path d="M121.46 29.8538C120.335 31.9287 118.838 33.7787 117.043 35.3113C117.75 33.0868 118.849 31.0072 120.291 29.1716C121.364 27.0993 122.818 25.2478 124.577 23.7141C123.905 25.9273 122.85 28.0053 121.46 29.8538Z" fill="#F9E6CF"/>
</g>
</g>
</svg>
