<svg width="31" height="30" viewBox="0 0 31 30" fill="none" xmlns="http://www.w3.org/2000/svg">
<path d="M24.5024 1.13425C24.0121 1.76003 23.6115 2.27565 23.6115 2.28502C23.6115 2.2944 23.7358 2.4819 23.8877 2.70221C25.6121 5.20766 26.8001 8.11859 27.3572 11.2147C27.6818 13.0123 27.7716 14.9881 27.6105 16.8396C27.2859 20.6037 25.916 24.3888 23.7818 27.4146L23.5977 27.6771L24.4955 28.8325C24.9882 29.4677 25.3957 29.9903 25.398 29.995C25.4095 30.0044 25.9874 29.2099 26.2567 28.8161C27.9305 26.3552 29.1806 23.4794 29.8644 20.5193C30.6126 17.2779 30.6978 13.999 30.1176 10.7342C29.6687 8.19593 28.7731 5.61313 27.5644 3.35846C26.9866 2.28502 26.2729 1.16472 25.5822 0.250658L25.3934 -0.000120163L24.5024 1.13425Z" fill="#000055"/>
<path d="M3.83595 10.6875H2.16913H0.5V14.9765V19.2656H2.16452H3.82905C3.82905 19.2656 13.6451 29.2452 13.6543 29.2476C13.6635 29.2499 13.6704 22.8281 13.6704 14.9765C13.6704 7.12502 13.6658 0.703175 13.6612 0.703175L3.83595 10.6875Z" fill="#000055"/>
<path d="M20.8649 5.75835C20.3837 6.37241 19.9762 6.8974 19.9578 6.92553C19.9302 6.97006 19.9417 7.00053 20.0844 7.25599C20.2916 7.6263 20.7244 8.53333 20.8856 8.93411C21.4911 10.4318 21.8525 11.9224 22.0206 13.6169C22.0782 14.2028 22.0782 15.82 22.0206 16.4059C21.8502 18.1286 21.475 19.652 20.8419 21.1872C20.6162 21.7333 20.3492 22.2794 19.9417 23.0176C19.9325 23.034 21.7443 25.3426 21.7743 25.3543C21.8019 25.3661 22.2186 24.6934 22.5386 24.1168C22.7343 23.7676 23.1119 23.0012 23.3007 22.57C24.0005 20.9739 24.5093 19.1387 24.7304 17.3927C24.8455 16.5067 24.8685 16.0872 24.8708 15.0231C24.8708 14.0458 24.857 13.7739 24.7764 13.0192C24.4679 10.1388 23.4756 7.30521 21.9308 4.89116C21.841 4.75288 21.7628 4.64038 21.7536 4.64038C21.7466 4.64038 21.3461 5.14429 20.8649 5.75835Z" fill="#000055"/>
<path d="M16.9925 10.6875L16.0002 11.9507L16.044 12.0984C16.1246 12.3585 16.2443 12.8695 16.3041 13.1953C16.4262 13.8796 16.4446 14.107 16.4446 15.0117C16.4446 15.7546 16.4377 15.9023 16.3916 16.2421C16.3249 16.7413 16.2259 17.2452 16.1084 17.6695L16.0164 18.007L16.1269 18.1499C16.364 18.4593 17.9595 20.4983 17.9894 20.5288C18.0055 20.5476 18.0262 20.5569 18.0354 20.5499C18.0423 20.5405 18.1344 20.3319 18.2403 20.0812C18.7422 18.8952 19.0645 17.639 19.2096 16.3124C19.2602 15.8507 19.2786 14.6203 19.2441 14.1281C19.1313 12.5765 18.7652 11.0953 18.1436 9.69372C18.0815 9.55075 18.0216 9.43356 18.0078 9.43122C17.9963 9.42653 17.5404 9.99372 16.9925 10.6875Z" fill="#000055"/>
</svg>
